<svg width="525" height="269" viewBox="0 0 525 269" fill="none" xmlns="http://www.w3.org/2000/svg">
<path d="M98.3467 53.8H99.8667V63.5867H104.133V65H98.3467V53.8ZM107.86 65.16C107.354 65.16 106.9 65.0667 106.5 64.88C106.109 64.6844 105.803 64.4178 105.58 64.08C105.367 63.7333 105.26 63.3422 105.26 62.9067V62.8C105.26 62.3467 105.372 61.9333 105.594 61.56C105.816 61.1867 106.149 60.8889 106.594 60.6667C107.047 60.4444 107.598 60.3333 108.247 60.3333H110.46V59.8133C110.46 59.2267 110.305 58.7733 109.994 58.4533C109.683 58.1244 109.252 57.96 108.7 57.96C108.256 57.96 107.869 58.0711 107.54 58.2933C107.22 58.5156 106.972 58.8356 106.794 59.2533L105.487 59C105.772 58.2622 106.203 57.72 106.78 57.3733C107.358 57.0178 108.02 56.84 108.767 56.84C109.736 56.84 110.487 57.1022 111.02 57.6267C111.554 58.1422 111.82 58.8533 111.82 59.76V65H110.5V63.8533C110.225 64.2444 109.865 64.56 109.42 64.8C108.976 65.04 108.456 65.16 107.86 65.16ZM106.674 62.68C106.674 63.0978 106.816 63.4311 107.1 63.68C107.385 63.92 107.763 64.04 108.234 64.04C108.652 64.04 109.029 63.9467 109.367 63.76C109.705 63.5733 109.972 63.3156 110.167 62.9867C110.363 62.6489 110.46 62.2667 110.46 61.84V61.2667H108.42C107.86 61.2667 107.429 61.3956 107.127 61.6533C106.825 61.9111 106.674 62.2533 106.674 62.68ZM117.586 65.16C117.017 65.16 116.515 65.0311 116.079 64.7733C115.653 64.5156 115.324 64.1733 115.092 63.7467V65H113.799V53.8H115.213V58.2133C115.435 57.7956 115.755 57.4622 116.173 57.2133C116.59 56.9644 117.075 56.84 117.626 56.84C118.221 56.84 118.773 56.9911 119.279 57.2933C119.786 57.5867 120.19 58.0356 120.493 58.64C120.804 59.2356 120.959 59.9556 120.959 60.8V61.2C120.959 62.0533 120.804 62.7778 120.493 63.3733C120.19 63.9689 119.781 64.4178 119.266 64.72C118.759 65.0133 118.199 65.16 117.586 65.16ZM115.159 61.04C115.159 61.9556 115.364 62.6711 115.773 63.1867C116.181 63.6933 116.706 63.9467 117.346 63.9467C117.764 63.9467 118.137 63.8356 118.466 63.6133C118.795 63.3822 119.053 63.0489 119.239 62.6133C119.435 62.1778 119.533 61.6533 119.533 61.04V60.96C119.533 60.3467 119.435 59.8222 119.239 59.3867C119.053 58.9422 118.795 58.6089 118.466 58.3867C118.137 58.1644 117.764 58.0533 117.346 58.0533C116.706 58.0533 116.181 58.3067 115.773 58.8133C115.364 59.32 115.159 60.0356 115.159 60.96V61.04ZM128.969 63.0533C128.684 63.7556 128.24 64.2978 127.635 64.68C127.031 65.0533 126.355 65.24 125.609 65.24C124.915 65.24 124.284 65.0756 123.715 64.7467C123.155 64.4178 122.711 63.9378 122.382 63.3067C122.053 62.6756 121.889 61.9289 121.889 61.0667V60.9333C121.889 60.0711 122.049 59.3244 122.369 58.6933C122.689 58.0622 123.124 57.5822 123.675 57.2533C124.235 56.9244 124.853 56.76 125.529 56.76C126.204 56.76 126.817 56.9244 127.369 57.2533C127.92 57.5822 128.355 58.0622 128.675 58.6933C129.004 59.3244 129.169 60.0711 129.169 60.9333V61.3067H123.275C123.284 61.8578 123.391 62.3378 123.595 62.7467C123.8 63.1556 124.08 63.4711 124.435 63.6933C124.791 63.9156 125.195 64.0267 125.649 64.0267C126.075 64.0267 126.462 63.9244 126.809 63.72C127.164 63.5067 127.44 63.2 127.635 62.8L128.969 63.0533ZM127.742 60.3733C127.689 59.5822 127.453 58.9689 127.035 58.5333C126.617 58.0978 126.115 57.88 125.529 57.88C124.933 57.88 124.426 58.0978 124.009 58.5333C123.6 58.9689 123.369 59.5822 123.315 60.3733H127.742ZM132.387 65C131.827 65 131.387 64.8489 131.067 64.5467C130.747 64.2356 130.587 63.7733 130.587 63.16V53.8H132.014V62.8933C132.014 63.2044 132.072 63.4311 132.187 63.5733C132.312 63.7156 132.498 63.7867 132.747 63.7867H133.174V65H132.387Z" fill="#1B1B1B"/>
<path d="M98.26 76.2H99.31V85.02H103.125V86H98.26V76.2ZM106.444 86.14C106.009 86.14 105.62 86.0622 105.278 85.9067C104.935 85.7433 104.667 85.5139 104.473 85.2183C104.278 84.9228 104.181 84.5844 104.181 84.2033V84.11C104.181 83.7133 104.278 83.3556 104.473 83.0367C104.667 82.7178 104.959 82.465 105.347 82.2783C105.736 82.0839 106.211 81.9867 106.771 81.9867H108.789V81.4267C108.789 80.8667 108.641 80.4311 108.346 80.12C108.05 79.8011 107.638 79.6417 107.109 79.6417C106.689 79.6417 106.324 79.7506 106.012 79.9683C105.701 80.1783 105.46 80.4856 105.289 80.89L104.391 80.7033C104.632 80.0811 104.994 79.6183 105.476 79.315C105.958 79.0117 106.518 78.86 107.156 78.86C107.965 78.86 108.595 79.0856 109.046 79.5367C109.505 79.98 109.734 80.5906 109.734 81.3683V86H108.824V84.88C108.575 85.2611 108.249 85.5683 107.844 85.8017C107.448 86.0272 106.981 86.14 106.444 86.14ZM105.161 84.04C105.161 84.4444 105.301 84.7672 105.581 85.0083C105.861 85.2417 106.226 85.3583 106.678 85.3583C107.074 85.3583 107.432 85.2689 107.751 85.09C108.078 84.9111 108.33 84.6622 108.509 84.3433C108.696 84.0244 108.789 83.6667 108.789 83.27V82.64H106.888C106.335 82.64 105.908 82.7722 105.604 83.0367C105.309 83.2933 105.161 83.6278 105.161 84.04ZM114.703 86.14C114.174 86.14 113.711 86.0117 113.314 85.755C112.925 85.4983 112.63 85.1522 112.428 84.7167V86H111.529V76.2H112.509V80.2367C112.711 79.8167 113.003 79.4822 113.384 79.2333C113.765 78.9844 114.213 78.86 114.726 78.86C115.247 78.86 115.725 78.9922 116.161 79.2567C116.596 79.5211 116.946 79.9178 117.211 80.4467C117.475 80.9678 117.608 81.6056 117.608 82.36V82.64C117.608 83.3944 117.475 84.0361 117.211 84.565C116.954 85.0861 116.604 85.4789 116.161 85.7433C115.718 86.0078 115.231 86.14 114.703 86.14ZM112.474 82.535C112.474 83.1183 112.564 83.62 112.743 84.04C112.921 84.4522 113.166 84.7672 113.478 84.985C113.796 85.195 114.15 85.3 114.539 85.3C114.936 85.3 115.29 85.195 115.601 84.985C115.92 84.7672 116.169 84.4522 116.348 84.04C116.534 83.62 116.628 83.1183 116.628 82.535V82.465C116.628 81.8817 116.534 81.3839 116.348 80.9717C116.169 80.5517 115.92 80.2367 115.601 80.0267C115.29 79.8089 114.936 79.7 114.539 79.7C114.15 79.7 113.796 79.8089 113.478 80.0267C113.166 80.2367 112.921 80.5517 112.743 80.9717C112.564 81.3839 112.474 81.8817 112.474 82.465V82.535ZM124.506 84.3433C124.257 84.9422 123.88 85.405 123.375 85.7317C122.869 86.0506 122.297 86.21 121.66 86.21C121.069 86.21 120.532 86.0661 120.05 85.7783C119.567 85.4906 119.186 85.0744 118.906 84.53C118.634 83.9778 118.498 83.3244 118.498 82.57V82.43C118.498 81.6756 118.634 81.0261 118.906 80.4817C119.179 79.9294 119.548 79.5094 120.015 79.2217C120.489 78.9339 121.014 78.79 121.59 78.79C122.165 78.79 122.686 78.9339 123.153 79.2217C123.627 79.5094 124.001 79.9256 124.273 80.47C124.545 81.0144 124.681 81.6639 124.681 82.4183V82.6867H119.455C119.462 83.2311 119.56 83.7056 119.746 84.11C119.933 84.5144 120.194 84.8256 120.528 85.0433C120.862 85.2611 121.247 85.37 121.683 85.37C122.095 85.37 122.469 85.2689 122.803 85.0667C123.137 84.8567 123.394 84.5533 123.573 84.1567L124.506 84.3433ZM123.701 82.0333C123.67 81.5122 123.557 81.0689 123.363 80.7033C123.169 80.33 122.916 80.05 122.605 79.8633C122.301 79.6689 121.963 79.5717 121.59 79.5717C121.216 79.5717 120.874 79.6689 120.563 79.8633C120.26 80.05 120.011 80.33 119.816 80.7033C119.622 81.0689 119.513 81.5122 119.49 82.0333H123.701ZM127.503 86C127.044 86 126.686 85.8756 126.43 85.6267C126.173 85.3778 126.045 84.9967 126.045 84.4833V76.2H127.025V84.3083C127.025 84.6117 127.083 84.8294 127.2 84.9617C127.316 85.0939 127.495 85.16 127.736 85.16H128.098V86H127.503ZM134.291 86.14C133.653 86.14 133.081 85.9961 132.576 85.7083C132.078 85.4128 131.685 84.9578 131.397 84.3433L132.237 83.9933C132.642 84.8956 133.318 85.3467 134.267 85.3467C134.765 85.3467 135.166 85.2378 135.469 85.02C135.772 84.7944 135.924 84.4872 135.924 84.0983C135.924 83.7483 135.796 83.48 135.539 83.2933C135.282 83.1067 134.921 82.9706 134.454 82.885L133.556 82.7217C132.241 82.4806 131.584 81.8778 131.584 80.9133C131.584 80.5244 131.681 80.1744 131.876 79.8633C132.07 79.5522 132.354 79.3072 132.727 79.1283C133.108 78.9494 133.556 78.86 134.069 78.86C134.66 78.86 135.189 78.9922 135.656 79.2567C136.13 79.5133 136.511 79.8983 136.799 80.4117L135.959 80.7617C135.772 80.3961 135.52 80.12 135.201 79.9333C134.882 79.7467 134.516 79.6533 134.104 79.6533C133.637 79.6533 133.26 79.7661 132.972 79.9917C132.685 80.2094 132.541 80.5011 132.541 80.8667C132.541 81.1856 132.653 81.4306 132.879 81.6017C133.105 81.7728 133.412 81.8933 133.801 81.9633L134.687 82.1267C135.395 82.2589 135.936 82.4767 136.309 82.78C136.69 83.0833 136.881 83.5033 136.881 84.04C136.881 84.4444 136.776 84.8061 136.566 85.125C136.356 85.4439 136.056 85.6928 135.667 85.8717C135.278 86.0506 134.82 86.14 134.291 86.14ZM143.299 86H142.389V84.88C142.179 85.2922 141.887 85.6072 141.514 85.825C141.14 86.035 140.724 86.14 140.265 86.14C139.542 86.14 138.963 85.9067 138.527 85.44C138.099 84.9733 137.885 84.3472 137.885 83.5617V79H138.865V83.34C138.865 83.9467 139.013 84.425 139.309 84.775C139.604 85.1172 140.001 85.2883 140.499 85.2883C140.856 85.2883 141.171 85.1989 141.444 85.02C141.724 84.8411 141.938 84.5961 142.085 84.285C142.241 83.9661 142.319 83.6122 142.319 83.2233V79H143.299V86ZM145.094 79H145.992V80.2833C146.194 79.8478 146.49 79.5017 146.879 79.245C147.275 78.9883 147.738 78.86 148.267 78.86C148.796 78.86 149.282 78.9922 149.725 79.2567C150.169 79.5211 150.519 79.9178 150.775 80.4467C151.04 80.9678 151.172 81.6056 151.172 82.36V82.64C151.172 83.3944 151.04 84.0361 150.775 84.565C150.511 85.0861 150.161 85.4789 149.725 85.7433C149.29 86.0078 148.811 86.14 148.29 86.14C147.777 86.14 147.33 86.0156 146.949 85.7667C146.568 85.5178 146.276 85.1833 146.074 84.7633V88.8H145.094V79ZM146.039 82.535C146.039 83.1183 146.128 83.62 146.307 84.04C146.486 84.4522 146.731 84.7672 147.042 84.985C147.361 85.195 147.715 85.3 148.104 85.3C148.5 85.3 148.854 85.195 149.165 84.985C149.484 84.7672 149.733 84.4522 149.912 84.04C150.099 83.62 150.192 83.1183 150.192 82.535V82.465C150.192 81.8817 150.099 81.3839 149.912 80.9717C149.733 80.5517 149.484 80.2367 149.165 80.0267C148.854 79.8089 148.5 79.7 148.104 79.7C147.715 79.7 147.361 79.8089 147.042 80.0267C146.731 80.2367 146.486 80.5517 146.307 80.9717C146.128 81.3839 146.039 81.8817 146.039 82.465V82.535ZM152.517 79H153.416V80.2833C153.618 79.8478 153.914 79.5017 154.302 79.245C154.699 78.9883 155.162 78.86 155.691 78.86C156.22 78.86 156.706 78.9922 157.149 79.2567C157.592 79.5211 157.942 79.9178 158.199 80.4467C158.464 80.9678 158.596 81.6056 158.596 82.36V82.64C158.596 83.3944 158.464 84.0361 158.199 84.565C157.935 85.0861 157.585 85.4789 157.149 85.7433C156.714 86.0078 156.235 86.14 155.714 86.14C155.201 86.14 154.754 86.0156 154.372 85.7667C153.991 85.5178 153.7 85.1833 153.497 84.7633V88.8H152.517V79ZM153.462 82.535C153.462 83.1183 153.552 83.62 153.731 84.04C153.91 84.4522 154.155 84.7672 154.466 84.985C154.785 85.195 155.139 85.3 155.527 85.3C155.924 85.3 156.278 85.195 156.589 84.985C156.908 84.7672 157.157 84.4522 157.336 84.04C157.522 83.62 157.616 83.1183 157.616 82.535V82.465C157.616 81.8817 157.522 81.3839 157.336 80.9717C157.157 80.5517 156.908 80.2367 156.589 80.0267C156.278 79.8089 155.924 79.7 155.527 79.7C155.139 79.7 154.785 79.8089 154.466 80.0267C154.155 80.2367 153.91 80.5517 153.731 80.9717C153.552 81.3839 153.462 81.8817 153.462 82.465V82.535ZM162.578 86.21C162.002 86.21 161.477 86.0661 161.003 85.7783C160.536 85.4906 160.167 85.0744 159.895 84.53C159.622 83.9778 159.486 83.3244 159.486 82.57V82.43C159.486 81.6756 159.622 81.0261 159.895 80.4817C160.167 79.9294 160.536 79.5094 161.003 79.2217C161.477 78.9339 162.002 78.79 162.578 78.79C163.154 78.79 163.675 78.9339 164.141 79.2217C164.616 79.5094 164.989 79.9294 165.261 80.4817C165.534 81.0261 165.67 81.6756 165.67 82.43V82.57C165.67 83.3244 165.534 83.9778 165.261 84.53C164.989 85.0744 164.616 85.4906 164.141 85.7783C163.675 86.0661 163.154 86.21 162.578 86.21ZM160.466 82.535C160.466 83.1339 160.56 83.6472 160.746 84.075C160.933 84.495 161.186 84.8178 161.505 85.0433C161.824 85.2611 162.181 85.37 162.578 85.37C162.975 85.37 163.332 85.2611 163.651 85.0433C163.97 84.8178 164.223 84.495 164.41 84.075C164.596 83.6472 164.69 83.1339 164.69 82.535V82.465C164.69 81.8661 164.596 81.3567 164.41 80.9367C164.223 80.5089 163.97 80.1861 163.651 79.9683C163.332 79.7428 162.975 79.63 162.578 79.63C162.181 79.63 161.824 79.7428 161.505 79.9683C161.186 80.1861 160.933 80.5089 160.746 80.9367C160.56 81.3567 160.466 81.8661 160.466 82.465V82.535ZM167.045 79H167.955V80.68C168.172 80.1433 168.519 79.7194 168.993 79.4083C169.467 79.0894 170.004 78.93 170.603 78.93V79.91C170.082 79.91 169.627 80.0344 169.238 80.2833C168.849 80.5244 168.55 80.8628 168.34 81.2983C168.13 81.7261 168.025 82.22 168.025 82.78V86H167.045V79ZM174.203 86C173.682 86 173.27 85.86 172.966 85.58C172.663 85.3 172.511 84.8722 172.511 84.2967V79.84H171.333V79H172.546V76.9H173.456V79H175.463V79.84H173.491V84.11C173.491 84.81 173.806 85.16 174.436 85.16H175.463V86H174.203ZM181.627 86C181.106 86 180.693 85.86 180.39 85.58C180.087 85.3 179.935 84.8722 179.935 84.2967V79.84H178.757V79H179.97V76.9H180.88V79H182.887V79.84H180.915V84.11C180.915 84.81 181.23 85.16 181.86 85.16H182.887V86H181.627ZM189.584 84.3433C189.336 84.9422 188.958 85.405 188.453 85.7317C187.947 86.0506 187.376 86.21 186.738 86.21C186.147 86.21 185.61 86.0661 185.128 85.7783C184.646 85.4906 184.264 85.0744 183.984 84.53C183.712 83.9778 183.576 83.3244 183.576 82.57V82.43C183.576 81.6756 183.712 81.0261 183.984 80.4817C184.257 79.9294 184.626 79.5094 185.093 79.2217C185.567 78.9339 186.092 78.79 186.668 78.79C187.243 78.79 187.764 78.9339 188.231 79.2217C188.706 79.5094 189.079 79.9256 189.351 80.47C189.623 81.0144 189.759 81.6639 189.759 82.4183V82.6867H184.533C184.541 83.2311 184.638 83.7056 184.824 84.11C185.011 84.5144 185.272 84.8256 185.606 85.0433C185.941 85.2611 186.326 85.37 186.761 85.37C187.173 85.37 187.547 85.2689 187.881 85.0667C188.216 84.8567 188.472 84.5533 188.651 84.1567L189.584 84.3433ZM188.779 82.0333C188.748 81.5122 188.636 81.0689 188.441 80.7033C188.247 80.33 187.994 80.05 187.683 79.8633C187.379 79.6689 187.041 79.5717 186.668 79.5717C186.294 79.5717 185.952 79.6689 185.641 79.8633C185.338 80.05 185.089 80.33 184.894 80.7033C184.7 81.0689 184.591 81.5122 184.568 82.0333H188.779ZM195.429 86L194.379 84.46L194.192 84.1683C193.912 83.7561 193.675 83.3789 193.48 83.0367C193.232 83.4567 192.924 83.9311 192.559 84.46L191.509 86H190.412L192.944 82.3833L190.622 79H191.789L192.827 80.54C193.029 80.8433 193.267 81.2244 193.539 81.6833C193.803 81.2167 194.037 80.8356 194.239 80.54L195.289 79H196.385L194.064 82.3367L196.595 86H195.429ZM200.152 86C199.631 86 199.219 85.86 198.915 85.58C198.612 85.3 198.46 84.8722 198.46 84.2967V79.84H197.282V79H198.495V76.9H199.405V79H201.412V79.84H199.44V84.11C199.44 84.81 199.755 85.16 200.385 85.16H201.412V86H200.152ZM202.662 84.74H203.735V86H202.662V84.74Z" fill="#1B1B1B"/>
<g clip-path="url(#clip0_1_16709)">
<path fill-rule="evenodd" clip-rule="evenodd" d="M424 52.3334C420.318 52.3334 417.333 55.3181 417.333 59C417.333 62.6819 420.318 65.6667 424 65.6667C427.682 65.6667 430.667 62.6819 430.667 59C430.667 55.3181 427.682 52.3334 424 52.3334ZM422.667 58.3334C422.667 58.0572 422.891 57.8334 423.167 57.8334H424C424.276 57.8334 424.5 58.0572 424.5 58.3334L424.5 61.8334C424.5 62.1095 424.276 62.3334 424 62.3334C423.724 62.3334 423.5 62.1095 423.5 61.8334L423.5 58.8334H423.167C422.891 58.8334 422.667 58.6095 422.667 58.3334ZM424 55.8334C423.724 55.8334 423.5 56.0572 423.5 56.3334C423.5 56.6095 423.724 56.8334 424 56.8334C424.276 56.8334 424.5 56.6095 424.5 56.3334C424.5 56.0572 424.276 55.8334 424 55.8334Z" fill="#1B1B1B"/>
</g>
<path d="M97 107C97 102.582 100.582 99 105 99H432C436.418 99 440 102.582 440 107V155C440 159.418 436.418 163 432 163H105C100.582 163 97 159.418 97 155V107Z" fill="#E2E2E2"/>
<path d="M114.26 116.2H119.685V117.18H115.31V120.505H118.985V121.415H115.31V125.02H119.685V126H114.26V116.2ZM125.665 126L124.615 124.46L124.428 124.168C124.148 123.756 123.911 123.379 123.717 123.037C123.468 123.457 123.161 123.931 122.795 124.46L121.745 126H120.648L123.18 122.383L120.858 119H122.025L123.063 120.54C123.266 120.843 123.503 121.224 123.775 121.683C124.04 121.217 124.273 120.836 124.475 120.54L125.525 119H126.622L124.3 122.337L126.832 126H125.665ZM130.388 126C129.867 126 129.455 125.86 129.152 125.58C128.848 125.3 128.697 124.872 128.697 124.297V119.84H127.518V119H128.732V116.9H129.642V119H131.648V119.84H129.677V124.11C129.677 124.81 129.992 125.16 130.622 125.16H131.648V126H130.388ZM138.346 124.343C138.097 124.942 137.72 125.405 137.215 125.732C136.709 126.051 136.137 126.21 135.5 126.21C134.908 126.21 134.372 126.066 133.89 125.778C133.407 125.491 133.026 125.074 132.746 124.53C132.474 123.978 132.338 123.324 132.338 122.57V122.43C132.338 121.676 132.474 121.026 132.746 120.482C133.018 119.929 133.388 119.509 133.855 119.222C134.329 118.934 134.854 118.79 135.43 118.79C136.005 118.79 136.526 118.934 136.993 119.222C137.467 119.509 137.841 119.926 138.113 120.47C138.385 121.014 138.521 121.664 138.521 122.418V122.687H133.295C133.302 123.231 133.4 123.706 133.586 124.11C133.773 124.514 134.033 124.826 134.368 125.043C134.702 125.261 135.087 125.37 135.523 125.37C135.935 125.37 136.308 125.269 136.643 125.067C136.977 124.857 137.234 124.553 137.413 124.157L138.346 124.343ZM137.541 122.033C137.51 121.512 137.397 121.069 137.203 120.703C137.008 120.33 136.756 120.05 136.445 119.863C136.141 119.669 135.803 119.572 135.43 119.572C135.056 119.572 134.714 119.669 134.403 119.863C134.1 120.05 133.851 120.33 133.656 120.703C133.462 121.069 133.353 121.512 133.33 122.033H137.541ZM139.861 119H140.771V120.12C140.981 119.708 141.273 119.397 141.646 119.187C142.02 118.969 142.436 118.86 142.895 118.86C143.618 118.86 144.193 119.093 144.621 119.56C145.057 120.027 145.275 120.653 145.275 121.438V126H144.295V121.66C144.295 121.053 144.147 120.575 143.851 120.225C143.556 119.875 143.159 119.7 142.661 119.7C142.303 119.7 141.985 119.793 141.705 119.98C141.432 120.159 141.218 120.408 141.063 120.727C140.915 121.038 140.841 121.388 140.841 121.777V126H139.861V119ZM149.38 126.14C148.851 126.14 148.365 126.008 147.921 125.743C147.478 125.479 147.124 125.086 146.86 124.565C146.603 124.036 146.475 123.394 146.475 122.64V122.36C146.475 121.606 146.607 120.968 146.871 120.447C147.136 119.918 147.486 119.521 147.921 119.257C148.357 118.992 148.835 118.86 149.356 118.86C149.87 118.86 150.317 118.984 150.698 119.233C151.079 119.482 151.371 119.817 151.573 120.237V116.2H152.553V126H151.655V124.717C151.452 125.152 151.153 125.498 150.756 125.755C150.367 126.012 149.908 126.14 149.38 126.14ZM147.455 122.535C147.455 123.118 147.544 123.62 147.723 124.04C147.91 124.452 148.158 124.767 148.47 124.985C148.788 125.195 149.146 125.3 149.543 125.3C149.932 125.3 150.282 125.195 150.593 124.985C150.912 124.767 151.161 124.452 151.34 124.04C151.518 123.62 151.608 123.118 151.608 122.535V122.465C151.608 121.882 151.518 121.384 151.34 120.972C151.161 120.552 150.912 120.237 150.593 120.027C150.282 119.809 149.932 119.7 149.543 119.7C149.146 119.7 148.788 119.809 148.47 120.027C148.158 120.237 147.91 120.552 147.723 120.972C147.544 121.384 147.455 121.882 147.455 122.465V122.535ZM159.907 124.343C159.658 124.942 159.281 125.405 158.775 125.732C158.27 126.051 157.698 126.21 157.06 126.21C156.469 126.21 155.932 126.066 155.45 125.778C154.968 125.491 154.587 125.074 154.307 124.53C154.035 123.978 153.898 123.324 153.898 122.57V122.43C153.898 121.676 154.035 121.026 154.307 120.482C154.579 119.929 154.948 119.509 155.415 119.222C155.89 118.934 156.415 118.79 156.99 118.79C157.566 118.79 158.087 118.934 158.553 119.222C159.028 119.509 159.401 119.926 159.673 120.47C159.946 121.014 160.082 121.664 160.082 122.418V122.687H154.855C154.863 123.231 154.96 123.706 155.147 124.11C155.333 124.514 155.594 124.826 155.928 125.043C156.263 125.261 156.648 125.37 157.083 125.37C157.496 125.37 157.869 125.269 158.203 125.067C158.538 124.857 158.795 124.553 158.973 124.157L159.907 124.343ZM159.102 122.033C159.071 121.512 158.958 121.069 158.763 120.703C158.569 120.33 158.316 120.05 158.005 119.863C157.702 119.669 157.363 119.572 156.99 119.572C156.617 119.572 156.275 119.669 155.963 119.863C155.66 120.05 155.411 120.33 155.217 120.703C155.022 121.069 154.913 121.512 154.89 122.033H159.102ZM163.872 126.14C163.343 126.14 162.857 126.008 162.413 125.743C161.97 125.479 161.616 125.086 161.352 124.565C161.095 124.036 160.967 123.394 160.967 122.64V122.36C160.967 121.606 161.099 120.968 161.363 120.447C161.628 119.918 161.978 119.521 162.413 119.257C162.849 118.992 163.327 118.86 163.848 118.86C164.362 118.86 164.809 118.984 165.19 119.233C165.571 119.482 165.863 119.817 166.065 120.237V116.2H167.045V126H166.147V124.717C165.945 125.152 165.645 125.498 165.248 125.755C164.86 126.012 164.401 126.14 163.872 126.14ZM161.947 122.535C161.947 123.118 162.036 123.62 162.215 124.04C162.402 124.452 162.651 124.767 162.962 124.985C163.281 125.195 163.638 125.3 164.035 125.3C164.424 125.3 164.774 125.195 165.085 124.985C165.404 124.767 165.653 124.452 165.832 124.04C166.011 123.62 166.1 123.118 166.1 122.535V122.465C166.1 121.882 166.011 121.384 165.832 120.972C165.653 120.552 165.404 120.237 165.085 120.027C164.774 119.809 164.424 119.7 164.035 119.7C163.638 119.7 163.281 119.809 162.962 120.027C162.651 120.237 162.402 120.552 162.215 120.972C162.036 121.384 161.947 121.882 161.947 122.465V122.535ZM173.13 126C172.671 126 172.313 125.876 172.057 125.627C171.8 125.378 171.672 124.997 171.672 124.483V116.2H172.652V124.308C172.652 124.612 172.71 124.829 172.827 124.962C172.943 125.094 173.122 125.16 173.363 125.16H173.725V126H173.13ZM176.858 126.14C176.423 126.14 176.034 126.062 175.692 125.907C175.349 125.743 175.081 125.514 174.887 125.218C174.692 124.923 174.595 124.584 174.595 124.203V124.11C174.595 123.713 174.692 123.356 174.887 123.037C175.081 122.718 175.373 122.465 175.762 122.278C176.15 122.084 176.625 121.987 177.185 121.987H179.203V121.427C179.203 120.867 179.055 120.431 178.76 120.12C178.464 119.801 178.052 119.642 177.523 119.642C177.103 119.642 176.738 119.751 176.427 119.968C176.115 120.178 175.874 120.486 175.703 120.89L174.805 120.703C175.046 120.081 175.408 119.618 175.89 119.315C176.372 119.012 176.932 118.86 177.57 118.86C178.379 118.86 179.009 119.086 179.46 119.537C179.919 119.98 180.148 120.591 180.148 121.368V126H179.238V124.88C178.989 125.261 178.663 125.568 178.258 125.802C177.862 126.027 177.395 126.14 176.858 126.14ZM175.575 124.04C175.575 124.444 175.715 124.767 175.995 125.008C176.275 125.242 176.64 125.358 177.092 125.358C177.488 125.358 177.846 125.269 178.165 125.09C178.492 124.911 178.744 124.662 178.923 124.343C179.11 124.024 179.203 123.667 179.203 123.27V122.64H177.302C176.749 122.64 176.322 122.772 176.018 123.037C175.723 123.293 175.575 123.628 175.575 124.04ZM185.117 126.14C184.588 126.14 184.125 126.012 183.728 125.755C183.339 125.498 183.044 125.152 182.842 124.717V126H181.943V116.2H182.923V120.237C183.125 119.817 183.417 119.482 183.798 119.233C184.179 118.984 184.627 118.86 185.14 118.86C185.661 118.86 186.139 118.992 186.575 119.257C187.01 119.521 187.36 119.918 187.625 120.447C187.889 120.968 188.022 121.606 188.022 122.36V122.64C188.022 123.394 187.889 124.036 187.625 124.565C187.368 125.086 187.018 125.479 186.575 125.743C186.132 126.008 185.645 126.14 185.117 126.14ZM182.888 122.535C182.888 123.118 182.978 123.62 183.157 124.04C183.335 124.452 183.58 124.767 183.892 124.985C184.21 125.195 184.564 125.3 184.953 125.3C185.35 125.3 185.704 125.195 186.015 124.985C186.334 124.767 186.583 124.452 186.762 124.04C186.948 123.62 187.042 123.118 187.042 122.535V122.465C187.042 121.882 186.948 121.384 186.762 120.972C186.583 120.552 186.334 120.237 186.015 120.027C185.704 119.809 185.35 119.7 184.953 119.7C184.564 119.7 184.21 119.809 183.892 120.027C183.58 120.237 183.335 120.552 183.157 120.972C182.978 121.384 182.888 121.882 182.888 122.465V122.535ZM194.92 124.343C194.672 124.942 194.294 125.405 193.789 125.732C193.283 126.051 192.712 126.21 192.074 126.21C191.483 126.21 190.946 126.066 190.464 125.778C189.982 125.491 189.6 125.074 189.32 124.53C189.048 123.978 188.912 123.324 188.912 122.57V122.43C188.912 121.676 189.048 121.026 189.32 120.482C189.593 119.929 189.962 119.509 190.429 119.222C190.903 118.934 191.428 118.79 192.004 118.79C192.579 118.79 193.1 118.934 193.567 119.222C194.042 119.509 194.415 119.926 194.687 120.47C194.959 121.014 195.095 121.664 195.095 122.418V122.687H189.869C189.877 123.231 189.974 123.706 190.16 124.11C190.347 124.514 190.608 124.826 190.942 125.043C191.277 125.261 191.662 125.37 192.097 125.37C192.509 125.37 192.883 125.269 193.217 125.067C193.552 124.857 193.808 124.553 193.987 124.157L194.92 124.343ZM194.115 122.033C194.084 121.512 193.972 121.069 193.777 120.703C193.583 120.33 193.33 120.05 193.019 119.863C192.715 119.669 192.377 119.572 192.004 119.572C191.63 119.572 191.288 119.669 190.977 119.863C190.674 120.05 190.425 120.33 190.23 120.703C190.036 121.069 189.927 121.512 189.904 122.033H194.115ZM197.917 126C197.458 126 197.1 125.876 196.844 125.627C196.587 125.378 196.459 124.997 196.459 124.483V116.2H197.439V124.308C197.439 124.612 197.497 124.829 197.614 124.962C197.73 125.094 197.909 125.16 198.15 125.16H198.512V126H197.917ZM204.705 126.14C204.067 126.14 203.495 125.996 202.99 125.708C202.492 125.413 202.099 124.958 201.811 124.343L202.651 123.993C203.056 124.896 203.733 125.347 204.681 125.347C205.179 125.347 205.58 125.238 205.883 125.02C206.186 124.794 206.338 124.487 206.338 124.098C206.338 123.748 206.21 123.48 205.953 123.293C205.696 123.107 205.335 122.971 204.868 122.885L203.97 122.722C202.655 122.481 201.998 121.878 201.998 120.913C201.998 120.524 202.095 120.174 202.29 119.863C202.484 119.552 202.768 119.307 203.141 119.128C203.523 118.949 203.97 118.86 204.483 118.86C205.074 118.86 205.603 118.992 206.07 119.257C206.544 119.513 206.925 119.898 207.213 120.412L206.373 120.762C206.186 120.396 205.934 120.12 205.615 119.933C205.296 119.747 204.93 119.653 204.518 119.653C204.051 119.653 203.674 119.766 203.386 119.992C203.099 120.209 202.955 120.501 202.955 120.867C202.955 121.186 203.068 121.431 203.293 121.602C203.519 121.773 203.826 121.893 204.215 121.963L205.101 122.127C205.809 122.259 206.35 122.477 206.723 122.78C207.104 123.083 207.295 123.503 207.295 124.04C207.295 124.444 207.19 124.806 206.98 125.125C206.77 125.444 206.47 125.693 206.081 125.872C205.693 126.051 205.234 126.14 204.705 126.14ZM213.713 126H212.803V124.88C212.593 125.292 212.301 125.607 211.928 125.825C211.554 126.035 211.138 126.14 210.679 126.14C209.956 126.14 209.377 125.907 208.941 125.44C208.513 124.973 208.299 124.347 208.299 123.562V119H209.279V123.34C209.279 123.947 209.427 124.425 209.723 124.775C210.018 125.117 210.415 125.288 210.913 125.288C211.27 125.288 211.585 125.199 211.858 125.02C212.138 124.841 212.352 124.596 212.499 124.285C212.655 123.966 212.733 123.612 212.733 123.223V119H213.713V126ZM215.508 119H216.406V120.283C216.608 119.848 216.904 119.502 217.293 119.245C217.689 118.988 218.152 118.86 218.681 118.86C219.21 118.86 219.696 118.992 220.139 119.257C220.583 119.521 220.933 119.918 221.189 120.447C221.454 120.968 221.586 121.606 221.586 122.36V122.64C221.586 123.394 221.454 124.036 221.189 124.565C220.925 125.086 220.575 125.479 220.139 125.743C219.704 126.008 219.225 126.14 218.704 126.14C218.191 126.14 217.744 126.016 217.363 125.767C216.982 125.518 216.69 125.183 216.488 124.763V128.8H215.508V119ZM216.453 122.535C216.453 123.118 216.542 123.62 216.721 124.04C216.9 124.452 217.145 124.767 217.456 124.985C217.775 125.195 218.129 125.3 218.518 125.3C218.914 125.3 219.268 125.195 219.579 124.985C219.898 124.767 220.147 124.452 220.326 124.04C220.513 123.62 220.606 123.118 220.606 122.535V122.465C220.606 121.882 220.513 121.384 220.326 120.972C220.147 120.552 219.898 120.237 219.579 120.027C219.268 119.809 218.914 119.7 218.518 119.7C218.129 119.7 217.775 119.809 217.456 120.027C217.145 120.237 216.9 120.552 216.721 120.972C216.542 121.384 216.453 121.882 216.453 122.465V122.535ZM222.932 119H223.83V120.283C224.032 119.848 224.328 119.502 224.717 119.245C225.113 118.988 225.576 118.86 226.105 118.86C226.634 118.86 227.12 118.992 227.563 119.257C228.007 119.521 228.357 119.918 228.613 120.447C228.878 120.968 229.01 121.606 229.01 122.36V122.64C229.01 123.394 228.878 124.036 228.613 124.565C228.349 125.086 227.999 125.479 227.563 125.743C227.128 126.008 226.649 126.14 226.128 126.14C225.615 126.14 225.168 126.016 224.787 125.767C224.405 125.518 224.114 125.183 223.912 124.763V128.8H222.932V119ZM223.877 122.535C223.877 123.118 223.966 123.62 224.145 124.04C224.324 124.452 224.569 124.767 224.88 124.985C225.199 125.195 225.553 125.3 225.942 125.3C226.338 125.3 226.692 125.195 227.003 124.985C227.322 124.767 227.571 124.452 227.75 124.04C227.937 123.62 228.03 123.118 228.03 122.535V122.465C228.03 121.882 227.937 121.384 227.75 120.972C227.571 120.552 227.322 120.237 227.003 120.027C226.692 119.809 226.338 119.7 225.942 119.7C225.553 119.7 225.199 119.809 224.88 120.027C224.569 120.237 224.324 120.552 224.145 120.972C223.966 121.384 223.877 121.882 223.877 122.465V122.535ZM232.992 126.21C232.416 126.21 231.891 126.066 231.417 125.778C230.95 125.491 230.581 125.074 230.309 124.53C230.036 123.978 229.9 123.324 229.9 122.57V122.43C229.9 121.676 230.036 121.026 230.309 120.482C230.581 119.929 230.95 119.509 231.417 119.222C231.891 118.934 232.416 118.79 232.992 118.79C233.568 118.79 234.089 118.934 234.555 119.222C235.03 119.509 235.403 119.929 235.675 120.482C235.948 121.026 236.084 121.676 236.084 122.43V122.57C236.084 123.324 235.948 123.978 235.675 124.53C235.403 125.074 235.03 125.491 234.555 125.778C234.089 126.066 233.568 126.21 232.992 126.21ZM230.88 122.535C230.88 123.134 230.974 123.647 231.16 124.075C231.347 124.495 231.6 124.818 231.919 125.043C232.238 125.261 232.595 125.37 232.992 125.37C233.389 125.37 233.746 125.261 234.065 125.043C234.384 124.818 234.637 124.495 234.824 124.075C235.01 123.647 235.104 123.134 235.104 122.535V122.465C235.104 121.866 235.01 121.357 234.824 120.937C234.637 120.509 234.384 120.186 234.065 119.968C233.746 119.743 233.389 119.63 232.992 119.63C232.595 119.63 232.238 119.743 231.919 119.968C231.6 120.186 231.347 120.509 231.16 120.937C230.974 121.357 230.88 121.866 230.88 122.465V122.535ZM237.459 119H238.369V120.68C238.587 120.143 238.933 119.719 239.407 119.408C239.882 119.089 240.418 118.93 241.017 118.93V119.91C240.496 119.91 240.041 120.034 239.652 120.283C239.263 120.524 238.964 120.863 238.754 121.298C238.544 121.726 238.439 122.22 238.439 122.78V126H237.459V119ZM244.617 126C244.096 126 243.684 125.86 243.38 125.58C243.077 125.3 242.925 124.872 242.925 124.297V119.84H241.747V119H242.96V116.9H243.87V119H245.877V119.84H243.905V124.11C243.905 124.81 244.22 125.16 244.85 125.16H245.877V126H244.617ZM252.041 126C251.52 126 251.107 125.86 250.804 125.58C250.501 125.3 250.349 124.872 250.349 124.297V119.84H249.171V119H250.384V116.9H251.294V119H253.301V119.84H251.329V124.11C251.329 124.81 251.644 125.16 252.274 125.16H253.301V126H252.041ZM259.999 124.343C259.75 124.942 259.372 125.405 258.867 125.732C258.361 126.051 257.79 126.21 257.152 126.21C256.561 126.21 256.024 126.066 255.542 125.778C255.06 125.491 254.679 125.074 254.399 124.53C254.126 123.978 253.99 123.324 253.99 122.57V122.43C253.99 121.676 254.126 121.026 254.399 120.482C254.671 119.929 255.04 119.509 255.507 119.222C255.981 118.934 256.506 118.79 257.082 118.79C257.657 118.79 258.179 118.934 258.645 119.222C259.12 119.509 259.493 119.926 259.765 120.47C260.037 121.014 260.174 121.664 260.174 122.418V122.687H254.947C254.955 123.231 255.052 123.706 255.239 124.11C255.425 124.514 255.686 124.826 256.02 125.043C256.355 125.261 256.74 125.37 257.175 125.37C257.587 125.37 257.961 125.269 258.295 125.067C258.63 124.857 258.886 124.553 259.065 124.157L259.999 124.343ZM259.194 122.033C259.162 121.512 259.05 121.069 258.855 120.703C258.661 120.33 258.408 120.05 258.097 119.863C257.794 119.669 257.455 119.572 257.082 119.572C256.709 119.572 256.366 119.669 256.055 119.863C255.752 120.05 255.503 120.33 255.309 120.703C255.114 121.069 255.005 121.512 254.982 122.033H259.194ZM265.843 126L264.793 124.46L264.606 124.168C264.326 123.756 264.089 123.379 263.894 123.037C263.646 123.457 263.338 123.931 262.973 124.46L261.923 126H260.826L263.358 122.383L261.036 119H262.203L263.241 120.54C263.443 120.843 263.681 121.224 263.953 121.683C264.217 121.217 264.451 120.836 264.653 120.54L265.703 119H266.799L264.478 122.337L267.009 126H265.843ZM270.566 126C270.045 126 269.633 125.86 269.33 125.58C269.026 125.3 268.875 124.872 268.875 124.297V119.84H267.696V119H268.91V116.9H269.82V119H271.826V119.84H269.855V124.11C269.855 124.81 270.17 125.16 270.8 125.16H271.826V126H270.566ZM275.26 119H276.333L277.628 123.27C277.776 123.729 277.908 124.203 278.025 124.693C278.188 124.126 278.332 123.651 278.457 123.27L279.81 119H280.72L282.097 123.27L282.528 124.693C282.614 124.343 282.75 123.869 282.937 123.27L284.267 119H285.27L282.972 126H282.062L280.615 121.45C280.491 121.077 280.374 120.661 280.265 120.202C280.203 120.466 280.086 120.882 279.915 121.45L278.468 126H277.558L275.26 119ZM286.47 119H287.45V126H286.47V119ZM286.424 116.62H287.497V117.74H286.424V116.62ZM290.776 126C290.318 126 289.96 125.876 289.703 125.627C289.446 125.378 289.318 124.997 289.318 124.483V116.2H290.298V124.308C290.298 124.612 290.356 124.829 290.473 124.962C290.59 125.094 290.769 125.16 291.01 125.16H291.371V126H290.776ZM294.003 126C293.544 126 293.186 125.876 292.93 125.627C292.673 125.378 292.545 124.997 292.545 124.483V116.2H293.525V124.308C293.525 124.612 293.583 124.829 293.7 124.962C293.816 125.094 293.995 125.16 294.236 125.16H294.598V126H294.003ZM301.724 126.14C301.195 126.14 300.732 126.012 300.336 125.755C299.947 125.498 299.651 125.152 299.449 124.717V126H298.551V116.2H299.531V120.237C299.733 119.817 300.025 119.482 300.406 119.233C300.787 118.984 301.234 118.86 301.747 118.86C302.268 118.86 302.747 118.992 303.182 119.257C303.618 119.521 303.968 119.918 304.232 120.447C304.497 120.968 304.629 121.606 304.629 122.36V122.64C304.629 123.394 304.497 124.036 304.232 124.565C303.976 125.086 303.626 125.479 303.182 125.743C302.739 126.008 302.253 126.14 301.724 126.14ZM299.496 122.535C299.496 123.118 299.585 123.62 299.764 124.04C299.943 124.452 300.188 124.767 300.499 124.985C300.818 125.195 301.172 125.3 301.561 125.3C301.957 125.3 302.311 125.195 302.622 124.985C302.941 124.767 303.19 124.452 303.369 124.04C303.556 123.62 303.649 123.118 303.649 122.535V122.465C303.649 121.882 303.556 121.384 303.369 120.972C303.19 120.552 302.941 120.237 302.622 120.027C302.311 119.809 301.957 119.7 301.561 119.7C301.172 119.7 300.818 119.809 300.499 120.027C300.188 120.237 299.943 120.552 299.764 120.972C299.585 121.384 299.496 121.882 299.496 122.465V122.535ZM311.528 124.343C311.279 124.942 310.902 125.405 310.396 125.732C309.891 126.051 309.319 126.21 308.681 126.21C308.09 126.21 307.553 126.066 307.071 125.778C306.589 125.491 306.208 125.074 305.928 124.53C305.656 123.978 305.52 123.324 305.52 122.57V122.43C305.52 121.676 305.656 121.026 305.928 120.482C306.2 119.929 306.57 119.509 307.036 119.222C307.511 118.934 308.036 118.79 308.611 118.79C309.187 118.79 309.708 118.934 310.175 119.222C310.649 119.509 311.022 119.926 311.295 120.47C311.567 121.014 311.703 121.664 311.703 122.418V122.687H306.476C306.484 123.231 306.581 123.706 306.768 124.11C306.955 124.514 307.215 124.826 307.55 125.043C307.884 125.261 308.269 125.37 308.705 125.37C309.117 125.37 309.49 125.269 309.825 125.067C310.159 124.857 310.416 124.553 310.595 124.157L311.528 124.343ZM310.723 122.033C310.692 121.512 310.579 121.069 310.385 120.703C310.19 120.33 309.937 120.05 309.626 119.863C309.323 119.669 308.985 119.572 308.611 119.572C308.238 119.572 307.896 119.669 307.585 119.863C307.281 120.05 307.032 120.33 306.838 120.703C306.643 121.069 306.535 121.512 306.511 122.033H310.723ZM315.332 119H316.417L318.051 123.55C318.268 124.126 318.424 124.596 318.517 124.962C318.611 124.596 318.766 124.126 318.984 123.55L320.617 119H321.632L318.972 126H317.992L315.332 119ZM322.838 119H323.818V126H322.838V119ZM322.791 116.62H323.864V117.74H322.791V116.62ZM327.902 126.14C327.264 126.14 326.693 125.996 326.187 125.708C325.689 125.413 325.296 124.958 325.009 124.343L325.849 123.993C326.253 124.896 326.93 125.347 327.879 125.347C328.376 125.347 328.777 125.238 329.08 125.02C329.384 124.794 329.535 124.487 329.535 124.098C329.535 123.748 329.407 123.48 329.15 123.293C328.894 123.107 328.532 122.971 328.065 122.885L327.167 122.722C325.853 122.481 325.195 121.878 325.195 120.913C325.195 120.524 325.293 120.174 325.487 119.863C325.681 119.552 325.965 119.307 326.339 119.128C326.72 118.949 327.167 118.86 327.68 118.86C328.271 118.86 328.8 118.992 329.267 119.257C329.741 119.513 330.123 119.898 330.41 120.412L329.57 120.762C329.384 120.396 329.131 120.12 328.812 119.933C328.493 119.747 328.128 119.653 327.715 119.653C327.249 119.653 326.871 119.766 326.584 119.992C326.296 120.209 326.152 120.501 326.152 120.867C326.152 121.186 326.265 121.431 326.49 121.602C326.716 121.773 327.023 121.893 327.412 121.963L328.299 122.127C329.006 122.259 329.547 122.477 329.92 122.78C330.301 123.083 330.492 123.503 330.492 124.04C330.492 124.444 330.387 124.806 330.177 125.125C329.967 125.444 329.668 125.693 329.279 125.872C328.89 126.051 328.431 126.14 327.902 126.14ZM331.683 119H332.663V126H331.683V119ZM331.637 116.62H332.71V117.74H331.637V116.62ZM337.681 126.14C337.152 126.14 336.689 126.012 336.293 125.755C335.904 125.498 335.608 125.152 335.406 124.717V126H334.508V116.2H335.488V120.237C335.69 119.817 335.982 119.482 336.363 119.233C336.744 118.984 337.191 118.86 337.704 118.86C338.225 118.86 338.704 118.992 339.139 119.257C339.575 119.521 339.925 119.918 340.189 120.447C340.454 120.968 340.586 121.606 340.586 122.36V122.64C340.586 123.394 340.454 124.036 340.189 124.565C339.933 125.086 339.583 125.479 339.139 125.743C338.696 126.008 338.21 126.14 337.681 126.14ZM335.453 122.535C335.453 123.118 335.542 123.62 335.721 124.04C335.9 124.452 336.145 124.767 336.456 124.985C336.775 125.195 337.129 125.3 337.518 125.3C337.914 125.3 338.268 125.195 338.579 124.985C338.898 124.767 339.147 124.452 339.326 124.04C339.513 123.62 339.606 123.118 339.606 122.535V122.465C339.606 121.882 339.513 121.384 339.326 120.972C339.147 120.552 338.898 120.237 338.579 120.027C338.268 119.809 337.914 119.7 337.518 119.7C337.129 119.7 336.775 119.809 336.456 120.027C336.145 120.237 335.9 120.552 335.721 120.972C335.542 121.384 335.453 121.882 335.453 122.465V122.535ZM343.413 126C342.954 126 342.597 125.876 342.34 125.627C342.083 125.378 341.955 124.997 341.955 124.483V116.2H342.935V124.308C342.935 124.612 342.993 124.829 343.11 124.962C343.227 125.094 343.405 125.16 343.647 125.16H344.008V126H343.413ZM350.711 124.343C350.463 124.942 350.085 125.405 349.58 125.732C349.074 126.051 348.503 126.21 347.865 126.21C347.274 126.21 346.737 126.066 346.255 125.778C345.773 125.491 345.391 125.074 345.111 124.53C344.839 123.978 344.703 123.324 344.703 122.57V122.43C344.703 121.676 344.839 121.026 345.111 120.482C345.384 119.929 345.753 119.509 346.22 119.222C346.694 118.934 347.219 118.79 347.795 118.79C348.37 118.79 348.891 118.934 349.358 119.222C349.833 119.509 350.206 119.926 350.478 120.47C350.75 121.014 350.886 121.664 350.886 122.418V122.687H345.66C345.668 123.231 345.765 123.706 345.951 124.11C346.138 124.514 346.399 124.826 346.733 125.043C347.068 125.261 347.453 125.37 347.888 125.37C348.3 125.37 348.674 125.269 349.008 125.067C349.343 124.857 349.599 124.553 349.778 124.157L350.711 124.343ZM349.906 122.033C349.875 121.512 349.763 121.069 349.568 120.703C349.374 120.33 349.121 120.05 348.81 119.863C348.506 119.669 348.168 119.572 347.795 119.572C347.421 119.572 347.079 119.669 346.768 119.863C346.465 120.05 346.216 120.33 346.021 120.703C345.827 121.069 345.718 121.512 345.695 122.033H349.906ZM354.516 119H355.589L356.884 123.27C357.032 123.729 357.164 124.203 357.281 124.693C357.444 124.126 357.588 123.651 357.713 123.27L359.066 119H359.976L361.353 123.27L361.784 124.693C361.87 124.343 362.006 123.869 362.193 123.27L363.523 119H364.526L362.228 126H361.318L359.871 121.45C359.746 121.077 359.63 120.661 359.521 120.202C359.459 120.466 359.342 120.882 359.171 121.45L357.724 126H356.814L354.516 119ZM368.713 118.86C369.436 118.86 370.012 119.093 370.44 119.56C370.875 120.027 371.093 120.653 371.093 121.438V126H370.113V121.66C370.113 121.053 369.965 120.579 369.67 120.237C369.374 119.887 368.977 119.712 368.48 119.712C368.122 119.712 367.803 119.801 367.523 119.98C367.251 120.159 367.037 120.408 366.881 120.727C366.733 121.038 366.66 121.388 366.66 121.777V126H365.68V116.2H366.66V120.003C366.87 119.638 367.153 119.358 367.511 119.163C367.869 118.961 368.27 118.86 368.713 118.86ZM378.301 124.343C378.052 124.942 377.675 125.405 377.17 125.732C376.664 126.051 376.092 126.21 375.455 126.21C374.863 126.21 374.327 126.066 373.845 125.778C373.362 125.491 372.981 125.074 372.701 124.53C372.429 123.978 372.293 123.324 372.293 122.57V122.43C372.293 121.676 372.429 121.026 372.701 120.482C372.973 119.929 373.343 119.509 373.81 119.222C374.284 118.934 374.809 118.79 375.385 118.79C375.96 118.79 376.481 118.934 376.948 119.222C377.422 119.509 377.796 119.926 378.068 120.47C378.34 121.014 378.476 121.664 378.476 122.418V122.687H373.25C373.257 123.231 373.355 123.706 373.541 124.11C373.728 124.514 373.988 124.826 374.323 125.043C374.657 125.261 375.042 125.37 375.478 125.37C375.89 125.37 376.263 125.269 376.598 125.067C376.932 124.857 377.189 124.553 377.368 124.157L378.301 124.343ZM377.496 122.033C377.465 121.512 377.352 121.069 377.158 120.703C376.963 120.33 376.711 120.05 376.4 119.863C376.096 119.669 375.758 119.572 375.385 119.572C375.011 119.572 374.669 119.669 374.358 119.863C374.055 120.05 373.806 120.33 373.611 120.703C373.417 121.069 373.308 121.512 373.285 122.033H377.496ZM379.816 119H380.726V120.12C380.936 119.708 381.228 119.397 381.601 119.187C381.975 118.969 382.391 118.86 382.85 118.86C383.573 118.86 384.149 119.093 384.576 119.56C385.012 120.027 385.23 120.653 385.23 121.438V126H384.25V121.66C384.25 121.053 384.102 120.575 383.806 120.225C383.511 119.875 383.114 119.7 382.616 119.7C382.259 119.7 381.94 119.793 381.66 119.98C381.387 120.159 381.174 120.408 381.018 120.727C380.87 121.038 380.796 121.388 380.796 121.777V126H379.816V119ZM116.465 146.14C115.905 146.14 115.396 146 114.937 145.72C114.478 145.44 114.112 145.032 113.84 144.495C113.576 143.958 113.443 143.317 113.443 142.57V142.43C113.443 141.691 113.576 141.053 113.84 140.517C114.112 139.972 114.478 139.56 114.937 139.28C115.396 139 115.905 138.86 116.465 138.86C117.095 138.86 117.651 139.039 118.133 139.397C118.623 139.754 118.981 140.264 119.207 140.925L118.297 141.112C118.133 140.653 117.884 140.303 117.55 140.062C117.223 139.821 116.862 139.7 116.465 139.7C116.084 139.7 115.738 139.809 115.427 140.027C115.123 140.237 114.878 140.552 114.692 140.972C114.513 141.384 114.423 141.882 114.423 142.465V142.535C114.423 143.118 114.513 143.62 114.692 144.04C114.878 144.452 115.123 144.767 115.427 144.985C115.738 145.195 116.084 145.3 116.465 145.3C116.862 145.3 117.223 145.179 117.55 144.938C117.884 144.697 118.133 144.347 118.297 143.888L119.207 144.075C118.981 144.744 118.623 145.257 118.133 145.615C117.651 145.965 117.095 146.14 116.465 146.14ZM121.819 146C121.361 146 121.003 145.876 120.746 145.627C120.489 145.378 120.361 144.997 120.361 144.483V136.2H121.341V144.308C121.341 144.612 121.399 144.829 121.516 144.962C121.633 145.094 121.812 145.16 122.053 145.16H122.414V146H121.819ZM123.611 139H124.591V146H123.611V139ZM123.564 136.62H124.638V137.74H123.564V136.62ZM129.002 146.14C128.442 146.14 127.933 146 127.474 145.72C127.015 145.44 126.649 145.032 126.377 144.495C126.113 143.958 125.98 143.317 125.98 142.57V142.43C125.98 141.691 126.113 141.053 126.377 140.517C126.649 139.972 127.015 139.56 127.474 139.28C127.933 139 128.442 138.86 129.002 138.86C129.632 138.86 130.188 139.039 130.67 139.397C131.16 139.754 131.518 140.264 131.744 140.925L130.834 141.112C130.67 140.653 130.422 140.303 130.087 140.062C129.76 139.821 129.399 139.7 129.002 139.7C128.621 139.7 128.275 139.809 127.964 140.027C127.66 140.237 127.415 140.552 127.229 140.972C127.05 141.384 126.96 141.882 126.96 142.465V142.535C126.96 143.118 127.05 143.62 127.229 144.04C127.415 144.452 127.66 144.767 127.964 144.985C128.275 145.195 128.621 145.3 129.002 145.3C129.399 145.3 129.76 145.179 130.087 144.938C130.422 144.697 130.67 144.347 130.834 143.888L131.744 144.075C131.518 144.744 131.16 145.257 130.67 145.615C130.188 145.965 129.632 146.14 129.002 146.14ZM132.752 136.2H133.732V142.255L136.859 139H138.06L135.26 141.905L138.27 146H137.115L134.572 142.535L133.697 143.422V146H132.752V136.2ZM139.525 139H140.505V146H139.525V139ZM139.478 136.62H140.552V137.74H139.478V136.62ZM142.35 139H143.26V140.12C143.47 139.708 143.761 139.397 144.135 139.187C144.508 138.969 144.924 138.86 145.383 138.86C146.106 138.86 146.682 139.093 147.11 139.56C147.545 140.027 147.763 140.653 147.763 141.438V146H146.783V141.66C146.783 141.053 146.635 140.575 146.34 140.225C146.044 139.875 145.647 139.7 145.15 139.7C144.792 139.7 144.473 139.793 144.193 139.98C143.921 140.159 143.707 140.408 143.551 140.727C143.403 141.038 143.33 141.388 143.33 141.777V146H142.35V139ZM151.39 149.01C150.915 149.01 150.503 148.921 150.153 148.742C149.803 148.563 149.531 148.322 149.336 148.018C149.15 147.723 149.056 147.392 149.056 147.027C149.056 146.653 149.153 146.323 149.348 146.035C149.542 145.747 149.803 145.522 150.13 145.358C149.935 145.242 149.78 145.086 149.663 144.892C149.554 144.697 149.5 144.479 149.5 144.238C149.5 143.919 149.593 143.647 149.78 143.422C149.974 143.188 150.223 143.025 150.526 142.932C150.231 142.745 149.993 142.496 149.815 142.185C149.643 141.874 149.558 141.532 149.558 141.158C149.558 140.723 149.667 140.33 149.885 139.98C150.102 139.622 150.402 139.342 150.783 139.14C151.164 138.938 151.588 138.837 152.055 138.837C152.389 138.837 152.708 138.891 153.011 139H155.135V139.782H153.968C154.155 139.953 154.298 140.159 154.4 140.4C154.501 140.633 154.551 140.886 154.551 141.158C154.551 141.594 154.442 141.991 154.225 142.348C154.007 142.706 153.707 142.986 153.326 143.188C152.953 143.391 152.533 143.492 152.066 143.492H151.203C150.923 143.492 150.709 143.558 150.561 143.69C150.421 143.814 150.351 143.982 150.351 144.192C150.351 144.394 150.421 144.561 150.561 144.693C150.709 144.826 150.919 144.892 151.191 144.892H153.221C153.633 144.892 154.003 144.981 154.33 145.16C154.656 145.331 154.909 145.572 155.088 145.883C155.275 146.187 155.368 146.521 155.368 146.887C155.368 147.276 155.267 147.629 155.065 147.948C154.862 148.275 154.578 148.532 154.213 148.718C153.847 148.913 153.427 149.01 152.953 149.01H151.39ZM149.966 146.933C149.966 147.307 150.106 147.618 150.386 147.867C150.666 148.116 151.051 148.24 151.541 148.24H152.848C153.338 148.24 153.727 148.116 154.015 147.867C154.31 147.618 154.458 147.303 154.458 146.922C154.458 146.556 154.33 146.253 154.073 146.012C153.816 145.778 153.482 145.662 153.07 145.662H151.378C150.973 145.662 150.635 145.778 150.363 146.012C150.098 146.253 149.966 146.56 149.966 146.933ZM150.433 141.17C150.433 141.458 150.503 141.722 150.643 141.963C150.791 142.204 150.989 142.399 151.238 142.547C151.487 142.687 151.759 142.757 152.055 142.757C152.35 142.757 152.622 142.687 152.871 142.547C153.12 142.399 153.315 142.204 153.455 141.963C153.602 141.722 153.676 141.458 153.676 141.17C153.676 140.719 153.521 140.342 153.21 140.038C152.898 139.735 152.513 139.583 152.055 139.583C151.596 139.583 151.211 139.735 150.9 140.038C150.588 140.342 150.433 140.719 150.433 141.17ZM161.506 146C160.985 146 160.572 145.86 160.269 145.58C159.966 145.3 159.814 144.872 159.814 144.297V139.84H158.636V139H159.849V136.9H160.759V139H162.766V139.84H160.794V144.11C160.794 144.81 161.109 145.16 161.739 145.16H162.766V146H161.506ZM166.943 138.86C167.667 138.86 168.242 139.093 168.67 139.56C169.106 140.027 169.323 140.653 169.323 141.438V146H168.343V141.66C168.343 141.053 168.196 140.579 167.9 140.237C167.604 139.887 167.208 139.712 166.71 139.712C166.352 139.712 166.033 139.801 165.753 139.98C165.481 140.159 165.267 140.408 165.112 140.727C164.964 141.038 164.89 141.388 164.89 141.777V146H163.91V136.2H164.89V140.003C165.1 139.638 165.384 139.358 165.742 139.163C166.099 138.961 166.5 138.86 166.943 138.86ZM176.532 144.343C176.283 144.942 175.906 145.405 175.4 145.732C174.895 146.051 174.323 146.21 173.685 146.21C173.094 146.21 172.557 146.066 172.075 145.778C171.593 145.491 171.212 145.074 170.932 144.53C170.66 143.978 170.523 143.324 170.523 142.57V142.43C170.523 141.676 170.66 141.026 170.932 140.482C171.204 139.929 171.573 139.509 172.04 139.222C172.515 138.934 173.04 138.79 173.615 138.79C174.191 138.79 174.712 138.934 175.178 139.222C175.653 139.509 176.026 139.926 176.298 140.47C176.571 141.014 176.707 141.664 176.707 142.418V142.687H171.48C171.488 143.231 171.585 143.706 171.772 144.11C171.958 144.514 172.219 144.826 172.553 145.043C172.888 145.261 173.273 145.37 173.708 145.37C174.121 145.37 174.494 145.269 174.828 145.067C175.163 144.857 175.42 144.553 175.598 144.157L176.532 144.343ZM175.727 142.033C175.696 141.512 175.583 141.069 175.388 140.703C175.194 140.33 174.941 140.05 174.63 139.863C174.327 139.669 173.988 139.572 173.615 139.572C173.242 139.572 172.9 139.669 172.588 139.863C172.285 140.05 172.036 140.33 171.842 140.703C171.647 141.069 171.538 141.512 171.515 142.033H175.727ZM180.896 139H181.876V146H180.896V139ZM180.85 136.62H181.923V137.74H180.85V136.62ZM183.721 139H184.631V140.12C184.841 139.708 185.132 139.397 185.506 139.187C185.879 138.969 186.295 138.86 186.754 138.86C187.477 138.86 188.053 139.093 188.481 139.56C188.916 140.027 189.134 140.653 189.134 141.438V146H188.154V141.66C188.154 141.053 188.006 140.575 187.711 140.225C187.415 139.875 187.018 139.7 186.521 139.7C186.163 139.7 185.844 139.793 185.564 139.98C185.292 140.159 185.078 140.408 184.922 140.727C184.774 141.038 184.701 141.388 184.701 141.777V146H183.721V139ZM191.366 139.84H190.013V139H191.401V138.008C191.401 137.386 191.568 136.931 191.903 136.643C192.245 136.348 192.676 136.2 193.198 136.2H194.143V137.04H193.338C192.653 137.04 192.311 137.398 192.311 138.113V139H194.143V139.84H192.346V146H191.366V139.84ZM197.691 146.21C197.116 146.21 196.591 146.066 196.116 145.778C195.65 145.491 195.28 145.074 195.008 144.53C194.736 143.978 194.6 143.324 194.6 142.57V142.43C194.6 141.676 194.736 141.026 195.008 140.482C195.28 139.929 195.65 139.509 196.116 139.222C196.591 138.934 197.116 138.79 197.691 138.79C198.267 138.79 198.788 138.934 199.255 139.222C199.729 139.509 200.102 139.929 200.375 140.482C200.647 141.026 200.783 141.676 200.783 142.43V142.57C200.783 143.324 200.647 143.978 200.375 144.53C200.102 145.074 199.729 145.491 199.255 145.778C198.788 146.066 198.267 146.21 197.691 146.21ZM195.58 142.535C195.58 143.134 195.673 143.647 195.86 144.075C196.046 144.495 196.299 144.818 196.618 145.043C196.937 145.261 197.295 145.37 197.691 145.37C198.088 145.37 198.446 145.261 198.765 145.043C199.083 144.818 199.336 144.495 199.523 144.075C199.71 143.647 199.803 143.134 199.803 142.535V142.465C199.803 141.866 199.71 141.357 199.523 140.937C199.336 140.509 199.083 140.186 198.765 139.968C198.446 139.743 198.088 139.63 197.691 139.63C197.295 139.63 196.937 139.743 196.618 139.968C196.299 140.186 196.046 140.509 195.86 140.937C195.673 141.357 195.58 141.866 195.58 142.465V142.535ZM202.017 142.08H205.097V142.92H202.017V142.08ZM206.599 139H207.579V146H206.599V139ZM206.553 136.62H207.626V137.74H206.553V136.62ZM211.99 146.14C211.43 146.14 210.921 146 210.462 145.72C210.003 145.44 209.638 145.032 209.365 144.495C209.101 143.958 208.969 143.317 208.969 142.57V142.43C208.969 141.691 209.101 141.053 209.365 140.517C209.638 139.972 210.003 139.56 210.462 139.28C210.921 139 211.43 138.86 211.99 138.86C212.62 138.86 213.177 139.039 213.659 139.397C214.149 139.754 214.507 140.264 214.732 140.925L213.822 141.112C213.659 140.653 213.41 140.303 213.075 140.062C212.749 139.821 212.387 139.7 211.99 139.7C211.609 139.7 211.263 139.809 210.952 140.027C210.649 140.237 210.404 140.552 210.217 140.972C210.038 141.384 209.949 141.882 209.949 142.465V142.535C209.949 143.118 210.038 143.62 210.217 144.04C210.404 144.452 210.649 144.767 210.952 144.985C211.263 145.195 211.609 145.3 211.99 145.3C212.387 145.3 212.749 145.179 213.075 144.938C213.41 144.697 213.659 144.347 213.822 143.888L214.732 144.075C214.507 144.744 214.149 145.257 213.659 145.615C213.177 145.965 212.62 146.14 211.99 146.14ZM218.5 146.21C217.924 146.21 217.399 146.066 216.925 145.778C216.458 145.491 216.089 145.074 215.817 144.53C215.544 143.978 215.408 143.324 215.408 142.57V142.43C215.408 141.676 215.544 141.026 215.817 140.482C216.089 139.929 216.458 139.509 216.925 139.222C217.399 138.934 217.924 138.79 218.5 138.79C219.075 138.79 219.597 138.934 220.063 139.222C220.538 139.509 220.911 139.929 221.183 140.482C221.455 141.026 221.592 141.676 221.592 142.43V142.57C221.592 143.324 221.455 143.978 221.183 144.53C220.911 145.074 220.538 145.491 220.063 145.778C219.597 146.066 219.075 146.21 218.5 146.21ZM216.388 142.535C216.388 143.134 216.482 143.647 216.668 144.075C216.855 144.495 217.108 144.818 217.427 145.043C217.745 145.261 218.103 145.37 218.5 145.37C218.897 145.37 219.254 145.261 219.573 145.043C219.892 144.818 220.145 144.495 220.332 144.075C220.518 143.647 220.612 143.134 220.612 142.535V142.465C220.612 141.866 220.518 141.357 220.332 140.937C220.145 140.509 219.892 140.186 219.573 139.968C219.254 139.743 218.897 139.63 218.5 139.63C218.103 139.63 217.745 139.743 217.427 139.968C217.108 140.186 216.855 140.509 216.668 140.937C216.482 141.357 216.388 141.866 216.388 142.465V142.535ZM222.932 139H223.842V140.12C224.052 139.708 224.343 139.397 224.717 139.187C225.09 138.969 225.506 138.86 225.965 138.86C226.688 138.86 227.264 139.093 227.692 139.56C228.127 140.027 228.345 140.653 228.345 141.438V146H227.365V141.66C227.365 141.053 227.217 140.575 226.922 140.225C226.626 139.875 226.229 139.7 225.732 139.7C225.374 139.7 225.055 139.793 224.775 139.98C224.503 140.159 224.289 140.408 224.133 140.727C223.985 141.038 223.912 141.388 223.912 141.777V146H222.932V139ZM230.105 144.74H231.178V146H230.105V144.74ZM239.484 146.14C238.753 146.14 238.088 145.946 237.489 145.557C236.898 145.168 236.427 144.604 236.077 143.865C235.735 143.118 235.564 142.232 235.564 141.205V140.995C235.564 139.968 235.735 139.086 236.077 138.347C236.427 137.6 236.898 137.032 237.489 136.643C238.088 136.254 238.753 136.06 239.484 136.06C240.254 136.06 240.942 136.278 241.549 136.713C242.155 137.149 242.61 137.779 242.914 138.603L241.642 138.953C241.432 138.409 241.137 137.997 240.755 137.717C240.374 137.437 239.95 137.297 239.484 137.297C238.986 137.297 238.539 137.441 238.142 137.728C237.753 138.016 237.446 138.44 237.22 139C237.003 139.56 236.894 140.237 236.894 141.03V141.17C236.894 141.963 237.003 142.64 237.22 143.2C237.446 143.76 237.753 144.184 238.142 144.472C238.539 144.759 238.986 144.903 239.484 144.903C239.95 144.903 240.374 144.763 240.755 144.483C241.137 144.203 241.432 143.791 241.642 143.247L242.914 143.597C242.618 144.421 242.163 145.051 241.549 145.487C240.942 145.922 240.254 146.14 239.484 146.14ZM246.069 146.14C245.626 146.14 245.229 146.058 244.879 145.895C244.537 145.724 244.269 145.491 244.074 145.195C243.888 144.892 243.794 144.549 243.794 144.168V144.075C243.794 143.678 243.891 143.317 244.086 142.99C244.28 142.663 244.572 142.403 244.961 142.208C245.358 142.014 245.84 141.917 246.408 141.917H248.344V141.462C248.344 140.948 248.208 140.552 247.936 140.272C247.664 139.984 247.286 139.84 246.804 139.84C246.415 139.84 246.077 139.937 245.789 140.132C245.509 140.326 245.291 140.606 245.136 140.972L243.993 140.75C244.241 140.104 244.619 139.63 245.124 139.327C245.63 139.016 246.209 138.86 246.863 138.86C247.71 138.86 248.368 139.089 248.834 139.548C249.301 139.999 249.534 140.622 249.534 141.415V146H248.379V144.997C248.138 145.339 247.823 145.615 247.434 145.825C247.045 146.035 246.59 146.14 246.069 146.14ZM245.031 143.97C245.031 144.336 245.155 144.627 245.404 144.845C245.653 145.055 245.984 145.16 246.396 145.16C246.761 145.16 247.092 145.078 247.388 144.915C247.683 144.752 247.916 144.526 248.088 144.238C248.259 143.943 248.344 143.608 248.344 143.235V142.733H246.559C246.069 142.733 245.692 142.846 245.428 143.072C245.163 143.297 245.031 143.597 245.031 143.97ZM251.266 139H252.409V140.003C252.627 139.622 252.915 139.338 253.272 139.152C253.638 138.957 254.035 138.86 254.462 138.86C255.193 138.86 255.777 139.093 256.212 139.56C256.648 140.027 256.866 140.653 256.866 141.438V146H255.629V141.73C255.629 141.17 255.493 140.731 255.221 140.412C254.956 140.085 254.595 139.922 254.136 139.922C253.653 139.922 253.261 140.104 252.957 140.47C252.654 140.836 252.502 141.294 252.502 141.847V146H251.266V139ZM263.92 146.14C263.344 146.14 262.819 146 262.345 145.72C261.878 145.44 261.505 145.032 261.225 144.495C260.945 143.951 260.805 143.305 260.805 142.558V142.442C260.805 141.703 260.945 141.065 261.225 140.528C261.505 139.984 261.878 139.572 262.345 139.292C262.819 139.004 263.344 138.86 263.92 138.86C264.573 138.86 265.153 139.047 265.658 139.42C266.164 139.793 266.529 140.326 266.755 141.018L265.6 141.24C265.444 140.812 265.215 140.486 264.911 140.26C264.616 140.034 264.285 139.922 263.92 139.922C263.578 139.922 263.263 140.019 262.975 140.213C262.687 140.408 262.458 140.699 262.286 141.088C262.123 141.469 262.041 141.928 262.041 142.465V142.535C262.041 143.079 262.123 143.542 262.286 143.923C262.458 144.304 262.683 144.592 262.963 144.787C263.251 144.981 263.57 145.078 263.92 145.078C264.285 145.078 264.616 144.966 264.911 144.74C265.215 144.514 265.444 144.188 265.6 143.76L266.755 143.982C266.529 144.674 266.164 145.207 265.658 145.58C265.16 145.953 264.581 146.14 263.92 146.14ZM270.552 146.21C269.961 146.21 269.421 146.066 268.931 145.778C268.448 145.491 268.067 145.071 267.787 144.518C267.507 143.966 267.367 143.313 267.367 142.558V142.442C267.367 141.687 267.507 141.034 267.787 140.482C268.067 139.929 268.448 139.509 268.931 139.222C269.421 138.934 269.961 138.79 270.552 138.79C271.143 138.79 271.68 138.934 272.162 139.222C272.645 139.509 273.026 139.929 273.306 140.482C273.593 141.034 273.737 141.687 273.737 142.442V142.558C273.737 143.313 273.593 143.966 273.306 144.518C273.026 145.071 272.645 145.491 272.162 145.778C271.68 146.066 271.143 146.21 270.552 146.21ZM268.604 142.535C268.604 143.087 268.69 143.562 268.861 143.958C269.032 144.347 269.265 144.643 269.561 144.845C269.856 145.047 270.187 145.148 270.552 145.148C270.918 145.148 271.245 145.047 271.532 144.845C271.828 144.643 272.061 144.347 272.232 143.958C272.403 143.562 272.489 143.087 272.489 142.535V142.465C272.489 141.913 272.403 141.442 272.232 141.053C272.061 140.657 271.828 140.357 271.532 140.155C271.245 139.953 270.918 139.852 270.552 139.852C270.187 139.852 269.856 139.953 269.561 140.155C269.265 140.357 269.032 140.657 268.861 141.053C268.69 141.442 268.604 141.913 268.604 142.465V142.535ZM275.014 139H276.157V140.003C276.375 139.622 276.663 139.338 277.02 139.152C277.386 138.957 277.783 138.86 278.21 138.86C278.942 138.86 279.525 139.093 279.96 139.56C280.396 140.027 280.614 140.653 280.614 141.438V146H279.377V141.73C279.377 141.17 279.241 140.731 278.969 140.412C278.704 140.085 278.343 139.922 277.884 139.922C277.402 139.922 277.009 140.104 276.705 140.47C276.402 140.836 276.25 141.294 276.25 141.847V146H275.014V139ZM284.404 146C283.836 146 283.389 145.848 283.062 145.545C282.735 145.242 282.572 144.783 282.572 144.168V140.062H281.464V139H282.619V136.9H283.774V139H285.71V140.062H283.82V143.947C283.82 144.608 284.12 144.938 284.719 144.938H285.71V146H284.404ZM288.808 146.14C288.364 146.14 287.968 146.058 287.618 145.895C287.275 145.724 287.007 145.491 286.813 145.195C286.626 144.892 286.533 144.549 286.533 144.168V144.075C286.533 143.678 286.63 143.317 286.824 142.99C287.019 142.663 287.31 142.403 287.699 142.208C288.096 142.014 288.578 141.917 289.146 141.917H291.083V141.462C291.083 140.948 290.946 140.552 290.674 140.272C290.402 139.984 290.025 139.84 289.543 139.84C289.154 139.84 288.815 139.937 288.528 140.132C288.248 140.326 288.03 140.606 287.874 140.972L286.731 140.75C286.98 140.104 287.357 139.63 287.863 139.327C288.368 139.016 288.948 138.86 289.601 138.86C290.449 138.86 291.106 139.089 291.573 139.548C292.039 139.999 292.273 140.622 292.273 141.415V146H291.118V144.997C290.876 145.339 290.561 145.615 290.173 145.825C289.784 146.035 289.329 146.14 288.808 146.14ZM287.769 143.97C287.769 144.336 287.894 144.627 288.143 144.845C288.391 145.055 288.722 145.16 289.134 145.16C289.5 145.16 289.83 145.078 290.126 144.915C290.421 144.752 290.655 144.526 290.826 144.238C290.997 143.943 291.083 143.608 291.083 143.235V142.733H289.298C288.808 142.733 288.43 142.846 288.166 143.072C287.901 143.297 287.769 143.597 287.769 143.97ZM294.016 139H295.252V146H294.016V139ZM293.981 136.503H295.287V137.857H293.981V136.503ZM296.984 139H298.128V140.003C298.346 139.622 298.633 139.338 298.991 139.152C299.357 138.957 299.753 138.86 300.181 138.86C300.912 138.86 301.496 139.093 301.931 139.56C302.367 140.027 302.584 140.653 302.584 141.438V146H301.348V141.73C301.348 141.17 301.212 140.731 300.939 140.412C300.675 140.085 300.313 139.922 299.854 139.922C299.372 139.922 298.979 140.104 298.676 140.47C298.373 140.836 298.221 141.294 298.221 141.847V146H296.984V139ZM308.974 146.14C308.53 146.14 308.134 146.058 307.784 145.895C307.441 145.724 307.173 145.491 306.979 145.195C306.792 144.892 306.699 144.549 306.699 144.168V144.075C306.699 143.678 306.796 143.317 306.99 142.99C307.185 142.663 307.476 142.403 307.865 142.208C308.262 142.014 308.744 141.917 309.312 141.917H311.249V141.462C311.249 140.948 311.112 140.552 310.84 140.272C310.568 139.984 310.191 139.84 309.709 139.84C309.32 139.84 308.981 139.937 308.694 140.132C308.414 140.326 308.196 140.606 308.04 140.972L306.897 140.75C307.146 140.104 307.523 139.63 308.029 139.327C308.534 139.016 309.114 138.86 309.767 138.86C310.615 138.86 311.272 139.089 311.739 139.548C312.205 139.999 312.439 140.622 312.439 141.415V146H311.284V144.997C311.042 145.339 310.727 145.615 310.339 145.825C309.95 146.035 309.495 146.14 308.974 146.14ZM307.935 143.97C307.935 144.336 308.06 144.627 308.309 144.845C308.557 145.055 308.888 145.16 309.3 145.16C309.666 145.16 309.996 145.078 310.292 144.915C310.587 144.752 310.821 144.526 310.992 144.238C311.163 143.943 311.249 143.608 311.249 143.235V142.733H309.464C308.974 142.733 308.596 142.846 308.332 143.072C308.067 143.297 307.935 143.597 307.935 143.97ZM318.513 146C318.023 146 317.638 145.868 317.358 145.603C317.078 145.331 316.938 144.927 316.938 144.39V136.2H318.186V144.157C318.186 144.429 318.237 144.627 318.338 144.752C318.447 144.876 318.61 144.938 318.828 144.938H319.201V146H318.513ZM320.32 139H321.557V146H320.32V139ZM320.285 136.503H321.592V137.857H320.285V136.503ZM323.289 139H324.432V140.003C324.65 139.622 324.938 139.338 325.296 139.152C325.661 138.957 326.058 138.86 326.486 138.86C327.217 138.86 327.8 139.093 328.236 139.56C328.671 140.027 328.889 140.653 328.889 141.438V146H327.652V141.73C327.652 141.17 327.516 140.731 327.244 140.412C326.98 140.085 326.618 139.922 326.159 139.922C325.677 139.922 325.284 140.104 324.981 140.47C324.677 140.836 324.526 141.294 324.526 141.847V146H323.289V139ZM330.481 136.2H331.717V142.045L334.564 139H336.081L333.327 141.905L336.232 146H334.774L332.464 142.71L331.671 143.527V146H330.481V136.2ZM337.456 144.74H338.53V146H337.456V144.74Z" fill="#1B1B1B"/>
<path d="M234.98 147.89H336.453V148.87H234.98V147.89Z" fill="#1B1B1B"/>
<g clip-path="url(#clip1_1_16709)">
<path d="M97 179C97 174.582 100.582 171 105 171H432C436.418 171 440 174.582 440 179V211C440 215.418 436.418 219 432 219H105C100.582 219 97 215.418 97 211V179Z" fill="#E2E2E2"/>
<path d="M114.44 189.8H115.64V201H114.44V189.8ZM118.105 193H119.145V194.28C119.385 193.809 119.718 193.453 120.145 193.213C120.571 192.964 121.047 192.84 121.571 192.84C122.398 192.84 123.056 193.107 123.545 193.64C124.043 194.173 124.291 194.889 124.291 195.787V201H123.171V196.04C123.171 195.347 123.003 194.8 122.665 194.4C122.327 194 121.874 193.8 121.305 193.8C120.896 193.8 120.531 193.907 120.211 194.12C119.9 194.324 119.656 194.609 119.478 194.973C119.309 195.329 119.225 195.729 119.225 196.173V201H118.105V193ZM126.183 193H127.21V194.467C127.441 193.969 127.778 193.573 128.223 193.28C128.676 192.987 129.205 192.84 129.81 192.84C130.414 192.84 130.97 192.991 131.476 193.293C131.983 193.596 132.383 194.049 132.676 194.653C132.978 195.249 133.13 195.978 133.13 196.84V197.16C133.13 198.022 132.978 198.756 132.676 199.36C132.374 199.956 131.974 200.404 131.476 200.707C130.978 201.009 130.432 201.16 129.836 201.16C129.25 201.16 128.738 201.018 128.303 200.733C127.867 200.449 127.534 200.067 127.303 199.587V204.2H126.183V193ZM127.263 197.04C127.263 197.707 127.365 198.28 127.57 198.76C127.774 199.231 128.054 199.591 128.41 199.84C128.774 200.08 129.178 200.2 129.623 200.2C130.076 200.2 130.481 200.08 130.836 199.84C131.201 199.591 131.485 199.231 131.69 198.76C131.903 198.28 132.01 197.707 132.01 197.04V196.96C132.01 196.293 131.903 195.724 131.69 195.253C131.485 194.773 131.201 194.413 130.836 194.173C130.481 193.924 130.076 193.8 129.623 193.8C129.178 193.8 128.774 193.924 128.41 194.173C128.054 194.413 127.774 194.773 127.57 195.253C127.365 195.724 127.263 196.293 127.263 196.96V197.04ZM140.694 201H139.654V199.72C139.414 200.191 139.081 200.551 138.654 200.8C138.227 201.04 137.752 201.16 137.227 201.16C136.401 201.16 135.738 200.893 135.241 200.36C134.752 199.827 134.507 199.111 134.507 198.213V193H135.627V197.96C135.627 198.653 135.796 199.2 136.134 199.6C136.472 199.991 136.925 200.187 137.494 200.187C137.903 200.187 138.263 200.084 138.574 199.88C138.894 199.676 139.138 199.396 139.307 199.04C139.485 198.676 139.574 198.271 139.574 197.827V193H140.694V201ZM145.279 201C144.683 201 144.212 200.84 143.865 200.52C143.519 200.2 143.345 199.711 143.345 199.053V193.96H141.999V193H143.385V190.6H144.425V193H146.719V193.96H144.465V198.84C144.465 199.64 144.825 200.04 145.545 200.04H146.719V201H145.279Z" fill="#1B1B1B"/>
</g>
<path d="M97.5 179C97.5 174.858 100.858 171.5 105 171.5H432C436.142 171.5 439.5 174.858 439.5 179V211C439.5 215.142 436.142 218.5 432 218.5H105C100.858 218.5 97.5 215.142 97.5 211V179Z" stroke="#6F6F6F"/>
<path d="M408 236.6C408 235.111 408 234.366 408.196 233.764C408.591 232.546 409.546 231.591 410.764 231.196C411.366 231 412.111 231 413.6 231H434.4C435.889 231 436.634 231 437.236 231.196C438.454 231.591 439.409 232.546 439.804 233.764C440 234.366 440 235.111 440 236.6V249.4C440 250.889 440 251.634 439.804 252.236C439.409 253.454 438.454 254.409 437.236 254.804C436.634 255 435.889 255 434.4 255H413.6C412.111 255 411.366 255 410.764 254.804C409.546 254.409 408.591 253.454 408.196 252.236C408 251.634 408 250.889 408 249.4V236.6Z" fill="#D7EDD9"/>
<path d="M413.306 246.938H415.907V241.082C415.907 240.312 415.915 239.759 415.931 239.425C415.487 239.783 415.083 240.086 414.717 240.335L413.527 241.128V239.845L415.942 238.2H417.144V246.938H419.302V248H413.306V246.938ZM425.18 245.737H420.653V244.757L424.876 238.2H426.3L422.076 244.663H425.18V242.4H426.323V244.663H427.35V245.737H426.323V248H425.18V245.737ZM431.699 248.14C431.061 248.14 430.485 247.965 429.972 247.615C429.466 247.265 429.062 246.732 428.759 246.017C428.463 245.293 428.315 244.407 428.315 243.357V242.843C428.315 241.793 428.463 240.911 428.759 240.195C429.062 239.472 429.466 238.935 429.972 238.585C430.485 238.235 431.061 238.06 431.699 238.06C432.336 238.06 432.908 238.235 433.414 238.585C433.927 238.935 434.331 239.472 434.627 240.195C434.93 240.911 435.082 241.793 435.082 242.843V243.357C435.082 244.407 434.93 245.293 434.627 246.017C434.331 246.732 433.927 247.265 433.414 247.615C432.908 247.965 432.336 248.14 431.699 248.14ZM429.645 243.322C429.645 244.558 429.832 245.48 430.205 246.087C430.579 246.686 431.076 246.985 431.699 246.985C432.321 246.985 432.819 246.686 433.192 246.087C433.565 245.48 433.752 244.558 433.752 243.322V242.878C433.752 241.642 433.565 240.724 433.192 240.125C432.819 239.518 432.321 239.215 431.699 239.215C431.076 239.215 430.579 239.518 430.205 240.125C429.832 240.724 429.645 241.642 429.645 242.878V243.322Z" fill="#35723D"/>
<path d="M0.5 52.6C0.5 51.111 0.5 50.3665 0.695774 49.7639C1.09145 48.5462 2.04618 47.5914 3.26393 47.1958C3.86646 47 4.61097 47 6.1 47H26.9C28.389 47 29.1335 47 29.7361 47.1958C30.9538 47.5914 31.9086 48.5462 32.3042 49.7639C32.5 50.3665 32.5 51.111 32.5 52.6V65.4C32.5 66.889 32.5 67.6335 32.3042 68.2361C31.9086 69.4538 30.9538 70.4086 29.7361 70.8042C29.1335 71 28.389 71 26.9 71H6.1C4.61097 71 3.86646 71 3.26393 70.8042C2.04618 70.4086 1.09145 69.4538 0.695774 68.2361C0.5 67.6335 0.5 66.889 0.5 65.4V52.6Z" fill="#D7D7D7"/>
<path d="M13.503 62.9383H16.1047V57.0817C16.1047 56.3117 16.1125 55.7594 16.128 55.425C15.6847 55.7828 15.2803 56.0861 14.9147 56.335L13.7247 57.1283V55.845L16.1397 54.2H17.3414V62.9383H19.4997V64H13.503V62.9383Z" fill="#1B1B1B"/>
<path d="M91.5 56C93.7091 56 95.5 57.7909 95.5 60C95.5 62.2091 93.7091 64 91.5 64C89.2909 64 87.5 62.2091 87.5 60C87.5 57.7909 89.2909 56 91.5 56Z" fill="#35723D"/>
<path d="M99.5 60C99.5 55.5817 95.9183 52 91.5 52C87.0817 52 83.5 55.5817 83.5 60C83.5 64.4183 87.0817 68 91.5 68C95.9183 68 99.5 64.4183 99.5 60Z" stroke="#35723D" stroke-opacity="0.2" stroke-width="8"/>
<path d="M42.6667 60C42.6667 58.5272 41.4728 57.3333 40 57.3333C38.5272 57.3333 37.3333 58.5272 37.3333 60C37.3333 61.4728 38.5272 62.6667 40 62.6667C41.4728 62.6667 42.6667 61.4728 42.6667 60ZM88 59.5H40V60.5H88V59.5Z" fill="#35723D"/>
<path d="M0.5 188.6C0.5 187.111 0.5 186.366 0.695774 185.764C1.09145 184.546 2.04618 183.591 3.26393 183.196C3.86646 183 4.61097 183 6.1 183H26.9C28.389 183 29.1335 183 29.7361 183.196C30.9538 183.591 31.9086 184.546 32.3042 185.764C32.5 186.366 32.5 187.111 32.5 188.6V201.4C32.5 202.889 32.5 203.634 32.3042 204.236C31.9086 205.454 30.9538 206.409 29.7361 206.804C29.1335 207 28.389 207 26.9 207H6.1C4.61097 207 3.86646 207 3.26393 206.804C2.04618 206.409 1.09145 205.454 0.695774 204.236C0.5 203.634 0.5 202.889 0.5 201.4V188.6Z" fill="#D7D7D7"/>
<path d="M18.2864 191.32C17.8197 191.343 17.3841 191.355 16.9797 191.355H13.293V190.2H19.7097V191.215L15.6264 200H14.2147L18.2864 191.32Z" fill="#1B1B1B"/>
<path d="M108.5 191C110.709 191 112.5 192.791 112.5 195C112.5 197.209 110.709 199 108.5 199L108.184 199C105.975 199 104.184 197.209 104.184 195C104.184 192.791 105.975 191 108.184 191L108.5 191Z" fill="#35723D"/>
<path d="M116.5 195C116.5 190.582 112.918 187 108.5 187L108.184 187C103.766 187 100.184 190.582 100.184 195C100.184 199.418 103.766 203 108.184 203L108.5 203C112.918 203 116.5 199.418 116.5 195Z" stroke="#35723D" stroke-opacity="0.2" stroke-width="8"/>
<path d="M41.6667 195C41.6667 193.527 40.4728 192.333 39 192.333C37.5272 192.333 36.3333 193.527 36.3333 195C36.3333 196.473 37.5272 197.667 39 197.667C40.4728 197.667 41.6667 196.473 41.6667 195ZM109 194.5H39V195.5H109V194.5Z" fill="#35723D"/>
<path d="M169.5 5.6C169.5 4.11097 169.5 3.36646 169.696 2.76393C170.091 1.54618 171.046 0.591446 172.264 0.195774C172.866 0 173.611 0 175.1 0H195.9C197.389 0 198.134 0 198.736 0.195774C199.954 0.591446 200.909 1.54618 201.304 2.76393C201.5 3.36646 201.5 4.11097 201.5 5.6V18.4C201.5 19.889 201.5 20.6335 201.304 21.2361C200.909 22.4538 199.954 23.4086 198.736 23.8042C198.134 24 197.389 24 195.9 24H175.1C173.611 24 172.866 24 172.264 23.8042C171.046 23.4086 170.091 22.4538 169.696 21.2361C169.5 20.6335 169.5 19.889 169.5 18.4V5.6Z" fill="#D7D7D7"/>
<path d="M182.293 15.985L186.236 11.9133C186.602 11.5322 186.866 11.19 187.03 10.8867C187.201 10.5756 187.286 10.2606 187.286 9.94167V9.895C187.286 9.35833 187.111 8.93444 186.761 8.62333C186.419 8.30444 185.999 8.145 185.501 8.145C184.965 8.145 184.517 8.32778 184.16 8.69333C183.802 9.05111 183.604 9.55278 183.565 10.1983L182.316 9.965C182.379 9.34278 182.557 8.81 182.853 8.36667C183.156 7.91556 183.541 7.57333 184.008 7.34C184.475 7.10667 184.984 6.99 185.536 6.99C186.089 6.99 186.594 7.10278 187.053 7.32833C187.512 7.55389 187.877 7.88444 188.15 8.32C188.43 8.74778 188.57 9.25333 188.57 9.83667V9.94167C188.57 10.3928 188.449 10.84 188.208 11.2833C187.967 11.7267 187.597 12.2011 187.1 12.7067L185.128 14.7133C184.685 15.1722 184.276 15.565 183.903 15.8917C184.339 15.8606 184.817 15.845 185.338 15.845H188.71V17H182.293V15.985Z" fill="#1B1B1B"/>
<path d="M185 68C187.209 68 189 69.7909 189 72C189 74.2091 187.209 76 185 76C182.791 76 181 74.2091 181 72C181 69.7909 182.791 68 185 68Z" fill="#35723D"/>
<path d="M193 72C193 67.5817 189.418 64 185 64C180.582 64 177 67.5817 177 72C177 76.4183 180.582 80 185 80C189.418 80 193 76.4183 193 72Z" stroke="#35723D" stroke-opacity="0.2" stroke-width="8"/>
<path d="M185 34.6667C186.473 34.6667 187.667 33.4728 187.667 32C187.667 30.5272 186.473 29.3333 185 29.3333C183.527 29.3333 182.333 30.5272 182.333 32C182.333 33.4728 183.527 34.6667 185 34.6667ZM185.5 73L185.5 32L184.5 32L184.5 73L185.5 73Z" fill="#35723D"/>
<path d="M492.5 188.6C492.5 187.111 492.5 186.366 492.696 185.764C493.091 184.546 494.046 183.591 495.264 183.196C495.866 183 496.611 183 498.1 183H518.9C520.389 183 521.134 183 521.736 183.196C522.954 183.591 523.909 184.546 524.304 185.764C524.5 186.366 524.5 187.111 524.5 188.6V201.4C524.5 202.889 524.5 203.634 524.304 204.236C523.909 205.454 522.954 206.409 521.736 206.804C521.134 207 520.389 207 518.9 207H498.1C496.611 207 495.866 207 495.264 206.804C494.046 206.409 493.091 205.454 492.696 204.236C492.5 203.634 492.5 202.889 492.5 201.4V188.6Z" fill="#D7D7D7"/>
<path d="M508.501 200.175C507.902 200.175 507.342 200.062 506.821 199.837C506.308 199.603 505.896 199.269 505.585 198.833C505.274 198.39 505.118 197.869 505.118 197.27V197.165C505.118 196.605 505.266 196.115 505.561 195.695C505.865 195.275 506.269 194.944 506.775 194.703C506.378 194.509 506.063 194.237 505.83 193.887C505.604 193.537 505.491 193.132 505.491 192.673V192.58C505.491 192.059 505.631 191.608 505.911 191.227C506.191 190.838 506.561 190.542 507.02 190.34C507.479 190.13 507.972 190.025 508.501 190.025C509.03 190.025 509.524 190.13 509.983 190.34C510.442 190.542 510.811 190.838 511.091 191.227C511.371 191.608 511.511 192.059 511.511 192.58V192.673C511.511 193.132 511.395 193.537 511.161 193.887C510.936 194.237 510.625 194.509 510.228 194.703C510.734 194.944 511.134 195.275 511.43 195.695C511.733 196.115 511.885 196.605 511.885 197.165V197.27C511.885 197.869 511.729 198.39 511.418 198.833C511.107 199.269 510.691 199.603 510.17 199.837C509.656 200.062 509.1 200.175 508.501 200.175ZM506.401 197.2C506.401 197.597 506.499 197.943 506.693 198.238C506.887 198.526 507.144 198.744 507.463 198.892C507.782 199.039 508.128 199.113 508.501 199.113C508.875 199.113 509.221 199.039 509.54 198.892C509.859 198.744 510.115 198.526 510.31 198.238C510.504 197.943 510.601 197.597 510.601 197.2V197.153C510.601 196.757 510.504 196.414 510.31 196.127C510.115 195.831 509.859 195.609 509.54 195.462C509.221 195.306 508.875 195.228 508.501 195.228C508.128 195.228 507.782 195.306 507.463 195.462C507.144 195.609 506.887 195.831 506.693 196.127C506.499 196.414 506.401 196.757 506.401 197.153V197.2ZM506.705 192.732C506.705 193.229 506.88 193.622 507.23 193.91C507.58 194.198 508.004 194.342 508.501 194.342C508.999 194.342 509.423 194.198 509.773 193.91C510.123 193.622 510.298 193.229 510.298 192.732V192.685C510.298 192.351 510.212 192.063 510.041 191.822C509.878 191.581 509.66 191.398 509.388 191.273C509.116 191.149 508.82 191.087 508.501 191.087C508.182 191.087 507.887 191.149 507.615 191.273C507.342 191.398 507.121 191.581 506.95 191.822C506.786 192.063 506.705 192.351 506.705 192.685V192.732Z" fill="#1B1B1B"/>
<path d="M429.5 191C431.709 191 433.5 192.791 433.5 195C433.5 197.209 431.709 199 429.5 199C427.291 199 425.5 197.209 425.5 195C425.5 192.791 427.291 191 429.5 191Z" fill="#35723D"/>
<path d="M437.5 195C437.5 190.582 433.918 187 429.5 187C425.082 187 421.5 190.582 421.5 195C421.5 199.418 425.082 203 429.5 203C433.918 203 437.5 199.418 437.5 195Z" stroke="#35723D" stroke-opacity="0.2" stroke-width="8"/>
<path d="M483.333 195C483.333 196.473 484.527 197.667 486 197.667C487.473 197.667 488.667 196.473 488.667 195C488.667 193.527 487.473 192.333 486 192.333C484.527 192.333 483.333 193.527 483.333 195ZM429 195.5L486 195.5L486 194.5L429 194.5L429 195.5Z" fill="#35723D"/>
<path d="M492.5 51.6C492.5 50.111 492.5 49.3665 492.696 48.7639C493.091 47.5462 494.046 46.5914 495.264 46.1958C495.866 46 496.611 46 498.1 46H518.9C520.389 46 521.134 46 521.736 46.1958C522.954 46.5914 523.909 47.5462 524.304 48.7639C524.5 49.3665 524.5 50.111 524.5 51.6V64.4C524.5 65.889 524.5 66.6335 524.304 67.2361C523.909 68.4538 522.954 69.4086 521.736 69.8042C521.134 70 520.389 70 518.9 70H498.1C496.611 70 495.866 70 495.264 69.8042C494.046 69.4086 493.091 68.4538 492.696 67.2361C492.5 66.6335 492.5 65.889 492.5 64.4V51.6Z" fill="#D7D7D7"/>
<path d="M508.513 63.21C507.743 63.21 507.047 63.0078 506.425 62.6033C505.81 62.1989 505.386 61.5883 505.153 60.7717L506.401 60.5383C506.549 61.0906 506.817 61.4989 507.206 61.7633C507.603 62.02 508.039 62.1483 508.513 62.1483C508.894 62.1483 509.244 62.0667 509.563 61.9033C509.882 61.7322 510.135 61.4911 510.321 61.18C510.508 60.8689 510.601 60.5072 510.601 60.095V60.0483C510.601 59.6283 510.512 59.2706 510.333 58.975C510.154 58.6717 509.913 58.4422 509.61 58.2867C509.306 58.1311 508.972 58.0533 508.606 58.0533C508.163 58.0533 507.762 58.1778 507.405 58.4267L506.705 57.68L508.711 55.4867C509.124 55.0356 509.516 54.6428 509.89 54.3083C509.446 54.3394 508.968 54.355 508.455 54.355H505.713V53.2H511.29V54.2383L509.003 56.7L508.595 57.12C508.649 57.1122 508.735 57.1083 508.851 57.1083C509.427 57.1083 509.944 57.225 510.403 57.4583C510.862 57.6839 511.224 58.0144 511.488 58.45C511.752 58.8778 511.885 59.3872 511.885 59.9783V60.095C511.885 60.725 511.733 61.2772 511.43 61.7517C511.126 62.2183 510.718 62.58 510.205 62.8367C509.691 63.0856 509.127 63.21 508.513 63.21Z" fill="#1B1B1B"/>
<path d="M436.5 55C438.709 55 440.5 56.7909 440.5 59C440.5 61.2091 438.709 63 436.5 63C434.291 63 432.5 61.2091 432.5 59C432.5 56.7909 434.291 55 436.5 55Z" fill="#35723D"/>
<path d="M444.5 59C444.5 54.5817 440.918 51 436.5 51C432.082 51 428.5 54.5817 428.5 59C428.5 63.4183 432.082 67 436.5 67C440.918 67 444.5 63.4183 444.5 59Z" stroke="#35723D" stroke-opacity="0.2" stroke-width="8"/>
<path d="M482.833 59C482.833 60.4728 484.027 61.6667 485.5 61.6667C486.973 61.6667 488.167 60.4728 488.167 59C488.167 57.5272 486.973 56.3333 485.5 56.3333C484.027 56.3333 482.833 57.5272 482.833 59ZM434.5 59.5L485.5 59.5L485.5 58.5L434.5 58.5L434.5 59.5Z" fill="#35723D"/>
<path d="M492.5 123.6C492.5 122.111 492.5 121.366 492.696 120.764C493.091 119.546 494.046 118.591 495.264 118.196C495.866 118 496.611 118 498.1 118H518.9C520.389 118 521.134 118 521.736 118.196C522.954 118.591 523.909 119.546 524.304 120.764C524.5 121.366 524.5 122.111 524.5 123.6V136.4C524.5 137.889 524.5 138.634 524.304 139.236C523.909 140.454 522.954 141.409 521.736 141.804C521.134 142 520.389 142 518.9 142H498.1C496.611 142 495.866 142 495.264 141.804C494.046 141.409 493.091 140.454 492.696 139.236C492.5 138.634 492.5 137.889 492.5 136.4V123.6Z" fill="#D7D7D7"/>
<path d="M509.68 132.737H505.153V131.757L509.376 125.2H510.8L506.576 131.663H509.68V129.4H510.823V131.663H511.85V132.737H510.823V135H509.68V132.737Z" fill="#1B1B1B"/>
<path d="M420.5 127C422.709 127 424.5 128.791 424.5 131C424.5 133.209 422.709 135 420.5 135C418.291 135 416.5 133.209 416.5 131C416.5 128.791 418.291 127 420.5 127Z" fill="#35723D"/>
<path d="M428.5 131C428.5 126.582 424.918 123 420.5 123C416.082 123 412.5 126.582 412.5 131C412.5 135.418 416.082 139 420.5 139C424.918 139 428.5 135.418 428.5 131Z" stroke="#35723D" stroke-opacity="0.2" stroke-width="8"/>
<path d="M483.333 131C483.333 132.473 484.527 133.667 486 133.667C487.473 133.667 488.667 132.473 488.667 131C488.667 129.527 487.473 128.333 486 128.333C484.527 128.333 483.333 129.527 483.333 131ZM419 131.5H486V130.5H419V131.5Z" fill="#35723D"/>
<path d="M492.5 236.6C492.5 235.111 492.5 234.366 492.696 233.764C493.091 232.546 494.046 231.591 495.264 231.196C495.866 231 496.611 231 498.1 231H518.9C520.389 231 521.134 231 521.736 231.196C522.954 231.591 523.909 232.546 524.304 233.764C524.5 234.366 524.5 235.111 524.5 236.6V249.4C524.5 250.889 524.5 251.634 524.304 252.236C523.909 253.454 522.954 254.409 521.736 254.804C521.134 255 520.389 255 518.9 255H498.1C496.611 255 495.866 255 495.264 254.804C494.046 254.409 493.091 253.454 492.696 252.236C492.5 251.634 492.5 250.889 492.5 249.4V236.6Z" fill="#D7D7D7"/>
<path d="M501.654 246.938H504.256V241.082C504.256 240.312 504.264 239.759 504.279 239.425C503.836 239.783 503.432 240.086 503.066 240.335L501.876 241.128V239.845L504.291 238.2H505.493V246.938H507.651V248H501.654V246.938ZM512.35 248.14C511.712 248.14 511.137 247.965 510.623 247.615C510.118 247.265 509.713 246.732 509.41 246.017C509.114 245.293 508.967 244.407 508.967 243.357V242.843C508.967 241.793 509.114 240.911 509.41 240.195C509.713 239.472 510.118 238.935 510.623 238.585C511.137 238.235 511.712 238.06 512.35 238.06C512.988 238.06 513.559 238.235 514.065 238.585C514.578 238.935 514.983 239.472 515.278 240.195C515.582 240.911 515.733 241.793 515.733 242.843V243.357C515.733 244.407 515.582 245.293 515.278 246.017C514.983 246.732 514.578 247.265 514.065 247.615C513.559 247.965 512.988 248.14 512.35 248.14ZM510.297 243.322C510.297 244.558 510.483 245.48 510.857 246.087C511.23 246.686 511.728 246.985 512.35 246.985C512.972 246.985 513.47 246.686 513.843 246.087C514.217 245.48 514.403 244.558 514.403 243.322V242.878C514.403 241.642 514.217 240.724 513.843 240.125C513.47 239.518 512.972 239.215 512.35 239.215C511.728 239.215 511.23 239.518 510.857 240.125C510.483 240.724 510.297 241.642 510.297 242.878V243.322Z" fill="#1B1B1B"/>
<path d="M441.5 239C443.709 239 445.5 240.791 445.5 243C445.5 245.209 443.709 247 441.5 247C439.291 247 437.5 245.209 437.5 243C437.5 240.791 439.291 239 441.5 239Z" fill="#35723D"/>
<path d="M449.5 243C449.5 238.582 445.918 235 441.5 235C437.082 235 433.5 238.582 433.5 243C433.5 247.418 437.082 251 441.5 251C445.918 251 449.5 247.418 449.5 243Z" stroke="#35723D" stroke-opacity="0.2" stroke-width="8"/>
<path d="M482.333 243C482.333 244.473 483.527 245.667 485 245.667C486.473 245.667 487.667 244.473 487.667 243C487.667 241.527 486.473 240.333 485 240.333C483.527 240.333 482.333 241.527 482.333 243ZM439.5 243.5L485 243.5L485 242.5L439.5 242.5V243.5Z" fill="#35723D"/>
<path d="M144.5 250.6C144.5 249.111 144.5 248.366 144.696 247.764C145.091 246.546 146.046 245.591 147.264 245.196C147.866 245 148.611 245 150.1 245H170.9C172.389 245 173.134 245 173.736 245.196C174.954 245.591 175.909 246.546 176.304 247.764C176.5 248.366 176.5 249.111 176.5 250.6V263.4C176.5 264.889 176.5 265.634 176.304 266.236C175.909 267.454 174.954 268.409 173.736 268.804C173.134 269 172.389 269 170.9 269H150.1C148.611 269 147.866 269 147.264 268.804C146.046 268.409 145.091 267.454 144.696 266.236C144.5 265.634 144.5 264.889 144.5 263.4V250.6Z" fill="#D7D7D7"/>
<path d="M160.501 262.21C159.895 262.21 159.331 262.082 158.81 261.825C158.296 261.561 157.884 261.183 157.573 260.693C157.27 260.203 157.118 259.632 157.118 258.978V258.885C157.118 258.442 157.188 258.018 157.328 257.613C157.476 257.209 157.647 256.855 157.841 256.552C158.036 256.241 158.277 255.891 158.565 255.502L161.038 252.2H162.496L161.19 253.927C160.521 254.829 159.957 255.541 159.498 256.062C159.864 255.782 160.287 255.642 160.77 255.642C161.322 255.642 161.835 255.77 162.31 256.027C162.784 256.283 163.165 256.653 163.453 257.135C163.741 257.617 163.885 258.181 163.885 258.827V258.92C163.885 259.581 163.729 260.161 163.418 260.658C163.115 261.156 162.702 261.541 162.181 261.813C161.668 262.078 161.108 262.21 160.501 262.21ZM158.355 258.943C158.355 259.394 158.452 259.787 158.646 260.122C158.849 260.456 159.113 260.713 159.44 260.892C159.766 261.063 160.12 261.148 160.501 261.148C160.882 261.148 161.236 261.063 161.563 260.892C161.89 260.713 162.15 260.456 162.345 260.122C162.547 259.779 162.648 259.383 162.648 258.932V258.885C162.648 258.434 162.547 258.045 162.345 257.718C162.15 257.384 161.89 257.131 161.563 256.96C161.236 256.789 160.882 256.703 160.501 256.703C160.12 256.703 159.766 256.793 159.44 256.972C159.113 257.143 158.849 257.396 158.646 257.73C158.452 258.057 158.355 258.446 158.355 258.897V258.943Z" fill="#1B1B1B"/>
<path d="M160 205C162.209 205 164 206.791 164 209C164 211.209 162.209 213 160 213C157.791 213 156 211.209 156 209C156 206.791 157.791 205 160 205Z" fill="#35723D"/>
<path d="M168 209C168 204.582 164.418 201 160 201C155.582 201 152 204.582 152 209C152 213.418 155.582 217 160 217C164.418 217 168 213.418 168 209Z" stroke="#35723D" stroke-opacity="0.2" stroke-width="8"/>
<path d="M160 235.333C158.527 235.333 157.333 236.527 157.333 238C157.333 239.473 158.527 240.667 160 240.667C161.473 240.667 162.667 239.473 162.667 238C162.667 236.527 161.473 235.333 160 235.333ZM159.5 207L159.5 238L160.5 238L160.5 207L159.5 207Z" fill="#35723D"/>
<path d="M283.5 250.6C283.5 249.111 283.5 248.366 283.696 247.764C284.091 246.546 285.046 245.591 286.264 245.196C286.866 245 287.611 245 289.1 245H309.9C311.389 245 312.134 245 312.736 245.196C313.954 245.591 314.909 246.546 315.304 247.764C315.5 248.366 315.5 249.111 315.5 250.6V263.4C315.5 264.889 315.5 265.634 315.304 266.236C314.909 267.454 313.954 268.409 312.736 268.804C312.134 269 311.389 269 309.9 269H289.1C287.611 269 286.866 269 286.264 268.804C285.046 268.409 284.091 267.454 283.696 266.236C283.5 265.634 283.5 264.889 283.5 263.4V250.6Z" fill="#D7D7D7"/>
<path d="M299.49 262.21C298.72 262.21 298.027 262.008 297.413 261.603C296.806 261.191 296.386 260.581 296.153 259.772L297.401 259.538C297.549 260.075 297.817 260.479 298.206 260.752C298.603 261.016 299.039 261.148 299.513 261.148C299.902 261.148 300.252 261.063 300.563 260.892C300.882 260.713 301.135 260.456 301.321 260.122C301.508 259.779 301.601 259.379 301.601 258.92V258.873C301.601 258.189 301.415 257.656 301.041 257.275C300.668 256.894 300.194 256.703 299.618 256.703C299.198 256.703 298.836 256.801 298.533 256.995C298.237 257.182 298 257.427 297.821 257.73L296.853 257.543V252.2H302.185V253.355H297.996V255.303C297.996 255.77 297.989 256.136 297.973 256.4C298.183 256.159 298.444 255.972 298.755 255.84C299.074 255.708 299.431 255.642 299.828 255.642C300.396 255.642 300.909 255.766 301.368 256.015C301.835 256.256 302.204 256.614 302.476 257.088C302.749 257.563 302.885 258.131 302.885 258.792V258.92C302.885 259.581 302.733 260.161 302.43 260.658C302.126 261.156 301.714 261.541 301.193 261.813C300.68 262.078 300.112 262.21 299.49 262.21Z" fill="#1B1B1B"/>
<path d="M299 191C301.209 191 303 192.791 303 195C303 197.209 301.209 199 299 199C296.791 199 295 197.209 295 195C295 192.791 296.791 191 299 191Z" fill="#35723D"/>
<path d="M307 195C307 190.582 303.418 187 299 187C294.582 187 291 190.582 291 195C291 199.418 294.582 203 299 203C303.418 203 307 199.418 307 195Z" stroke="#35723D" stroke-opacity="0.2" stroke-width="8"/>
<path d="M299 235.333C297.527 235.333 296.333 236.527 296.333 238C296.333 239.473 297.527 240.667 299 240.667C300.473 240.667 301.667 239.473 301.667 238C301.667 236.527 300.473 235.333 299 235.333ZM298.5 193L298.5 238L299.5 238L299.5 193L298.5 193Z" fill="#35723D"/>
<path d="M359.5 250.6C359.5 249.111 359.5 248.366 359.696 247.764C360.091 246.546 361.046 245.591 362.264 245.196C362.866 245 363.611 245 365.1 245H385.9C387.389 245 388.134 245 388.736 245.196C389.954 245.591 390.909 246.546 391.304 247.764C391.5 248.366 391.5 249.111 391.5 250.6V263.4C391.5 264.889 391.5 265.634 391.304 266.236C390.909 267.454 389.954 268.409 388.736 268.804C388.134 269 387.389 269 385.9 269H365.1C363.611 269 362.866 269 362.264 268.804C361.046 268.409 360.091 267.454 359.696 266.236C359.5 265.634 359.5 264.889 359.5 263.4V250.6Z" fill="#D7D7D7"/>
<path d="M374.813 260.273C375.482 259.371 376.038 258.667 376.481 258.162C376.131 258.426 375.715 258.558 375.233 258.558C374.681 258.558 374.167 258.43 373.693 258.173C373.219 257.917 372.837 257.547 372.55 257.065C372.262 256.583 372.118 256.019 372.118 255.373V255.28C372.118 254.619 372.27 254.039 372.573 253.542C372.884 253.044 373.296 252.663 373.81 252.398C374.331 252.126 374.895 251.99 375.501 251.99C376.108 251.99 376.668 252.122 377.181 252.387C377.702 252.643 378.115 253.013 378.418 253.495C378.729 253.977 378.885 254.541 378.885 255.187V255.28C378.885 255.918 378.752 256.501 378.488 257.03C378.224 257.551 377.874 258.107 377.438 258.698L374.965 262H373.506L374.813 260.273ZM373.355 255.315C373.355 255.766 373.452 256.159 373.646 256.493C373.849 256.82 374.113 257.069 374.44 257.24C374.766 257.411 375.12 257.497 375.501 257.497C375.882 257.497 376.236 257.411 376.563 257.24C376.89 257.061 377.15 256.808 377.345 256.482C377.547 256.147 377.648 255.754 377.648 255.303V255.257C377.648 254.806 377.547 254.413 377.345 254.078C377.15 253.744 376.89 253.491 376.563 253.32C376.236 253.141 375.882 253.052 375.501 253.052C375.12 253.052 374.766 253.141 374.44 253.32C374.113 253.499 373.849 253.759 373.646 254.102C373.452 254.436 373.355 254.825 373.355 255.268V255.315Z" fill="#1B1B1B"/>
<path d="M375 201C377.209 201 379 202.791 379 205C379 207.209 377.209 209 375 209C372.791 209 371 207.209 371 205C371 202.791 372.791 201 375 201Z" fill="#35723D"/>
<path d="M383 205C383 200.582 379.418 197 375 197C370.582 197 367 200.582 367 205C367 209.418 370.582 213 375 213C379.418 213 383 209.418 383 205Z" stroke="#35723D" stroke-opacity="0.2" stroke-width="8"/>
<path d="M375 235.333C373.527 235.333 372.333 236.527 372.333 238C372.333 239.473 373.527 240.667 375 240.667C376.473 240.667 377.667 239.473 377.667 238C377.667 236.527 376.473 235.333 375 235.333ZM374.5 205L374.5 238L375.5 238L375.5 205L374.5 205Z" fill="#35723D"/>
<defs>
<clipPath id="clip0_1_16709">
<rect x="408" y="43" width="32" height="32" rx="16" fill="white"/>
</clipPath>
<clipPath id="clip1_1_16709">
<path d="M97 179C97 174.582 100.582 171 105 171H432C436.418 171 440 174.582 440 179V211C440 215.418 436.418 219 432 219H105C100.582 219 97 215.418 97 211V179Z" fill="white"/>
</clipPath>
</defs>
</svg>
