<svg width="24" height="24" viewBox="0 0 24 24" fill="none" xmlns="http://www.w3.org/2000/svg">
<path d="M12.7202 17.22L9.68016 20.26C9.58016 20.36 9.42016 20.36 9.33016 20.26L3.73016 14.67C3.63016 14.57 3.63016 14.41 3.73016 14.32L6.77016 11.28C7.06016 10.99 7.06016 10.51 6.77016 10.22C6.48016 9.93003 6.00016 9.93003 5.71016 10.22L2.67016 13.26C1.99016 13.94 1.99016 15.05 2.67016 15.73L8.26016 21.32C8.94016 22 10.0502 22 10.7302 21.32L13.7702 18.28C14.0602 17.99 14.0602 17.51 13.7702 17.22C13.4802 16.93 13.0002 16.93 12.7102 17.22H12.7202Z" fill="#353531"/>
<path d="M14.4702 8.47003L8.47016 14.47C8.18016 14.76 8.18016 15.24 8.47016 15.53C8.76016 15.82 9.24016 15.82 9.53016 15.53L15.5302 9.53003C15.8202 9.24003 15.8202 8.76003 15.5302 8.47003C15.2402 8.18003 14.7602 8.18003 14.4702 8.47003Z" fill="#353531"/>
<path d="M21.3202 8.26003L15.7302 2.67003C15.0502 1.99003 13.9402 1.99003 13.2602 2.67003L10.2202 5.71003C9.93016 6.00003 9.93016 6.48003 10.2202 6.77003C10.5102 7.06003 10.9902 7.06003 11.2802 6.77003L14.3202 3.73003C14.4202 3.63003 14.5802 3.63003 14.6702 3.73003L20.2602 9.32003C20.3602 9.42003 20.3602 9.58003 20.2602 9.67003L17.2202 12.71C16.9302 13 16.9302 13.48 17.2202 13.77C17.5102 14.06 17.9902 14.06 18.2802 13.77L21.3202 10.73C22.0002 10.05 22.0002 8.94003 21.3202 8.26003Z" fill="#353531"/>
</svg>
