<svg width="24" height="24" viewBox="0 0 24 24" fill="none" xmlns="http://www.w3.org/2000/svg">
<path d="M17.25 6.75V3.75C17.25 3.19772 16.8023 2.75 16.25 2.75H3.75C3.19772 2.75 2.75 3.19772 2.75 3.75V16.25C2.75 16.8023 3.19772 17.25 3.75 17.25H6.75M9.32626 21.25C9.78713 18.9642 11.7046 17.25 14 17.25C16.2954 17.25 18.2129 18.9642 18.6737 21.25M9.32626 21.25H7.75C7.19772 21.25 6.75 20.8023 6.75 20.25V7.75C6.75 7.19772 7.19772 6.75 7.75 6.75H20.25C20.8023 6.75 21.25 7.19772 21.25 7.75V20.25C21.25 20.8023 20.8023 21.25 20.25 21.25H18.6737M9.32626 21.25H18.6737M16.25 12.5C16.25 13.7426 15.2426 14.75 14 14.75C12.7574 14.75 11.75 13.7426 11.75 12.5C11.75 11.2574 12.7574 10.25 14 10.25C15.2426 10.25 16.25 11.2574 16.25 12.5Z" stroke="#353531" stroke-width="1.5" stroke-linecap="square" stroke-linejoin="round"/>
</svg>
