<svg xmlns="http://www.w3.org/2000/svg" fill="none" width="24" height="24" viewBox="0 0 24 24"><path d="M18.0799 4.11251C17.5868 4.0224 17.0804 4.0673 16.6095 4.24666C15.0299 4.84827 10.2771 6.65651 8.26179 7.40193C7.90222 7.53492 7.50317 7.49913 7.17102 7.30272L4.54044 5.74721C4.34608 5.63229 4.11029 5.61104 3.89852 5.68937L1.48983 6.58027C1.27478 6.65981 1.10793 6.83335 1.0369 7.05136C0.965869 7.26937 0.998466 7.50789 1.12539 7.69885L3.24376 10.886L2.83814 11.6471C2.73417 11.8421 2.72155 12.0731 2.80365 12.2784L3.07547 12.9579C3.63163 14.3483 5.19803 15.0381 6.5992 14.5097L9.36931 13.465L9.65651 15.8592C9.68386 16.0871 9.81414 16.29 10.0101 16.4098C10.206 16.5295 10.446 16.5529 10.6613 16.4733L13.5518 15.4042C13.7289 15.3387 13.8748 15.2087 13.9603 15.0403L16.0409 10.9426L20.7606 9.05235C21.6602 8.69204 22.25 7.8205 22.25 6.8514C22.25 5.70636 21.4316 4.72493 20.3053 4.51911L18.0799 4.11251Z" fill="currentColor"/>
<path d="M2.75 18.4998C2.33579 18.4998 2 18.8356 2 19.2498C2 19.664 2.33579 19.9998 2.75 19.9998H21.25C21.6642 19.9998 22 19.664 22 19.2498C22 18.8356 21.6642 18.4998 21.25 18.4998H2.75Z" fill="currentColor"/></svg>