<svg xmlns="http://www.w3.org/2000/svg" fill="none" width="24" height="24" viewBox="0 0 24 24"><path fill-rule="evenodd" clip-rule="evenodd" d="M12 3C12.1989 3 12.3897 3.07902 12.5303 3.21967L17.0303 7.71967C17.3232 8.01256 17.3232 8.48744 17.0303 8.78033C16.7374 9.07322 16.2626 9.07322 15.9697 8.78033L12.75 5.56066V15C12.75 15.4142 12.4142 15.75 12 15.75C11.5858 15.75 11.25 15.4142 11.25 15V5.56066L8.03033 8.78033C7.73744 9.07322 7.26256 9.07322 6.96967 8.78033C6.67678 8.48744 6.67678 8.01256 6.96967 7.71967L11.4697 3.21967C11.6103 3.07902 11.8011 3 12 3Z" fill="currentColor"/>
<path fill-rule="evenodd" clip-rule="evenodd" d="M3.75 12C4.16421 12 4.5 12.3358 4.5 12.75V19.5H19.5V12.75C19.5 12.3358 19.8358 12 20.25 12C20.6642 12 21 12.3358 21 12.75V20.25C21 20.6642 20.6642 21 20.25 21H3.75C3.33579 21 3 20.6642 3 20.25V12.75C3 12.3358 3.33579 12 3.75 12Z" fill="currentColor"/></svg>