<svg xmlns="http://www.w3.org/2000/svg" fill="none" width="24" height="24" viewBox="0 0 24 24"><path fill-rule="evenodd" clip-rule="evenodd" d="M12 2C17.5228 2 22 6.47715 22 12C22 17.5228 17.5228 22 12 22C6.47715 22 2 17.5228 2 12C2 6.47715 6.47715 2 12 2ZM13.5303 8.21967L16.7803 11.4697C17.0732 11.7626 17.0732 12.2374 16.7803 12.5303L13.5303 15.7803C13.2374 16.0732 12.7626 16.0732 12.4697 15.7803C12.1768 15.4874 12.1768 15.0126 12.4697 14.7197L14.4393 12.75H7.75C7.33579 12.75 7 12.4142 7 12C7 11.5858 7.33579 11.25 7.75 11.25H14.4393L12.4697 9.28033C12.1768 8.98744 12.1768 8.51256 12.4697 8.21967C12.7626 7.92678 13.2374 7.92678 13.5303 8.21967Z" fill="currentColor"/></svg>