<svg xmlns="http://www.w3.org/2000/svg" fill="none" width="24" height="24" viewBox="0 0 24 24"><path fill-rule="evenodd" clip-rule="evenodd" d="M22 12C22 6.47715 17.5228 2 12 2C6.47715 2 2 6.47715 2 12C2 17.5228 6.47715 22 12 22C17.5228 22 22 17.5228 22 12ZM16 8.75C16 8.33579 15.6642 8 15.25 8H9.75C9.33579 8 9 8.33579 9 8.75C9 9.16421 9.33579 9.5 9.75 9.5H13.4393L8.21967 14.7197C7.92678 15.0126 7.92678 15.4874 8.21967 15.7803C8.51256 16.0732 8.98744 16.0732 9.28033 15.7803L14.5 10.5607V14.25C14.5 14.6642 14.8358 15 15.25 15C15.6642 15 16 14.6642 16 14.25V8.75Z" fill="currentColor"/></svg>