<svg xmlns="http://www.w3.org/2000/svg" fill="none" width="24" height="24" viewBox="0 0 24 24"><path fill-rule="evenodd" clip-rule="evenodd" d="M22 12C22 17.5228 17.5228 22 12 22C6.47715 22 2 17.5228 2 12C2 6.47715 6.47715 2 12 2C17.5228 2 22 6.47715 22 12ZM16 15.25C16 15.6642 15.6642 16 15.25 16H9.75C9.33579 16 9 15.6642 9 15.25C9 14.8358 9.33579 14.5 9.75 14.5H13.4393L8.21967 9.28033C7.92678 8.98744 7.92678 8.51256 8.21967 8.21967C8.51256 7.92678 8.98744 7.92678 9.28033 8.21967L14.5 13.4393V9.75C14.5 9.33579 14.8358 9 15.25 9C15.6642 9 16 9.33579 16 9.75V15.25Z" fill="currentColor"/></svg>