<svg xmlns="http://www.w3.org/2000/svg" fill="none" width="24" height="24" viewBox="0 0 24 24"><path fill-rule="evenodd" clip-rule="evenodd" d="M15.7197 2.71967C16.0126 2.42678 16.4874 2.42678 16.7803 2.71967L20.7803 6.71967C21.0732 7.01256 21.0732 7.48744 20.7803 7.78033L16.7803 11.7803C16.4874 12.0732 16.0126 12.0732 15.7197 11.7803C15.4268 11.4874 15.4268 11.0126 15.7197 10.7197L18.4393 8H3.75C3.33579 8 3 7.66421 3 7.25C3 6.83579 3.33579 6.5 3.75 6.5H18.4393L15.7197 3.78033C15.4268 3.48744 15.4268 3.01256 15.7197 2.71967ZM8.28033 12.2197C8.57322 12.5126 8.57322 12.9874 8.28033 13.2803L5.56066 16H20.25C20.6642 16 21 16.3358 21 16.75C21 17.1642 20.6642 17.5 20.25 17.5H5.56066L8.28033 20.2197C8.57322 20.5126 8.57322 20.9874 8.28033 21.2803C7.98744 21.5732 7.51256 21.5732 7.21967 21.2803L3.21967 17.2803C2.92678 16.9874 2.92678 16.5126 3.21967 16.2197L7.21967 12.2197C7.51256 11.9268 7.98744 11.9268 8.28033 12.2197Z" fill="currentColor"/></svg>