<svg xmlns="http://www.w3.org/2000/svg" fill="none" width="24" height="24" viewBox="0 0 24 24"><path d="M6.3448 17C7.73561 18.5332 9.77612 19.5 12 19.5C16.1421 19.5 19.5 16.1421 19.5 12C19.5 11.6819 19.4802 11.3687 19.4419 11.0616C19.3907 10.6505 19.6823 10.2758 20.0934 10.2245C20.5044 10.1733 20.8792 10.4649 20.9304 10.8759C20.9764 11.2445 21 11.6197 21 12C21 16.9706 16.9706 21 12 21C9.4791 21 7.1554 19.9626 5.5 18.2888V20.25C5.5 20.6642 5.16421 21 4.75 21C4.33579 21 4 20.6642 4 20.25V16.25C4 15.8358 4.33579 15.5 4.75 15.5H8.75C9.16421 15.5 9.5 15.8358 9.5 16.25C9.5 16.6642 9.16421 17 8.75 17H6.3448Z" fill="currentColor"/>
<path d="M4.55806 12.9384C4.60932 13.3495 4.31766 13.7242 3.90663 13.7755C3.4956 13.8267 3.12085 13.5351 3.06959 13.1241C3.02364 12.7555 3 12.3803 3 12C3 7.02944 7.02944 3 12 3C14.5269 3 16.8557 4.04238 18.5118 5.72322V3.75C18.5118 3.33579 18.8476 3 19.2618 3C19.6761 3 20.0118 3.33579 20.0118 3.75V7.75C20.0118 8.16421 19.6761 8.5 19.2618 8.5H15.2618C14.8476 8.5 14.5118 8.16421 14.5118 7.75C14.5118 7.33579 14.8476 7 15.2618 7H17.6552C16.2644 5.46681 14.2239 4.5 12 4.5C7.85786 4.5 4.5 7.85786 4.5 12C4.5 12.3181 4.51977 12.6313 4.55806 12.9384Z" fill="currentColor"/></svg>