<svg xmlns="http://www.w3.org/2000/svg" fill="none" width="24" height="24" viewBox="0 0 24 24"><path d="M13 21C13.5523 21 14 20.5523 14 20C14 19.4477 13.5523 19 13 19C12.4477 19 12 19.4477 12 20C12 20.5523 12.4477 21 13 21Z" fill="currentColor"/>
<path d="M21 11C21 10.4477 20.5523 9.99999 20 9.99999C19.4477 9.99999 19 10.4477 19 11C19 11.5523 19.4477 12 20 12C20.5523 12 21 11.5523 21 11Z" fill="currentColor"/>
<path d="M19.9295 14.2679C20.4078 14.5441 20.5716 15.1557 20.2955 15.634C20.0193 16.1123 19.4078 16.2761 18.9295 16C18.4512 15.7238 18.2873 15.1123 18.5634 14.634C18.8396 14.1557 19.4512 13.9918 19.9295 14.2679Z" fill="currentColor"/>
<path d="M17.3676 19.2942C17.8459 19.0181 18.0098 18.4065 17.7336 17.9282C17.4575 17.4499 16.8459 17.286 16.3676 17.5621C15.8893 17.8383 15.7254 18.4499 16.0016 18.9282C16.2777 19.4065 16.8893 19.5703 17.3676 19.2942Z" fill="currentColor"/>
<path d="M18.9269 7.99998C18.4487 8.27612 17.8371 8.11225 17.5609 7.63396C17.2848 7.15566 17.4487 6.54407 17.9269 6.26793C18.4052 5.99179 19.0168 6.15566 19.293 6.63396C19.5691 7.11225 19.4052 7.72384 18.9269 7.99998Z" fill="currentColor"/>
<path fill-rule="evenodd" clip-rule="evenodd" d="M12 4.5C7.85786 4.5 4.5 7.85786 4.5 12C4.5 14.8771 6.12022 17.3772 8.5 18.6352V14.75C8.5 14.3358 8.83579 14 9.25 14C9.66421 14 10 14.3358 10 14.75V20.25C10 20.6642 9.66421 21 9.25 21H3.75C3.33579 21 3 20.6642 3 20.25C3 19.8358 3.33579 19.5 3.75 19.5H7.02362C4.59903 17.8881 3 15.1314 3 12C3 7.02944 7.02944 3 12 3C13.2572 3 14.4561 3.25823 15.5449 3.72524C15.9256 3.88852 16.1018 4.32948 15.9386 4.71016C15.7753 5.09083 15.3343 5.26707 14.9536 5.10379C14.0482 4.71543 13.0502 4.5 12 4.5Z" fill="currentColor"/></svg>