<svg xmlns="http://www.w3.org/2000/svg" fill="none" width="24" height="24" viewBox="0 0 24 24"><path fill-rule="evenodd" clip-rule="evenodd" d="M13.1161 5.36612C13.6043 4.87796 14.3957 4.87796 14.8839 5.36612L20.6339 11.1161C20.8683 11.3505 21 11.6685 21 12C21 12.3315 20.8683 12.6494 20.6339 12.8839L14.8839 18.6339C14.3957 19.122 13.6043 19.122 13.1161 18.6339C12.628 18.1457 12.628 17.3543 13.1161 16.8661L16.7322 13.25H4.25C3.55964 13.25 3 12.6903 3 12C3 11.3096 3.55964 10.75 4.25 10.75H16.7322L13.1161 7.13388C12.628 6.64573 12.628 5.85427 13.1161 5.36612Z" fill="currentColor"/></svg>