<svg xmlns="http://www.w3.org/2000/svg" fill="none" width="24" height="24" viewBox="0 0 24 24"><path fill-rule="evenodd" clip-rule="evenodd" d="M12.3382 1.83058C12.1255 1.72314 11.8745 1.72314 11.6618 1.83058L2.41181 6.50365C2.15926 6.63125 2.00001 6.89012 2.00001 7.17308V9.25C2.00001 9.66421 2.33579 10 2.75001 10H4.00001V16.5H3.75001C3.42718 16.5 3.14058 16.7066 3.03849 17.0128L2.03849 20.0128C1.96226 20.2415 2.00061 20.493 2.14157 20.6885C2.28254 20.8841 2.50892 21 2.75001 21H21.25C21.4911 21 21.7175 20.8841 21.8584 20.6885C21.9994 20.493 22.0378 20.2415 21.9615 20.0128L20.9615 17.0128C20.8594 16.7066 20.5728 16.5 20.25 16.5H20V10H21.25C21.6642 10 22 9.66421 22 9.25V7.17308C22 6.89012 21.8408 6.63125 21.5882 6.50365L12.3382 1.83058ZM16 10H18.5V16.5H16V10ZM8.00001 16.5H5.50001V10H8.00001V16.5ZM9.50001 16.5V10H14.5V16.5H9.50001Z" fill="currentColor"/></svg>