<svg xmlns="http://www.w3.org/2000/svg" fill="none" width="24" height="24" viewBox="0 0 24 24"><path fill-rule="evenodd" clip-rule="evenodd" d="M1.5 5.25C1.5 4.83579 1.83579 4.5 2.25 4.5H21.75C22.1642 4.5 22.5 4.83579 22.5 5.25V18.75C22.5 19.1642 22.1642 19.5 21.75 19.5H2.25C1.83579 19.5 1.5 19.1642 1.5 18.75V5.25ZM3 18H5.5C5.5 16.6193 4.38071 15.5 3 15.5V18ZM21 18V15.5C19.6193 15.5 18.5 16.6193 18.5 18H21ZM21 8.5C19.6193 8.5 18.5 7.38071 18.5 6H21V8.5ZM3 6H5.5C5.5 7.38071 4.38071 8.5 3 8.5V6ZM12 9.5C10.6193 9.5 9.5 10.6193 9.5 12C9.5 13.3807 10.6193 14.5 12 14.5C13.3807 14.5 14.5 13.3807 14.5 12C14.5 10.6193 13.3807 9.5 12 9.5Z" fill="currentColor"/></svg>