<svg xmlns="http://www.w3.org/2000/svg" fill="none" width="24" height="24" viewBox="0 0 24 24"><path fill-rule="evenodd" clip-rule="evenodd" d="M2 5.75C2 5.33579 2.33579 5 2.75 5H21.25C21.6642 5 22 5.33579 22 5.75C22 6.16421 21.6642 6.5 21.25 6.5H2.75C2.33579 6.5 2 6.16421 2 5.75ZM2 12C2 11.5858 2.33579 11.25 2.75 11.25H21.25C21.6642 11.25 22 11.5858 22 12C22 12.4142 21.6642 12.75 21.25 12.75H2.75C2.33579 12.75 2 12.4142 2 12ZM2 18.25C2 17.8358 2.33579 17.5 2.75 17.5H21.25C21.6642 17.5 22 17.8358 22 18.25C22 18.6642 21.6642 19 21.25 19H2.75C2.33579 19 2 18.6642 2 18.25Z" fill="currentColor"/></svg>