<svg xmlns="http://www.w3.org/2000/svg" fill="none" width="24" height="24" viewBox="0 0 24 24"><path fill-rule="evenodd" clip-rule="evenodd" d="M12 2C8.13655 2 4.94782 5.0198 4.75447 8.87114L4.556 12.8003L3.0834 15.6563C3.02859 15.7626 3 15.8804 3 16V17.25C3 17.6642 3.33579 18 3.75 18H7.30888C7.66846 20.267 9.63185 22 12 22C14.3682 22 16.3315 20.267 16.6911 18H20.25C20.6642 18 21 17.6642 21 17.25V16C21 15.8804 20.9714 15.7626 20.9166 15.6563L19.444 12.8003L19.2455 8.87139C19.0522 5.02005 15.8634 2 12 2ZM12 20.5C10.4632 20.5 9.17555 19.4333 8.83697 18H15.163C14.8245 19.4333 13.5368 20.5 12 20.5Z" fill="currentColor"/></svg>