<svg xmlns="http://www.w3.org/2000/svg" fill="none" width="24" height="24" viewBox="0 0 24 24"><path fill-rule="evenodd" clip-rule="evenodd" d="M4 2.75C4 2.33579 4.33579 2 4.75 2H19.25C19.6642 2 20 2.33579 20 2.75V21C20 21.2653 19.8598 21.5109 19.6313 21.6458C19.4028 21.7807 19.12 21.7849 18.8877 21.6567L12 17.8566L5.11231 21.6567C4.87997 21.7849 4.5972 21.7807 4.36871 21.6458C4.14021 21.5109 4 21.2653 4 21V2.75ZM15.3803 8.68033C15.6732 8.38744 15.6732 7.91256 15.3803 7.61967C15.0874 7.32678 14.6126 7.32678 14.3197 7.61967L11 10.9393L9.88033 9.81967C9.58744 9.52677 9.11256 9.52677 8.81967 9.81967C8.52677 10.1126 8.52677 10.5874 8.81967 10.8803L10.4697 12.5303C10.6103 12.671 10.8011 12.75 11 12.75C11.1989 12.75 11.3897 12.671 11.5303 12.5303L15.3803 8.68033Z" fill="currentColor"/></svg>