<svg xmlns="http://www.w3.org/2000/svg" fill="none" width="24" height="24" viewBox="0 0 24 24"><path fill-rule="evenodd" clip-rule="evenodd" d="M4.75 2C4.33579 2 4 2.33579 4 2.75V21C4 21.2653 4.14021 21.5109 4.36871 21.6458C4.5972 21.7807 4.87997 21.7849 5.11231 21.6567L12 17.8566L18.8877 21.6567C19.12 21.7849 19.4028 21.7807 19.6313 21.6458C19.8598 21.5109 20 21.2653 20 21V2.75C20 2.33579 19.6642 2 19.25 2H4.75ZM12 6C12.4142 6 12.75 6.33579 12.75 6.75V9.25H15.25C15.6642 9.25 16 9.58579 16 10C16 10.4142 15.6642 10.75 15.25 10.75H12.75V13.25C12.75 13.6642 12.4142 14 12 14C11.5858 14 11.25 13.6642 11.25 13.25V10.75H8.75C8.33579 10.75 8 10.4142 8 10C8 9.58579 8.33579 9.25 8.75 9.25H11.25V6.75C11.25 6.33579 11.5858 6 12 6Z" fill="currentColor"/></svg>