<svg xmlns="http://www.w3.org/2000/svg" fill="none" width="24" height="24" viewBox="0 0 24 24"><path fill-rule="evenodd" clip-rule="evenodd" d="M6.75 2C5.23122 2 4 3.23122 4 4.75V19.25C4 20.7688 5.23122 22 6.75 22H19.25C19.6642 22 20 21.6642 20 21.25V2.75C20 2.33579 19.6642 2 19.25 2H6.75ZM5.5 19V19.25C5.5 19.9404 6.05964 20.5 6.75 20.5H18.5V17.5H7C6.17157 17.5 5.5 18.1716 5.5 19ZM8.75 6.25C8.33579 6.25 8 6.58579 8 7C8 7.41421 8.33579 7.75 8.75 7.75H15.25C15.6642 7.75 16 7.41421 16 7C16 6.58579 15.6642 6.25 15.25 6.25H8.75ZM8 11C8 10.5858 8.33579 10.25 8.75 10.25H12.25C12.6642 10.25 13 10.5858 13 11C13 11.4142 12.6642 11.75 12.25 11.75H8.75C8.33579 11.75 8 11.4142 8 11Z" fill="currentColor"/></svg>