<svg xmlns="http://www.w3.org/2000/svg" fill="none" width="24" height="24" viewBox="0 0 24 24"><path fill-rule="evenodd" clip-rule="evenodd" d="M4.75 2C4.33579 2 4 2.33579 4 2.75V21C4 21.2653 4.14021 21.5109 4.36871 21.6458C4.5972 21.7807 4.87997 21.7849 5.11231 21.6567L12 17.8566L18.8877 21.6567C19.12 21.7849 19.4028 21.7807 19.6313 21.6458C19.8598 21.5109 20 21.2653 20 21V2.75C20 2.33579 19.6642 2 19.25 2H4.75ZM14.8284 7.17612C15.1213 7.46901 15.1213 7.94389 14.8284 8.23678L13.0607 10.0045L14.8284 11.7723C15.1213 12.0652 15.1213 12.5401 14.8284 12.833C14.5355 13.1259 14.0607 13.1259 13.7678 12.833L12 11.0652L10.2322 12.833C9.93934 13.1259 9.46446 13.1259 9.17157 12.833C8.87868 12.5401 8.87868 12.0652 9.17157 11.7723L10.9393 10.0045L9.17157 8.23678C8.87868 7.94389 8.87868 7.46901 9.17157 7.17612C9.46447 6.88322 9.93934 6.88322 10.2322 7.17612L12 8.94389L13.7678 7.17612C14.0607 6.88323 14.5355 6.88323 14.8284 7.17612Z" fill="currentColor"/></svg>