<svg xmlns="http://www.w3.org/2000/svg" fill="none" width="24" height="24" viewBox="0 0 24 24"><path fill-rule="evenodd" clip-rule="evenodd" d="M21.5004 8.44218C21.5004 8.21565 21.5004 7.98912 21.4994 7.76259C21.4983 7.57154 21.4962 7.38047 21.4909 7.18941C21.4799 6.77299 21.4551 6.3534 21.3812 5.94172C21.3062 5.52371 21.1832 5.13473 20.9901 4.75472C20.8001 4.38157 20.552 4.04062 20.2559 3.74453C19.9598 3.44844 19.6183 3.20038 19.2452 3.01037C18.8657 2.8172 18.4767 2.69475 18.0593 2.61928C17.6476 2.54539 17.2275 2.52058 16.811 2.5095C16.62 2.50422 16.4289 2.50211 16.2378 2.50106C16.0109 2.5 15.7839 2.5 15.557 2.5H8.44344C8.2165 2.5 7.98954 2.5 7.76259 2.50106C7.57153 2.50211 7.38047 2.50422 7.18941 2.5095C6.77299 2.52111 6.35287 2.54539 5.94119 2.61981C5.52318 2.69475 5.13473 2.81773 4.75525 3.0109C4.3821 3.20091 4.04062 3.44897 3.74453 3.74506C3.44844 4.04115 3.20038 4.3821 3.01037 4.75525C2.8172 5.13526 2.69423 5.52424 2.61928 5.94225C2.54539 6.35392 2.52058 6.77404 2.5095 7.18994C2.50422 7.381 2.50211 7.57206 2.50106 7.76312C2.5 7.98954 2.5 8.21649 2.5 8.44344V15.5565C2.5 15.7834 2.5 16.0104 2.50106 16.2373C2.50211 16.4284 2.50422 16.6194 2.5095 16.8105C2.52058 17.2269 2.54539 17.6465 2.61928 18.0582C2.69423 18.4762 2.8172 18.8652 3.01037 19.2452C3.20038 19.6183 3.44844 19.9593 3.74453 20.2554C4.04062 20.5515 4.3821 20.7995 4.75525 20.9895C5.13473 21.1827 5.52371 21.3052 5.94119 21.3806C6.35287 21.4545 6.77299 21.4793 7.18941 21.4904C7.38047 21.4957 7.57153 21.4978 7.76259 21.4989C7.94412 21.5001 8.12565 21.5 8.30717 21.5L15.5565 21.4999C15.7834 21.4999 16.0104 21.4999 16.2373 21.4989C16.4284 21.4978 16.6194 21.4957 16.8105 21.4904C17.2269 21.4793 17.647 21.4545 18.0587 21.3806C18.4767 21.3057 18.8652 21.1827 19.2447 20.9895C19.6178 20.7995 19.9593 20.5515 20.2554 20.2554C20.5515 19.9593 20.7995 19.6183 20.9895 19.2452C21.1827 18.8652 21.3057 18.4762 21.3806 18.0582C21.4545 17.6465 21.4793 17.2264 21.4904 16.8105C21.4957 16.6194 21.4978 16.4284 21.4989 16.2373C21.5001 16.0558 21.5 15.8743 21.5 15.6927L21.5004 8.44218ZM7.5 18C8.32843 18 9 17.3284 9 16.5C9 15.6716 8.32843 15 7.5 15C6.67157 15 6 15.6716 6 16.5C6 17.3284 6.67157 18 7.5 18ZM12 18C12 14.6863 9.31371 12 6 12V10C10.4183 10 14 13.5817 14 18H12ZM6 8C11.5228 8 16 12.4772 16 18H18C18 11.3726 12.6274 6 6 6V8Z" fill="currentColor"/></svg>