<svg xmlns="http://www.w3.org/2000/svg" fill="none" width="24" height="24" viewBox="0 0 24 24"><path fill-rule="evenodd" clip-rule="evenodd" d="M8.66527 2C6.82527 2 5.33193 3.49333 5.33193 5.33333C5.33193 7.16852 6.81745 8.65884 8.65082 8.66664C6.81747 8.67445 5.33195 10.1648 5.33195 11.9999C5.33195 13.8399 6.82529 15.3333 8.66529 15.3333H11.9986V12.0205C12.0097 13.851 13.4987 15.3333 15.3319 15.3333C17.1719 15.3333 18.6652 13.8399 18.6652 11.9999C18.6652 10.1646 17.1795 8.67424 15.346 8.66664C17.1795 8.65904 18.6652 7.16864 18.6652 5.33333C18.6652 3.49333 17.1719 2 15.3319 2H8.66527ZM15.3114 8.66667H11.9986V11.9794C12.0096 10.1557 13.4876 8.67769 15.3114 8.66667Z" fill="currentColor"/>
<path d="M8.66529 22C10.5053 22 11.9986 20.5067 11.9986 18.6667V15.3333H8.66529C6.82529 15.3333 5.33195 16.8267 5.33195 18.6667C5.33195 20.5067 6.82529 22 8.66529 22Z" fill="currentColor"/></svg>