<svg xmlns="http://www.w3.org/2000/svg" fill="none" width="24" height="24" viewBox="0 0 24 24"><path d="M20.2151 2.94392C20.2151 2.96327 20.2151 2.98585 20.2151 3.0052V20.9937C20.2151 21.5484 19.7603 22 19.1991 22C19.1829 22 19.17 22 19.1539 22L5.59402 21.3968C5.06504 21.3743 4.64573 20.9517 4.62315 20.4292L4.00064 3.92124C3.98129 3.37613 4.40382 2.91489 4.95215 2.87941L16.0736 2.19238L15.9768 4.45989C15.9768 4.48569 15.98 4.5115 15.9929 4.53408L16.0058 4.55665C16.0574 4.62116 16.151 4.63406 16.2187 4.58568L17.109 3.91801L17.8605 4.50505C17.8895 4.52762 17.925 4.5373 17.9605 4.5373C18.0443 4.5373 18.1088 4.46634 18.1056 4.38248L18.0218 2.07627L19.1378 2.00208C19.699 1.9666 20.1796 2.38914 20.2151 2.94392ZM12.4159 5.40495C9.77101 5.40495 8.29051 6.82738 8.29051 8.95942C8.29051 12.6719 13.3545 12.7429 13.3545 14.7685C13.3545 15.3362 13.0739 15.6749 12.4546 15.6749C11.6482 15.6749 11.3289 15.2684 11.3676 13.8815C11.3676 13.5815 8.29051 13.488 8.19698 13.8815C7.95829 17.2392 10.071 18.2101 12.4933 18.2101C14.9156 18.2101 16.6767 16.9747 16.6767 14.733C16.6767 10.7528 11.5386 10.8592 11.5386 8.88524C11.5386 8.08532 12.1385 7.97888 12.4965 7.97888C12.8707 7.97888 13.548 8.04339 13.49 9.53678C13.49 9.92706 16.151 9.73998 16.509 9.46582C16.509 6.80158 15.064 5.40173 12.4191 5.40173L12.4159 5.40495Z" fill="currentColor"/></svg>