<svg xmlns="http://www.w3.org/2000/svg" fill="none" width="24" height="24" viewBox="0 0 24 24"><path fill-rule="evenodd" clip-rule="evenodd" d="M7.69271 18.3777C8.27476 18.3777 8.78711 18.615 8.68868 19.247L8.57776 19.9599C8.53858 20.2121 8.54587 20.2877 8.82671 20.2928L8.54127 20.9628C8.04457 20.996 7.80446 20.9437 7.68489 20.7298C7.42137 20.8916 7.13175 20.9722 6.82164 20.9722C6.25858 20.9722 6.06506 20.6825 6.11517 20.3593C6.13883 20.2069 6.22914 20.0552 6.37254 19.9314C6.68116 19.6654 7.44586 19.6269 7.74509 19.423C7.7709 19.1949 7.67838 19.1138 7.39688 19.1138C7.0676 19.1138 6.79285 19.2234 6.32321 19.5417L6.43789 18.8047C6.84631 18.5105 7.23908 18.3777 7.69271 18.3777ZM4.96835 17.6883C5.77964 17.6883 5.97859 18.0973 5.92018 18.4722C5.87282 18.7769 5.6661 18.9999 5.3045 19.1473C5.75993 19.3185 5.93744 19.5893 5.87222 20.0074C5.79039 20.5351 5.32827 20.9295 4.72675 20.9295H2.56L3.06392 17.6883H4.96835ZM11.2796 18.3777C11.8333 18.3777 12.0912 18.715 12.0045 19.2709L11.7466 20.9295H10.7539L10.9676 19.556C11.0064 19.3044 10.9337 19.1901 10.7381 19.1901C10.5808 19.1901 10.4384 19.2757 10.2999 19.4606L10.0716 20.9295H9.0789L9.46898 18.42H10.4617L10.4105 18.748C10.7242 18.482 10.9645 18.3777 11.2796 18.3777ZM13.7608 17.6883L13.5124 19.2851L14.463 18.42H15.6896L14.4686 19.4895L15.4475 20.9295H14.2018L13.4466 19.7697H13.4372L13.2568 20.9295H12.264L12.7681 17.6883H13.7608ZM17.4197 17.6883L16.9157 20.9295H15.7754L16.2793 17.6883H17.4197ZM19.6062 17.6883C20.866 17.6883 21.2301 18.6007 21.1135 19.3516C20.9989 20.0881 20.4145 20.9294 19.3073 20.9294H17.47L17.9739 17.6883H19.6062ZM7.67987 19.8409C7.41522 20.0074 6.92813 19.9789 6.87515 20.321C6.84983 20.4829 6.95071 20.6014 7.11293 20.6014C7.27055 20.6014 7.46228 20.5351 7.61208 20.4306C7.60187 20.3735 7.6067 20.3117 7.62432 20.1976L7.67987 19.8409ZM4.29086 19.5276H3.91875L3.77749 20.4353H4.12105C4.50295 20.4353 4.72699 20.2832 4.77669 19.9647C4.81891 19.6938 4.66314 19.5276 4.29086 19.5276ZM19.3 18.4579H18.9945L18.7301 20.1596H19.0309C19.5843 20.1596 19.889 19.8887 19.9794 19.309C20.0456 18.8812 19.9156 18.4579 19.3 18.4579ZM4.45714 18.1823H4.12786L3.99544 19.0331H4.32466C4.69695 19.0331 4.87064 18.8381 4.90683 18.6054C4.94512 18.3584 4.82943 18.1823 4.45714 18.1823ZM7.4162 4.79114C7.77618 4.79114 8.05434 4.86608 8.19858 5.00252C8.29934 5.09804 8.33697 5.22312 8.30728 5.36509C8.27832 5.50153 8.12505 5.67955 7.89486 5.84002C7.24293 6.29781 7.35582 6.77208 7.40617 6.9068C7.54474 7.27819 7.97938 7.49281 8.35656 7.526L8.45774 7.53053H9.3002L8.51436 12.4774H8.5278C8.24718 14.252 8.03526 15.6076 7.98304 15.9456L7.97735 15.9825H3.31479C3.40415 15.4013 4.57135 8.01444 4.64524 7.5319C4.95546 7.53262 5.50317 7.53363 5.50317 7.53363C6.06366 7.53053 6.57995 7.27484 6.81946 6.8817C7.05347 6.50057 6.96442 6.0916 6.58861 5.81462C6.4633 5.72249 6.31941 5.57332 6.34737 5.38847C6.38601 5.13896 6.81086 4.79114 7.4162 4.79114ZM14.758 3.19995C19.0613 3.19995 22.0618 5.08329 21.3156 9.783C20.7244 13.5012 17.764 15.8857 14.1081 15.9796L13.8834 15.9825H12.992L13.5963 12.1536C15.119 12.1364 16.3945 11.4226 16.6579 9.76617C16.9317 8.04033 16.0989 7.26789 14.5292 7.20805L14.3697 7.20443L14.37 7.20026H13.1404C12.8571 7.20026 12.493 7.0439 12.3987 6.79166C12.3694 6.71332 12.3094 6.43182 12.768 6.11017C12.944 5.98681 13.2498 5.73451 13.3136 5.43278C13.3664 5.17983 13.2919 4.93585 13.1083 4.76295C12.8995 4.56572 12.5502 4.46087 12.0988 4.46087C11.345 4.46087 10.7687 4.91486 10.7031 5.33827C10.699 5.36575 10.6962 5.39775 10.6962 5.43314C10.6962 5.60152 10.7622 5.84966 11.0748 6.08025C11.1894 6.16447 11.3009 6.28919 11.3009 6.45519C11.3009 6.5315 11.2774 6.61602 11.2201 6.70952C11.0573 6.9763 10.6988 7.16448 10.3033 7.19828L10.1838 7.20371L9.37682 7.20199L10.0126 3.19995H14.758Z" fill="currentColor"/></svg>