<svg xmlns="http://www.w3.org/2000/svg" fill="none" width="24" height="24" viewBox="0 0 24 24"><path d="M20.8 7C17.1 7 13.9 9.1 12.2 12.2C12 10.2 11.2 8.4 10.1 6.8C8.70001 4.7 6.60001 3.1 4.30001 2.2L3.70001 2L3.50001 2.5C2.60001 3.9 2.10001 5.5 2.00001 7.2C1.90001 8.9 2.30001 10.5 3.00001 12.1C3.70001 13.6 4.80001 14.9 6.20001 15.8C7.50001 16.8 9.10001 17.4 10.7 17.5C10.4 19 10 21 10 21V21.1C10 21.2 10 21.2 10.1 21.3C10.1 21.3 10.1 21.4 10.2 21.4C10.3 21.4 10.3 21.4 10.4 21.4H11.5C11.6 21.4 11.7 21.4 11.8 21.4C11.9 21.3 11.9 21.2 11.9 21.1C11.9 21.1 12.1 18.8 12.2 17.6C17.3 17.3 21.4 13 21.4 7.7V7H20.8Z" fill="currentColor"/></svg>