<svg width="24" height="24" viewBox="0 0 24 24" fill="none" xmlns="http://www.w3.org/2000/svg">
<path fill-rule="evenodd" clip-rule="evenodd" d="M3 3.75C3 3.33579 3.33579 3 3.75 3H20.25C20.6642 3 21 3.33579 21 3.75V18.25C21 18.6642 20.6642 19 20.25 19H15.2858L12.4764 21.3275C12.1976 21.5585 11.7936 21.5574 11.5161 21.3248L8.74274 19H3.75C3.33579 19 3 18.6642 3 18.25V3.75ZM9.87366 9.42768C9.87366 8.18351 10.874 7.16333 12.1237 7.16333C13.3734 7.16333 14.3737 8.18351 14.3737 9.42768C14.3737 10.4252 13.7232 10.9483 13.3032 11.2338C13.1522 11.3364 13.0361 11.4375 12.9495 11.5539C12.8674 11.6643 12.796 11.8096 12.7637 12.0247C12.7022 12.4343 12.3203 12.7165 11.9106 12.655C11.501 12.5935 11.2188 12.2116 11.2804 11.8019C11.4245 10.8421 11.984 10.3168 12.4599 9.99332C12.6241 9.8817 12.7249 9.79414 12.7876 9.70897C12.8379 9.6406 12.8737 9.56123 12.8737 9.42768C12.8737 8.99844 12.5315 8.66333 12.1237 8.66333C11.7158 8.66333 11.3737 8.99844 11.3737 9.42768C11.3737 9.8419 11.0379 10.1777 10.6237 10.1777C10.2094 10.1777 9.87366 9.8419 9.87366 9.42768ZM12 15.25C11.4477 15.25 11 14.8023 11 14.25C11 13.6977 11.4477 13.25 12 13.25C12.5523 13.25 13 13.6977 13 14.25C13 14.8023 12.5523 15.25 12 15.25Z" fill="currentColor"/>
</svg>
