<svg xmlns="http://www.w3.org/2000/svg" fill="none" width="24" height="24" viewBox="0 0 24 24"><path fill-rule="evenodd" clip-rule="evenodd" d="M21.2522 3C21.6664 3 22.0022 3.33579 22.0022 3.75V14.25C22.0022 14.6642 21.6664 15 21.2522 15H18.0022V18.25C18.0022 18.6642 17.6664 19 17.2522 19H10.6965L6.36643 21.4056C6.13413 21.5347 5.85088 21.5312 5.62185 21.3964C5.39282 21.2616 5.2522 21.0157 5.2522 20.75V19H2.7522C2.33798 19 2.0022 18.6642 2.0022 18.25V7.75C2.0022 7.33579 2.33798 7 2.7522 7H6.2522V3.75C6.2522 3.33579 6.58798 3 7.0022 3H21.2522ZM7.7522 7H17.2522C17.6664 7 18.0022 7.33579 18.0022 7.75V13.5H20.5022V4.5H7.7522V7Z" fill="currentColor"/></svg>