<svg width="24" height="24" viewBox="0 0 24 24" fill="none" xmlns="http://www.w3.org/2000/svg">
<path fill-rule="evenodd" clip-rule="evenodd" d="M3 3.75C3 3.33579 3.33579 3 3.75 3H20.25C20.6642 3 21 3.33579 21 3.75V18.25C21 18.6642 20.6642 19 20.25 19H15.2858L12.4764 21.3275C12.1976 21.5585 11.7936 21.5574 11.5161 21.3248L8.74274 19H3.75C3.33579 19 3 18.6642 3 18.25V3.75ZM7 11.25C7 11.8023 7.44772 12.25 8 12.25C8.55228 12.25 9 11.8023 9 11.25C9 10.6977 8.55228 10.25 8 10.25C7.44772 10.25 7 10.6977 7 11.25ZM11 11.25C11 11.8023 11.4477 12.25 12 12.25C12.5523 12.25 13 11.8023 13 11.25C13 10.6977 12.5523 10.25 12 10.25C11.4477 10.25 11 10.6977 11 11.25ZM16 12.25C15.4477 12.25 15 11.8023 15 11.25C15 10.6977 15.4477 10.25 16 10.25C16.5523 10.25 17 10.6977 17 11.25C17 11.8023 16.5523 12.25 16 12.25Z" fill="currentColor"/>
</svg>
