<svg width="24" height="24" viewBox="0 0 24 24" fill="none" xmlns="http://www.w3.org/2000/svg">
<path fill-rule="evenodd" clip-rule="evenodd" d="M1 6.75C1 6.33579 1.33579 6 1.75 6H8.25C8.66421 6 9 6.33579 9 6.75C9 7.16421 8.66421 7.5 8.25 7.5H2.5V16.5H8.25C8.66421 16.5 9 16.8358 9 17.25C9 17.6642 8.66421 18 8.25 18H1.75C1.33579 18 1 17.6642 1 17.25V6.75ZM15 6.75C15 6.33579 15.3358 6 15.75 6H22.25C22.6642 6 23 6.33579 23 6.75V17.25C23 17.6642 22.6642 18 22.25 18H15.75C15.3358 18 15 17.6642 15 17.25C15 16.8358 15.3358 16.5 15.75 16.5H21.5V7.5H15.75C15.3358 7.5 15 7.16421 15 6.75ZM6 12C6 11.5858 6.33579 11.25 6.75 11.25H17.25C17.6642 11.25 18 11.5858 18 12C18 12.4142 17.6642 12.75 17.25 12.75H6.75C6.33579 12.75 6 12.4142 6 12Z" fill="#353531"/>
</svg>
