<svg width="24" height="24" viewBox="0 0 24 24" fill="none" xmlns="http://www.w3.org/2000/svg">
<path d="M2.5 14.5L1.96967 13.9697C1.67678 14.2626 1.67678 14.7374 1.96967 15.0303L2.5 14.5ZM9.5 21.5L8.96967 22.0303C9.26256 22.3232 9.73744 22.3232 10.0303 22.0303L9.5 21.5ZM21.5 9.5L22.0303 10.0303C22.3232 9.73744 22.3232 9.26256 22.0303 8.96967L21.5 9.5ZM14.5 2.5L15.0303 1.96967C14.7374 1.67678 14.2626 1.67678 13.9697 1.96967L14.5 2.5ZM10.2197 5.71967C9.92678 6.01256 9.92678 6.48744 10.2197 6.78033C10.5126 7.07322 10.9874 7.07322 11.2803 6.78033L10.2197 5.71967ZM6.78033 11.2803C7.07322 10.9874 7.07322 10.5126 6.78033 10.2197C6.48744 9.92678 6.01256 9.92678 5.71967 10.2197L6.78033 11.2803ZM17.2197 12.7197C16.9268 13.0126 16.9268 13.4874 17.2197 13.7803C17.5126 14.0732 17.9874 14.0732 18.2803 13.7803L17.2197 12.7197ZM13.7803 18.2803C14.0732 17.9874 14.0732 17.5126 13.7803 17.2197C13.4874 16.9268 13.0126 16.9268 12.7197 17.2197L13.7803 18.2803ZM8.46967 14.4697C8.17678 14.7626 8.17678 15.2374 8.46967 15.5303C8.76256 15.8232 9.23744 15.8232 9.53033 15.5303L8.46967 14.4697ZM15.5303 9.53033C15.8232 9.23744 15.8232 8.76256 15.5303 8.46967C15.2374 8.17678 14.7626 8.17678 14.4697 8.46967L15.5303 9.53033ZM1.96967 15.0303L8.96967 22.0303L10.0303 20.9697L3.03033 13.9697L1.96967 15.0303ZM22.0303 8.96967L15.0303 1.96967L13.9697 3.03033L20.9697 10.0303L22.0303 8.96967ZM13.9697 1.96967L10.2197 5.71967L11.2803 6.78033L15.0303 3.03033L13.9697 1.96967ZM5.71967 10.2197L1.96967 13.9697L3.03033 15.0303L6.78033 11.2803L5.71967 10.2197ZM18.2803 13.7803L22.0303 10.0303L20.9697 8.96967L17.2197 12.7197L18.2803 13.7803ZM10.0303 22.0303L13.7803 18.2803L12.7197 17.2197L8.96967 20.9697L10.0303 22.0303ZM9.53033 15.5303L15.5303 9.53033L14.4697 8.46967L8.46967 14.4697L9.53033 15.5303Z" fill="#353531"/>
</svg>
