<svg xmlns="http://www.w3.org/2000/svg" fill="none" width="24" height="24" viewBox="0 0 24 24"><path fill-rule="evenodd" clip-rule="evenodd" d="M4.75 2C4.33579 2 4 2.33579 4 2.75V21.25C4 21.6642 4.33579 22 4.75 22H19.25C19.6642 22 20 21.6642 20 21.25V2.75C20 2.33579 19.6642 2 19.25 2H4.75ZM18.5 7V3.5H5.5V7H18.5ZM9.5 13.25C10.0523 13.25 10.5 12.8023 10.5 12.25C10.5 11.6977 10.0523 11.25 9.5 11.25C8.94772 11.25 8.5 11.6977 8.5 12.25C8.5 12.8023 8.94772 13.25 9.5 13.25ZM9.5 17.75C10.0523 17.75 10.5 17.3023 10.5 16.75C10.5 16.1977 10.0523 15.75 9.5 15.75C8.94772 15.75 8.5 16.1977 8.5 16.75C8.5 17.3023 8.94772 17.75 9.5 17.75ZM15.5 12.25C15.5 12.8023 15.0523 13.25 14.5 13.25C13.9477 13.25 13.5 12.8023 13.5 12.25C13.5 11.6977 13.9477 11.25 14.5 11.25C15.0523 11.25 15.5 11.6977 15.5 12.25ZM14.5 17.75C15.0523 17.75 15.5 17.3023 15.5 16.75C15.5 16.1977 15.0523 15.75 14.5 15.75C13.9477 15.75 13.5 16.1977 13.5 16.75C13.5 17.3023 13.9477 17.75 14.5 17.75Z" fill="currentColor"/></svg>