<svg width="24" height="24" viewBox="0 0 24 24" fill="none" xmlns="http://www.w3.org/2000/svg">
<path fill-rule="evenodd" clip-rule="evenodd" d="M7.75 2C8.16421 2 8.5 2.33579 8.5 2.75V4H15.5V2.75C15.5 2.33579 15.8358 2 16.25 2C16.6642 2 17 2.33579 17 2.75V4H20.25C20.6642 4 21 4.33579 21 4.75V20.25C21 20.6642 20.6642 21 20.25 21H3.75C3.33579 21 3 20.6642 3 20.25V4.75C3 4.33579 3.33579 4 3.75 4H7V2.75C7 2.33579 7.33579 2 7.75 2ZM7 8.75C7 8.33579 7.33579 8 7.75 8H16.25C16.6642 8 17 8.33579 17 8.75C17 9.16421 16.6642 9.5 16.25 9.5H7.75C7.33579 9.5 7 9.16421 7 8.75Z" fill="#353531"/>
</svg>
