<svg width="24" height="24" viewBox="0 0 24 24" fill="none" xmlns="http://www.w3.org/2000/svg">
<path fill-rule="evenodd" clip-rule="evenodd" d="M7.75 2C8.16421 2 8.5 2.33579 8.5 2.75V4H15.5V2.75C15.5 2.33579 15.8358 2 16.25 2C16.6642 2 17 2.33579 17 2.75V4H20.25C20.6642 4 21 4.33579 21 4.75V20.25C21 20.6642 20.6642 21 20.25 21H3.75C3.33579 21 3 20.6642 3 20.25V4.75C3 4.33579 3.33579 4 3.75 4H7V2.75C7 2.33579 7.33579 2 7.75 2ZM12.7491 9.75C12.7491 9.33579 12.4134 9 11.9991 9C11.5849 9 11.2491 9.33579 11.2491 9.75V11.75H9.25C8.83579 11.75 8.5 12.0858 8.5 12.5C8.5 12.9142 8.83579 13.25 9.25 13.25H11.2491V15.25C11.2491 15.6642 11.5849 16 11.9991 16C12.4134 16 12.7491 15.6642 12.7491 15.25V13.25H14.75C15.1642 13.25 15.5 12.9142 15.5 12.5C15.5 12.0858 15.1642 11.75 14.75 11.75H12.7491V9.75Z" fill="#353531"/>
</svg>
