<svg xmlns="http://www.w3.org/2000/svg" fill="none" width="24" height="24" viewBox="0 0 24 24"><path d="M3.75188 3C3.34208 3 3.00815 3.32893 3.00197 3.73869C3.00066 3.82564 3 3.91275 3 4C3 7.10297 3.83203 10.0139 5.28566 12.5194C6.77436 15.0853 8.9147 17.2256 11.4806 18.7143C13.9861 20.168 16.897 21 20 21H20.25C20.6642 21 21 20.6642 21 20.25V15C21 14.6673 20.7808 14.3744 20.4616 14.2805L16.2116 13.0305C15.943 12.9515 15.6528 13.0286 15.459 13.2306L14.0423 14.7063C12.0524 13.5965 10.4035 11.9476 9.29367 9.95774L10.7694 8.54104C10.9714 8.34717 11.0485 8.05695 10.9695 7.78838L9.71952 3.53838C9.62565 3.21919 9.33271 3 9 3H3.75188Z" fill="currentColor"/></svg>