<svg xmlns="http://www.w3.org/2000/svg" fill="none" width="24" height="24" viewBox="0 0 24 24"><path fill-rule="evenodd" clip-rule="evenodd" d="M5.6681 1.02233C6.06995 0.921865 6.47715 1.16619 6.57761 1.56803L7.09011 3.61803C7.19057 4.01988 6.94625 4.42708 6.5444 4.52754C6.14256 4.628 5.73536 4.38368 5.63489 3.98183L5.1224 1.93183C5.02193 1.52999 5.26625 1.12279 5.6681 1.02233ZM18.9125 5.08748C16.7957 2.97075 13.3638 2.97075 11.2471 5.08748L10.2806 6.05397C9.98771 6.34687 9.51284 6.34687 9.21994 6.05397C8.92705 5.76108 8.92705 5.28621 9.21994 4.99331L10.1864 4.02682C12.889 1.3243 17.2706 1.3243 19.9731 4.02682C22.6756 6.72934 22.6756 11.111 19.9731 13.8135L19.0045 14.7821C18.7116 15.075 18.2367 15.075 17.9438 14.7821C17.6509 14.4892 17.6509 14.0144 17.9438 13.7215L18.9125 12.7528C21.0292 10.6361 21.0292 7.20421 18.9125 5.08748ZM1.0224 5.66803C1.12286 5.26619 1.53006 5.02186 1.9319 5.12233L3.9819 5.63483C4.38375 5.73529 4.62807 6.14249 4.52761 6.54433C4.42715 6.94618 4.01995 7.1905 3.6181 7.09004L1.5681 6.57754C1.16625 6.47708 0.921934 6.06988 1.0224 5.66803ZM6.05919 9.21473C6.35208 9.50762 6.35208 9.9825 6.05919 10.2754L5.08755 11.247C2.97082 13.3638 2.97082 16.7957 5.08755 18.9124C7.20428 21.0291 10.6362 21.0291 12.7529 18.9124L13.7174 17.9478C14.0103 17.655 14.4852 17.655 14.7781 17.9478C15.071 18.2407 15.071 18.7156 14.7781 19.0085L13.8136 19.973C11.1111 22.6756 6.72941 22.6756 4.02689 19.973C1.32437 17.2705 1.32437 12.8889 4.02689 10.1864L4.99853 9.21473C5.29142 8.92184 5.76629 8.92183 6.05919 9.21473ZM19.4724 17.4555C19.5729 17.0537 19.9801 16.8094 20.3819 16.9098L22.4319 17.4223C22.8337 17.5228 23.0781 17.93 22.9776 18.3318C22.8771 18.7337 22.4699 18.978 22.0681 18.8775L20.0181 18.365C19.6163 18.2646 19.3719 17.8574 19.4724 17.4555ZM17.4556 19.4723C17.8574 19.3719 18.2646 19.6162 18.3651 20.018L18.8776 22.068C18.9781 22.4699 18.7337 22.8771 18.3319 22.9775C17.9301 23.078 17.5229 22.8337 17.4224 22.4318L16.9099 20.3818C16.8094 19.98 17.0538 19.5728 17.4556 19.4723Z" fill="currentColor"/></svg>