<svg width="24" height="24" viewBox="0 0 24 24" fill="none" xmlns="http://www.w3.org/2000/svg">
<path d="M4.50098 1.75098C4.50098 1.33676 4.16519 1.00098 3.75098 1.00098C3.33676 1.00098 3.00098 1.33676 3.00098 1.75098L3.00098 3.71235C3.00033 3.72515 3 3.73802 3 3.75098V7.25098C3 7.26393 3.00033 7.27681 3.00098 7.2896L3.00098 10.2124C3.00033 10.2251 3 10.238 3 10.251V13.751C3 13.7639 3.00033 13.7768 3.00098 13.7896L3.00098 16.7124C3.00033 16.7252 3 16.738 3 16.751V20.251C3 20.2639 3.00033 20.2768 3.00098 20.2896L3.00098 22.251C3.00098 22.6652 3.33676 23.001 3.75098 23.001C4.16519 23.001 4.50098 22.6652 4.50098 22.251V21.001H20.25C20.6642 21.001 21 20.6652 21 20.251V16.751C21 16.3368 20.6642 16.001 20.25 16.001L4.50098 16.001L4.50098 14.501L14.75 14.501C15.1642 14.501 15.5 14.1652 15.5 13.751V10.251C15.5 9.83676 15.1642 9.50098 14.75 9.50098H4.50098L4.50098 8.00098L9.25 8.00098C9.66421 8.00098 10 7.66519 10 7.25098L10 3.75098C10 3.33676 9.66421 3.00098 9.25 3.00098L4.50098 3.00098V1.75098Z" fill="currentColor"/>
</svg>
