<svg width="24" height="24" viewBox="0 0 24 24" fill="none" xmlns="http://www.w3.org/2000/svg">
<path d="M8.59206 6.65363C8.83448 6.35059 9.31469 6.52592 9.31469 6.91746V8.66673H10.4918C10.8355 8.66673 11.0247 9.07516 10.8071 9.34719L8.4079 12.3464C8.16547 12.6494 7.68526 12.4741 7.68526 12.0825V10.3333H6.5081C6.16445 10.3333 5.97521 9.92484 6.19283 9.65281L8.59206 6.65363Z" fill="currentColor"/>
<path fill-rule="evenodd" clip-rule="evenodd" d="M3 3.75C3 3.33579 3.33579 3 3.75 3H13.25C13.6642 3 14 3.33579 14 3.75V19.5H20.25C20.6642 19.5 21 19.8358 21 20.25C21 20.6642 20.6642 21 20.25 21H3.75C3.33579 21 3 20.6642 3 20.25V3.75ZM4.5 4.5V14H12.5V4.5H4.5Z" fill="currentColor"/>
<path d="M16.6738 4.26988C16.939 3.95167 17.4119 3.90868 17.7301 4.17385L20.7301 6.67385C20.9011 6.81635 21 7.02743 21 7.25002V16.25C21 16.6642 20.6642 17 20.25 17H16.75C16.3358 17 16 16.6642 16 16.25V10.75C16 10.3358 16.3358 10 16.75 10C17.1642 10 17.5 10.3358 17.5 10.75V15.5H19.5V7.6013L16.7699 5.32618C16.4517 5.06101 16.4087 4.58809 16.6738 4.26988Z" fill="currentColor"/>
</svg>
