<svg xmlns="http://www.w3.org/2000/svg" fill="none" width="24" height="24" viewBox="0 0 24 24"><path fill-rule="evenodd" clip-rule="evenodd" d="M9.19644 4.64738C9.52928 4.89393 9.59923 5.36362 9.35268 5.69647L6.01935 10.1965C5.7804 10.5191 5.32981 10.5963 4.99708 10.3717L3.33041 9.24668C2.98709 9.01494 2.89664 8.54876 3.12838 8.20544C3.36012 7.86212 3.8263 7.77167 4.16962 8.00341L5.2413 8.72679L8.14735 4.80363C8.3939 4.47078 8.86359 4.40083 9.19644 4.64738ZM11 7.75005C11 7.33583 11.3358 7.00005 11.75 7.00005H20.25C20.6642 7.00005 21 7.33583 21 7.75005C21 8.16426 20.6642 8.50005 20.25 8.50005H11.75C11.3358 8.50005 11 8.16426 11 7.75005ZM9.19644 13.6474C9.52928 13.8939 9.59923 14.3636 9.35268 14.6965L6.01935 19.1965C5.7804 19.5191 5.32981 19.5963 4.99708 19.3717L3.33041 18.2467C2.98709 18.0149 2.89664 17.5488 3.12838 17.2054C3.36012 16.8621 3.8263 16.7717 4.16962 17.0034L5.2413 17.7268L8.14735 13.8036C8.3939 13.4708 8.86359 13.4008 9.19644 13.6474ZM11 16.25C11 15.8358 11.3358 15.5 11.75 15.5H20.25C20.6642 15.5 21 15.8358 21 16.25C21 16.6643 20.6642 17 20.25 17H11.75C11.3358 17 11 16.6643 11 16.25Z" fill="currentColor"/></svg>