<svg xmlns="http://www.w3.org/2000/svg" fill="none" width="24" height="24" viewBox="0 0 24 24"><path fill-rule="evenodd" clip-rule="evenodd" d="M9.19642 4.64738C9.52926 4.89393 9.59922 5.36362 9.35267 5.69647L6.01933 10.1965C5.78038 10.5191 5.3298 10.5963 4.99706 10.3717L3.33039 9.24668C2.98707 9.01494 2.89662 8.54876 3.12836 8.20544C3.3601 7.86212 3.82628 7.77167 4.1696 8.00341L5.24128 8.72679L8.14733 4.80363C8.39388 4.47078 8.86358 4.40083 9.19642 4.64738ZM11 7.75005C11 7.33583 11.3358 7.00005 11.75 7.00005H20.25C20.6642 7.00005 21 7.33583 21 7.75005C21 8.16426 20.6642 8.50005 20.25 8.50005H11.75C11.3358 8.50005 11 8.16426 11 7.75005ZM9.19642 13.6474C9.52926 13.8939 9.59922 14.3636 9.35267 14.6965L6.01933 19.1965C5.78038 19.5191 5.3298 19.5963 4.99706 19.3717L3.33039 18.2467C2.98707 18.0149 2.89662 17.5488 3.12836 17.2054C3.3601 16.8621 3.82628 16.7717 4.1696 17.0034L5.24128 17.7268L8.14733 13.8036C8.39388 13.4708 8.86358 13.4008 9.19642 13.6474ZM11 16.25C11 15.8358 11.3358 15.5 11.75 15.5H20.25C20.6642 15.5 21 15.8358 21 16.25C21 16.6643 20.6642 17 20.25 17H11.75C11.3358 17 11 16.6643 11 16.25Z" fill="currentColor"/></svg>