<svg width="24" height="24" viewBox="0 0 24 24" fill="none" xmlns="http://www.w3.org/2000/svg">
<path d="M7.75 2C4.57436 2 2 4.57436 2 7.75C2 10.9256 4.57436 13.5 7.75 13.5C10.9256 13.5 13.5 10.9256 13.5 7.75C13.5 4.57436 10.9256 2 7.75 2Z" fill="currentColor"/>
<path d="M14 13.5C11.6528 13.5 9.75 15.4028 9.75 17.75C9.75 20.0972 11.6528 22 14 22C16.3472 22 18.25 20.0972 18.25 17.75C18.25 15.4028 16.3472 13.5 14 13.5Z" fill="currentColor"/>
<path d="M15 9.25C15 7.317 16.567 5.75 18.5 5.75C20.433 5.75 22 7.317 22 9.25C22 11.183 20.433 12.75 18.5 12.75C16.567 12.75 15 11.183 15 9.25Z" fill="currentColor"/>
</svg>
