<svg xmlns="http://www.w3.org/2000/svg" fill="none" width="24" height="24" viewBox="0 0 24 24"><path fill-rule="evenodd" clip-rule="evenodd" d="M2 12C2 6.47715 6.47715 2 12 2C17.5228 2 22 6.47715 22 12C22 17.5228 17.5228 22 12 22C6.47715 22 2 17.5228 2 12ZM12.75 7.75781C12.75 7.3436 12.4142 7.00781 12 7.00781C11.5858 7.00781 11.25 7.3436 11.25 7.75781V11.2505H7.75736C7.34315 11.2505 7.00736 11.5862 7.00736 12.0005C7.00736 12.4147 7.34315 12.7505 7.75736 12.7505H11.25V16.2431C11.25 16.6573 11.5858 16.9931 12 16.9931C12.4142 16.9931 12.75 16.6573 12.75 16.2431V12.7505H16.2426C16.6569 12.7505 16.9926 12.4147 16.9926 12.0005C16.9926 11.5862 16.6569 11.2505 16.2426 11.2505H12.75V7.75781Z" fill="currentColor"/></svg>