<svg xmlns="http://www.w3.org/2000/svg" fill="none" width="24" height="24" viewBox="0 0 24 24"><path fill-rule="evenodd" clip-rule="evenodd" d="M10.4903 8.28083C9.98427 8.16249 9.45738 8.1 8.91667 8.1C5.09289 8.1 2 11.2154 2 15.05C2 18.8846 5.09289 22 8.91667 22H16.625C19.5973 22 22 19.5785 22 16.6C22 14.6634 20.985 12.9643 19.4597 12.0113C19.7703 11.3676 19.9444 10.6453 19.9444 9.88333C19.9444 7.19016 17.7719 5 15.0833 5C12.9547 5 11.1501 6.37275 10.4903 8.28083ZM11.9046 8.78036C13.1377 9.3746 14.167 10.3245 14.8624 11.4973C15.4151 11.3046 16.0084 11.2 16.625 11.2C17.1313 11.2 17.622 11.2705 18.0876 11.4025C18.3159 10.9462 18.4444 10.4305 18.4444 9.88333C18.4444 8.01095 16.9358 6.5 15.0833 6.5C13.6134 6.5 12.3594 7.45154 11.9046 8.78036Z" fill="currentColor"/>
<path fill-rule="evenodd" clip-rule="evenodd" d="M16 1V3.5H14.5V1H16ZM21.9675 4.09315L20.1997 5.86091L19.1391 4.80025L20.9069 3.03249L21.9675 4.09315ZM9.59375 3.03249L11.3615 4.80026L10.3009 5.86092L8.53309 4.09315L9.59375 3.03249ZM21.5 9H24V10.5H21.5V9Z" fill="currentColor"/></svg>