<svg xmlns="http://www.w3.org/2000/svg" fill="none" width="24" height="24" viewBox="0 0 24 24"><path fill-rule="evenodd" clip-rule="evenodd" d="M5.77996 8.12427C6.80396 5.70153 9.20241 4 12 4C15.5725 4 18.4969 6.77542 18.7344 10.2877C21.1392 10.5876 23 12.639 23 15.125C23 17.8174 20.8174 20 18.125 20H7C3.68629 20 1 17.3137 1 14C1 11.1041 3.05102 8.68825 5.77996 8.12427ZM11.25 8.75C11.25 8.33579 11.5858 8 12 8C12.4142 8 12.75 8.33579 12.75 8.75V14.4393L13.9697 13.2197C14.2626 12.9268 14.7374 12.9268 15.0303 13.2197C15.3232 13.5126 15.3232 13.9874 15.0303 14.2803L12.5303 16.7803C12.2374 17.0732 11.7626 17.0732 11.4697 16.7803L8.96967 14.2803C8.67678 13.9874 8.67678 13.5126 8.96967 13.2197C9.26256 12.9268 9.73744 12.9268 10.0303 13.2197L11.25 14.4393V8.75Z" fill="currentColor"/></svg>