<svg xmlns="http://www.w3.org/2000/svg" fill="none" width="24" height="24" viewBox="0 0 24 24"><path fill-rule="evenodd" clip-rule="evenodd" d="M2 12C2 6.47715 6.47715 2 12 2C17.5228 2 22 6.47715 22 12C22 17.5228 17.5228 22 12 22C6.47715 22 2 17.5228 2 12ZM15.7652 8.23484C15.8603 8.33 15.8972 8.46885 15.8618 8.59868L14.3618 14.0987C14.3269 14.2268 14.2268 14.3269 14.0987 14.3618L8.59868 15.8618C8.46885 15.8972 8.33 15.8603 8.23484 15.7652C8.13969 15.67 8.10281 15.5312 8.13822 15.4013L9.63822 9.90134C9.67316 9.77324 9.77324 9.67316 9.90134 9.63822L15.4013 8.13822C15.5312 8.10281 15.67 8.13969 15.7652 8.23484Z" fill="currentColor"/></svg>