<svg xmlns="http://www.w3.org/2000/svg" fill="none" width="24" height="24" viewBox="0 0 24 24"><path fill-rule="evenodd" clip-rule="evenodd" d="M2 12C2 6.47715 6.47715 2 12 2C12.3898 2 12.7747 2.02234 13.1534 2.06587C13.3617 2.08982 13.5505 2.19986 13.674 2.36932C13.7974 2.53878 13.8443 2.75219 13.8033 2.9578C13.7684 3.13249 13.75 3.31372 13.75 3.5C13.75 4.89326 14.7868 6.04558 16.1307 6.2255C16.4659 6.27038 16.7296 6.5341 16.7745 6.86934C16.9544 8.2132 18.1067 9.25 19.5 9.25C19.91 9.25 20.2972 9.16075 20.6448 9.00133C20.8467 8.90874 21.0792 8.91039 21.2797 9.00583C21.4803 9.10127 21.6282 9.28068 21.6837 9.49574C21.8903 10.2969 22 11.1362 22 12C22 17.5228 17.5228 22 12 22C6.47715 22 2 17.5228 2 12ZM10 8.5C10 9.32843 9.32843 10 8.5 10C7.67157 10 7 9.32843 7 8.5C7 7.67157 7.67157 7 8.5 7C9.32843 7 10 7.67157 10 8.5ZM14 11.5C14 12.3284 13.3284 13 12.5 13C11.6716 13 11 12.3284 11 11.5C11 10.6716 11.6716 10 12.5 10C13.3284 10 14 10.6716 14 11.5ZM17 15C17.5523 15 18 14.5523 18 14C18 13.4477 17.5523 13 17 13C16.4477 13 16 13.4477 16 14C16 14.5523 16.4477 15 17 15ZM13 16.5C13 17.3284 12.3284 18 11.5 18C10.6716 18 10 17.3284 10 16.5C10 15.6716 10.6716 15 11.5 15C12.3284 15 13 15.6716 13 16.5ZM7 15C7.55228 15 8 14.5523 8 14C8 13.4477 7.55228 13 7 13C6.44772 13 6 13.4477 6 14C6 14.5523 6.44772 15 7 15Z" fill="currentColor"/></svg>