<svg xmlns="http://www.w3.org/2000/svg" fill="none" width="24" height="24" viewBox="0 0 24 24"><path fill-rule="evenodd" clip-rule="evenodd" d="M7.11612 7.11612C7.60427 6.62796 8.39573 6.62796 8.88388 7.11612L12 10.2322L15.1161 7.11612C15.6043 6.62796 16.3957 6.62796 16.8839 7.11612C17.372 7.60427 17.372 8.39573 16.8839 8.88388L13.7678 12L16.8839 15.1161C17.372 15.6043 17.372 16.3957 16.8839 16.8839C16.3957 17.372 15.6043 17.372 15.1161 16.8839L12 13.7678L8.88388 16.8839C8.39573 17.372 7.60427 17.372 7.11612 16.8839C6.62796 16.3957 6.62796 15.6043 7.11612 15.1161L10.2322 12L7.11612 8.88388C6.62796 8.39573 6.62796 7.60427 7.11612 7.11612Z" fill="currentColor"/></svg>