<svg xmlns="http://www.w3.org/2000/svg" fill="none" width="24" height="24" viewBox="0 0 24 24"><path d="M7.5 5.75C7.5 4.7835 8.2835 4 9.25 4C10.2165 4 11 4.7835 11 5.75C11 6.7165 10.2165 7.5 9.25 7.5C8.2835 7.5 7.5 6.7165 7.5 5.75Z" fill="currentColor"/>
<path d="M13 5.75C13 4.7835 13.7835 4 14.75 4C15.7165 4 16.5 4.7835 16.5 5.75C16.5 6.7165 15.7165 7.5 14.75 7.5C13.7835 7.5 13 6.7165 13 5.75Z" fill="currentColor"/>
<path d="M7.5 18.25C7.5 17.2835 8.2835 16.5 9.25 16.5C10.2165 16.5 11 17.2835 11 18.25C11 19.2165 10.2165 20 9.25 20C8.2835 20 7.5 19.2165 7.5 18.25Z" fill="currentColor"/>
<path d="M13 18.25C13 17.2835 13.7835 16.5 14.75 16.5C15.7165 16.5 16.5 17.2835 16.5 18.25C16.5 19.2165 15.7165 20 14.75 20C13.7835 20 13 19.2165 13 18.25Z" fill="currentColor"/>
<path d="M7.5 11.9C7.5 10.9335 8.2835 10.15 9.25 10.15C10.2165 10.15 11 10.9335 11 11.9V12C11 12.9665 10.2165 13.75 9.25 13.75C8.2835 13.75 7.5 12.9665 7.5 12V11.9Z" fill="currentColor"/>
<path d="M13 11.9C13 10.9335 13.7835 10.15 14.75 10.15C15.7165 10.15 16.5 10.9335 16.5 11.9V12C16.5 12.9665 15.7165 13.75 14.75 13.75C13.7835 13.75 13 12.9665 13 12V11.9Z" fill="currentColor"/></svg>