<svg xmlns="http://www.w3.org/2000/svg" fill="none" width="24" height="24" viewBox="0 0 24 24"><path d="M12 2C11.0335 2 10.25 2.7835 10.25 3.75C10.25 4.7165 11.0335 5.5 12 5.5C12.9665 5.5 13.75 4.7165 13.75 3.75C13.75 2.7835 12.9665 2 12 2Z" fill="currentColor"/>
<path d="M12 10.25C11.0335 10.25 10.25 11.0335 10.25 12C10.25 12.9665 11.0335 13.75 12 13.75C12.9665 13.75 13.75 12.9665 13.75 12C13.75 11.0335 12.9665 10.25 12 10.25Z" fill="currentColor"/>
<path d="M12 18.5C11.0335 18.5 10.25 19.2835 10.25 20.25C10.25 21.2165 11.0335 22 12 22C12.9665 22 13.75 21.2165 13.75 20.25C13.75 19.2835 12.9665 18.5 12 18.5Z" fill="currentColor"/></svg>