<svg xmlns="http://www.w3.org/2000/svg" fill="none" width="24" height="24" viewBox="0 0 24 24"><circle cx="12" cy="12" r="9.25" fill="currentColor" stroke="currentColor" stroke-width="1.5" stroke-linecap="round" stroke-linejoin="round"/>
<path d="M9.17188 16.0073C10.734 14.4452 13.2666 14.4452 14.8287 16.0073" stroke="white" stroke-width="1.5" stroke-linecap="round" stroke-linejoin="round"/>
<path d="M8.95209 7.5543C8.80082 7.40589 8.60645 7.33394 8.40025 7.37072C8.19472 7.40654 7.99421 7.54811 7.85435 7.74786C7.71448 7.94761 7.65003 8.18444 7.68666 8.38983C7.72263 8.59617 7.85671 8.75421 8.04791 8.8456C8.09464 8.8683 8.13859 8.88905 8.18525 8.9117C9.00668 9.30646 9.82915 9.70195 10.6506 10.0967C10.6972 10.1194 10.7412 10.1401 10.7879 10.1628C10.8488 10.1919 10.9245 10.1951 10.9948 10.1768C11.0652 10.1582 11.1245 10.1198 11.1631 10.0646C11.2017 10.0095 11.2176 9.94071 11.2109 9.86816C11.204 9.7959 11.1752 9.72582 11.127 9.67856C11.0897 9.64241 11.0551 9.60821 11.0179 9.57211C10.366 8.93523 9.71307 8.29763 9.06118 7.66075C9.02393 7.62465 8.98941 7.59045 8.95209 7.5543Z" fill="white"/>
<path d="M15.9095 8.8456C16.1007 8.75421 16.2348 8.59617 16.2708 8.38983C16.3074 8.18444 16.243 7.94761 16.1031 7.74786C15.9632 7.54811 15.7627 7.40654 15.5572 7.37072C15.351 7.33394 15.1566 7.40589 15.0054 7.5543C14.9681 7.59045 14.9335 7.62465 14.8963 7.66075C14.2444 8.29763 13.5914 8.93523 12.9396 9.57211C12.9023 9.60821 12.8678 9.64241 12.8305 9.67856C12.7823 9.72582 12.7534 9.7959 12.7466 9.86816C12.7399 9.94071 12.7558 10.0095 12.7944 10.0646C12.833 10.1198 12.8922 10.1582 12.9627 10.1768C13.0329 10.1951 13.1086 10.1919 13.1695 10.1628C13.2163 10.1401 13.2602 10.1194 13.3069 10.0967C14.1283 9.70195 14.9508 9.30646 15.7722 8.9117C15.8189 8.88905 15.8628 8.8683 15.9095 8.8456Z" fill="white"/>
<path d="M14.5 11.5H15M15.25 11.5C15.25 11.7761 15.0261 12 14.75 12C14.4739 12 14.25 11.7761 14.25 11.5C14.25 11.2239 14.4739 11 14.75 11C15.0261 11 15.25 11.2239 15.25 11.5Z" stroke="white" stroke-width="1.5" stroke-linecap="round" stroke-linejoin="round"/>
<path d="M9 11.5H9.5M9.75 11.5C9.75 11.7761 9.52614 12 9.25 12C8.97386 12 8.75 11.7761 8.75 11.5C8.75 11.2239 8.97386 11 9.25 11C9.52614 11 9.75 11.2239 9.75 11.5Z" stroke="white" stroke-width="1.5" stroke-linecap="round" stroke-linejoin="round"/></svg>