<svg xmlns="http://www.w3.org/2000/svg" fill="none" width="24" height="24" viewBox="0 0 24 24"><path fill-rule="evenodd" clip-rule="evenodd" d="M2 12C2 6.47715 6.47715 2 12 2C17.5228 2 22 6.47715 22 12C22 17.5228 17.5228 22 12 22C6.47715 22 2 17.5228 2 12ZM9.5 10.5C10.3284 10.5 11 9.82843 11 9C11 8.17157 10.3284 7.5 9.5 7.5C8.67157 7.5 8 8.17157 8 9C8 9.82843 8.67157 10.5 9.5 10.5ZM16 9C16 9.82843 15.3284 10.5 14.5 10.5C13.6716 10.5 13 9.82843 13 9C13 8.17157 13.6716 7.5 14.5 7.5C15.3284 7.5 16 8.17157 16 9ZM6.25 12C6.25 11.5858 5.91421 11.25 5.5 11.25C5.08579 11.25 4.75 11.5858 4.75 12C4.75 16.0041 7.99594 19.25 12 19.25C16.0041 19.25 19.25 16.0041 19.25 12C19.25 11.5858 18.9142 11.25 18.5 11.25C18.0858 11.25 17.75 11.5858 17.75 12C17.75 15.1756 15.1756 17.75 12 17.75C8.82436 17.75 6.25 15.1756 6.25 12Z" fill="currentColor"/></svg>