<svg xmlns="http://www.w3.org/2000/svg" fill="none" width="24" height="24" viewBox="0 0 24 24"><path fill-rule="evenodd" clip-rule="evenodd" d="M13 3.75C13 3.33579 13.3358 3 13.75 3H20.25C20.6642 3 21 3.33579 21 3.75V10.25C21 10.6642 20.6642 11 20.25 11C19.8358 11 19.5 10.6642 19.5 10.25V5.56066L14.2803 10.7803C13.9874 11.0732 13.5126 11.0732 13.2197 10.7803C12.9268 10.4874 12.9268 10.0126 13.2197 9.71967L18.4393 4.5H13.75C13.3358 4.5 13 4.16421 13 3.75ZM3 13.75C3 13.3358 3.33579 13 3.75 13C4.16421 13 4.5 13.3358 4.5 13.75V18.4393L9.71967 13.2197C10.0126 12.9268 10.4874 12.9268 10.7803 13.2197C11.0732 13.5126 11.0732 13.9874 10.7803 14.2803L5.56066 19.5H10.25C10.6642 19.5 11 19.8358 11 20.25C11 20.6642 10.6642 21 10.25 21H3.75C3.33579 21 3 20.6642 3 20.25V13.75Z" fill="currentColor"/></svg>