<svg xmlns="http://www.w3.org/2000/svg" fill="none" width="24" height="24" viewBox="0 0 24 24"><path d="M3 3.75C3 3.33579 3.33579 3 3.75 3H8C8.41421 3 8.75 3.33579 8.75 3.75C8.75 4.16421 8.41421 4.5 8 4.5H4.5V8C4.5 8.41421 4.16421 8.75 3.75 8.75C3.33579 8.75 3 8.41421 3 8V3.75Z" fill="currentColor"/>
<path d="M15.25 3.75C15.25 3.33579 15.5858 3 16 3H20.25C20.6642 3 21 3.33579 21 3.75V8C21 8.41421 20.6642 8.75 20.25 8.75C19.8358 8.75 19.5 8.41421 19.5 8V4.5H16C15.5858 4.5 15.25 4.16421 15.25 3.75Z" fill="currentColor"/>
<path d="M3.75 15.25C4.16421 15.25 4.5 15.5858 4.5 16V19.5H8C8.41421 19.5 8.75 19.8358 8.75 20.25C8.75 20.6642 8.41421 21 8 21H3.75C3.33579 21 3 20.6642 3 20.25V16C3 15.5858 3.33579 15.25 3.75 15.25Z" fill="currentColor"/>
<path d="M20.25 15.25C20.6642 15.25 21 15.5858 21 16V20.25C21 20.6642 20.6642 21 20.25 21H16C15.5858 21 15.25 20.6642 15.25 20.25C15.25 19.8358 15.5858 19.5 16 19.5H19.5V16C19.5 15.5858 19.8358 15.25 20.25 15.25Z" fill="currentColor"/>
<path d="M12 8C9.79086 8 8 9.79086 8 12C8 14.2091 9.79086 16 12 16C14.2091 16 16 14.2091 16 12C16 9.79086 14.2091 8 12 8Z" fill="currentColor"/></svg>