<svg xmlns="http://www.w3.org/2000/svg" fill="none" width="24" height="24" viewBox="0 0 24 24"><path d="M10 3C10.2508 3 10.4849 3.12533 10.624 3.33397L12.1787 5.66603C12.3178 5.87467 12.552 6 12.8028 6H21.25C21.6642 6 22 6.33579 22 6.75V12.5278C20.9385 11.5777 19.5367 11 18 11C14.6863 11 12 13.6863 12 17C12 18.0929 12.2922 19.1175 12.8027 20H2.75C2.33579 20 2 19.6642 2 19.25V3.75C2 3.33579 2.33579 3 2.75 3H10Z" fill="currentColor"/>
<path fill-rule="evenodd" clip-rule="evenodd" d="M18 13C18.4142 13 18.75 13.3358 18.75 13.75V16.25H21.25C21.6642 16.25 22 16.5858 22 17C22 17.4142 21.6642 17.75 21.25 17.75H18.75V20.25C18.75 20.6642 18.4142 21 18 21C17.5858 21 17.25 20.6642 17.25 20.25V17.75H14.75C14.3358 17.75 14 17.4142 14 17C14 16.5858 14.3358 16.25 14.75 16.25H17.25V13.75C17.25 13.3358 17.5858 13 18 13Z" fill="currentColor"/></svg>