<svg xmlns="http://www.w3.org/2000/svg" fill="none" width="24" height="24" viewBox="0 0 24 24"><path d="M6.25 4.41667C6.25 3.08198 7.33198 2 8.66667 2C10.043 2 11.2603 2.68092 12 3.72427C12.7397 2.68092 13.957 2 15.3333 2C16.668 2 17.75 3.08198 17.75 4.41667C17.75 5.39677 17.4047 6.29622 16.8291 7H20.25C20.6642 7 21 7.33579 21 7.75V10.5C21 10.9142 20.6642 11.25 20.25 11.25H12.75V7H13.6667C15.0934 7 16.25 5.8434 16.25 4.41667C16.25 3.91041 15.8396 3.5 15.3333 3.5C13.9066 3.5 12.75 4.6566 12.75 6.08333V7H11.25V6.08333C11.25 4.6566 10.0934 3.5 8.66667 3.5C8.16041 3.5 7.75 3.91041 7.75 4.41667C7.75 5.8434 8.9066 7 10.3333 7H11.25V11.25H3.75C3.33579 11.25 3 10.9142 3 10.5V7.75C3 7.33579 3.33579 7 3.75 7H7.1709C6.5953 6.29622 6.25 5.39677 6.25 4.41667Z" fill="currentColor"/>
<path d="M12.75 12.75H20V20.25C20 20.6642 19.6642 21 19.25 21H12.75V12.75Z" fill="currentColor"/>
<path d="M11.25 12.75H4V20.25C4 20.6642 4.33579 21 4.75 21H11.25V12.75Z" fill="currentColor"/></svg>