<svg xmlns="http://www.w3.org/2000/svg" fill="none" width="24" height="24" viewBox="0 0 24 24"><path d="M2.02771 11.2499H7.01143C7.08916 8.70549 7.55991 6.38765 8.30456 4.63553C8.71256 3.67552 9.2176 2.85039 9.81666 2.2542C9.82324 2.24765 9.82984 2.24112 9.83645 2.23462C5.59031 3.17115 2.35718 6.80647 2.02771 11.2499Z" fill="currentColor"/>
<path d="M2.02771 12.7499C2.35718 17.1934 5.59031 20.8288 9.83645 21.7653C9.82984 21.7588 9.82324 21.7522 9.81666 21.7457C9.2176 21.1495 8.71256 20.3244 8.30456 19.3644C7.55991 17.6122 7.08916 15.2944 7.01143 12.7499H2.02771Z" fill="currentColor"/>
<path d="M14.1636 21.7653C18.4097 20.8287 21.6428 17.1934 21.9723 12.7499H16.9886C16.9109 15.2944 16.4401 17.6122 15.6955 19.3644C15.2875 20.3244 14.7824 21.1495 14.1834 21.7457C14.1768 21.7522 14.1702 21.7588 14.1636 21.7653Z" fill="currentColor"/>
<path d="M21.9723 11.2499C21.6428 6.80648 18.4097 3.17115 14.1636 2.23462C14.1702 2.24112 14.1768 2.24765 14.1834 2.2542C14.7824 2.85039 15.2875 3.67552 15.6955 4.63553C16.4401 6.38765 16.9109 8.70549 16.9886 11.2499H21.9723Z" fill="currentColor"/>
<path d="M13.1252 3.3174C12.7104 2.90457 12.3309 2.74995 12 2.74995C11.6691 2.74995 11.2896 2.90457 10.8748 3.3174C10.4569 3.73326 10.0462 4.3726 9.68505 5.22224C9.03191 6.75905 8.58961 8.8698 8.51216 11.2499H15.4879C15.4104 8.8698 14.9681 6.75905 14.315 5.22224C13.9539 4.3726 13.5431 3.73326 13.1252 3.3174Z" fill="currentColor"/>
<path d="M14.315 18.7777C14.9681 17.2409 15.4104 15.1301 15.4879 12.7499L8.51216 12.7499C8.58961 15.1301 9.03191 17.2409 9.68505 18.7777C10.0462 19.6273 10.4569 20.2666 10.8748 20.6825C11.2896 21.0953 11.6691 21.2499 12 21.2499C12.3309 21.2499 12.7104 21.0953 13.1252 20.6825C13.5431 20.2666 13.9539 19.6273 14.315 18.7777Z" fill="currentColor"/></svg>