<svg xmlns="http://www.w3.org/2000/svg" fill="none" width="24" height="24" viewBox="0 0 24 24"><path fill-rule="evenodd" clip-rule="evenodd" d="M5.16061 17.7687C2.13084 13.7222 2.34132 9.272 5.10471 6.23444C7.95009 3.10675 13.3026 1.69666 19.9204 3.54964C20.1727 3.62027 20.3698 3.8174 20.4404 4.06965C22.2933 10.6875 20.8832 16.04 17.7555 18.8853C14.718 21.6487 10.2678 21.8591 6.22126 18.8294L4.27808 20.7726C3.98519 21.0655 3.51032 21.0655 3.21742 20.7726C2.92453 20.4797 2.92453 20.0048 3.21742 19.7119L5.16061 17.7687ZM12.6151 7.9421C12.9181 7.5633 13.5184 7.78246 13.5184 8.27189V10.4585H14.9898C15.4194 10.4585 15.656 10.969 15.3839 11.3091L12.3849 15.058C12.0819 15.4368 11.4816 15.2177 11.4816 14.7282V12.5416H10.0102C9.58059 12.5416 9.34405 12.0311 9.61607 11.6911L12.6151 7.9421Z" fill="currentColor"/></svg>