<svg xmlns="http://www.w3.org/2000/svg" fill="none" width="24" height="24" viewBox="0 0 24 24"><path fill-rule="evenodd" clip-rule="evenodd" d="M4.47239 8H6.75C7.16421 8 7.5 8.33579 7.5 8.75C7.5 9.16421 7.16421 9.5 6.75 9.5H2.75C2.33579 9.5 2 9.16421 2 8.75V4.75C2 4.33579 2.33579 4 2.75 4C3.16421 4 3.5 4.33579 3.5 4.75V6.68977C5.27085 3.87322 8.4092 2 11.9864 2C17.5157 2 22 6.47612 22 12C22 17.5239 17.5157 22 11.9864 22C7.626 22 3.91756 19.2169 2.54299 15.3336C2.40477 14.9431 2.60927 14.5145 2.99974 14.3763C3.39021 14.2381 3.8188 14.4426 3.95701 14.8331C5.12582 18.1351 8.28007 20.5 11.9864 20.5C16.6894 20.5 20.5 16.6934 20.5 12C20.5 7.30661 16.6894 3.5 11.9864 3.5C8.73357 3.5 5.90591 5.32143 4.47239 8ZM12 7C12.4142 7 12.75 7.33579 12.75 7.75V11.6893L16.0303 14.9697C16.3232 15.2626 16.3232 15.7374 16.0303 16.0303C15.7374 16.3232 15.2626 16.3232 14.9697 16.0303L11.4697 12.5303C11.329 12.3897 11.25 12.1989 11.25 12V7.75C11.25 7.33579 11.5858 7 12 7Z" fill="currentColor"/></svg>