<svg xmlns="http://www.w3.org/2000/svg" fill="none" width="24" height="24" viewBox="0 0 24 24"><path d="M11.5635 2.14017C11.8245 1.95328 12.1756 1.95328 12.4366 2.14017L21.9366 8.94136C22.2734 9.18248 22.351 9.65098 22.1099 9.98778C21.8687 10.3246 21.4002 10.4021 21.0634 10.161L20 9.39971V20.25C20 20.6642 19.6642 21 19.25 21H15.75C15.3358 21 15 20.6642 15 20.25C15 19.8358 15.3358 19.5 15.75 19.5H18.5V8.32583L12 3.67239L5.50003 8.32585V19.5H8.25003C8.66424 19.5 9.00003 19.8358 9.00003 20.25C9.00003 20.6642 8.66424 21 8.25003 21H4.75003C4.33582 21 4.00003 20.6642 4.00003 20.25V9.39973L2.93664 10.161C2.59984 10.4021 2.13135 10.3246 1.89023 9.98778C1.64911 9.65098 1.72667 9.18248 2.06347 8.94136L11.5635 2.14017Z" fill="currentColor"/>
<path d="M8.75 11C8.33579 11 8 11.3358 8 11.75V16.25C8 16.6642 8.33579 17 8.75 17H11.25V20.25C11.25 20.6642 11.5858 21 12 21C12.4142 21 12.75 20.6642 12.75 20.25V17H15.25C15.6642 17 16 16.6642 16 16.25V11.75C16 11.3358 15.6642 11 15.25 11H14.75V9.75C14.75 9.33579 14.4142 9 14 9C13.5858 9 13.25 9.33579 13.25 9.75V11H10.75V9.75C10.75 9.33579 10.4142 9 10 9C9.58579 9 9.25 9.33579 9.25 9.75V11H8.75Z" fill="currentColor"/></svg>