<svg xmlns="http://www.w3.org/2000/svg" fill="none" width="24" height="24" viewBox="0 0 24 24"><path d="M11.5635 2.14017C11.8245 1.95328 12.1756 1.95328 12.4366 2.14017L21.9366 8.94136C22.2734 9.18248 22.351 9.65098 22.1099 9.98778C21.8687 10.3246 21.4002 10.4021 21.0634 10.161L20 9.39971V10.5952C20 11.0094 19.6642 11.3452 19.25 11.3452C18.8358 11.3452 18.5 11.0094 18.5 10.5952V8.32583L12 3.67239L5.50003 8.32585V19.5H12.75C13.1642 19.5 13.5 19.8358 13.5 20.25C13.5 20.6642 13.1642 21 12.75 21H4.75003C4.33582 21 4.00003 20.6642 4.00003 20.25V9.39973L2.93664 10.161C2.59984 10.4021 2.13135 10.3246 1.89023 9.98778C1.64911 9.65098 1.72667 9.18248 2.06347 8.94136L11.5635 2.14017Z" fill="currentColor"/>
<path d="M12 8.75C10.2051 8.75 8.75 10.2051 8.75 12C8.75 13.7949 10.2051 15.25 12 15.25C13.7949 15.25 15.25 13.7949 15.25 12C15.25 10.2051 13.7949 8.75 12 8.75Z" fill="currentColor"/>
<path d="M18.1151 13.692C18.4181 13.3132 19.0184 13.5324 19.0184 14.0218V16.2084H20.4898C20.9194 16.2084 21.156 16.719 20.8839 17.059L17.8849 20.808C17.5819 21.1868 16.9816 20.9676 16.9816 20.4782V18.2916H15.5102C15.0806 18.2916 14.844 17.781 15.1161 17.441L18.1151 13.692Z" fill="currentColor"/></svg>