<svg xmlns="http://www.w3.org/2000/svg" fill="none" width="24" height="24" viewBox="0 0 24 24"><path d="M17 2.75C15.7463 2.75 14.669 3.42888 13.9303 4.39093C13.1911 5.35359 12.75 6.64303 12.75 8.00758C12.75 10.4237 14.1789 12.5161 16.25 12.927V21H17.75V12.927C19.8211 12.5161 21.25 10.4237 21.25 8.00758C21.25 6.64303 20.8089 5.35359 20.0697 4.39093C19.331 3.42888 18.2537 2.75 17 2.75Z" fill="currentColor"/>
<path d="M4.5 3H3V9C3 10.9528 4.39935 12.5787 6.25 12.9298V21H7.75V12.9298C9.60065 12.5787 11 10.9528 11 9V3H9.5V9C9.5 10.3807 8.38071 11.5 7 11.5C5.61929 11.5 4.5 10.3807 4.5 9V3Z" fill="currentColor"/>
<path d="M7.75 3H6.25V10H7.75V3Z" fill="currentColor"/></svg>