<svg xmlns="http://www.w3.org/2000/svg" fill="none" width="24" height="24" viewBox="0 0 24 24"><path fill-rule="evenodd" clip-rule="evenodd" d="M7 6.75C7 6.33579 7.33579 6 7.75 6H16.25C16.6642 6 17 6.33579 17 6.75C17 7.16421 16.6642 7.5 16.25 7.5H16V10.7326C16.2388 11.0193 16.5054 11.3176 16.7916 11.6355C16.8224 11.6697 16.8534 11.7041 16.8846 11.7387C17.207 12.0967 17.5496 12.4769 17.8799 12.8709C18.6004 13.7301 19.314 14.7126 19.7093 15.8191C19.8897 16.3239 20 16.8582 20 17.4162C20 19.9478 17.9478 22 15.4162 22H8.58376C6.05222 22 4 19.9478 4 17.4162C4 16.8582 4.11031 16.3239 4.29069 15.8191C4.68603 14.7126 5.39964 13.7301 6.1201 12.8709C6.45043 12.4769 6.79298 12.0967 7.1154 11.7387C7.14659 11.7041 7.1776 11.6697 7.2084 11.6355C7.49455 11.3176 7.76115 11.0193 8 10.7326V7.5H7.75C7.33579 7.5 7 7.16421 7 6.75ZM9.5 7.5V11C9.5 11.1703 9.44204 11.3355 9.33565 11.4685C9.02609 11.8555 8.6742 12.2492 8.32324 12.639C8.29282 12.6728 8.26239 12.7066 8.23196 12.7404C7.90671 13.1015 7.5818 13.4622 7.2695 13.8347C6.92546 14.245 6.60957 14.6549 6.34169 15.0689C6.3742 15.0638 6.40703 15.0588 6.44015 15.0537C7.3346 14.9173 8.49301 14.7788 9.43071 14.8038C10.5667 14.8341 11.4299 15.1058 12.2041 15.3494L12.2251 15.356C13.0039 15.6011 13.6939 15.8151 14.6093 15.8396C15.4065 15.8608 16.4549 15.7403 17.3336 15.6063C17.5451 15.574 17.7441 15.5414 17.924 15.5105C17.6107 14.9453 17.1964 14.3903 16.7305 13.8347C16.4182 13.4622 16.0933 13.1015 15.7681 12.7404C15.7376 12.7066 15.7072 12.6728 15.6768 12.639C15.3258 12.2492 14.9739 11.8555 14.6643 11.4685C14.558 11.3355 14.5 11.1703 14.5 11V7.5H9.5Z" fill="currentColor"/>
<path d="M11 4C11 4.55228 10.5523 5 10 5C9.44772 5 9 4.55228 9 4C9 3.44772 9.44772 3 10 3C10.5523 3 11 3.44772 11 4Z" fill="currentColor"/>
<path d="M15 2.5C15 3.32843 14.3284 4 13.5 4C12.6716 4 12 3.32843 12 2.5C12 1.67157 12.6716 1 13.5 1C14.3284 1 15 1.67157 15 2.5Z" fill="currentColor"/></svg>