<svg width="24" height="24" viewBox="0 0 24 24" fill="none" xmlns="http://www.w3.org/2000/svg">
<path d="M3.99805 10.0009C3.99805 5.58212 7.58016 2 11.9989 2C16.4177 2 19.9998 5.58212 19.9998 10.0009C19.9998 12.5861 18.7729 14.885 16.8727 16.3465C16.5957 16.5595 16.3043 16.7549 16.0001 16.9308V17H7.99775V16.9308C7.69359 16.7549 7.40216 16.5595 7.12515 16.3465C5.22495 14.885 3.99805 12.5861 3.99805 10.0009Z" fill="currentColor"/>
<path d="M7.99775 18.5V18.9988C7.99775 21.2086 9.78914 23 11.9989 23C14.2087 23 16.0001 21.2086 16.0001 18.9988V18.5H7.99775Z" fill="currentColor"/>
</svg>
