<svg xmlns="http://www.w3.org/2000/svg" fill="none" width="24" height="24" viewBox="0 0 24 24"><path d="M1.75 17C1.33579 17 1 17.3358 1 17.75V18.25C1 19.2165 1.7835 20 2.75 20H21.25C22.2165 20 23 19.2165 23 18.25V17.75C23 17.3358 22.6642 17 22.25 17H15.075C14.956 17 14.8387 17.0283 14.7328 17.0826L14.08 17.4174C13.9741 17.4717 13.8568 17.5 13.7378 17.5H10.3318C10.2225 17.5 10.1145 17.4761 10.0155 17.43L9.2413 17.07C9.14222 17.0239 9.03427 17 8.925 17H1.75Z" fill="currentColor"/>
<path d="M2.75 4C2.33579 4 2 4.33579 2 4.75V15.25C2 15.6642 2.33579 16 2.75 16H21.25C21.6642 16 22 15.6642 22 15.25V4.75C22 4.33579 21.6642 4 21.25 4H2.75Z" fill="currentColor"/></svg>