<svg xmlns="http://www.w3.org/2000/svg" fill="none" width="24" height="24" viewBox="0 0 24 24"><path d="M11 16C13.7614 16 16 13.7614 16 11C16 8.23858 13.7614 6 11 6C8.23858 6 6 8.23858 6 11C6 13.7614 8.23858 16 11 16Z" fill="currentColor"/>
<path fill-rule="evenodd" clip-rule="evenodd" d="M11 4.5C7.41015 4.5 4.5 7.41015 4.5 11C4.5 14.5899 7.41015 17.5 11 17.5C12.7951 17.5 14.4191 16.7733 15.5962 15.5962C16.7733 14.4191 17.5 12.7951 17.5 11C17.5 7.41015 14.5899 4.5 11 4.5ZM3 11C3 6.58172 6.58172 3 11 3C15.4183 3 19 6.58172 19 11C19 12.9388 18.3096 14.7174 17.1624 16.1017L20.7803 19.7197C21.0732 20.0126 21.0732 20.4874 20.7803 20.7803C20.4874 21.0732 20.0126 21.0732 19.7197 20.7803L16.1017 17.1624C14.7174 18.3096 12.9388 19 11 19C6.58172 19 3 15.4183 3 11Z" fill="currentColor"/></svg>