<svg xmlns="http://www.w3.org/2000/svg" fill="none" width="24" height="24" viewBox="0 0 24 24"><path fill-rule="evenodd" clip-rule="evenodd" d="M18.6931 2.1465C18.8847 2.28788 18.9978 2.51187 18.9978 2.75001V7.32502C20.7095 7.67247 21.9978 9.18579 21.9978 11C21.9978 12.8142 20.7095 14.3275 18.9978 14.675V19.25C18.9978 19.4881 18.8847 19.7121 18.6931 19.8535C18.5015 19.9949 18.2541 20.0369 18.0265 19.9666L13.2834 18.5022C12.7684 19.9565 11.3809 21 9.7478 21C7.67673 21 5.9978 19.3211 5.9978 17.25V16.2527L2.52654 15.1809C2.2122 15.0839 1.9978 14.7933 1.9978 14.4643V7.53572C1.9978 7.20674 2.2122 6.91616 2.52654 6.8191L6.51204 5.58856C6.52291 5.58492 6.53389 5.58153 6.54497 5.57839L18.0265 2.03339C18.2541 1.96313 18.5015 2.00511 18.6931 2.1465ZM7.4978 16.7158V17.25C7.4978 18.4926 8.50516 19.5 9.7478 19.5C10.7042 19.5 11.5229 18.9029 11.8482 18.059L7.4978 16.7158ZM20.4978 11C20.4978 11.9797 19.8717 12.8131 18.9978 13.122V8.87804C19.8717 9.18691 20.4978 10.0203 20.4978 11ZM6 7.31652V14.6835L3.4978 13.9109V8.08909L6 7.31652Z" fill="currentColor"/></svg>