<svg xmlns="http://www.w3.org/2000/svg" fill="none" width="24" height="24" viewBox="0 0 24 24"><path d="M7 7C7 4.23858 9.23858 2 12 2C14.7614 2 17 4.23858 17 7V11.5C17 14.2614 14.7614 16.5 12 16.5C9.23858 16.5 7 14.2614 7 11.5V7Z" fill="currentColor"/>
<path d="M5.81123 14.1997C5.64539 13.8201 5.20326 13.6468 4.82369 13.8127C4.44412 13.9785 4.27087 14.4207 4.4367 14.8002C5.61403 17.4948 8.19054 19.4406 11.2499 19.7163V21.2499C11.2499 21.6642 11.5857 21.9999 11.9999 21.9999C12.4141 21.9999 12.7499 21.6642 12.7499 21.2499V19.7163C15.8093 19.4406 18.3858 17.4948 19.5631 14.8002C19.7289 14.4207 19.5557 13.9785 19.1761 13.8127C18.7966 13.6468 18.3544 13.8201 18.1886 14.1997C17.1463 16.5852 14.7667 18.2499 11.9999 18.2499C9.23314 18.2499 6.85352 16.5852 5.81123 14.1997Z" fill="currentColor"/></svg>