<svg xmlns="http://www.w3.org/2000/svg" fill="none" width="24" height="24" viewBox="0 0 24 24"><path d="M17.0001 11.5C17.0001 12.1846 16.8625 12.8371 16.6134 13.4313L7.67383 4.49163C8.53954 3.00174 10.1528 2 12.0001 2C14.7615 2 17.0001 4.23858 17.0001 7V11.5Z" fill="currentColor"/>
<path d="M3.53033 2.46967C3.23744 2.17678 2.76256 2.17678 2.46967 2.46967C2.17678 2.76256 2.17678 3.23744 2.46967 3.53033L7 8.06066V11.5C7 14.2614 9.23858 16.5 12 16.5C12.9805 16.5 13.8962 16.2172 14.6684 15.7291L15.9288 16.9894C14.822 17.7832 13.4661 18.2499 11.9999 18.2499C9.23314 18.2499 6.85352 16.5852 5.81123 14.1997C5.64539 13.8201 5.20326 13.6468 4.82369 13.8127C4.44412 13.9785 4.27086 14.4207 4.4367 14.8002C5.61403 17.4948 8.19054 19.4406 11.2499 19.7163V21.2499C11.2499 21.6642 11.5857 21.9999 11.9999 21.9999C12.4141 21.9999 12.7499 21.6642 12.7499 21.2499V19.7163C14.3398 19.5729 15.8004 18.9781 17.0011 18.0617L20.4697 21.5303C20.7626 21.8232 21.2374 21.8232 21.5303 21.5303C21.8232 21.2374 21.8232 20.7626 21.5303 20.4697L3.53033 2.46967Z" fill="currentColor"/></svg>