<svg xmlns="http://www.w3.org/2000/svg" fill="none" width="24" height="24" viewBox="0 0 24 24"><path fill-rule="evenodd" clip-rule="evenodd" d="M13.75 3C14.1642 3 14.5 3.33579 14.5 3.75V8.43934L19.7197 3.21967C20.0126 2.92678 20.4874 2.92678 20.7803 3.21967C21.0732 3.51256 21.0732 3.98744 20.7803 4.28033L15.5607 9.5H20.25C20.6642 9.5 21 9.83579 21 10.25C21 10.6642 20.6642 11 20.25 11H13.75C13.3358 11 13 10.6642 13 10.25V3.75C13 3.33579 13.3358 3 13.75 3ZM3.75 14.5C3.33579 14.5 3 14.1642 3 13.75C3 13.3358 3.33579 13 3.75 13H10.25C10.6642 13 11 13.3358 11 13.75V20.25C11 20.6642 10.6642 21 10.25 21C9.83579 21 9.5 20.6642 9.5 20.25V15.5607L4.28033 20.7803C3.98744 21.0732 3.51256 21.0732 3.21967 20.7803C2.92678 20.4874 2.92678 20.0126 3.21967 19.7197L8.43934 14.5H3.75Z" fill="currentColor"/></svg>