<svg xmlns="http://www.w3.org/2000/svg" fill="none" width="24" height="24" viewBox="0 0 24 24"><path d="M9.80806 8.8194C9.6085 8.24991 9.5 7.63763 9.5 7C9.5 4.54118 11.1135 2.45921 13.3395 1.75511C12.6816 1.27999 11.8735 1 11 1C8.79086 1 7 2.79086 7 5C7 6.79402 8.18105 8.31219 9.80806 8.8194Z" fill="currentColor"/>
<path d="M15 3C14.4815 3 13.9837 3.09916 13.5264 3.28047C12.0482 3.86648 11 5.30961 11 7C11 7.36293 11.0486 7.71607 11.1402 8.05257C11.6024 9.75034 13.154 11 15 11C17.2091 11 19 9.20914 19 7C19 4.79086 17.2091 3 15 3Z" fill="currentColor"/>
<path fill-rule="evenodd" clip-rule="evenodd" d="M2 12.75C2 12.3358 2.33579 12 2.75 12H6.75C7.16421 12 7.5 12.3358 7.5 12.75V13.0392C9.96143 12.4632 12.035 12.2975 13.68 12.4037C15.4947 12.5208 16.9034 12.9775 17.6813 13.7011C17.9517 13.9526 18.1691 14.2611 18.2739 14.6137C18.4453 14.4886 18.6116 14.3614 18.7709 14.2348C19.8545 13.3737 21.5358 13.4192 22.4645 14.5816C23.1693 15.4638 23.2076 16.7652 22.4046 17.6494C19.9683 20.3322 16.881 22.174 12.958 21.987C12.0373 21.9431 10.9392 21.6633 10.1108 21.4137C9.68803 21.2863 9.31906 21.1616 9.05546 21.0687C8.93286 21.0255 8.83266 20.989 8.75998 20.9622H7.5V21.25C7.5 21.6642 7.16421 22 6.75 22H2.75C2.33579 22 2 21.6642 2 21.25V12.75ZM7.5 19.4622H8.89621C8.98866 19.4622 9.08031 19.4793 9.16654 19.5126M9.16654 19.5126L9.17151 19.5145L9.19003 19.5215C9.20679 19.5279 9.23225 19.5375 9.26561 19.5499C9.33236 19.5746 9.43061 19.6105 9.55405 19.654C9.80131 19.7412 10.1478 19.8582 10.5435 19.9774C11.3519 20.221 12.3026 20.454 13.0294 20.4887C16.3718 20.6481 19.0559 19.1056 21.2942 16.6409C21.5587 16.3496 21.579 15.8764 21.2926 15.5179C20.9434 15.0809 20.2228 14.997 19.7041 15.4092C18.8046 16.124 17.5353 16.993 16.2674 17.345C15.8427 17.4628 15.421 17.5556 15.0301 17.6285C14.449 17.7493 13.7966 17.8349 13.077 17.8813L13.0581 17.8826L13.0423 17.8836L13.0405 17.8837L13.0376 17.8839L13.0361 17.8839C12.6236 17.9068 12.2693 17.5917 12.245 17.1793C12.2207 16.7669 12.5345 16.4124 12.9468 16.3866C12.9593 16.3858 12.9717 16.385 12.9841 16.3842L13.0099 16.3825C13.0508 16.3796 13.1124 16.375 13.1918 16.368C13.3506 16.3542 13.5796 16.3313 13.8554 16.2955C14.1169 16.2615 14.4176 16.2164 14.7383 16.157C15.6669 15.9624 16.2644 15.6873 16.5867 15.4252C16.823 15.233 16.8404 15.1094 16.8416 15.0863C16.8425 15.0701 16.844 14.9709 16.6596 14.7994C16.2608 14.4283 15.2762 14.0098 13.5834 13.9006C12.04 13.8009 10.0003 13.9655 7.5 14.5819V19.4622" fill="currentColor"/></svg>