<svg xmlns="http://www.w3.org/2000/svg" fill="none" width="24" height="24" viewBox="0 0 24 24"><path d="M12 2C6.47715 2 2 6.47715 2 12C2 17.5228 6.47715 22 12 22C17.5228 22 22 17.5228 22 12C22 11.9319 21.9993 11.8639 21.998 11.7962C21.9924 11.5186 21.834 11.2669 21.5862 11.1417C21.3384 11.0166 21.0418 11.0385 20.8151 11.1988C19.8784 11.861 18.7358 12.25 17.5 12.25C14.3244 12.25 11.75 9.67564 11.75 6.5C11.75 5.26425 12.139 4.12157 12.8012 3.18485C12.9615 2.95819 12.9834 2.66155 12.8583 2.41377C12.7331 2.16599 12.4814 2.0076 12.2038 2.00204C12.136 2.00068 12.0681 2 12 2Z" fill="currentColor"/></svg>