<svg xmlns="http://www.w3.org/2000/svg" fill="none" width="24" height="24" viewBox="0 0 24 24"><path fill-rule="evenodd" clip-rule="evenodd" d="M6 4.75C6 4.33579 6.33579 4 6.75 4H17.25C17.6642 4 18 4.33579 18 4.75V8H21.25C21.6642 8 22 8.33579 22 8.75V18.5H22.25C22.6642 18.5 23 18.8358 23 19.25C23 19.6642 22.6642 20 22.25 20H1.75C1.33579 20 1 19.6642 1 19.25C1 18.8358 1.33579 18.5 1.75 18.5H2V8.75C2 8.33579 2.33579 8 2.75 8H6V4.75ZM6 9.5H3.5V18.5H6V9.5ZM18 18.5H20.5V9.5H18V18.5ZM14 18.5V15H10V18.5H14Z" fill="currentColor"/></svg>