<svg xmlns="http://www.w3.org/2000/svg" fill="none" width="24" height="24" viewBox="0 0 24 24"><path d="M14.4635 2.77544C14.0635 2.66839 13.6524 2.90571 13.5452 3.30563L11.9427 9.27951C11.8912 9.4717 11.9181 9.6765 12.0176 9.84882C12.1171 10.0211 12.281 10.1469 12.4732 10.1983L18.4536 11.799C18.8536 11.9061 19.2647 11.6687 19.3719 11.2688L20.9744 5.29495C21.026 5.10276 20.999 4.89796 20.8995 4.72564C20.8 4.55331 20.6362 4.42759 20.4439 4.37614L14.4635 2.77544Z" fill="currentColor"/>
<path d="M5.47325 6.41113C5.26797 6.23907 4.98651 6.18954 4.73483 6.2812C4.48315 6.37285 4.29945 6.59177 4.25289 6.85554L3.01144 13.8884C2.96486 14.1523 3.06257 14.4209 3.26777 14.5932C3.47297 14.7655 3.75448 14.8152 4.00628 14.7237L10.7244 12.2812C10.9763 12.1896 11.1602 11.9705 11.2067 11.7065C11.2533 11.4425 11.1553 11.1737 10.9499 11.0015L5.47325 6.41113Z" fill="currentColor"/>
<path d="M14.0116 13.3153C11.8884 13.3153 10.1659 15.0348 10.1659 17.1576C10.1659 19.2805 11.8884 20.9999 14.0116 20.9999C16.1347 20.9999 17.8573 19.2805 17.8573 17.1576C17.8573 15.0348 16.1347 13.3153 14.0116 13.3153Z" fill="currentColor"/></svg>