<svg xmlns="http://www.w3.org/2000/svg" fill="none" width="24" height="24" viewBox="0 0 24 24"><path d="M16.4697 2.21967C16.7626 1.92678 17.2374 1.92678 17.5303 2.21967L20.7803 5.46967C21.0732 5.76256 21.0732 6.23744 20.7803 6.53033L6.53033 20.7803C6.38968 20.921 6.19891 21 6 21H2.75C2.33579 21 2 20.6642 2 20.25V17C2 16.8011 2.07902 16.6103 2.21967 16.4697L16.4697 2.21967Z" fill="currentColor"/>
<path d="M21.4903 17.4324C21.1769 17.1618 20.7035 17.1963 20.4327 17.5095L20.4261 17.5168C20.4192 17.5246 20.4075 17.5374 20.3914 17.5547C20.3592 17.5892 20.3095 17.641 20.2446 17.7043C20.1139 17.8317 19.9261 18.0013 19.699 18.1696C19.2229 18.5224 18.675 18.7944 18.166 18.7944C17.6346 18.7944 17.124 18.5421 16.4177 18.1672L16.3494 18.131C15.7225 17.7975 14.9093 17.365 13.9866 17.365C12.2062 17.365 11.1671 18.2154 10.2046 19.2352C9.92027 19.5364 9.93398 20.0111 10.2352 20.2954C10.5364 20.5797 11.0111 20.566 11.2954 20.2648C12.1526 19.3567 12.8215 18.865 13.9866 18.865C14.5028 18.865 15.0037 19.1149 15.7145 19.4922L15.7677 19.5205C16.4011 19.8571 17.2241 20.2944 18.166 20.2944C19.1571 20.2944 20.0262 19.7942 20.5921 19.3748C20.886 19.157 21.1254 18.9405 21.2917 18.7783C21.3753 18.6968 21.4415 18.628 21.4881 18.578C21.5114 18.5531 21.5299 18.5328 21.5432 18.5179L21.5593 18.4997L21.5645 18.4939L21.5663 18.4918L21.5676 18.4903C21.5676 18.4903 21.5676 18.4903 21 18L21.5676 18.4903C21.8383 18.1768 21.8037 17.7032 21.4903 17.4324Z" fill="currentColor"/></svg>