<svg width="24" height="24" viewBox="0 0 24 24" fill="none" xmlns="http://www.w3.org/2000/svg">
<path d="M17.5303 2.21967C17.2374 1.92678 16.7626 1.92678 16.4697 2.21967L2.21967 16.4697C2.07902 16.6103 2 16.8011 2 17V21.25C2 21.6642 2.33579 22 2.75 22H7C7.19891 22 7.38968 21.921 7.53033 21.7803L21.7803 7.53033C22.0732 7.23744 22.0732 6.76256 21.7803 6.46967L17.5303 2.21967Z" fill="#353531"/>
<path d="M12.75 20.5C12.3358 20.5 12 20.8358 12 21.25C12 21.6642 12.3358 22 12.75 22H21.25C21.6642 22 22 21.6642 22 21.25C22 20.8358 21.6642 20.5 21.25 20.5H12.75Z" fill="#353531"/>
</svg>
