<svg xmlns="http://www.w3.org/2000/svg" fill="none" width="24" height="24" viewBox="0 0 24 24"><path d="M10.168 13.4867C9.80972 13.7845 9.44743 14.1113 9.11853 14.4484C8.02055 12.2778 7.22894 9.77005 6.85335 7.62648C6.63741 6.39405 6.56567 5.31906 6.63634 4.51906C6.67174 4.11832 6.74032 3.81802 6.82434 3.61151C6.9097 3.40169 6.98588 3.34786 6.99999 3.33971C7.01411 3.33156 7.09881 3.29251 7.32321 3.32349C7.54406 3.35398 7.83842 3.44474 8.20317 3.61446C8.93132 3.95326 9.82642 4.55287 10.7858 5.3561C12.4544 6.75316 14.2303 8.69256 15.5611 10.7288C15.1048 10.8451 14.6406 10.9954 14.2036 11.1568C13.3844 11.4593 12.6052 11.8211 12.0739 12.1279C11.5425 12.4347 10.8395 12.9286 10.168 13.4867Z" fill="currentColor"/>
<path d="M5.11905 4.7406C5.07913 5.65137 5.17415 6.73413 5.37586 7.88537C5.76099 10.0834 6.55411 12.6363 7.66709 14.899C6.72123 15.193 5.79969 15.9008 5.04028 17.0509C4.63068 17.6713 3.71143 17.6437 3.33974 17C0.979322 12.9116 1.8339 7.8493 5.11905 4.7406Z" fill="currentColor"/>
<path d="M9.15367 2.41121C9.96238 2.83203 10.8526 3.45569 11.7487 4.206C13.4597 5.63854 15.274 7.60187 16.6771 9.69709C17.4047 9.02494 18.4783 8.58072 19.8541 8.49816C20.5962 8.45364 21.0319 7.64375 20.6602 6.99996C18.2998 2.9116 13.4885 1.12054 9.15367 2.41121Z" fill="currentColor"/>
<path d="M13.4904 13.0814C13.2338 13.2032 13.0069 13.3212 12.8239 13.4269C12.6408 13.5326 12.4252 13.6701 12.1914 13.8314L15.9755 20.3857C16.1826 20.7444 16.6413 20.8673 17 20.6602C17.3587 20.4531 17.4816 19.9944 17.2745 19.6357L13.4904 13.0814Z" fill="currentColor"/></svg>