<svg xmlns="http://www.w3.org/2000/svg" fill="none" width="24" height="24" viewBox="0 0 24 24"><path d="M10.168 13.4867C9.80975 13.7845 9.44746 14.1113 9.11856 14.4484C8.02058 12.2778 7.22898 9.77005 6.85338 7.62648C6.63744 6.39405 6.56571 5.31906 6.63637 4.51906C6.67177 4.11832 6.74035 3.81802 6.82437 3.61151C6.90973 3.40169 6.98591 3.34786 7.00002 3.33971C7.01414 3.33156 7.09884 3.29251 7.32324 3.32349C7.54409 3.35398 7.83845 3.44474 8.2032 3.61446C8.93135 3.95326 9.82645 4.55287 10.7858 5.3561C12.4544 6.75316 14.2303 8.69256 15.5612 10.7288C15.1048 10.8451 14.6407 10.9954 14.2036 11.1568C13.3844 11.4593 12.6052 11.8211 12.0739 12.1279C11.5425 12.4347 10.8396 12.9286 10.168 13.4867Z" fill="currentColor"/>
<path d="M5.11908 4.7406C5.07916 5.65137 5.17418 6.73413 5.37589 7.88537C5.76102 10.0834 6.55414 12.6363 7.66712 14.899C6.72126 15.193 5.79972 15.9008 5.04031 17.0509C4.63071 17.6713 3.71146 17.6437 3.33977 17C0.979353 12.9116 1.83393 7.8493 5.11908 4.7406Z" fill="currentColor"/>
<path d="M9.1537 2.41121C9.96241 2.83203 10.8526 3.45569 11.7487 4.206C13.4597 5.63854 15.2741 7.60187 16.6771 9.69709C17.4047 9.02494 18.4784 8.58072 19.8542 8.49816C20.5962 8.45364 21.032 7.64375 20.6603 6.99996C18.2999 2.9116 13.4885 1.12054 9.1537 2.41121Z" fill="currentColor"/>
<path d="M13.4904 13.0814C13.2338 13.2032 13.007 13.3212 12.8239 13.4269C12.6408 13.5326 12.4252 13.6701 12.1914 13.8314L15.9755 20.3857C16.1826 20.7444 16.6413 20.8673 17 20.6602C17.3587 20.4531 17.4816 19.9944 17.2745 19.6357L13.4904 13.0814Z" fill="currentColor"/></svg>