<svg xmlns="http://www.w3.org/2000/svg" fill="none" width="24" height="24" viewBox="0 0 24 24"><path fill-rule="evenodd" clip-rule="evenodd" d="M12 2C6.47715 2 2 6.47715 2 12C2 14.897 3.23192 17.5063 5.20047 19.3326C6.98474 20.9879 9.37418 22 12 22C14.6258 22 17.0153 20.9879 18.7995 19.3326C20.7681 17.5063 22 14.897 22 12C22 6.47715 17.5228 2 12 2ZM5.97605 17.9968C7.29919 16.174 9.41114 15 12 15C14.5889 15 16.7008 16.174 18.0239 17.9968C16.4847 19.543 14.3541 20.5 12 20.5C9.64589 20.5 7.51531 19.543 5.97605 17.9968ZM15 10C15 11.6569 13.6569 13 12 13C10.3431 13 9 11.6569 9 10C9 8.34315 10.3431 7 12 7C13.6569 7 15 8.34315 15 10Z" fill="currentColor"/></svg>