<svg xmlns="http://www.w3.org/2000/svg" fill="none" width="24" height="24" viewBox="0 0 24 24"><path d="M12 2C9.51472 2 7.5 4.01472 7.5 6.5C7.5 8.98528 9.51472 11 12 11C14.4853 11 16.5 8.98528 16.5 6.5C16.5 4.01472 14.4853 2 12 2Z" fill="currentColor"/>
<path d="M17.6589 14.6956C16.2284 13.3348 14.2839 12.5 12 12.5C7.38415 12.5 4.15473 15.9097 3.7533 20.1798C3.73354 20.39 3.80328 20.5988 3.94541 20.7549C4.08754 20.911 4.28888 21 4.5 21H14.2001L13.4001 20.4C12.406 19.6544 12.2045 18.2441 12.9501 17.25C13.6957 16.2559 15.106 16.0544 16.1001 16.8L16.3043 16.9531L17.6589 14.6956Z" fill="currentColor"/>
<path d="M20.8932 15.1359C21.1063 14.7807 20.9911 14.32 20.6359 14.1069C20.2807 13.8938 19.82 14.0089 19.6069 14.3641L16.7348 19.151L15.2 18C14.8687 17.7515 14.3986 17.8186 14.15 18.15C13.9015 18.4814 13.9687 18.9515 14.3 19.2L16.5 20.85C16.6699 20.9774 16.8858 21.0268 17.0942 20.986C17.3026 20.9452 17.4839 20.8179 17.5932 20.6359L20.8932 15.1359Z" fill="currentColor"/></svg>