<svg xmlns="http://www.w3.org/2000/svg" fill="none" width="24" height="24" viewBox="0 0 24 24"><path d="M12 2C9.51472 2 7.5 4.01472 7.5 6.5C7.5 8.98528 9.51472 11 12 11C14.4853 11 16.5 8.98528 16.5 6.5C16.5 4.01472 14.4853 2 12 2Z" fill="currentColor"/>
<path d="M3.7533 20.1798C4.15473 15.9097 7.38415 12.5 12 12.5C13.7415 12.5 15.2857 12.9854 16.5551 13.8192C15.8117 13.6307 14.9907 13.8273 14.409 14.409C13.5303 15.2877 13.5303 16.7123 14.409 17.591L14.818 18L14.409 18.409C13.708 19.11 13.5663 20.1585 13.9838 21H4.5C4.28888 21 4.08754 20.911 3.94541 20.7549C3.80328 20.5988 3.73354 20.39 3.7533 20.1798Z" fill="currentColor"/>
<path d="M20.5303 16.5303C20.8232 16.2374 20.8232 15.7626 20.5303 15.4697C20.2374 15.1768 19.7626 15.1768 19.4697 15.4697L18 16.9393L16.5303 15.4697C16.2374 15.1768 15.7626 15.1768 15.4697 15.4697C15.1768 15.7626 15.1768 16.2374 15.4697 16.5303L16.9393 18L15.4697 19.4697C15.1768 19.7626 15.1768 20.2374 15.4697 20.5303C15.7626 20.8232 16.2374 20.8232 16.5303 20.5303L18 19.0607L19.4697 20.5303C19.7626 20.8232 20.2374 20.8232 20.5303 20.5303C20.8232 20.2374 20.8232 19.7626 20.5303 19.4697L19.0607 18L20.5303 16.5303Z" fill="currentColor"/></svg>