<svg xmlns="http://www.w3.org/2000/svg" fill="none" width="24" height="24" viewBox="0 0 24 24"><path d="M12 2C9.51472 2 7.5 4.01472 7.5 6.5C7.5 8.98528 9.51472 11 12 11C14.4853 11 16.5 8.98528 16.5 6.5C16.5 4.01472 14.4853 2 12 2Z" fill="currentColor"/>
<path d="M12 12.5C7.38412 12.5 4.15473 15.9097 3.7533 20.1798C3.73354 20.39 3.80328 20.5988 3.94541 20.7549C4.08754 20.911 4.28888 21 4.5 21H19.5C19.7111 21 19.9125 20.911 20.0546 20.7549C20.1967 20.5988 20.2665 20.39 20.2467 20.1798C19.8453 15.9097 16.6159 12.5 12 12.5Z" fill="currentColor"/></svg>