<svg xmlns="http://www.w3.org/2000/svg" fill="none" width="24" height="24" viewBox="0 0 24 24"><path d="M14.2586 2.18337C14.4229 2.04092 14.6409 1.97677 14.8562 2.00756C18.5469 2.53548 21.4645 5.45306 21.9924 9.14381C22.0232 9.35906 21.9591 9.57708 21.8166 9.74136C21.6742 9.90564 21.4674 10 21.25 10H14.75C14.3358 10 14 9.66422 14 9.25001V2.75C14 2.53256 14.0944 2.32582 14.2586 2.18337Z" fill="currentColor"/>
<path d="M2 13C2 8.02944 6.02944 4 11 4C11.0926 4 11.1849 4.0014 11.2768 4.00418C11.682 4.01644 12.0041 4.34846 12.0041 4.75384V12.0002H19.2463C19.6518 12.0002 19.9839 12.3226 19.996 12.7279C19.9986 12.8183 20 12.909 20 13C20 17.9706 15.9706 22 11 22C6.02944 22 2 17.9706 2 13Z" fill="currentColor"/></svg>