<svg xmlns="http://www.w3.org/2000/svg" fill="none" width="24" height="24" viewBox="0 0 24 24"><path fill-rule="evenodd" clip-rule="evenodd" d="M5 3.75C5 3.33579 5.33579 3 5.75 3C6.47743 3 8.50198 3.24069 10.1403 5H14.004C17.87 5 21.004 8.13401 21.004 12C21.004 12.8135 20.8649 13.5957 20.6089 14.3235C20.7965 14.4358 21.0156 14.5 21.25 14.5C21.9404 14.5 22.5 13.9404 22.5 13.25C22.5 12.9537 22.3978 12.6832 22.2262 12.4691C21.9671 12.1459 22.0191 11.6739 22.3422 11.4148C22.6654 11.1557 23.1374 11.2077 23.3965 11.5309C23.7738 12.0016 24 12.6004 24 13.25C24 14.7688 22.7688 16 21.25 16C20.7839 16 20.3448 15.8838 19.9602 15.6792C19.6857 16.1227 19.3632 16.533 19 16.9031V20.25C19 20.6642 18.6642 21 18.25 21H13.75C13.3358 21 13 20.6642 13 20.25V19H11V20.25C11 20.6642 10.6642 21 10.25 21H5.75C5.33579 21 5 20.6642 5 20.25V16.8949C4.46134 16.3443 4.01257 15.7048 3.67782 15H1.75C1.33579 15 1 14.6642 1 14.25V9.75C1 9.33579 1.33579 9 1.75 9H3.67782C4.01257 8.29522 4.46134 7.65571 5 7.1051V3.75ZM8.25 12C8.94036 12 9.5 11.4404 9.5 10.75C9.5 10.0596 8.94036 9.5 8.25 9.5C7.55964 9.5 7 10.0596 7 10.75C7 11.4404 7.55964 12 8.25 12Z" fill="currentColor"/></svg>