<svg xmlns="http://www.w3.org/2000/svg" fill="none" width="24" height="24" viewBox="0 0 24 24"><path d="M11.3869 8.21721L16.2667 5.29567C17.8838 4.32756 19.9515 4.90208 20.8851 6.5789L21.9158 8.43017C24.1473 12.4382 22.823 17.5633 18.9579 19.8773C16.3595 21.4329 13.1439 21.3677 10.6061 19.7079L5.03468 16.0638C4.70855 15.8505 4.53605 15.4672 4.59267 15.0816L4.70368 14.3258C4.89111 13.0497 6.04065 12.1728 7.27126 12.3671L8.60993 12.5785L5.22907 6.50624C4.60667 5.38836 4.97603 3.95893 6.05405 3.31352C7.13208 2.66811 8.51055 3.05113 9.13295 4.16901L11.3869 8.21721Z" fill="currentColor"/>
<path fill-rule="evenodd" clip-rule="evenodd" d="M2.53151 6.91709C2.91816 7.06566 3.11117 7.49955 2.9626 7.8862C2.3458 9.49139 2.3458 10.8992 2.9626 12.5044C3.11117 12.8911 2.91816 13.325 2.53151 13.4735C2.14486 13.6221 1.71098 13.4291 1.5624 13.0424C0.812532 11.0909 0.812532 9.29971 1.5624 7.34818C1.71098 6.96152 2.14486 6.76852 2.53151 6.91709Z" fill="currentColor"/></svg>