<svg xmlns="http://www.w3.org/2000/svg" fill="none" width="24" height="24" viewBox="0 0 24 24"><path fill-rule="evenodd" clip-rule="evenodd" d="M12.25 2.75C12.25 2.33579 12.5858 2 13 2C15.6705 2 18 3.92926 18 6.5C18 7.46033 17.669 8.33663 17.118 9.05439C18.7562 9.34626 20 10.7779 20 12.5C20 13.1044 19.8466 13.673 19.5771 14.1689C20.9831 14.6231 22 15.9428 22 17.5C22 19.433 20.433 21 18.5 21H5.5C3.567 21 2 19.433 2 17.5C2 15.9428 3.01693 14.6231 4.4229 14.1689C4.15338 13.673 4 13.1044 4 12.5C4 10.9428 5.01693 9.62314 6.4229 9.16886C6.15338 8.67296 6 8.1044 6 7.5C6 5.567 7.567 4 9.5 4H12.25V2.75ZM10.75 9C10.3358 9 10 9.33579 10 9.75C10 10.1642 10.3358 10.5 10.75 10.5H12.25C12.6642 10.5 13 10.1642 13 9.75C13 9.33579 12.6642 9 12.25 9H10.75ZM13.75 14C13.3358 14 13 14.3358 13 14.75C13 15.1642 13.3358 15.5 13.75 15.5H15.25C15.6642 15.5 16 15.1642 16 14.75C16 14.3358 15.6642 14 15.25 14H13.75Z" fill="currentColor"/></svg>