<svg xmlns="http://www.w3.org/2000/svg" fill="none" width="24" height="24" viewBox="0 0 24 24"><path fill-rule="evenodd" clip-rule="evenodd" d="M6.75 2C6.33579 2 6 2.33579 6 2.75V6H2.75C2.33579 6 2 6.33579 2 6.75V17.25C2 17.6642 2.33579 18 2.75 18H6V21.25C6 21.6642 6.33579 22 6.75 22H17.25C17.6642 22 18 21.6642 18 21.25V18H21.25C21.6642 18 22 17.6642 22 17.25V6.75C22 6.33579 21.6642 6 21.25 6H18V2.75C18 2.33579 17.6642 2 17.25 2H6.75ZM16.5 6V3.5H7.5V6H16.5ZM16.5 14.5H7.5V20.5H16.5V14.5ZM6 10.75C6 10.3358 6.33579 10 6.75 10H9.25C9.66421 10 10 10.3358 10 10.75C10 11.1642 9.66421 11.5 9.25 11.5H6.75C6.33579 11.5 6 11.1642 6 10.75Z" fill="currentColor"/></svg>