<svg xmlns="http://www.w3.org/2000/svg" fill="none" width="24" height="24" viewBox="0 0 24 24"><path d="M9.42188 2C5.86553 2 3 4.91986 3 8.5C3 12.0801 5.86553 15 9.42188 15H16.125C18.827 15 21 12.7822 21 10.0682C21 7.35412 18.827 5.13636 16.125 5.13636C15.7367 5.13636 15.3585 5.18243 14.9956 5.26957C13.8902 3.32006 11.8116 2 9.42188 2Z" fill="currentColor"/>
<path d="M7.49149 18.0404C7.65188 17.6585 7.47232 17.2189 7.09042 17.0585C6.70853 16.8981 6.26891 17.0777 6.10851 17.4596L5.05851 19.9596C4.89812 20.3415 5.07768 20.7811 5.45958 20.9415C5.84147 21.1019 6.28109 20.9223 6.44149 20.5404L7.49149 18.0404Z" fill="currentColor"/>
<path d="M12.5147 18.0394C12.6745 17.6572 12.4942 17.2179 12.1121 17.0581C11.7299 16.8983 11.2906 17.0785 11.1308 17.4606L10.0853 19.9606C9.92553 20.3428 10.1058 20.7821 10.4879 20.9419C10.8701 21.1017 11.3094 20.9215 11.4692 20.5394L12.5147 18.0394Z" fill="currentColor"/>
<path d="M17.5147 18.0394C17.6745 17.6572 17.4943 17.2179 17.1122 17.0581C16.73 16.8983 16.2907 17.0785 16.1309 17.4606L15.0854 19.9606C14.9256 20.3428 15.1058 20.7821 15.488 20.9419C15.8701 21.1017 16.3095 20.9215 16.4693 20.5394L17.5147 18.0394Z" fill="currentColor"/></svg>