<svg xmlns="http://www.w3.org/2000/svg" fill="none" width="24" height="24" viewBox="0 0 24 24"><path fill-rule="evenodd" clip-rule="evenodd" d="M13.0577 2C12.4417 2 11.9423 2.49746 11.9423 3.11111V10.3333C11.9423 10.6402 11.6926 10.8889 11.3846 10.8889C11.0766 10.8889 10.8269 10.6402 10.8269 10.3333V4.22222C10.8269 3.60857 10.3275 3.11111 9.71154 3.11111C9.09553 3.11111 8.59615 3.60857 8.59615 4.22222V11.4444C8.59615 11.7513 8.34647 12 8.03846 12C7.73046 12 7.48077 11.7513 7.48077 11.4444V6.44444C7.48077 5.8308 6.98139 5.33333 6.36538 5.33333C5.74937 5.33333 5.25 5.8308 5.25 6.44444V14.7778C5.25 18.7665 8.49594 22 12.5 22C16.5041 22 19.75 18.7665 19.75 14.7778V8.11111C19.2412 8.11111 18.7658 8.24637 18.3562 8.48239C17.5212 8.96352 16.9615 9.86142 16.9615 10.8889V12.3416C16.9615 12.698 16.7437 13.0185 16.4115 13.1508C15.0596 13.6896 14.1731 14.9939 14.1731 16.4444C14.1731 16.7513 13.9234 17 13.6154 17C13.3074 17 13.0577 16.7513 13.0577 16.4444C13.0577 14.5942 14.1561 12.925 15.8462 12.1825V10.8889C15.8462 9.56668 16.5088 8.3992 17.5192 7.69713V4.22222C17.5192 3.60857 17.0199 3.11111 16.4038 3.11111C15.7878 3.11111 15.2885 3.60857 15.2885 4.22222V10.3333C15.2885 10.6402 15.0388 10.8889 14.7308 10.8889C14.4228 10.8889 14.1731 10.6402 14.1731 10.3333V3.11111C14.1731 2.49746 13.6737 2 13.0577 2Z" fill="currentColor"/></svg>