<svg xmlns="http://www.w3.org/2000/svg" fill="none" width="24" height="24" viewBox="0 0 24 24"><path fill-rule="evenodd" clip-rule="evenodd" d="M6 7C4.36337 7 2.91098 7.78677 1.99972 9H0.75C0.335786 9 0 9.33579 0 9.75C0 10.1642 0.335786 10.5 0.75 10.5H1.22911C1.08024 10.9739 1 11.4779 1 12C1 14.7614 3.23858 17 6 17C8.76142 17 11 14.7614 11 12C11 11.2245 10.823 10.4891 10.5072 9.8332C10.9597 9.61946 11.4654 9.5 12 9.5C12.5346 9.5 13.0403 9.61946 13.4928 9.83321C13.177 10.4891 13 11.2245 13 12C13 14.7614 15.2386 17 18 17C20.7614 17 23 14.7614 23 12C23 11.4779 22.9198 10.9739 22.7709 10.5H23.25C23.6642 10.5 24 10.1642 24 9.75C24 9.33579 23.6642 9 23.25 9H22.0003C21.089 7.78677 19.6366 7 18 7C16.5586 7 15.2599 7.61041 14.3482 8.58476C13.6477 8.21159 12.8479 8 12 8C11.1521 8 10.3523 8.21159 9.65182 8.58476C8.74012 7.61041 7.44138 7 6 7Z" fill="currentColor"/></svg>