<svg xmlns="http://www.w3.org/2000/svg" fill="none" width="24" height="24" viewBox="0 0 24 24"><path d="M7.28033 3.78033C7.57322 3.48744 7.57322 3.01256 7.28033 2.71967C6.98744 2.42678 6.51256 2.42678 6.21967 2.71967L3.21967 5.71967C2.92678 6.01256 2.92678 6.48744 3.21967 6.78033L6.21967 9.78033C6.51256 10.0732 6.98744 10.0732 7.28033 9.78033C7.57322 9.48744 7.57322 9.01256 7.28033 8.71967L5.56066 7H14.25C17.2876 7 19.75 9.46243 19.75 12.5C19.75 15.5376 17.2876 18 14.25 18H5.75C5.33579 18 5 18.3358 5 18.75C5 19.1642 5.33579 19.5 5.75 19.5H14.25C18.116 19.5 21.25 16.366 21.25 12.5C21.25 8.63401 18.116 5.5 14.25 5.5H5.56066L7.28033 3.78033Z" fill="currentColor"/></svg>