<svg xmlns="http://www.w3.org/2000/svg" fill="none" width="25" height="24" viewBox="0 0 25 24"><path fill-rule="evenodd" clip-rule="evenodd" d="M12 1C12.4142 1 12.75 1.33579 12.75 1.75V3H19.2188C19.633 3 19.9688 3.33579 19.9688 3.75V13.25C19.9688 13.6642 19.633 14 19.2188 14H19.0607L20.7803 15.7197C21.0732 16.0126 21.0732 16.4874 20.7803 16.7803C20.4874 17.0732 20.0126 17.0732 19.7197 16.7803L18.9304 15.991C18.449 19.3877 15.5296 22 12 22C8.47043 22 5.55099 19.3877 5.06961 15.991L4.28033 16.7803C3.98744 17.0732 3.51256 17.0732 3.21967 16.7803C2.92678 16.4874 2.92678 16.0126 3.21967 15.7197L4.93934 14H4.78125C4.36704 14 4.03125 13.6642 4.03125 13.25V3.75C4.03125 3.33579 4.36704 3 4.78125 3H11.25V1.75C11.25 1.33579 11.5858 1 12 1ZM5.53125 12.5V4.5H18.4688V12.5H5.53125ZM8.75 7C9.16421 7 9.5 7.33579 9.5 7.75V9.25C9.5 9.66421 9.16421 10 8.75 10C8.33579 10 8 9.66421 8 9.25V7.75C8 7.33579 8.33579 7 8.75 7ZM15.25 7C15.6642 7 16 7.33579 16 7.75V9.25C16 9.66421 15.6642 10 15.25 10C14.8358 10 14.5 9.66421 14.5 9.25V7.75C14.5 7.33579 14.8358 7 15.25 7Z" fill="currentColor"/></svg>