<svg width="24" height="24" viewBox="0 0 24 24" fill="none" xmlns="http://www.w3.org/2000/svg">
<path fill-rule="evenodd" clip-rule="evenodd" d="M12 2C12.4142 2 12.75 2.33579 12.75 2.75V4H20.75C21.1642 4 21.5 4.33579 21.5 4.75V8H21.75C22.1642 8 22.5 8.33579 22.5 8.75V11.25C22.5 11.6642 22.1642 12 21.75 12H21.5V16.25C21.5 18.3211 19.8211 20 17.75 20H6.25C4.17893 20 2.5 18.3211 2.5 16.25V12H2.25C1.83579 12 1.5 11.6642 1.5 11.25V8.75C1.5 8.33579 1.83579 8 2.25 8H2.5V4.75C2.5 4.33579 2.83579 4 3.25 4H11.25V2.75C11.25 2.33579 11.5858 2 12 2ZM7 10C7 9.17157 7.67157 8.5 8.5 8.5C9.32843 8.5 10 9.17157 10 10C10 10.8284 9.32843 11.5 8.5 11.5C7.67157 11.5 7 10.8284 7 10ZM14 10C14 9.17157 14.6716 8.5 15.5 8.5C16.3284 8.5 17 9.17157 17 10C17 10.8284 16.3284 11.5 15.5 11.5C14.6716 11.5 14 10.8284 14 10ZM9 14.5C9 14.0858 9.33579 13.75 9.75 13.75H14.25C14.6642 13.75 15 14.0858 15 14.5C15 14.9142 14.6642 15.25 14.25 15.25H9.75C9.33579 15.25 9 14.9142 9 14.5Z" fill="currentColor"/>
</svg>
