<svg xmlns="http://www.w3.org/2000/svg" fill="none" width="24" height="24" viewBox="0 0 24 24"><g clip-path="url(#clip0_4963_344)">
<path fill-rule="evenodd" clip-rule="evenodd" d="M3 3.75C3 3.33579 3.33579 3 3.75 3H20.25C20.6642 3 21 3.33579 21 3.75V20.25C21 20.6642 20.6642 21 20.25 21H3.75C3.33579 21 3 20.6642 3 20.25V3.75ZM14.5711 6.5722C14.9454 6.74952 15.1051 7.19672 14.9278 7.57106L10.4278 17.0711C10.2505 17.4454 9.80328 17.6051 9.42894 17.4278C9.05459 17.2505 8.89488 16.8033 9.0722 16.4289L13.5722 6.92894C13.7495 6.55459 14.1967 6.39488 14.5711 6.5722Z" fill="currentColor"/>
</g>
<defs>
<clipPath id="clip0_4963_344">
<rect width="24" height="24" fill="white"/>
</clipPath>
</defs></svg>