<svg xmlns="http://www.w3.org/2000/svg" fill="none" width="24" height="24" viewBox="0 0 24 24"><path fill-rule="evenodd" clip-rule="evenodd" d="M8 12C8 8.13401 11.134 5 15 5C18.866 5 22 8.13401 22 12C22 13.6628 21.4202 15.1902 20.4518 16.3911L22.7803 18.7197C23.0732 19.0126 23.0732 19.4874 22.7803 19.7803C22.4874 20.0732 22.0126 20.0732 21.7197 19.7803L19.3911 17.4518C18.1902 18.4202 16.6628 19 15 19C11.134 19 8 15.866 8 12ZM11.25 12C11.25 9.92893 12.9289 8.25 15 8.25C15.4142 8.25 15.75 7.91421 15.75 7.5C15.75 7.08579 15.4142 6.75 15 6.75C12.1005 6.75 9.75 9.1005 9.75 12C9.75 12.4142 10.0858 12.75 10.5 12.75C10.9142 12.75 11.25 12.4142 11.25 12Z" fill="currentColor"/>
<path d="M2 12C2 11.5858 2.33579 11.25 2.75 11.25H5.25C5.66421 11.25 6 11.5858 6 12C6 12.4142 5.66421 12.75 5.25 12.75H2.75C2.33579 12.75 2 12.4142 2 12Z" fill="currentColor"/>
<path d="M2.75 6C2.33579 6 2 6.33579 2 6.75C2 7.16421 2.33579 7.5 2.75 7.5H6.25C6.66421 7.5 7 7.16421 7 6.75C7 6.33579 6.66421 6 6.25 6H2.75Z" fill="currentColor"/>
<path d="M2 17.25C2 16.8358 2.33579 16.5 2.75 16.5H6.25C6.66421 16.5 7 16.8358 7 17.25C7 17.6642 6.66421 18 6.25 18H2.75C2.33579 18 2 17.6642 2 17.25Z" fill="currentColor"/></svg>