<svg width="55" height="24" viewBox="0 0 55 24" fill="none" xmlns="http://www.w3.org/2000/svg">
<g clip-path="url(#clip0_1509_695)">
<path d="M14.8654 6.12105L11.9169 8.31798C10.5294 7.11834 8.7299 6.88708 7.73984 6.88708C6.74255 6.88708 5.69467 7.17615 5.53568 7.8916C5.37669 8.58537 6.0271 9.12737 7.14002 9.43089C8.41192 9.77055 9.56098 10.0741 11.346 10.5799C13.991 11.3388 15.8049 12.4806 15.8049 15.1328C15.8049 18.7967 12.5528 20.6902 8.20235 20.6902C3.85185 20.6902 0.888889 18.4282 0 17.3731L3.11472 15.0461C5.30443 16.9539 6.82204 17.2213 8.09395 17.2213C9.55375 17.2213 10.9196 16.9106 11.093 16.0867C11.2376 15.4219 10.6883 14.8943 9.44535 14.6052C8.04336 14.28 6.85095 14.0199 5.52846 13.673C1.93677 12.7335 0.925023 10.645 0.925023 8.76604C0.925023 6.18609 3.3243 3.53388 7.72538 3.53388C12.2276 3.53388 14.8654 6.11382 14.8654 6.12105ZM33.6477 3.79404H20.5095V20.206H33.8862V16.4192H25.1201V13.7742H31.1545V10.1536H25.1201V7.53749H33.6405V3.79404H33.6477ZM17.1129 23.9928H18.1319V0H17.1129V23.9928ZM35.6134 23.9928H36.6323V0H35.6134V23.9928ZM39.0099 20.206H49.561C52.3794 20.206 54.6703 18.5077 54.6703 15.7832C54.6703 13.6585 53.2827 12.2493 51.3315 11.6278C51.2665 11.6134 51.2087 11.6061 51.1436 11.6061C51.2087 11.5989 51.2737 11.5917 51.3315 11.57C52.4517 11.1292 53.6802 9.95122 53.6802 7.94941C53.6802 5.4056 51.4327 3.78681 48.6576 3.78681H39.0027L39.0099 20.206ZM43.6423 7.20506H47.3279C48.1734 7.20506 48.86 7.87715 48.86 8.64318C48.86 9.40921 48.1734 10.0885 47.3279 10.0885H43.6423V7.20506ZM48.1445 16.5637H43.635V13.5718H48.1445C48.9395 13.5718 49.5899 14.215 49.5899 15.0678C49.5899 15.9133 48.9467 16.5637 48.1445 16.5637Z" fill="#353531"/>
</g>
<defs>
<clipPath id="clip0_1509_695">
<rect width="54.6631" height="24" fill="white"/>
</clipPath>
</defs>
</svg>
