<svg width="24" height="24" viewBox="0 0 24 24" fill="none" xmlns="http://www.w3.org/2000/svg">
<path fill-rule="evenodd" clip-rule="evenodd" d="M5.70142 2.99707C6.11563 2.99707 6.45142 3.33286 6.45142 3.74707V10.25C6.45142 10.6642 6.11563 11 5.70142 11C5.2872 11 4.95142 10.6642 4.95142 10.25V3.74707C4.95142 3.33286 5.2872 2.99707 5.70142 2.99707ZM18.2986 2.99707C18.7128 2.99707 19.0486 3.33286 19.0486 3.74707V12.2508C19.0486 12.665 18.7128 13.0008 18.2986 13.0008C17.8844 13.0008 17.5486 12.665 17.5486 12.2508V3.74707C17.5486 3.33286 17.8844 2.99707 18.2986 2.99707ZM12 3.24707C12.4142 3.24707 12.75 3.58286 12.75 3.99707V8.49902H14C14.4142 8.49902 14.75 8.83481 14.75 9.24902C14.75 9.66324 14.4142 9.99902 14 9.99902H10C9.58579 9.99902 9.25 9.66324 9.25 9.24902C9.25 8.83481 9.58579 8.49902 10 8.49902H11.25V3.99707C11.25 3.58286 11.5858 3.24707 12 3.24707ZM12 12.0005C12.4142 12.0005 12.75 12.3363 12.75 12.7505V20.0038C12.75 20.418 12.4142 20.7538 12 20.7538C11.5858 20.7538 11.25 20.418 11.25 20.0038V12.7505C11.25 12.3363 11.5858 12.0005 12 12.0005ZM2.99628 13.7515C2.99628 13.3373 3.33206 13.0015 3.74628 13.0015H7.75C8.16421 13.0015 8.5 13.3373 8.5 13.7515C8.5 14.1657 8.16421 14.5015 7.75 14.5015H6.45142V20.254C6.45142 20.6682 6.11563 21.004 5.70142 21.004C5.2872 21.004 4.95142 20.6682 4.95142 20.254V14.5015H3.74628C3.33206 14.5015 2.99628 14.1657 2.99628 13.7515ZM15.5 15.752C15.5 15.3377 15.8358 15.002 16.25 15.002H20.25C20.6642 15.002 21 15.3377 21 15.752C21 16.1662 20.6642 16.502 20.25 16.502H19.0486V20.2536C19.0486 20.6678 18.7128 21.0036 18.2986 21.0036C17.8844 21.0036 17.5486 20.6678 17.5486 20.2536V16.502H16.25C15.8358 16.502 15.5 16.1662 15.5 15.752Z" fill="#353531"/>
</svg>
