<svg xmlns="http://www.w3.org/2000/svg" fill="none" width="24" height="24" viewBox="0 0 24 24"><path fill-rule="evenodd" clip-rule="evenodd" d="M10.451 2.33397C10.5901 2.12533 10.8242 2 11.075 2H12.925C13.1758 2 13.4099 2.12533 13.549 2.33397L15.1115 4.67764L17.6126 4.10046C17.8646 4.04231 18.1287 4.11807 18.3116 4.30092L19.6991 5.68842C19.8819 5.87127 19.9577 6.13542 19.8995 6.38739L19.3224 8.88852L21.666 10.451C21.8747 10.5901 22 10.8242 22 11.075V12.925C22 13.1758 21.8747 13.4099 21.666 13.549L19.3224 15.1115L19.8995 17.6126C19.9577 17.8646 19.8819 18.1287 19.6991 18.3116L18.3116 19.6991C18.1287 19.8819 17.8646 19.9577 17.6126 19.8995L15.1115 19.3224L13.549 21.666C13.4099 21.8747 13.1758 22 12.925 22H11.075C10.8242 22 10.5901 21.8747 10.451 21.666L8.88852 19.3224L6.38739 19.8995C6.13542 19.9577 5.87127 19.8819 5.68842 19.6991L4.30092 18.3116C4.11807 18.1287 4.04231 17.8646 4.10046 17.6126L4.67764 15.1115L2.33397 13.549C2.12533 13.4099 2 13.1758 2 12.925V11.075C2 10.8242 2.12533 10.5901 2.33397 10.451L4.67764 8.88852L4.10046 6.38739C4.04231 6.13542 4.11807 5.87127 4.30092 5.68842L5.68842 4.30092C5.87127 4.11807 6.13542 4.04231 6.38739 4.10046L8.88852 4.67764L10.451 2.33397ZM8.875 12C8.875 10.2741 10.2741 8.875 12 8.875C13.7259 8.875 15.125 10.2741 15.125 12C15.125 13.7259 13.7259 15.125 12 15.125C10.2741 15.125 8.875 13.7259 8.875 12Z" fill="currentColor"/></svg>