<svg xmlns="http://www.w3.org/2000/svg" fill="none" width="24" height="24" viewBox="0 0 24 24"><path d="M17 3C15.0465 3 13.421 4.3989 13.0701 6.25H3.75C3.33579 6.25 3 6.58579 3 7C3 7.41421 3.33579 7.75 3.75 7.75H13.0701C13.421 9.6011 15.0465 11 17 11C19.2098 11 21 9.20984 21 7C21 4.79016 19.2098 3 17 3Z" fill="currentColor"/>
<path d="M9 13C7.04652 13 5.421 14.3989 5.07014 16.25H3.75C3.33579 16.25 3 16.5858 3 17C3 17.4142 3.33579 17.75 3.75 17.75H5.07014C5.421 19.6011 7.04652 21 9 21C10.9535 21 12.579 19.6011 12.9299 17.75H20.25C20.6642 17.75 21 17.4142 21 17C21 16.5858 20.6642 16.25 20.25 16.25H12.9299C12.579 14.3989 10.9535 13 9 13Z" fill="currentColor"/></svg>