<svg xmlns="http://www.w3.org/2000/svg" fill="none" width="24" height="24" viewBox="0 0 24 24"><path fill-rule="evenodd" clip-rule="evenodd" d="M11.7628 2.03849C11.9168 1.98717 12.0832 1.98717 12.2372 2.03849L20.4872 4.78849C20.7934 4.89057 21 5.17718 21 5.5V11.9123C21 14.6497 19.8165 16.6701 18.1412 18.2596C16.4942 19.8225 14.3404 20.9975 12.3561 22.068C12.1338 22.1879 11.8662 22.1879 11.6439 22.068C9.65956 20.9975 7.5058 19.8225 5.85876 18.2596C4.18351 16.6701 3 14.6497 3 11.9123V5.5C3 5.17718 3.20657 4.89057 3.51283 4.78849L11.7628 2.03849ZM15.2803 10.0303C15.5732 9.73744 15.5732 9.26256 15.2803 8.96967C14.9874 8.67678 14.5126 8.67678 14.2197 8.96967L11 12.1893L9.78033 10.9697C9.48744 10.6768 9.01256 10.6768 8.71967 10.9697C8.42678 11.2626 8.42678 11.7374 8.71967 12.0303L10.4697 13.7803C10.6103 13.921 10.8011 14 11 14C11.1989 14 11.3897 13.921 11.5303 13.7803L15.2803 10.0303Z" fill="currentColor"/></svg>