<svg xmlns="http://www.w3.org/2000/svg" fill="none" width="24" height="24" viewBox="0 0 24 24"><path fill-rule="evenodd" clip-rule="evenodd" d="M9.87534 4.51214C9.50336 4.46674 9.10456 4.54361 8.68029 4.83164C8.0185 5.28093 7.69282 5.81131 7.56575 6.37531C7.43398 6.96018 7.50273 7.64473 7.751 8.39261C8.17418 9.66741 9.07177 10.9827 10.0159 12.0009C11.0534 11.0028 12.0988 10.348 13.1359 10.1698C13.0784 9.3278 12.9719 8.57532 12.8355 7.98283C12.5782 6.8651 11.9017 5.73271 11.0784 5.07198C10.6724 4.74617 10.2619 4.55932 9.87534 4.51214ZM14.645 10.2658C14.5872 9.28339 14.466 8.37897 14.2973 7.64632C13.9734 6.23949 13.1336 4.79802 12.0172 3.90211C11.4533 3.44959 10.7881 3.11242 10.0571 3.02319C9.31147 2.93218 8.55082 3.10652 7.83776 3.59062C6.87726 4.2427 6.31748 5.09112 6.10243 6.04563C5.89208 6.97926 6.02455 7.95292 6.32739 8.86519C6.84661 10.4293 7.91381 11.9571 8.98936 13.0993C8.87344 13.2354 8.75694 13.3761 8.63988 13.5215C8.21596 14.0479 7.81588 14.7811 7.51333 15.5564C7.45679 15.7013 7.40294 15.8495 7.35249 16H1.75C1.33579 16 1 16.3358 1 16.75C1 17.1642 1.33579 17.5 1.75 17.5H6.99425C6.97086 17.6741 6.95471 17.847 6.94684 18.0174C6.91034 18.8071 7.04689 19.6895 7.64557 20.31C8.27924 20.9667 9.22496 21.128 10.3368 20.9045C12.0608 20.558 13.1186 19.1289 13.7479 17.5H22.25C22.6642 17.5 23 17.1642 23 16.75C23 16.3358 22.6642 16 22.25 16H14.2072C14.517 14.7009 14.6583 13.2862 14.6802 11.9486C15.2101 12.3213 15.749 13.044 16.249 14.2743C16.3661 14.5622 16.5605 14.9313 16.9266 15.1194C17.4035 15.3644 17.8384 15.1648 18.0774 14.9771C18.2993 14.8029 18.4749 14.5582 18.6071 14.3499C18.7478 14.1282 18.884 13.8742 19.0105 13.6292C19.0717 13.5105 19.1306 13.3946 19.1875 13.2825C19.2945 13.0717 19.3947 12.8742 19.4919 12.6962C19.4908 12.7614 19.4892 12.8306 19.4875 12.9044C19.4868 12.9352 19.4861 12.9667 19.4853 12.9991L19.4852 13.0038C19.4787 13.2987 19.469 13.737 19.5866 14.1043C19.6516 14.3075 19.7721 14.5471 20.0033 14.7329C20.243 14.9255 20.5266 15 20.8038 15H22.25C22.6642 15 23 14.6642 23 14.25C23 13.8358 22.6642 13.5 22.25 13.5H20.9908C20.9823 13.3967 20.9802 13.2473 20.985 13.0323C20.9857 13.0001 20.9866 12.9663 20.9875 12.9311C20.9947 12.65 21.0042 12.28 20.9538 11.9513C20.897 11.5806 20.7329 11.0451 20.192 10.7564C19.7413 10.5158 19.3099 10.6614 19.0389 10.8531C18.7986 11.023 18.6114 11.2692 18.4727 11.4782C18.2483 11.8162 18.0218 12.2634 17.823 12.6558C17.7726 12.7553 17.7239 12.8514 17.6776 12.9412C17.6058 13.0802 17.538 13.2079 17.4735 13.3225C16.7871 11.7906 15.8661 10.654 14.645 10.2658ZM19.4333 12.0339C19.4334 12.0337 19.4347 12.0354 19.4368 12.0398C19.4342 12.0363 19.4332 12.0341 19.4333 12.0339ZM13.1829 11.6957C12.6142 11.8502 11.9242 12.2569 11.1093 13.0306C11.2701 13.1596 11.4233 13.2718 11.5659 13.3659C11.9116 13.5941 12.0069 14.0593 11.7787 14.405C11.5506 14.7507 11.0853 14.846 10.7396 14.6179C10.5271 14.4776 10.3066 14.3132 10.0827 14.1291C9.99204 14.2366 9.9005 14.3476 9.80813 14.4623C9.52053 14.8194 9.20748 15.3679 8.95117 16H12.6597C13.0175 14.6772 13.1748 13.148 13.1829 11.6957ZM12.117 17.5H8.51163C8.47659 17.7027 8.45388 17.8996 8.44524 18.0866C8.41625 18.7138 8.54929 19.0863 8.72501 19.2685C8.86575 19.4143 9.19924 19.6032 10.0412 19.4339C10.8933 19.2627 11.5906 18.5976 12.117 17.5ZM1.21967 10.2197C1.51256 9.92679 1.98744 9.92679 2.28033 10.2197L3.5 11.4394L4.71967 10.2197C5.01256 9.92679 5.48744 9.92679 5.78033 10.2197C6.07322 10.5126 6.07322 10.9874 5.78033 11.2803L4.56066 12.5L5.78033 13.7197C6.07322 14.0126 6.07322 14.4874 5.78033 14.7803C5.48744 15.0732 5.01256 15.0732 4.71967 14.7803L3.5 13.5607L2.28033 14.7803C1.98744 15.0732 1.51256 15.0732 1.21967 14.7803C0.926777 14.4874 0.926777 14.0126 1.21967 13.7197L2.43934 12.5L1.21967 11.2803C0.926777 10.9874 0.926777 10.5126 1.21967 10.2197Z" fill="currentColor"/></svg>