<svg xmlns="http://www.w3.org/2000/svg" fill="none" width="24" height="24" viewBox="0 0 24 24"><path fill-rule="evenodd" clip-rule="evenodd" d="M17.5005 3C17.788 3.00019 18.0501 3.16475 18.1753 3.42363L20.1018 7.40968C20.1067 7.41918 20.1113 7.42881 20.1158 7.43854L21.3169 9.92363C21.4971 10.2966 21.3409 10.745 20.968 10.9253C20.5951 11.1055 20.1466 10.9493 19.9664 10.5764L18.9628 8.5H16.0299L15.0225 10.5773C14.8417 10.95 14.3931 11.1056 14.0204 10.9248C13.6477 10.7441 13.4921 10.2954 13.6728 9.92273L14.8781 7.4376C14.8825 7.42789 14.8872 7.4183 14.892 7.40883L16.8252 3.42273C16.9506 3.16402 17.213 2.99981 17.5005 3ZM16.7574 7H18.2378L17.4989 5.47111L16.7574 7Z" fill="currentColor"/>
<path fill-rule="evenodd" clip-rule="evenodd" d="M14 13.75C14 13.3358 14.3358 13 14.75 13H20.25C20.542 13 20.8075 13.1695 20.9304 13.4344C21.0533 13.6994 21.0112 14.0115 20.8225 14.2345L16.3671 19.5H20.25C20.6642 19.5 21 19.8358 21 20.25C21 20.6642 20.6642 21 20.25 21H14.75C14.458 21 14.1925 20.8305 14.0696 20.5656C13.9467 20.3006 13.9888 19.9885 14.1775 19.7655L18.6329 14.5H14.75C14.3358 14.5 14 14.1642 14 13.75Z" fill="currentColor"/>
<path fill-rule="evenodd" clip-rule="evenodd" d="M7 3C7.41421 3 7.75 3.33579 7.75 3.75V18.4393L9.46967 16.7197C9.76256 16.4268 10.2374 16.4268 10.5303 16.7197C10.8232 17.0126 10.8232 17.4874 10.5303 17.7803L7.53033 20.7803C7.23744 21.0732 6.76256 21.0732 6.46967 20.7803L3.46967 17.7803C3.17678 17.4874 3.17678 17.0126 3.46967 16.7197C3.76256 16.4268 4.23744 16.4268 4.53033 16.7197L6.25 18.4393V3.75C6.25 3.33579 6.58579 3 7 3Z" fill="currentColor"/></svg>