<svg width="24" height="24" viewBox="0 0 24 24" fill="none" xmlns="http://www.w3.org/2000/svg">
<path fill-rule="evenodd" clip-rule="evenodd" d="M3.75 3C3.33579 3 3 3.33579 3 3.75V20.25C3 20.6642 3.33579 21 3.75 21H20.25C20.6642 21 21 20.6642 21 20.25V3.75C21 3.33579 20.6642 3 20.25 3H3.75ZM10 11C10 10.5858 10.3358 10.25 10.75 10.25H12C12.4142 10.25 12.75 10.5858 12.75 11L12.75 16.25C12.75 16.6642 12.4142 17 12 17C11.5858 17 11.25 16.6642 11.25 16.25L11.25 11.75H10.75C10.3358 11.75 10 11.4142 10 11ZM12 7.25C11.5858 7.25 11.25 7.58579 11.25 8C11.25 8.41421 11.5858 8.75 12 8.75C12.4142 8.75 12.75 8.41421 12.75 8C12.75 7.58579 12.4142 7.25 12 7.25Z" fill="#353531"/>
</svg>
