<svg xmlns="http://www.w3.org/2000/svg" fill="none" width="24" height="24" viewBox="0 0 24 24"><path fill-rule="evenodd" clip-rule="evenodd" d="M3 3.75C3 3.33579 3.33579 3 3.75 3H9.25C9.66421 3 10 3.33579 10 3.75C10 4.16421 9.66421 4.5 9.25 4.5H4.5V19.5H19.5V14.75C19.5 14.3358 19.8358 14 20.25 14C20.6642 14 21 14.3358 21 14.75V20.25C21 20.6642 20.6642 21 20.25 21H3.75C3.33579 21 3 20.6642 3 20.25V3.75ZM13 3.75C13 3.33579 13.3358 3 13.75 3H20.25C20.6642 3 21 3.33579 21 3.75V10.25C21 10.6642 20.6642 11 20.25 11C19.8358 11 19.5 10.6642 19.5 10.25V5.56066L11.5303 13.5303C11.2374 13.8232 10.7626 13.8232 10.4697 13.5303C10.1768 13.2374 10.1768 12.7626 10.4697 12.4697L18.4393 4.5H13.75C13.3358 4.5 13 4.16421 13 3.75Z" fill="currentColor"/></svg>