<svg xmlns="http://www.w3.org/2000/svg" fill="none" width="24" height="24" viewBox="0 0 24 24"><path fill-rule="evenodd" clip-rule="evenodd" d="M3.70108 3.52549C3.79918 3.21279 4.08896 3 4.41669 3H19.5834C19.9111 3 20.2009 3.21279 20.299 3.52549L21.7433 8.12926C22.1626 9.4657 21.7973 10.8148 20.9585 11.7532C20.9854 11.8305 21 11.9135 21 12V20.25C21 20.6642 20.6642 21 20.25 21H3.75002C3.33581 21 3.00002 20.6642 3.00002 20.25V12C3.00002 11.9135 3.01466 11.8305 3.04158 11.7532C2.20273 10.8148 1.83749 9.4657 2.25676 8.12926L3.70108 3.52549ZM10.167 4.5L9.65386 8.86161C9.48864 10.266 10.586 11.5 12.0001 11.5C13.4097 11.5 14.5046 10.2738 14.3478 8.87488L13.8331 4.5H10.167ZM15.8379 8.70317C15.8373 8.69756 15.8366 8.69195 15.836 8.68634L15.3435 4.5H19.0326L20.3121 8.57827C20.7665 10.0267 19.6846 11.5 18.1665 11.5C17.0263 11.5 16.0666 10.6465 15.9333 9.51411L15.8379 8.70317ZM8.65662 4.5L8.06672 9.51411C7.93349 10.6465 6.97374 11.5 5.8335 11.5C4.31543 11.5 3.23356 10.0267 3.68798 8.57827L4.96744 4.5H8.65662Z" fill="currentColor"/></svg>