<svg xmlns="http://www.w3.org/2000/svg" fill="none" width="24" height="24" viewBox="0 0 24 24"><path d="M2 12C2 9.28189 3.08445 6.81707 4.84428 5.0146C7.05362 6.54963 8.5 9.10591 8.5 12C8.5 14.8941 7.05362 17.4504 4.84428 18.9854C3.08445 17.1829 2 14.7181 2 12Z" fill="currentColor"/>
<path d="M10 12C10 8.72836 8.42889 5.82368 6 3.99927C7.67132 2.74389 9.74879 2 12 2C14.2512 2 16.3287 2.74389 18 3.99927C15.5711 5.82368 14 8.72837 14 12C14 15.2716 15.5711 18.1763 18 20.0007C16.3287 21.2561 14.2512 22 12 22C9.74879 22 7.67132 21.2561 6 20.0007C8.42889 18.1763 10 15.2716 10 12Z" fill="currentColor"/>
<path d="M19.1557 5.0146C20.9156 6.81707 22 9.28189 22 12C22 14.7181 20.9156 17.1829 19.1557 18.9854C16.9464 17.4504 15.5 14.8941 15.5 12C15.5 9.10591 16.9464 6.54963 19.1557 5.0146Z" fill="currentColor"/></svg>