<svg xmlns="http://www.w3.org/2000/svg" fill="none" width="24" height="24" viewBox="0 0 24 24"><path d="M7.25 2C6.83579 2 6.5 2.33579 6.5 2.75V12.6689C5.0055 13.5334 4 15.1493 4 17C4 19.7614 6.23858 22 9 22C11.7614 22 14 19.7614 14 17C14 15.1493 12.9945 13.5334 11.5 12.6689V2.75C11.5 2.33579 11.1642 2 10.75 2H7.25Z" fill="currentColor"/>
<path d="M15.75 3.5C15.3358 3.5 15 3.83579 15 4.25C15 4.66421 15.3358 5 15.75 5H19.25C19.6642 5 20 4.66421 20 4.25C20 3.83579 19.6642 3.5 19.25 3.5H15.75Z" fill="currentColor"/>
<path d="M15.75 7.5C15.3358 7.5 15 7.83579 15 8.25C15 8.66421 15.3358 9 15.75 9H19.25C19.6642 9 20 8.66421 20 8.25C20 7.83579 19.6642 7.5 19.25 7.5H15.75Z" fill="currentColor"/>
<path d="M15 12.25C15 11.8358 15.3358 11.5 15.75 11.5H19.25C19.6642 11.5 20 11.8358 20 12.25C20 12.6642 19.6642 13 19.25 13H15.75C15.3358 13 15 12.6642 15 12.25Z" fill="currentColor"/></svg>