<svg xmlns="http://www.w3.org/2000/svg" fill="none" width="24" height="24" viewBox="0 0 24 24"><path fill-rule="evenodd" clip-rule="evenodd" d="M13.0465 3.00145C13.3592 3.02086 13.6269 3.23264 13.7178 3.5325L18.187 18.2811L20.586 13.7138C20.7786 13.347 21.2321 13.2059 21.5988 13.3985C21.9655 13.5911 22.1066 14.0446 21.914 14.4113L18.664 20.5988C18.5224 20.8682 18.2321 21.0254 17.9291 20.9966C17.6261 20.9679 17.3705 20.7588 17.2822 20.4675L12.8668 5.89646L8.68536 15.3046C8.5717 15.5603 8.32512 15.7315 8.0458 15.7486C7.76647 15.7657 7.50086 15.6258 7.35688 15.3859L4.93384 11.3475L3.35223 13.4783C3.10535 13.8109 2.63559 13.8804 2.30299 13.6335C1.97039 13.3866 1.90089 12.9168 2.14777 12.5842L4.39777 9.55299C4.547 9.35195 4.78671 9.23863 5.03678 9.25091C5.28685 9.26319 5.5143 9.39944 5.64312 9.61414L7.9007 13.3768L12.3146 3.4454C12.4419 3.15908 12.7337 2.98204 13.0465 3.00145Z" fill="currentColor"/></svg>