<svg xmlns="http://www.w3.org/2000/svg" fill="none" width="24" height="24" viewBox="0 0 24 24"><path fill-rule="evenodd" clip-rule="evenodd" d="M13.0465 3.00145C13.3592 3.02086 13.6269 3.23264 13.7178 3.5325L18.187 18.2811L20.586 13.7138C20.7786 13.347 21.232 13.2059 21.5987 13.3985C21.9654 13.5911 22.1066 14.0446 21.914 14.4113L18.664 20.5988C18.5224 20.8682 18.2321 21.0254 17.9291 20.9966C17.6261 20.9679 17.3705 20.7588 17.2822 20.4675L12.8667 5.89646L8.68534 15.3046C8.57169 15.5603 8.32511 15.7315 8.04578 15.7486C7.76645 15.7657 7.50085 15.6258 7.35687 15.3859L4.93383 11.3475L3.35221 13.4783C3.10533 13.8109 2.63557 13.8804 2.30297 13.6335C1.97037 13.3866 1.90088 12.9168 2.14776 12.5842L4.39776 9.55299C4.54699 9.35195 4.78669 9.23863 5.03676 9.25091C5.28684 9.26319 5.51429 9.39944 5.64311 9.61414L7.90069 13.3768L12.3146 3.4454C12.4419 3.15908 12.7337 2.98204 13.0465 3.00145Z" fill="currentColor"/></svg>