<svg xmlns="http://www.w3.org/2000/svg" fill="none" width="24" height="24" viewBox="0 0 24 24"><path fill-rule="evenodd" clip-rule="evenodd" d="M12 2C12.2652 2 12.5108 2.1401 12.6457 2.36845L22.3957 18.8685C22.5327 19.1003 22.5349 19.3878 22.4014 19.6217C22.2679 19.8556 22.0193 20 21.75 20H2.25C1.9807 20 1.73207 19.8556 1.59859 19.6217C1.46512 19.3878 1.4673 19.1003 1.60431 18.8685L11.3543 2.36845C11.4892 2.1401 11.7348 2 12 2ZM12 9C12.4142 9 12.75 9.33579 12.75 9.75V13.25C12.75 13.6642 12.4142 14 12 14C11.5858 14 11.25 13.6642 11.25 13.25V9.75C11.25 9.33579 11.5858 9 12 9ZM13 15.75C13 16.3023 12.5523 16.75 12 16.75C11.4477 16.75 11 16.3023 11 15.75C11 15.1977 11.4477 14.75 12 14.75C12.5523 14.75 13 15.1977 13 15.75Z" fill="currentColor"/></svg>