<svg xmlns="http://www.w3.org/2000/svg" fill="none" width="24" height="24" viewBox="0 0 24 24"><path fill-rule="evenodd" clip-rule="evenodd" d="M12 2C9.23858 2 7 4.23858 7 7V9H4.75C4.33579 9 4 9.33579 4 9.75V21.25C4 21.6642 4.33579 22 4.75 22H19.25C19.6642 22 20 21.6642 20 21.25V9.75C20 9.33579 19.6642 9 19.25 9H8.5V7C8.5 5.067 10.067 3.5 12 3.5C13.7225 3.5 15.1558 4.7451 15.4462 6.38452C15.5184 6.79239 15.9076 7.06446 16.3155 6.99222C16.7234 6.91997 16.9954 6.53076 16.9232 6.1229C16.5081 3.77964 14.4627 2 12 2ZM12 13.25C12.4142 13.25 12.75 13.5858 12.75 14V17C12.75 17.4142 12.4142 17.75 12 17.75C11.5858 17.75 11.25 17.4142 11.25 17V14C11.25 13.5858 11.5858 13.25 12 13.25Z" fill="currentColor"/></svg>