<svg width="24" height="24" viewBox="0 0 24 24" fill="none" xmlns="http://www.w3.org/2000/svg">
<path d="M21 3.75C21 3.33579 20.6642 3 20.25 3C19.8358 3 19.5 3.33579 19.5 3.75V20.25C19.5 20.6642 19.8358 21 20.25 21C20.6642 21 21 20.6642 21 20.25V3.75Z" fill="#353531"/>
<path d="M3.75 6C3.33579 6 3 6.33579 3 6.75V10.25C3 10.6642 3.33579 11 3.75 11H17.25C17.6642 11 18 10.6642 18 10.25V6.75C18 6.33579 17.6642 6 17.25 6H3.75Z" fill="#353531"/>
<path d="M7.75 13C7.33579 13 7 13.3358 7 13.75V17.25C7 17.6642 7.33579 18 7.75 18H17.25C17.6642 18 18 17.6642 18 17.25V13.75C18 13.3358 17.6642 13 17.25 13H7.75Z" fill="#353531"/>
</svg>
