<svg xmlns="http://www.w3.org/2000/svg" fill="none" width="24" height="24" viewBox="0 0 24 24"><path fill-rule="evenodd" clip-rule="evenodd" d="M6.5 3C4.567 3 3 4.567 3 6.5V17.25C3 19.3211 4.67893 21 6.75 21H20.25C20.6642 21 21 20.6642 21 20.25V8.75C21 8.33579 20.6642 8 20.25 8H17V3.75C17 3.33579 16.6642 3 16.25 3H6.5ZM15.5 8V4.5H6.5C5.39543 4.5 4.5 5.39543 4.5 6.5C4.5 7.32843 5.17157 8 6 8H15.5ZM15.5 15.5C16.0523 15.5 16.5 15.0523 16.5 14.5C16.5 13.9477 16.0523 13.5 15.5 13.5C14.9477 13.5 14.5 13.9477 14.5 14.5C14.5 15.0523 14.9477 15.5 15.5 15.5Z" fill="currentColor"/></svg>