<svg xmlns="http://www.w3.org/2000/svg" fill="none" width="25" height="24" viewBox="0 0 25 24"><path d="M2.53857 7.23055C8.05879 2.92185 15.9413 2.92185 21.4615 7.23055C21.788 7.48541 21.8461 7.95672 21.5913 8.28324C21.3364 8.60977 20.8651 8.66786 20.5386 8.413C15.5608 4.5277 8.43928 4.5277 3.4615 8.413C3.13498 8.66786 2.66367 8.60977 2.40881 8.28324C2.15395 7.95672 2.21204 7.48541 2.53857 7.23055Z" fill="currentColor"/>
<path d="M16.7888 13.9058C13.9979 11.7293 10.0031 11.7293 7.21224 13.9058C6.88561 14.1606 6.41433 14.1023 6.1596 13.7757C5.90487 13.449 5.96315 12.9778 6.28978 12.723C9.62291 10.1236 14.3781 10.1236 17.7112 12.723C18.0379 12.9778 18.0962 13.449 17.8414 13.7757C17.5867 14.1023 17.1154 14.1606 16.7888 13.9058Z" fill="currentColor"/>
<path d="M12 20C12.5523 20 13 19.5523 13 19C13 18.4477 12.5523 18 12 18C11.4477 18 11 18.4477 11 19C11 19.5523 11.4477 20 12 20Z" fill="currentColor"/></svg>