<svg xmlns="http://www.w3.org/2000/svg" fill="none" width="24" height="24" viewBox="0 0 24 24"><path fill-rule="evenodd" clip-rule="evenodd" d="M3 11C3 6.58172 6.58172 3 11 3C15.4183 3 19 6.58172 19 11C19 12.9388 18.3096 14.7174 17.1624 16.1017L20.5307 19.4701C20.8236 19.763 20.8236 20.2379 20.5307 20.5307C20.2379 20.8236 19.763 20.8236 19.4701 20.5307L16.1017 17.1624C14.7174 18.3096 12.9388 19 11 19C6.58172 19 3 15.4183 3 11ZM11.75 7.75C11.75 7.33579 11.4142 7 11 7C10.5858 7 10.25 7.33579 10.25 7.75V10.25H7.75C7.33579 10.25 7 10.5858 7 11C7 11.4142 7.33579 11.75 7.75 11.75H10.25V14.25C10.25 14.6642 10.5858 15 11 15C11.4142 15 11.75 14.6642 11.75 14.25V11.75H14.25C14.6642 11.75 15 11.4142 15 11C15 10.5858 14.6642 10.25 14.25 10.25H11.75V7.75Z" fill="currentColor"/></svg>