<svg xmlns="http://www.w3.org/2000/svg" fill="none" width="24" height="24" viewBox="0 0 24 24"><path fill-rule="evenodd" clip-rule="evenodd" d="M11 3C6.58172 3 3 6.58172 3 11C3 15.4183 6.58172 19 11 19C12.9388 19 14.7174 18.3096 16.1017 17.1624L19.4701 20.5307C19.763 20.8236 20.2379 20.8236 20.5307 20.5307C20.8236 20.2379 20.8236 19.763 20.5307 19.4701L17.1624 16.1017C18.3096 14.7174 19 12.9388 19 11C19 6.58172 15.4183 3 11 3ZM15 11C15 11.4142 14.6642 11.75 14.25 11.75H7.75C7.33579 11.75 7 11.4142 7 11C7 10.5858 7.33579 10.25 7.75 10.25L14.25 10.25C14.6642 10.25 15 10.5858 15 11Z" fill="currentColor"/></svg>