<svg xmlns="http://www.w3.org/2000/svg" fill="none" width="24" height="24" viewBox="0 0 24 24"><path d="M19.25 13C14.1955 13.4375 11.4375 16.1955 11 21.25C10.544 16.1169 7.80041 13.5721 2.75 13C7.88024 12.4083 10.4083 9.88024 11 4.75C11.5721 9.80041 14.1169 12.544 19.25 13Z" stroke="currentColor" stroke-width="1.5" stroke-linecap="round" stroke-linejoin="round"/>
<path d="M19.7898 1.25884C19.7731 1.11151 19.6486 1.00015 19.5003 1C19.352 0.999849 19.2272 1.11096 19.2103 1.25825C19.0998 2.21602 18.8134 2.8895 18.3515 3.35146C17.8895 3.81343 17.216 4.09979 16.2582 4.21025C16.111 4.22724 15.9998 4.35203 16 4.5003C16.0002 4.64857 16.1115 4.77313 16.2588 4.78981C17.2008 4.89651 17.8886 5.18275 18.3615 5.64713C18.8327 6.10977 19.125 6.7831 19.2095 7.73414C19.2229 7.88476 19.3491 8.00017 19.5003 8C19.6515 7.99983 19.7775 7.88413 19.7906 7.73349C19.8716 6.79809 20.1636 6.11059 20.6371 5.6371C21.1106 5.16361 21.7981 4.87155 22.7335 4.79058C22.8841 4.77754 22.9998 4.65154 23 4.50033C23.0002 4.34912 22.8848 4.22286 22.7341 4.20948C21.7831 4.125 21.1098 3.83266 20.6471 3.36151C20.1827 2.88857 19.8965 2.20078 19.7898 1.25884Z" fill="currentColor"/></svg>