<svg width="24" height="24" viewBox="0 0 24 24" fill="none" xmlns="http://www.w3.org/2000/svg">
<path d="M4.15869 6.39279L1.75 7.2837L4.11619 10.8437L3.5 11.9998L3.77183 12.6794C4.1763 13.6906 5.31551 14.1923 6.33453 13.808L10 12.4256L10.4012 15.7698L13.2916 14.7008L15.5 10.3513L20.4817 8.35611C21.0968 8.10979 21.5 7.51394 21.5 6.85141C21.5 6.06858 20.9405 5.39761 20.1704 5.2569L17.9451 4.85029C17.5854 4.78458 17.2181 4.81742 16.8764 4.94754C15.2983 5.54857 10.5415 7.35838 8.52196 8.10535C7.95008 8.31688 7.31528 8.25934 6.78927 7.9483L4.15869 6.39279Z" stroke="currentColor" stroke-width="1.5" stroke-linecap="round" stroke-linejoin="round"/>
<path d="M2.75 19.25H21.25" stroke="currentColor" stroke-width="1.5" stroke-linecap="round" stroke-linejoin="round"/>
</svg>
