<svg xmlns="http://www.w3.org/2000/svg" fill="none" width="24" height="24" viewBox="0 0 24 24"><path d="M4.15869 6.39304L1.75 7.28394L4.11619 10.844L3.5 12.0001L3.77183 12.6796C4.1763 13.6908 5.31551 14.1925 6.33453 13.8082L10 12.4258L10.4012 15.7701L13.2916 14.701L15.5 10.3516L20.4817 8.35636C21.0968 8.11003 21.5 7.51419 21.5 6.85165C21.5 6.06882 20.9405 5.39785 20.1704 5.25715L17.9451 4.85054C17.5854 4.78482 17.2181 4.81766 16.8764 4.94779C15.2983 5.54881 10.5415 7.35862 8.52196 8.1056C7.95008 8.31712 7.31528 8.25958 6.78927 7.94854L4.15869 6.39304Z" stroke="currentColor" stroke-width="1.5" stroke-linecap="round" stroke-linejoin="round"/>
<path d="M2.75 19.25H21.25" stroke="currentColor" stroke-width="1.5" stroke-linecap="round" stroke-linejoin="round"/></svg>