<svg xmlns="http://www.w3.org/2000/svg" fill="none" width="24" height="24" viewBox="0 0 24 24"><path d="M20.25 7.75H21C21 7.33579 20.6642 7 20.25 7V7.75ZM20.25 20.25V21C20.6642 21 21 20.6642 21 20.25H20.25ZM3.75 20.25H3C3 20.6642 3.33579 21 3.75 21V20.25ZM3.75 7.75V7C3.33579 7 3 7.33579 3 7.75H3.75ZM2.75 3.75V3C2.33579 3 2 3.33579 2 3.75H2.75ZM21.25 3.75H22C22 3.33579 21.6642 3 21.25 3V3.75ZM21.25 7.75V8.5C21.6642 8.5 22 8.16421 22 7.75H21.25ZM2.75 7.75H2C2 8.16421 2.33579 8.5 2.75 8.5V7.75ZM10 11C9.58579 11 9.25 11.3358 9.25 11.75C9.25 12.1642 9.58579 12.5 10 12.5V11ZM14 12.5C14.4142 12.5 14.75 12.1642 14.75 11.75C14.75 11.3358 14.4142 11 14 11V12.5ZM20.25 7.75H19.5V20.25H20.25H21V7.75H20.25ZM20.25 20.25V19.5H3.75V20.25V21H20.25V20.25ZM3.75 20.25H4.5V7.75H3.75H3V20.25H3.75ZM3.75 7.75V8.5H20.25V7.75V7H3.75V7.75ZM2.75 3.75V4.5H21.25V3.75V3H2.75V3.75ZM21.25 3.75H20.5V7.75H21.25H22V3.75H21.25ZM21.25 7.75V7H2.75V7.75V8.5H21.25V7.75ZM2.75 7.75H3.5V3.75H2.75H2V7.75H2.75ZM10 11.75V12.5H14V11.75V11H10V11.75Z" fill="currentColor"/></svg>