<svg xmlns="http://www.w3.org/2000/svg" fill="none" width="24" height="24" viewBox="0 0 24 24"><path d="M13 21C13.5523 21 14 20.5523 14 20C14 19.4477 13.5523 19 13 19C12.4477 19 12 19.4477 12 20C12 20.5523 12.4477 21 13 21Z" fill="currentColor"/>
<path d="M21 11C21 10.4477 20.5523 9.99999 20 9.99999C19.4477 9.99999 19 10.4477 19 11C19 11.5523 19.4477 12 20 12C20.5523 12 21 11.5523 21 11Z" fill="currentColor"/>
<path d="M19.9295 14.2679C20.4078 14.5441 20.5716 15.1557 20.2955 15.634C20.0193 16.1123 19.4078 16.2761 18.9295 16C18.4512 15.7238 18.2873 15.1123 18.5634 14.634C18.8396 14.1557 19.4512 13.9918 19.9295 14.2679Z" fill="currentColor"/>
<path d="M17.3676 19.2942C17.8459 19.0181 18.0098 18.4065 17.7336 17.9282C17.4575 17.4499 16.8459 17.286 16.3676 17.5621C15.8893 17.8383 15.7254 18.4499 16.0016 18.9282C16.2777 19.4065 16.8893 19.5703 17.3676 19.2942Z" fill="currentColor"/>
<path d="M18.9269 7.99998C18.4487 8.27612 17.8371 8.11225 17.5609 7.63396C17.2848 7.15566 17.4487 6.54407 17.9269 6.26793C18.4052 5.99179 19.0168 6.15566 19.293 6.63396C19.5691 7.11225 19.4052 7.72384 18.9269 7.99998Z" fill="currentColor"/>
<path d="M9.25 14.75V20.25H3.75M9 19.6876C5.92698 18.4875 3.75 15.498 3.75 12C3.75 7.44365 7.44365 3.75 12 3.75C13.1537 3.75 14.2521 3.98683 15.2493 4.41452" stroke="currentColor" stroke-width="1.5" stroke-linecap="round" stroke-linejoin="round"/></svg>