<svg xmlns="http://www.w3.org/2000/svg" fill="none" width="24" height="24" viewBox="0 0 24 24"><path d="M16.8684 19.8667C15.4543 20.7437 13.7863 21.25 12 21.25C6.89137 21.25 2.75 17.1086 2.75 12C2.75 6.89137 6.89137 2.75 12 2.75C17.1086 2.75 21.25 6.89137 21.25 12C21.25 13.9797 20.2662 16.0242 17.9715 15.8156C16.0837 15.644 14.7249 13.9258 14.993 12.0492L15.5226 8.40278M14.9375 12.4805C14.63 14.6681 12.8291 16.2235 10.9149 15.9544C9.00068 15.6854 7.69817 13.6939 8.00562 11.5063C8.31308 9.31862 10.1141 7.76327 12.0283 8.03229C13.9424 8.30131 15.245 10.2928 14.9375 12.4805Z" stroke="currentColor" stroke-width="1.5" stroke-linecap="round"/></svg>