<svg xmlns="http://www.w3.org/2000/svg" fill="none" width="24" height="24" viewBox="0 0 24 24"><path fill-rule="evenodd" clip-rule="evenodd" d="M19.609 4.09151C19.368 3.96011 19.0745 3.97087 18.8437 4.11957L7.59372 11.3696C7.37946 11.5077 7.25 11.7451 7.25 12C7.25 12.2549 7.37946 12.4923 7.59372 12.6304L18.8437 19.8804C19.0745 20.0291 19.368 20.0399 19.609 19.9085C19.85 19.7771 20 19.5245 20 19.25V4.75C20 4.47549 19.85 4.22292 19.609 4.09151ZM4.75 4C4.33579 4 4 4.33579 4 4.75V19.25C4 19.6642 4.33579 20 4.75 20C5.16421 20 5.5 19.6642 5.5 19.25V4.75C5.5 4.33579 5.16421 4 4.75 4ZM18.5 6.12558V17.8744L9.38453 12L18.5 6.12558Z" fill="currentColor"/></svg>