<svg xmlns="http://www.w3.org/2000/svg" fill="none" width="24" height="24" viewBox="0 0 24 24"><path d="M1.75 2.75H3.5L6 15.25H19.5L21.25 5.75H4.5M9.25 19C9.25 19.6904 8.69036 20.25 8 20.25C7.30964 20.25 6.75 19.6904 6.75 19C6.75 18.3096 7.30964 17.75 8 17.75C8.69036 17.75 9.25 18.3096 9.25 19ZM18.25 19C18.25 19.6904 17.6904 20.25 17 20.25C16.3096 20.25 15.75 19.6904 15.75 19C15.75 18.3096 16.3096 17.75 17 17.75C17.6904 17.75 18.25 18.3096 18.25 19Z" stroke="currentColor" stroke-width="1.5" stroke-linecap="round" stroke-linejoin="round"/></svg>