<svg xmlns="http://www.w3.org/2000/svg" fill="none" width="24" height="24" viewBox="0 0 24 24"><path d="M19.25 2.75H20C20 2.33579 19.6642 2 19.25 2V2.75ZM19.25 21L18.8877 21.6567C19.12 21.7849 19.4028 21.7807 19.6313 21.6458C19.8598 21.5109 20 21.2653 20 21H19.25ZM4.75 21H4C4 21.2653 4.14021 21.5109 4.36871 21.6458C4.5972 21.7807 4.87997 21.7849 5.11231 21.6567L4.75 21ZM4.75 2.75V2C4.33579 2 4 2.33579 4 2.75H4.75ZM12 17L12.3623 16.3433C12.1368 16.2189 11.8632 16.2189 11.6377 16.3433L12 17ZM12.75 6.75C12.75 6.33579 12.4142 6 12 6C11.5858 6 11.25 6.33579 11.25 6.75H12.75ZM11.25 13.25C11.25 13.6642 11.5858 14 12 14C12.4142 14 12.75 13.6642 12.75 13.25H11.25ZM15.25 10.75C15.6642 10.75 16 10.4142 16 10C16 9.58579 15.6642 9.25 15.25 9.25V10.75ZM8.75 9.25C8.33579 9.25 8 9.58579 8 10C8 10.4142 8.33579 10.75 8.75 10.75V9.25ZM18.5 2.75V21H20V2.75H18.5ZM5.5 21V2.75H4V21H5.5ZM4.75 3.5H19.25V2H4.75V3.5ZM19.6123 20.3433L12.3623 16.3433L11.6377 17.6567L18.8877 21.6567L19.6123 20.3433ZM11.6377 16.3433L4.38769 20.3433L5.11231 21.6567L12.3623 17.6567L11.6377 16.3433ZM11.25 6.75V13.25H12.75V6.75H11.25ZM15.25 9.25L8.75 9.25V10.75L15.25 10.75V9.25Z" fill="currentColor"/></svg>