<svg xmlns="http://www.w3.org/2000/svg" fill="none" width="24" height="24" viewBox="0 0 24 24"><path d="M20.7999 7C17.0999 7 13.8999 9.1 12.1999 12.2C11.9999 10.2 11.1999 8.4 10.0999 6.8C8.69995 4.7 6.59995 3.1 4.29995 2.2L3.69995 2L3.49995 2.5C2.59995 3.9 2.09995 5.5 1.99995 7.2C1.89995 8.9 2.29995 10.5 2.99995 12.1C3.69995 13.6 4.79995 14.9 6.19995 15.8C7.49995 16.8 9.09995 17.4 10.6999 17.5C10.3999 19 9.99995 21 9.99995 21V21.1C9.99995 21.2 9.99995 21.2 10.0999 21.3C10.0999 21.3 10.0999 21.4 10.1999 21.4C10.2999 21.4 10.2999 21.4 10.3999 21.4H11.4999C11.5999 21.4 11.6999 21.4 11.7999 21.4C11.8999 21.3 11.8999 21.2 11.8999 21.1C11.8999 21.1 12.0999 18.8 12.1999 17.6C17.2999 17.3 21.3999 13 21.3999 7.7V7H20.7999ZM3.29995 7.7C3.29995 6.3 3.69995 4.9 4.29995 3.7C8.39995 5.5 11.0999 9.6 11.0999 14.1C11.0999 14.8 10.9999 15.5 10.8999 16.2C8.79995 16 6.89995 15 5.49995 13.4C4.09995 11.9 3.29995 9.8 3.29995 7.7ZM12.3999 16.2C12.6999 12.1 15.9999 8.7 20.0999 8.4C19.7999 12.6 16.4999 15.9 12.3999 16.2Z" fill="currentColor"/></svg>