<svg xmlns="http://www.w3.org/2000/svg" fill="none" width="56" height="24" viewBox="0 0 56 24"><path d="M14.9616 6.12292L11.994 8.32052C10.5975 7.12051 8.78639 6.88918 7.78992 6.88918C6.78618 6.88918 5.73152 7.17834 5.5715 7.89401C5.41149 8.58799 6.0661 9.13016 7.18622 9.43377C8.46636 9.77353 9.62285 10.0771 11.4194 10.5832C14.0815 11.3422 15.9072 12.4844 15.9072 15.1374C15.9072 18.8025 12.6341 20.6965 8.25543 20.6965C3.87678 20.6965 0.894641 18.4338 0 17.3784L3.13488 15.0507C5.33875 16.9591 6.86619 17.2266 8.14632 17.2266C9.61557 17.2266 10.9903 16.9157 11.1648 16.0916C11.3103 15.4266 10.7575 14.8989 9.50647 14.6097C8.09541 14.2844 6.89528 14.0242 5.56423 13.6772C1.9493 12.7374 0.931009 10.6482 0.931009 8.76871C0.931009 6.18798 3.34581 3.53495 7.77538 3.53495C12.3068 3.53495 14.9616 6.11569 14.9616 6.12292ZM33.8654 3.7952H20.6422V20.2121H34.1055V16.4242H25.2827V13.7784H31.3561V10.1567H25.2827V7.53979H33.8582V3.7952H33.8654ZM17.2237 24.0001H18.2492V0H17.2237V24.0001ZM35.8438 24.0001H36.8694V0H35.8438V24.0001ZM39.2624 20.2121H49.8817C52.7184 20.2121 55.0241 18.5133 55.0241 15.788C55.0241 13.6627 53.6275 12.2531 51.6637 11.6314C51.5982 11.6169 51.5401 11.6097 51.4746 11.6097C51.5401 11.6025 51.6055 11.5952 51.6637 11.5735C52.7911 11.1326 54.0276 9.95426 54.0276 7.95184C54.0276 5.40725 51.7655 3.78797 48.9725 3.78797H39.2551L39.2624 20.2121ZM43.9247 7.20726H47.6342C48.4852 7.20726 49.1762 7.87955 49.1762 8.64582C49.1762 9.41209 48.4852 10.0916 47.6342 10.0916H43.9247V7.20726ZM48.4561 16.5687H43.9174V13.576H48.4561C49.2562 13.576 49.9108 14.2193 49.9108 15.0724C49.9108 15.9181 49.2634 16.5687 48.4561 16.5687Z" fill="currentColor"/></svg>