<svg width="24" height="24" viewBox="0 0 24 24" fill="none" xmlns="http://www.w3.org/2000/svg">
<path d="M20.8001 7C17.1001 7 13.9001 9.1 12.2001 12.2C12.0001 10.2 11.2001 8.4 10.1001 6.8C8.70007 4.7 6.60007 3.1 4.30007 2.2L3.70007 2L3.50007 2.5C2.60007 3.9 2.10007 5.5 2.00007 7.2C1.90007 8.9 2.30007 10.5 3.00007 12.1C3.70007 13.6 4.80007 14.9 6.20007 15.8C7.50007 16.8 9.10007 17.4 10.7001 17.5C10.4001 19 10.0001 21 10.0001 21V21.1C10.0001 21.2 10.0001 21.2 10.1001 21.3C10.1001 21.3 10.1001 21.4 10.2001 21.4C10.3001 21.4 10.3001 21.4 10.4001 21.4H11.5001C11.6001 21.4 11.7001 21.4 11.8001 21.4C11.9001 21.3 11.9001 21.2 11.9001 21.1C11.9001 21.1 12.1001 18.8 12.2001 17.6C17.3001 17.3 21.4001 13 21.4001 7.7V7H20.8001ZM3.30007 7.7C3.30007 6.3 3.70007 4.9 4.30007 3.7C8.40007 5.5 11.1001 9.6 11.1001 14.1C11.1001 14.8 11.0001 15.5 10.9001 16.2C8.80007 16 6.90007 15 5.50007 13.4C4.10007 11.9 3.30007 9.8 3.30007 7.7ZM12.4001 16.2C12.7001 12.1 16.0001 8.7 20.1001 8.4C19.8001 12.6 16.5001 15.9 12.4001 16.2Z" fill="black"/>
</svg>
