<svg width="24" height="24" viewBox="0 0 24 24" fill="none" xmlns="http://www.w3.org/2000/svg">
<path d="M3.75 3.75H20.25V18.25H15.0155L11.9979 20.75L9.0155 18.25H3.75V3.75Z" stroke="currentColor" stroke-width="1.5" stroke-linejoin="round"/>
<path d="M7.25 11.25C7.25 11.6642 7.58579 12 8 12C8.41421 12 8.75 11.6642 8.75 11.25C8.75 10.8358 8.41421 10.5 8 10.5C7.58579 10.5 7.25 10.8358 7.25 11.25ZM11.25 11.25C11.25 11.6642 11.5858 12 12 12C12.4142 12 12.75 11.6642 12.75 11.25C12.75 10.8358 12.4142 10.5 12 10.5C11.5858 10.5 11.25 10.8358 11.25 11.25ZM15.25 11.25C15.25 11.6642 15.5858 12 16 12C16.4142 12 16.75 11.6642 16.75 11.25C16.75 10.8358 16.4142 10.5 16 10.5C15.5858 10.5 15.25 10.8358 15.25 11.25Z" fill="currentColor" stroke="currentColor" stroke-width="0.5" stroke-linecap="square"/>
</svg>
