<svg xmlns="http://www.w3.org/2000/svg" fill="none" width="24" height="24" viewBox="0 0 24 24"><path d="M4.75 7.75V21.25H19.25V7.75M4.75 7.75H19.25M4.75 7.75V2.75H19.25V7.75" stroke="currentColor" stroke-width="1.5" stroke-linecap="round" stroke-linejoin="round"/>
<path d="M9.5 13C9.91421 13 10.25 12.6642 10.25 12.25C10.25 11.8358 9.91421 11.5 9.5 11.5C9.08579 11.5 8.75 11.8358 8.75 12.25C8.75 12.6642 9.08579 13 9.5 13ZM9.5 17.5C9.91421 17.5 10.25 17.1642 10.25 16.75C10.25 16.3358 9.91421 16 9.5 16C9.08579 16 8.75 16.3358 8.75 16.75C8.75 17.1642 9.08579 17.5 9.5 17.5ZM14.5 13C14.9142 13 15.25 12.6642 15.25 12.25C15.25 11.8358 14.9142 11.5 14.5 11.5C14.0858 11.5 13.75 11.8358 13.75 12.25C13.75 12.6642 14.0858 13 14.5 13ZM14.5 17.5C14.9142 17.5 15.25 17.1642 15.25 16.75C15.25 16.3358 14.9142 16 14.5 16C14.0858 16 13.75 16.3358 13.75 16.75C13.75 17.1642 14.0858 17.5 14.5 17.5Z" fill="currentColor" stroke="currentColor" stroke-width="0.5"/></svg>