<svg width="24" height="24" viewBox="0 0 24 24" fill="none" xmlns="http://www.w3.org/2000/svg">
<path d="M9.25 3.75L10 3.75V3H9.25V3.75ZM9.25 9.25V10L10 10V9.25H9.25ZM3.75 9.25H3H3.75ZM3.75 3.75L3.75 3H3L3 3.75H3.75ZM14.75 9.25H15.5V8.5H14.75V9.25ZM14.75 14.75V15.5H15.5V14.75H14.75ZM20.25 14.75H21V14H20.25V14.75ZM20.25 20.25V21H21V20.25H20.25ZM3.75 20.25H3V21H3.75V20.25ZM4.5 1.75C4.5 1.33579 4.16421 1 3.75 1C3.33579 1 3 1.33579 3 1.75H4.5ZM3 22.25C3 22.6642 3.33579 23 3.75 23C4.16421 23 4.5 22.6642 4.5 22.25H3ZM8.5 3.75L8.5 9.25H10L10 3.75L8.5 3.75ZM9.25 8.5L3.75 8.5L3.75 10H9.25V8.5ZM4.5 9.25L4.5 3.75H3L3 9.25H4.5ZM3.75 4.5L9.25 4.5V3L3.75 3L3.75 4.5ZM14 9.25V14.75H15.5V9.25H14ZM14.75 14H3.75V15.5H14.75V14ZM4.5 14.75V9.25H3V14.75H4.5ZM3.75 10H14.75V8.5L3.75 8.5L3.75 10ZM19.5 14.75V20.25H21V14.75H19.5ZM20.25 19.5H3.75V21H20.25V19.5ZM4.5 20.25V14.75H3V20.25H4.5ZM3.75 15.5L20.25 15.5V14L3.75 14L3.75 15.5ZM3 1.75V22.25H4.5V1.75H3Z" fill="currentColor"/>
</svg>
