<svg xmlns="http://www.w3.org/2000/svg" fill="none" width="24" height="24" viewBox="0 0 24 24"><path d="M9.75 9.25V7.75H14.25V10.5L12 12V13.25M12 16V15.99M21.25 12C21.25 17.1086 17.1086 21.25 12 21.25C6.89137 21.25 2.75 17.1086 2.75 12C2.75 6.89137 6.89137 2.75 12 2.75C17.1086 2.75 21.25 6.89137 21.25 12ZM12.25 16C12.25 16.1381 12.1381 16.25 12 16.25C11.8619 16.25 11.75 16.1381 11.75 16C11.75 15.8619 11.8619 15.75 12 15.75C12.1381 15.75 12.25 15.8619 12.25 16Z" stroke="currentColor" stroke-width="1.5" stroke-linecap="round" stroke-linejoin="round"/></svg>