<svg xmlns="http://www.w3.org/2000/svg" fill="none" width="24" height="24" viewBox="0 0 24 24"><path d="M22.25 9.75H23.25M15.25 2.75V1.75M20.1997 4.80025L20.9069 4.09315M9.59375 4.09315L10.3009 4.80026M18.5495 12.0119C18.9914 11.3686 19.25 10.5895 19.25 9.75C19.25 7.54086 17.4591 5.75 15.25 5.75C13.2972 5.75 11.6713 7.14935 11.3202 9M16.625 11.95C15.867 11.95 15.1517 12.1333 14.5203 12.4583C13.872 11.0435 12.7092 9.91622 11.273 9.31871C10.547 9.01667 9.7512 8.85 8.91667 8.85C5.51091 8.85 2.75 11.6258 2.75 15.05C2.75 18.4742 5.51091 21.25 8.91667 21.25H16.625C19.1793 21.25 21.25 19.1681 21.25 16.6C21.25 14.6435 20.0481 12.9692 18.3462 12.2827C17.8142 12.0681 17.2333 11.95 16.625 11.95Z" stroke="currentColor" stroke-width="1.5" stroke-linecap="square"/></svg>