<svg xmlns="http://www.w3.org/2000/svg" fill="none" width="24" height="24" viewBox="0 0 24 24"><path d="M4.75 7.75V7C4.33579 7 4 7.33579 4 7.75H4.75ZM17.25 7.75H18C18 7.33579 17.6642 7 17.25 7V7.75ZM17.25 21.25V22C17.6642 22 18 21.6642 18 21.25H17.25ZM4.75 21.25H4C4 21.6642 4.33579 22 4.75 22V21.25ZM10.25 5.25C10.25 5.66421 10.5858 6 11 6C11.4142 6 11.75 5.66421 11.75 5.25H10.25ZM11.75 2.75C11.75 2.33579 11.4142 2 11 2C10.5858 2 10.25 2.33579 10.25 2.75H11.75ZM6.25 5.25C6.25 5.66421 6.58579 6 7 6C7.41421 6 7.75 5.66421 7.75 5.25H6.25ZM7.75 2.75C7.75 2.33579 7.41421 2 7 2C6.58579 2 6.25 2.33579 6.25 2.75H7.75ZM14.25 5.25C14.25 5.66421 14.5858 6 15 6C15.4142 6 15.75 5.66421 15.75 5.25H14.25ZM15.75 2.75C15.75 2.33579 15.4142 2 15 2C14.5858 2 14.25 2.33579 14.25 2.75H15.75ZM17.25 9.75V9H16.5V9.75H17.25ZM17.25 15.25H16.5V16H17.25V15.25ZM4.75 8.5H17.25V7H4.75V8.5ZM16.5 7.75V21.25H18V7.75H16.5ZM17.25 20.5H4.75V22H17.25V20.5ZM5.5 21.25V7.75H4V21.25H5.5ZM11.75 5.25V2.75H10.25V5.25H11.75ZM7.75 5.25V2.75H6.25V5.25H7.75ZM15.75 5.25V2.75H14.25V5.25H15.75ZM17.25 10.5H18.5V9H17.25V10.5ZM18.5 14.5H17.25V16H18.5V14.5ZM18 15.25V9.75H16.5V15.25H18ZM20.5 12.5C20.5 13.6046 19.6046 14.5 18.5 14.5V16C20.433 16 22 14.433 22 12.5H20.5ZM18.5 10.5C19.6046 10.5 20.5 11.3954 20.5 12.5H22C22 10.567 20.433 9 18.5 9V10.5Z" fill="currentColor"/></svg>