<svg xmlns="http://www.w3.org/2000/svg" fill="none" width="24" height="24" viewBox="0 0 24 24"><path d="M12 7.375V6.34722M12 16.625V17.6528M14.2257 8.91667C13.7814 8.30226 12.9511 7.88889 12 7.88889H11.7145C10.4531 7.88889 9.43056 8.70694 9.43056 9.71605V9.79449C9.43056 10.5163 9.94031 11.1761 10.7473 11.4989L13.2527 12.5011C14.0597 12.8239 14.5694 13.4837 14.5694 14.2055C14.5694 15.2579 13.503 16.1111 12.1874 16.1111H12C11.0489 16.1111 10.2186 15.6977 9.7743 15.0833M21.25 12C21.25 17.1086 17.1086 21.25 12 21.25C6.89137 21.25 2.75 17.1086 2.75 12C2.75 6.89137 6.89137 2.75 12 2.75C17.1086 2.75 21.25 6.89137 21.25 12Z" stroke="currentColor" stroke-width="1.5" stroke-linecap="round" stroke-linejoin="round"/></svg>