<svg xmlns="http://www.w3.org/2000/svg" fill="none" width="24" height="24" viewBox="0 0 24 24"><path d="M12 5.75C12.5523 5.75 13 5.30228 13 4.75C13 4.19772 12.5523 3.75 12 3.75C11.4477 3.75 11 4.19772 11 4.75C11 5.30228 11.4477 5.75 12 5.75Z" fill="currentColor"/>
<path d="M12 13C12.5523 13 13 12.5523 13 12C13 11.4477 12.5523 11 12 11C11.4477 11 11 11.4477 11 12C11 12.5523 11.4477 13 12 13Z" fill="currentColor"/>
<path d="M12 20.25C12.5523 20.25 13 19.8023 13 19.25C13 18.6977 12.5523 18.25 12 18.25C11.4477 18.25 11 18.6977 11 19.25C11 19.8023 11.4477 20.25 12 20.25Z" fill="currentColor"/>
<path d="M19.25 5.75C19.8023 5.75 20.25 5.30228 20.25 4.75C20.25 4.19772 19.8023 3.75 19.25 3.75C18.6977 3.75 18.25 4.19772 18.25 4.75C18.25 5.30228 18.6977 5.75 19.25 5.75Z" fill="currentColor"/>
<path d="M19.25 13C19.8023 13 20.25 12.5523 20.25 12C20.25 11.4477 19.8023 11 19.25 11C18.6977 11 18.25 11.4477 18.25 12C18.25 12.5523 18.6977 13 19.25 13Z" fill="currentColor"/>
<path d="M19.25 20.25C19.8023 20.25 20.25 19.8023 20.25 19.25C20.25 18.6977 19.8023 18.25 19.25 18.25C18.6977 18.25 18.25 18.6977 18.25 19.25C18.25 19.8023 18.6977 20.25 19.25 20.25Z" fill="currentColor"/>
<path d="M4.75 13C5.30228 13 5.75 12.5523 5.75 12C5.75 11.4477 5.30228 11 4.75 11C4.19772 11 3.75 11.4477 3.75 12C3.75 12.5523 4.19772 13 4.75 13Z" fill="currentColor"/>
<path d="M4.75 20.25C5.30228 20.25 5.75 19.8023 5.75 19.25C5.75 18.6977 5.30228 18.25 4.75 18.25C4.19772 18.25 3.75 18.6977 3.75 19.25C3.75 19.8023 4.19772 20.25 4.75 20.25Z" fill="currentColor"/>
<path d="M4.75 5.75C5.30228 5.75 5.75 5.30228 5.75 4.75C5.75 4.19772 5.30228 3.75 4.75 3.75C4.19772 3.75 3.75 4.19772 3.75 4.75C3.75 5.30228 4.19772 5.75 4.75 5.75Z" fill="currentColor"/>
<path d="M12 5.75C12.5523 5.75 13 5.30228 13 4.75C13 4.19772 12.5523 3.75 12 3.75C11.4477 3.75 11 4.19772 11 4.75C11 5.30228 11.4477 5.75 12 5.75Z" stroke="currentColor" stroke-width="1.5" stroke-linecap="round" stroke-linejoin="round"/>
<path d="M12 13C12.5523 13 13 12.5523 13 12C13 11.4477 12.5523 11 12 11C11.4477 11 11 11.4477 11 12C11 12.5523 11.4477 13 12 13Z" stroke="currentColor" stroke-width="1.5" stroke-linecap="round" stroke-linejoin="round"/>
<path d="M12 20.25C12.5523 20.25 13 19.8023 13 19.25C13 18.6977 12.5523 18.25 12 18.25C11.4477 18.25 11 18.6977 11 19.25C11 19.8023 11.4477 20.25 12 20.25Z" stroke="currentColor" stroke-width="1.5" stroke-linecap="round" stroke-linejoin="round"/>
<path d="M19.25 5.75C19.8023 5.75 20.25 5.30228 20.25 4.75C20.25 4.19772 19.8023 3.75 19.25 3.75C18.6977 3.75 18.25 4.19772 18.25 4.75C18.25 5.30228 18.6977 5.75 19.25 5.75Z" stroke="currentColor" stroke-width="1.5" stroke-linecap="round" stroke-linejoin="round"/>
<path d="M19.25 13C19.8023 13 20.25 12.5523 20.25 12C20.25 11.4477 19.8023 11 19.25 11C18.6977 11 18.25 11.4477 18.25 12C18.25 12.5523 18.6977 13 19.25 13Z" stroke="currentColor" stroke-width="1.5" stroke-linecap="round" stroke-linejoin="round"/>
<path d="M19.25 20.25C19.8023 20.25 20.25 19.8023 20.25 19.25C20.25 18.6977 19.8023 18.25 19.25 18.25C18.6977 18.25 18.25 18.6977 18.25 19.25C18.25 19.8023 18.6977 20.25 19.25 20.25Z" stroke="currentColor" stroke-width="1.5" stroke-linecap="round" stroke-linejoin="round"/>
<path d="M4.75 13C5.30228 13 5.75 12.5523 5.75 12C5.75 11.4477 5.30228 11 4.75 11C4.19772 11 3.75 11.4477 3.75 12C3.75 12.5523 4.19772 13 4.75 13Z" stroke="currentColor" stroke-width="1.5" stroke-linecap="round" stroke-linejoin="round"/>
<path d="M4.75 20.25C5.30228 20.25 5.75 19.8023 5.75 19.25C5.75 18.6977 5.30228 18.25 4.75 18.25C4.19772 18.25 3.75 18.6977 3.75 19.25C3.75 19.8023 4.19772 20.25 4.75 20.25Z" stroke="currentColor" stroke-width="1.5" stroke-linecap="round" stroke-linejoin="round"/>
<path d="M4.75 5.75C5.30228 5.75 5.75 5.30228 5.75 4.75C5.75 4.19772 5.30228 3.75 4.75 3.75C4.19772 3.75 3.75 4.19772 3.75 4.75C3.75 5.30228 4.19772 5.75 4.75 5.75Z" stroke="currentColor" stroke-width="1.5" stroke-linecap="round" stroke-linejoin="round"/></svg>