<svg xmlns="http://www.w3.org/2000/svg" fill="none" width="24" height="24" viewBox="0 0 24 24"><path d="M17.5 12C17.5 15.0376 15.0376 17.5 12 17.5C8.96243 17.5 6.5 15.0376 6.5 12M21.25 12C21.25 17.1086 17.1086 21.25 12 21.25C6.89137 21.25 2.75 17.1086 2.75 12C2.75 6.89137 6.89137 2.75 12 2.75C17.1086 2.75 21.25 6.89137 21.25 12ZM10.25 9C10.25 9.41421 9.91421 9.75 9.5 9.75C9.08579 9.75 8.75 9.41421 8.75 9C8.75 8.58579 9.08579 8.25 9.5 8.25C9.91421 8.25 10.25 8.58579 10.25 9ZM15.25 9C15.25 9.41421 14.9142 9.75 14.5 9.75C14.0858 9.75 13.75 9.41421 13.75 9C13.75 8.58579 14.0858 8.25 14.5 8.25C14.9142 8.25 15.25 8.58579 15.25 9Z" stroke="currentColor" stroke-width="1.5" stroke-linecap="round" stroke-linejoin="round"/></svg>