<svg xmlns="http://www.w3.org/2000/svg" fill="none" width="24" height="24" viewBox="0 0 24 24"><path d="M14.8287 14.8284C13.2666 16.3905 10.734 16.3905 9.17188 14.8284" stroke="currentColor" stroke-width="1.5" stroke-linecap="round" stroke-linejoin="round"/>
<path d="M14.5 9.5H15M15.25 9.5C15.25 9.77614 15.0261 10 14.75 10C14.4739 10 14.25 9.77614 14.25 9.5C14.25 9.22386 14.4739 9 14.75 9C15.0261 9 15.25 9.22386 15.25 9.5Z" stroke="currentColor" stroke-width="1.5" stroke-linecap="square"/>
<path d="M9 9.5H9.5M9.75 9.5C9.75 9.77614 9.52614 10 9.25 10C8.97386 10 8.75 9.77614 8.75 9.5C8.75 9.22386 8.97386 9 9.25 9C9.52614 9 9.75 9.22386 9.75 9.5Z" stroke="currentColor" stroke-width="1.5" stroke-linecap="square"/>
<circle cx="12" cy="12" r="9.25" stroke="currentColor" stroke-width="1.5"/></svg>