<svg xmlns="http://www.w3.org/2000/svg" fill="none" width="24" height="24" viewBox="0 0 24 24"><path d="M12 21.25C17.1086 21.25 21.25 17.1086 21.25 12C21.25 6.89137 17.1086 2.75 12 2.75M12 21.25C6.89137 21.25 2.75 17.1086 2.75 12C2.75 6.89137 6.89137 2.75 12 2.75M12 21.25C9.65279 21.25 7.75 17.1086 7.75 12C7.75 6.89137 9.65279 2.75 12 2.75M12 21.25C14.3472 21.25 16.25 17.1086 16.25 12C16.25 6.89137 14.3472 2.75 12 2.75M21 12H3" stroke="currentColor" stroke-width="1.5" stroke-linecap="square"/></svg>