<svg xmlns="http://www.w3.org/2000/svg" fill="none" width="24" height="24" viewBox="0 0 24 24"><path d="M14.4251 13.1804C17.9999 11.6957 22.5632 14.0522 23.0001 20.25H16.75M10.75 7C10.75 8.79493 9.29493 10.25 7.5 10.25C5.70507 10.25 4.25 8.79493 4.25 7C4.25 5.20507 5.70507 3.75 7.5 3.75C9.29493 3.75 10.75 5.20507 10.75 7ZM19.75 7C19.75 8.79493 18.2949 10.25 16.5 10.25C14.7051 10.25 13.25 8.79493 13.25 7C13.25 5.20507 14.7051 3.75 16.5 3.75C18.2949 3.75 19.75 5.20507 19.75 7ZM1 20.25H13.8571C13.1522 10.25 1.70491 10.25 1 20.25Z" stroke="currentColor" stroke-width="1.5" stroke-linecap="round" stroke-linejoin="round"/></svg>