<svg xmlns="http://www.w3.org/2000/svg" fill="none" width="24" height="24" viewBox="0 0 24 24"><path d="M19.25 7.94038L12 2.75L4.74997 7.9404M19.25 7.94038L21.5 9.55119M19.25 7.94038V10.5952M4.74997 7.9404L2.5 9.55119M4.74997 7.9404V20.25H12.75" stroke="currentColor" stroke-width="1.5" stroke-linecap="round" stroke-linejoin="round"/>
<path d="M9.25 12C9.25 10.4812 10.4812 9.25 12 9.25C13.5188 9.25 14.75 10.4812 14.75 12C14.75 13.5188 13.5188 14.75 12 14.75C10.4812 14.75 9.25 13.5188 9.25 12Z" stroke="currentColor" stroke-width="1.5" stroke-linecap="round" stroke-linejoin="round"/>
<path d="M19.0184 14.0218C19.0184 13.5324 18.4181 13.3132 18.1151 13.692L15.1161 17.441C14.844 17.781 15.0806 18.2916 15.5102 18.2916H16.9816V20.4782C16.9816 20.9676 17.5819 21.1868 17.8849 20.808L20.8839 17.059C21.156 16.719 20.9194 16.2084 20.4898 16.2084H19.0184V14.0218Z" fill="currentColor"/></svg>