<svg xmlns="http://www.w3.org/2000/svg" fill="none" width="24" height="24" viewBox="0 0 24 24"><path d="M12 2.75L12.4366 2.14017C12.1755 1.95328 11.8245 1.95328 11.5634 2.14017L12 2.75ZM21.0634 10.161C21.4002 10.4021 21.8687 10.3246 22.1098 9.98778C22.3509 9.65098 22.2734 9.18248 21.9366 8.94136L21.0634 10.161ZM2.06341 8.94136C1.72661 9.18248 1.64905 9.65098 1.89017 9.98778C2.13129 10.3246 2.59979 10.4021 2.93659 10.161L2.06341 8.94136ZM4.74997 20.25H3.99997C3.99997 20.6642 4.33576 21 4.74997 21V20.25ZM8.24997 21C8.66419 21 8.99997 20.6642 8.99997 20.25C8.99997 19.8358 8.66419 19.5 8.24997 19.5V21ZM19.25 20.25V21C19.6642 21 20 20.6642 20 20.25H19.25ZM15.75 19.5C15.3358 19.5 15 19.8358 15 20.25C15 20.6642 15.3358 21 15.75 21V19.5ZM8.74997 11.75V11C8.33576 11 7.99997 11.3358 7.99997 11.75H8.74997ZM15.25 11.75H16C16 11.3358 15.6642 11 15.25 11V11.75ZM15.25 16.25V17C15.6642 17 16 16.6642 16 16.25H15.25ZM8.74997 16.25H7.99997C7.99997 16.6642 8.33576 17 8.74997 17V16.25ZM9.24997 11.5C9.24997 11.9142 9.58576 12.25 9.99997 12.25C10.4142 12.25 10.75 11.9142 10.75 11.5H9.24997ZM10.75 9.75C10.75 9.33579 10.4142 9 9.99997 9C9.58576 9 9.24997 9.33579 9.24997 9.75H10.75ZM13.25 11.5C13.25 11.9142 13.5858 12.25 14 12.25C14.4142 12.25 14.75 11.9142 14.75 11.5L13.25 11.5ZM14.75 9.74999C14.75 9.33577 14.4142 8.99999 14 9C13.5857 9.00001 13.25 9.3358 13.25 9.75001L14.75 9.74999ZM12.75 16.5C12.75 16.0858 12.4142 15.75 12 15.75C11.5858 15.75 11.25 16.0858 11.25 16.5H12.75ZM11.25 20.25C11.25 20.6642 11.5858 21 12 21C12.4142 21 12.75 20.6642 12.75 20.25H11.25ZM12 2.75L11.5634 3.35983L18.8134 8.55021L19.25 7.94038L19.6866 7.33055L12.4366 2.14017L12 2.75ZM19.25 7.94038L18.8134 8.55021L21.0634 10.161L21.5 9.55119L21.9366 8.94136L19.6866 7.33055L19.25 7.94038ZM12 2.75L11.5634 2.14017L4.31339 7.33057L4.74997 7.9404L5.18656 8.55023L12.4366 3.35983L12 2.75ZM4.74997 7.9404L4.31339 7.33057L2.06341 8.94136L2.5 9.55119L2.93659 10.161L5.18656 8.55023L4.74997 7.9404ZM4.74997 20.25H5.49997V7.9404H4.74997H3.99997V20.25H4.74997ZM8.24997 20.25V19.5H4.74997V20.25V21H8.24997V20.25ZM19.25 7.94038H18.5V20.25H19.25H20V7.94038H19.25ZM19.25 20.25V19.5H15.75V20.25V21H19.25V20.25ZM8.74997 11.75V12.5H15.25V11.75V11H8.74997V11.75ZM15.25 11.75H14.5V16.25H15.25H16V11.75H15.25ZM8.74997 16.25H9.49997V11.75H8.74997H7.99997V16.25H8.74997ZM9.99997 11.5H10.75V9.75H9.99997H9.24997V11.5H9.99997ZM14 11.5L14.75 11.5L14.75 9.74999L14 9.75L13.25 9.75001L13.25 11.5L14 11.5ZM15.25 16.25V15.5H8.74997V16.25V17H15.25V16.25ZM12 16.5H11.25V20.25H12H12.75V16.5H12Z" fill="currentColor"/></svg>