<svg xmlns="http://www.w3.org/2000/svg" fill="none" width="24" height="24" viewBox="0 0 24 24"><path d="M3.75 3.75V3C3.33579 3 3 3.33579 3 3.75H3.75ZM20.25 3.75H21C21 3.33579 20.6642 3 20.25 3V3.75ZM20.25 20.25V21C20.6642 21 21 20.6642 21 20.25H20.25ZM3.75 20.25H3C3 20.6642 3.33579 21 3.75 21V20.25ZM8 12L8.53033 11.4697C8.23744 11.1768 7.76256 11.1768 7.46967 11.4697L8 12ZM3.75 4.5H20.25V3H3.75V4.5ZM19.5 3.75V20.25H21V3.75H19.5ZM4.28033 16.7803L8.53033 12.5303L7.46967 11.4697L3.21967 15.7197L4.28033 16.7803ZM4.5 20.25V16.25H3V20.25H4.5ZM4.5 16.25V3.75H3V16.25H4.5ZM7.46967 12.5303L15.7197 20.7803L16.7803 19.7197L8.53033 11.4697L7.46967 12.5303ZM20.25 19.5H16.25V21H20.25V19.5ZM16.25 19.5H3.75V21H16.25V19.5ZM15.75 9.5C15.75 10.1904 15.1904 10.75 14.5 10.75V12.25C16.0188 12.25 17.25 11.0188 17.25 9.5H15.75ZM14.5 10.75C13.8096 10.75 13.25 10.1904 13.25 9.5H11.75C11.75 11.0188 12.9812 12.25 14.5 12.25V10.75ZM13.25 9.5C13.25 8.80964 13.8096 8.25 14.5 8.25V6.75C12.9812 6.75 11.75 7.98122 11.75 9.5H13.25ZM14.5 8.25C15.1904 8.25 15.75 8.80964 15.75 9.5H17.25C17.25 7.98122 16.0188 6.75 14.5 6.75V8.25Z" fill="currentColor"/></svg>