<svg xmlns="http://www.w3.org/2000/svg" fill="none" width="24" height="24" viewBox="0 0 24 24"><path d="M3.75 3.75V3C3.33579 3 3 3.33579 3 3.75H3.75ZM20.25 3.75H21C21 3.33579 20.6642 3 20.25 3V3.75ZM20.25 20.25V21C20.6642 21 21 20.6642 21 20.25H20.25ZM3.75 20.25H3C3 20.6642 3.33579 21 3.75 21V20.25ZM8 12L8.53033 11.4697C8.23744 11.1768 7.76256 11.1768 7.46967 11.4697L8 12ZM3.75 3.75V4.5H20.25V3.75V3H3.75V3.75ZM20.25 3.75H19.5V20.25H20.25H21V3.75H20.25ZM3.75 16.25L4.28033 16.7803L8.53033 12.5303L8 12L7.46967 11.4697L3.21967 15.7197L3.75 16.25ZM3.75 20.25H4.5V16.25H3.75H3V20.25H3.75ZM3.75 16.25H4.5V3.75H3.75H3V16.25H3.75ZM8 12L7.46967 12.5303L15.7197 20.7803L16.25 20.25L16.7803 19.7197L8.53033 11.4697L8 12ZM20.25 20.25V19.5H16.25V20.25V21H20.25V20.25ZM16.25 20.25V19.5H3.75V20.25V21H16.25V20.25ZM16.5 9.5H15.75C15.75 10.1904 15.1904 10.75 14.5 10.75V11.5V12.25C16.0188 12.25 17.25 11.0188 17.25 9.5H16.5ZM14.5 11.5V10.75C13.8096 10.75 13.25 10.1904 13.25 9.5H12.5H11.75C11.75 11.0188 12.9812 12.25 14.5 12.25V11.5ZM12.5 9.5H13.25C13.25 8.80964 13.8096 8.25 14.5 8.25V7.5V6.75C12.9812 6.75 11.75 7.98122 11.75 9.5H12.5ZM14.5 7.5V8.25C15.1904 8.25 15.75 8.80964 15.75 9.5H16.5H17.25C17.25 7.98122 16.0188 6.75 14.5 6.75V7.5Z" fill="currentColor"/></svg>