<svg xmlns="http://www.w3.org/2000/svg" fill="none" width="24" height="24" viewBox="0 0 24 24"><path d="M4.75 11.25V3.75H15L19.25 8V11.25M13.75 4.25V9.25H18.75" stroke="currentColor" stroke-width="1.5" stroke-linecap="round" stroke-linejoin="round"/>
<path d="M6.5 14.75V18.75C6.5 19.5784 5.82843 20.25 5 20.25H4.5" stroke="currentColor" stroke-width="1.5" stroke-linecap="round"/>
<path d="M9.5 20.25V14.75H11.25C12.0784 14.75 12.75 15.4216 12.75 16.25C12.75 17.0784 12.0784 17.75 11.25 17.75H10.25" stroke="currentColor" stroke-width="1.5" stroke-linecap="round" stroke-linejoin="round"/>
<path d="M18.6751 15.1739C18.2838 14.7915 17.5897 14.6985 17.1752 14.7239C16.0285 14.7939 15 15.9625 15 17.5494C15 19.1363 15.9777 20.28 17.3299 20.28C18.0003 20.2718 18.7897 20.0755 19.25 19.573V17.8261H18.1561" stroke="currentColor" stroke-width="1.5" stroke-linecap="round" stroke-linejoin="round"/></svg>