<svg xmlns="http://www.w3.org/2000/svg" fill="none" width="24" height="24" viewBox="0 0 24 24"><path d="M1.75 12C1.75 14.8995 4.10051 17.25 7 17.25C8.69095 17.25 10.1952 16.4506 11.1554 15.2091C11.3677 14.9345 11.6844 14.75 12.0315 14.75H13.7132C13.9006 14.75 14.0843 14.6973 14.2432 14.598L15.47 13.8312C15.7943 13.6286 16.2057 13.6286 16.53 13.8312L17.7568 14.598C17.9157 14.6973 18.0994 14.75 18.2868 14.75H20.0261C20.3261 14.75 20.6101 14.6154 20.8001 14.3832L22.2319 12.6332C22.5333 12.2649 22.5333 11.7351 22.2319 11.3668L20.8001 9.61676C20.6101 9.38463 20.3261 9.25 20.0261 9.25H12.0315C11.6844 9.25 11.3677 9.06549 11.1554 8.79095C10.1952 7.54942 8.69095 6.75 7 6.75C4.10051 6.75 1.75 9.10051 1.75 12Z" stroke="currentColor" stroke-width="1.5" stroke-linejoin="round"/>
<path d="M7.75 12C7.75 12.4142 7.41421 12.75 7 12.75C6.58579 12.75 6.25 12.4142 6.25 12C6.25 11.5858 6.58579 11.25 7 11.25C7.41421 11.25 7.75 11.5858 7.75 12Z" stroke="currentColor" stroke-width="1.5" stroke-linejoin="round"/></svg>