<svg xmlns="http://www.w3.org/2000/svg" fill="none" width="24" height="24" viewBox="0 0 24 24"><path d="M8.75 6.75V11C7.57396 12.4701 5.69652 14.1135 4.99696 16.0714M8.75 6.75H15.25M8.75 6.75H7.75M15.25 6.75V11C16.426 12.4701 18.3035 14.1135 19.003 16.0714M15.25 6.75H16.25M19.003 16.0714C19.1596 16.5096 19.25 16.9581 19.25 17.4162C19.25 19.5336 17.5336 21.25 15.4162 21.25H8.58376C6.46643 21.25 4.75 19.5336 4.75 17.4162C4.75 16.9581 4.84041 16.5096 4.99696 16.0714M19.003 16.0714C19.003 16.0714 16.3242 16.6356 14.5893 16.5893C12.5276 16.5343 11.4724 15.6086 9.41071 15.5536C7.67583 15.5073 4.99696 16.0714 4.99696 16.0714M10.25 4C10.25 4.13807 10.1381 4.25 10 4.25M10.25 4C10.25 3.86193 10.1381 3.75 10 3.75M10.25 4H10M10 4.25C9.86193 4.25 9.75 4.13807 9.75 4M10 4.25V4M9.75 4C9.75 3.86193 9.86193 3.75 10 3.75M9.75 4H10M10 3.75V4M10 4L9.82322 4.17678M10 4L10.1768 3.82322M10 4L9.82322 3.82322M10 4L10.1768 4.17678M10.1768 3.82322C10.2744 3.92085 10.2744 4.07915 10.1768 4.17678M10.1768 3.82322C10.0791 3.72559 9.92085 3.72559 9.82322 3.82322M10.1768 4.17678C10.0791 4.27441 9.92085 4.27441 9.82322 4.17678M9.82322 4.17678C9.72559 4.07915 9.72559 3.92085 9.82322 3.82322M14.25 2.5C14.25 2.91421 13.9142 3.25 13.5 3.25C13.0858 3.25 12.75 2.91421 12.75 2.5C12.75 2.08579 13.0858 1.75 13.5 1.75C13.9142 1.75 14.25 2.08579 14.25 2.5Z" stroke="currentColor" stroke-width="1.5" stroke-linecap="round" stroke-linejoin="round"/></svg>