<svg xmlns="http://www.w3.org/2000/svg" fill="none" width="24" height="24" viewBox="0 0 24 24"><path d="M8.5 9.25H9M13.5 9.25H14M17.4492 12.7507C17.1168 15.1864 15.1897 17.1146 12.7545 17.4487M9.25 9.25C9.25 9.52614 9.02614 9.75 8.75 9.75C8.47386 9.75 8.25 9.52614 8.25 9.25C8.25 8.97386 8.47386 8.75 8.75 8.75C9.02614 8.75 9.25 8.97386 9.25 9.25ZM14.25 9.25C14.25 9.52614 14.0261 9.75 13.75 9.75C13.4739 9.75 13.25 9.52614 13.25 9.25C13.25 8.97386 13.4739 8.75 13.75 8.75C14.0261 8.75 14.25 8.97386 14.25 9.25ZM21.25 12C21.25 17.1086 17.1086 21.25 12 21.25C6.89137 21.25 2.75 17.1086 2.75 12C2.75 6.89137 6.89137 2.75 12 2.75C17.1086 2.75 21.25 6.89137 21.25 12Z" stroke="currentColor" stroke-width="1.5" stroke-linecap="round" stroke-linejoin="round"/></svg>