<svg xmlns="http://www.w3.org/2000/svg" fill="none" width="24" height="24" viewBox="0 0 24 24"><path d="M8.74799 17.75V16.4838C8.33548 16.2765 7.94548 16.031 7.58263 15.7519C5.85907 14.4264 4.74829 12.3433 4.74829 10.0009C4.74829 5.99633 7.99462 2.75 11.9992 2.75C16.0037 2.75 19.2501 5.99633 19.2501 10.0009C19.2501 12.3433 18.1393 14.4264 16.4157 15.7519C16.0529 16.031 15.6629 16.2765 15.2504 16.4838V17.75M8.74799 17.75V18.9988C8.74799 20.7944 10.2036 22.25 11.9992 22.25C13.7948 22.25 15.2504 20.7944 15.2504 18.9988V17.75M8.74799 17.75H15.2504" stroke="currentColor" stroke-width="1.5" stroke-linecap="square" stroke-linejoin="round"/></svg>