<svg xmlns="http://www.w3.org/2000/svg" fill="none" width="24" height="24" viewBox="0 0 24 24"><path d="M11.25 4.75H2.75V19.25H11.25M11.25 4.75H21.25V19.25H11.25M11.25 4.75V19.25" stroke="currentColor" stroke-width="1.5" stroke-linecap="square" stroke-linejoin="round"/>
<path d="M7.75 8.5C7.75 8.91421 7.41421 9.25 7 9.25C6.58579 9.25 6.25 8.91421 6.25 8.5C6.25 8.08579 6.58579 7.75 7 7.75C7.41421 7.75 7.75 8.08579 7.75 8.5ZM7.75 12C7.75 12.4142 7.41421 12.75 7 12.75C6.58579 12.75 6.25 12.4142 6.25 12C6.25 11.5858 6.58579 11.25 7 11.25C7.41421 11.25 7.75 11.5858 7.75 12ZM7.75 15.5C7.75 15.9142 7.41421 16.25 7 16.25C6.58579 16.25 6.25 15.9142 6.25 15.5C6.25 15.0858 6.58579 14.75 7 14.75C7.41421 14.75 7.75 15.0858 7.75 15.5Z" fill="currentColor" stroke="currentColor" stroke-width="0.5"/></svg>