<svg xmlns="http://www.w3.org/2000/svg" fill="none" width="24" height="24" viewBox="0 0 24 24"><path d="M16.25 11.5V7C16.25 4.65279 14.3472 2.75 12 2.75C10.6334 2.75 9.41741 3.39504 8.63994 4.39727M3 3L7.75 7.75M7.75 7.75V11.5C7.75 13.8472 9.65279 15.75 12 15.75C13.0463 15.75 14.0043 15.3719 14.7449 14.7449M7.75 7.75L14.7449 14.7449M14.7449 14.7449L17.0474 17.0474M21 21L17.0474 17.0474M12 19C8.92453 19 6.2814 17.1489 5.12407 14.5M12 19V21.25M12 19C13.9439 19 15.715 18.2605 17.0474 17.0474" stroke="currentColor" stroke-width="1.5" stroke-linecap="round" stroke-linejoin="round"/></svg>