<svg xmlns="http://www.w3.org/2000/svg" fill="none" width="24" height="24" viewBox="0 0 24 24"><path d="M6.75 20.2122H8.89621C8.89621 20.2122 11.3461 21.1593 12.9937 21.2378C16.6264 21.411 19.5121 19.7189 21.8494 17.1452C22.3831 16.5574 22.3741 15.6701 21.8785 15.0498C21.2396 14.2501 20.0386 14.1853 19.2375 14.822C18.3548 15.5234 17.1831 16.3124 16.0668 16.6223C14.5248 17.0503 12.9937 17.1351 12.9937 17.1351C21.1886 16.6223 18.0181 11 6.75 14M14.0553 3.88943C13.6015 2.64139 12.4049 1.75 11 1.75C9.20507 1.75 7.75 3.20507 7.75 5C7.75 6.79493 9.20507 8.25 11 8.25C11.3286 8.25 11.6457 8.20124 11.9447 8.11057M14.0553 3.88943C12.7211 4.2941 11.75 5.53364 11.75 7C11.75 7.39005 11.8187 7.76406 11.9447 8.11057M14.0553 3.88943C14.3543 3.79876 14.6714 3.75 15 3.75C16.7949 3.75 18.25 5.20507 18.25 7C18.25 8.79493 16.7949 10.25 15 10.25C13.5951 10.25 12.3984 9.35861 11.9447 8.11057M2.75 12.75H6.75V21.25H2.75V12.75Z" stroke="currentColor" stroke-width="1.5" stroke-linecap="round" stroke-linejoin="round"/></svg>