<svg xmlns="http://www.w3.org/2000/svg" fill="none" width="24" height="24" viewBox="0 0 24 24"><path d="M4.75 4.75C4.75 4.19772 5.19772 3.75 5.75 3.75H8.25C8.80228 3.75 9.25 4.19772 9.25 4.75V19.25C9.25 19.8023 8.80228 20.25 8.25 20.25H5.75C5.19772 20.25 4.75 19.8023 4.75 19.25V4.75Z" stroke="currentColor" stroke-width="1.5" stroke-linejoin="round"/>
<path d="M14.75 4.75C14.75 4.19772 15.1977 3.75 15.75 3.75H18.25C18.8023 3.75 19.25 4.19772 19.25 4.75V19.25C19.25 19.8023 18.8023 20.25 18.25 20.25H15.75C15.1977 20.25 14.75 19.8023 14.75 19.25V4.75Z" stroke="currentColor" stroke-width="1.5" stroke-linejoin="round"/></svg>