<svg xmlns="http://www.w3.org/2000/svg" fill="none" width="24" height="24" viewBox="0 0 24 24"><path d="M8.71906 3.56014C8.6845 3.62926 8.62846 3.6853 8.55934 3.71986L7.63803 4.18051C7.3748 4.31213 7.3748 4.68778 7.63803 4.81939L8.55934 5.28005C8.62846 5.3146 8.6845 5.37065 8.71906 5.43977L9.17972 6.36108C9.31133 6.62431 9.68698 6.62431 9.81859 6.36108L10.2792 5.43977C10.3138 5.37065 10.3698 5.3146 10.439 5.28005L11.3603 4.81939C11.6235 4.68778 11.6235 4.31213 11.3603 4.18051L10.439 3.71986C10.3698 3.6853 10.3138 3.62926 10.2792 3.56014L9.81859 2.63883C9.68698 2.3756 9.31133 2.3756 9.17972 2.63883L8.71906 3.56014Z" fill="currentColor"/>
<path d="M4.40702 7.18422C4.35864 7.28098 4.28018 7.35944 4.18342 7.40782L2.89358 8.05274C2.52506 8.237 2.52506 8.7629 2.89358 8.94717L4.18342 9.59208C4.28018 9.64047 4.35864 9.71893 4.40702 9.81569L5.05194 11.1055C5.2362 11.4741 5.7621 11.4741 5.94637 11.1055L6.59128 9.81569C6.63967 9.71893 6.71813 9.64047 6.81489 9.59208L8.10473 8.94717C8.47325 8.7629 8.47325 8.237 8.10473 8.05274L6.81489 7.40782C6.71813 7.35944 6.63967 7.28098 6.59128 7.18422L5.94637 5.89438C5.7621 5.52586 5.2362 5.52586 5.05194 5.89438L4.40702 7.18422Z" fill="currentColor"/>
<path fill-rule="evenodd" clip-rule="evenodd" d="M20.0303 2.96967C19.7511 2.69047 19.3033 2.67556 19.0061 2.93557L7.50391 13L7.5 13C5.01472 13 3 15.0147 3 17.5V21.25C3 21.6642 3.33579 22 3.75 22H7.5C9.98528 22 12 19.9853 12 17.5L12 17.4961L22.0644 5.99388C22.3244 5.69673 22.3095 5.24887 22.0303 4.96967L20.0303 2.96967ZM11.6097 15.6643C11.1581 14.6546 10.3454 13.8419 9.33572 13.3903L19.4658 4.52648L20.4735 5.53418L11.6097 15.6643ZM4.5 17.5C4.5 15.8431 5.84315 14.5 7.5 14.5C7.57422 14.5 7.64768 14.5027 7.72031 14.5079C9.20109 14.615 10.385 15.7989 10.4921 17.2797C10.4973 17.3523 10.5 17.4258 10.5 17.5C10.5 19.1569 9.15685 20.5 7.5 20.5H4.5V17.5Z" fill="currentColor"/></svg>