<svg xmlns="http://www.w3.org/2000/svg" fill="none" width="24" height="24" viewBox="0 0 24 24"><g clip-path="url(#clip0_2721_1058)">
<path d="M16.625 20.0107L11.6146 11.3324M7.37499 3.98926C2.95079 6.54357 1.43494 12.2008 3.98926 16.625C5.25553 14.7071 7.03569 13.6794 8.88471 13.7986M7.37499 3.98926C11.7992 1.43494 17.4564 2.95079 20.0107 7.37499C17.7167 7.51266 15.9365 8.54047 15.1153 10.2014M7.37499 3.98926C5.65447 4.9826 6.33039 9.3744 8.88471 13.7986M7.37499 3.98926C9.09552 2.99591 12.561 5.77717 15.1153 10.2014M8.88471 13.7986C9.74036 12.7112 10.6132 11.9106 11.6146 11.3324M15.1153 10.2014C13.7457 10.3987 12.6159 10.7543 11.6146 11.3324" stroke="currentColor" stroke-width="1.5" stroke-linecap="round" stroke-linejoin="round"/>
</g>
<defs>
<clipPath id="clip0_2721_1058">
<rect width="24" height="24" fill="white"/>
</clipPath>
</defs></svg>