<svg xmlns="http://www.w3.org/2000/svg" fill="none" width="24" height="24" viewBox="0 0 24 24"><path d="M20 16L18 18M18 18L16 20M18 18L16 16M18 18L20 20M11.8523 13.2513C7.74082 13.3226 4.86459 16.3717 4.5 20.25H12.25M11.8523 13.2513C11.9014 13.2504 11.9506 13.25 12 13.25C12.5201 13.25 13.0209 13.2974 13.5 13.3879M11.8523 13.2513C11.2023 13.2626 10.5834 13.3483 10.0001 13.5M15.75 6.5C15.75 8.57107 14.0711 10.25 12 10.25C9.92893 10.25 8.25 8.57107 8.25 6.5C8.25 4.42893 9.92893 2.75 12 2.75C14.0711 2.75 15.75 4.42893 15.75 6.5Z" stroke="currentColor" stroke-width="1.5" stroke-linecap="round" stroke-linejoin="round"/></svg>