<svg xmlns="http://www.w3.org/2000/svg" fill="none" width="24" height="24" viewBox="0 0 24 24"><path d="M5.85697 18.9157C7.17056 16.9968 9.33203 15.75 12 15.75C14.668 15.75 16.8294 16.9968 18.143 18.9157M5.85697 18.9157C7.49061 20.3679 9.6423 21.25 12 21.25C14.3577 21.25 16.5094 20.3679 18.143 18.9157M5.85697 18.9157C3.95086 17.2214 2.75 14.7509 2.75 12C2.75 6.89137 6.89137 2.75 12 2.75C17.1086 2.75 21.25 6.89137 21.25 12C21.25 14.7509 20.0491 17.2214 18.143 18.9157M15.25 10C15.25 11.7949 13.7949 13.25 12 13.25C10.2051 13.25 8.75 11.7949 8.75 10C8.75 8.20507 10.2051 6.75 12 6.75C13.7949 6.75 15.25 8.20507 15.25 10Z" stroke="currentColor" stroke-width="1.5" stroke-linejoin="round"/></svg>