<svg xmlns="http://www.w3.org/2000/svg" fill="none" width="24" height="24" viewBox="0 0 24 24"><path d="M11.8523 13.2513C7.74082 13.3226 4.86459 16.3717 4.5 20.25H12.5M11.8523 13.2513C11.9014 13.2504 11.9506 13.25 12 13.25C12.3521 13.25 12.6954 13.2717 13.029 13.3138M11.8523 13.2513C11.2023 13.2626 10.5834 13.3483 10.0001 13.5M13.029 13.3138C13.3627 13.3559 13.6867 13.4184 14.0004 13.5M13.029 13.3138C13.7309 13.4024 14.3904 13.5812 15 13.838M18.25 15.25V18.25M18.25 18.25V21.25M18.25 18.25H15.25M18.25 18.25H21.25M15.75 6.5C15.75 8.57107 14.0711 10.25 12 10.25C9.92893 10.25 8.25 8.57107 8.25 6.5C8.25 4.42893 9.92893 2.75 12 2.75C14.0711 2.75 15.75 4.42893 15.75 6.5Z" stroke="currentColor" stroke-width="1.5" stroke-linecap="round" stroke-linejoin="round"/></svg>