<svg xmlns="http://www.w3.org/2000/svg" fill="none" width="24" height="24" viewBox="0 0 24 24"><path d="M19.7181 14.5359C20.0626 13.7609 20.254 12.9028 20.254 12C20.254 8.54822 17.4558 5.75 14.004 5.75H10.004C9.93732 5.75 9.87088 5.75104 9.8047 5.75312C8.32457 3.97909 6.38818 3.75 5.75 3.75V7.4211C5.06066 8.06182 4.51621 8.85631 4.17124 9.75H1.75V14.25H4.17124C4.51621 15.1437 5.06066 15.9382 5.75 16.5789V20.25H10.25V18.25H13.75V20.25H18.25V16.5863C18.8686 16.0134 19.371 15.3168 19.7181 14.5359ZM19.7181 14.5359C20.085 14.9725 20.6351 15.25 21.25 15.25C22.3546 15.25 23.25 14.3546 23.25 13.25C23.25 12.777 23.0858 12.3424 22.8113 12M8 10.75H8.5M8.75 10.75C8.75 11.0261 8.52614 11.25 8.25 11.25C7.97386 11.25 7.75 11.0261 7.75 10.75C7.75 10.4739 7.97386 10.25 8.25 10.25C8.52614 10.25 8.75 10.4739 8.75 10.75Z" stroke="currentColor" stroke-width="1.5" stroke-linecap="round" stroke-linejoin="round"/></svg>