<svg xmlns="http://www.w3.org/2000/svg" fill="none" width="24" height="24" viewBox="0 0 24 24"><path d="M2.2625 7.61719C1.57917 9.39555 1.57917 10.9951 2.2625 12.7734M16.0947 5.85437L11.6336 8.53244L9.57308 4.82159C9.00409 3.79686 7.74391 3.44577 6.75838 4.03739C5.77286 4.62902 5.4352 5.93933 6.00419 6.96405L9.09494 12.5303L7.87114 12.3365C6.74613 12.1584 5.69523 12.9622 5.52389 14.132L5.3375 15.4045L10.9198 19.0656C13.2398 20.5871 16.1795 20.6469 18.5549 19.2209C22.0884 17.0997 23.2991 12.4017 21.259 8.72766L20.3167 7.03066C19.4632 5.49357 17.573 4.96693 16.0947 5.85437Z" stroke="currentColor" stroke-width="1.5" stroke-linecap="round" stroke-linejoin="round"/></svg>