<svg xmlns="http://www.w3.org/2000/svg" fill="none" width="24" height="24" viewBox="0 0 24 24"><path d="M4.75 11.25V3.75H15L19.25 8V11.25" stroke="currentColor" stroke-width="1.5" stroke-linecap="round" stroke-linejoin="round"/>
<path d="M3.75 20.25V14.75H5.5C6.32843 14.75 7 15.4216 7 16.25C7 17.0784 6.32843 17.75 5.5 17.75H4.5" stroke="currentColor" stroke-width="1.5" stroke-linecap="round" stroke-linejoin="round"/>
<path d="M9.5 20.25V14.75H10L13.25 20.25H13.75V14.75" stroke="currentColor" stroke-width="1.5" stroke-linecap="round" stroke-linejoin="round"/>
<path d="M19.6961 15.2215C19.3191 14.8448 18.6504 14.7533 18.251 14.7782C17.1463 14.8473 16.1554 15.9981 16.1554 17.5608C16.1554 19.1236 17.0973 20.2499 18.4001 20.2499C19.0459 20.2418 19.8065 20.0485 20.25 19.5537V17.8333H19.1961" stroke="currentColor" stroke-width="1.5" stroke-linecap="round" stroke-linejoin="round"/>
<path d="M13.75 4.25V9.25H18.75" stroke="currentColor" stroke-width="1.5" stroke-linecap="round" stroke-linejoin="round"/></svg>