<svg xmlns="http://www.w3.org/2000/svg" fill="none" width="24" height="24" viewBox="0 0 24 24"><path d="M9.25 9.75H7.5C5.98122 9.75 4.75 10.9812 4.75 12.5C4.75 13.2064 5.01633 13.8506 5.45405 14.3376M13.75 9.75H16.5C18.0188 9.75 19.25 10.9812 19.25 12.5C19.25 13.2308 18.965 13.895 18.5 14.3875M12.25 14.75H5.5C3.98122 14.75 2.75 15.9812 2.75 17.5C2.75 19.0188 3.98122 20.25 5.5 20.25H18.5C20.0188 20.25 21.25 19.0188 21.25 17.5C21.25 15.9812 20.0188 14.75 18.5 14.75H16.75M7.5 9.38747C7.03504 8.89496 6.75 8.23077 6.75 7.5C6.75 5.98122 7.98122 4.75 9.5 4.75H13V2.75C15.3472 2.75 17.25 4.42893 17.25 6.5C17.25 7.66147 16.6516 8.69962 15.7119 9.38747" stroke="currentColor" stroke-width="1.5" stroke-linecap="round" stroke-linejoin="round"/></svg>