<svg width="24" height="24" viewBox="0 0 24 24" fill="none" xmlns="http://www.w3.org/2000/svg">
<path d="M4.52778 17.2499L1.75 20.1071M6.75 19.5356L5.08333 21.2499M2.75 12.2499C2.75 12.2499 6.51997 14.0199 8.25 15.7499C9.98003 17.48 11.75 21.2499 11.75 21.2499L15.25 17.9999V14.9999C19.25 12.9999 21.75 9.74992 21.25 2.74992C14.25 2.24992 11 4.74993 9 8.74994H6L2.75 12.2499ZM17.25 8.49992C17.25 9.46642 16.4665 10.2499 15.5 10.2499C14.5335 10.2499 13.75 9.46642 13.75 8.49992C13.75 7.53342 14.5335 6.74992 15.5 6.74992C16.4665 6.74992 17.25 7.53342 17.25 8.49992Z" stroke="#353531" stroke-width="1.5" stroke-linecap="round" stroke-linejoin="round"/>
</svg>
