<svg xmlns="http://www.w3.org/2000/svg" fill="none" width="24" height="24" viewBox="0 0 24 24"><path d="M7.75 11.25V7.25C7.75 6.42157 7.07843 5.75 6.25 5.75C5.42157 5.75 4.75 6.42157 4.75 7.25V13.75C4.75 17.8921 8.10786 21.25 12.25 21.25C16.3921 21.25 19.75 17.8921 19.75 13.75V8H19.25C18.2065 8 17.2875 8.53275 16.75 9.3411M7.75 8.75V5.25C7.75 4.42157 8.42157 3.75 9.25 3.75C10.0784 3.75 10.75 4.42157 10.75 5.25V10.25M10.75 7.75V4.25C10.75 3.42157 11.4216 2.75 12.25 2.75C13.0784 2.75 13.75 3.42157 13.75 4.25V5.25M13.75 10.25V5.25M13.75 5.25C13.75 4.42157 14.4216 3.75 15.25 3.75C16.0784 3.75 16.75 4.42157 16.75 5.25V9.3411M13.75 16C13.75 14.4901 14.6693 13.1323 16.0712 12.5715L16.25 12.5V11C16.25 10.3866 16.4341 9.81626 16.75 9.3411" stroke="currentColor" stroke-width="1.5" stroke-linecap="round" stroke-linejoin="round"/></svg>