<svg xmlns="http://www.w3.org/2000/svg" fill="none" width="24" height="24" viewBox="0 0 24 24"><path d="M0.75 9.75H2M23.25 9.75H22M14.0612 9.28239C13.4507 8.94319 12.7479 8.75 12 8.75C11.2521 8.75 10.5493 8.94319 9.93881 9.28239M10.25 12C10.25 14.3472 8.34721 16.25 6 16.25C3.65279 16.25 1.75 14.3472 1.75 12C1.75 9.65279 3.65279 7.75 6 7.75C8.34721 7.75 10.25 9.65279 10.25 12ZM22.25 12C22.25 14.3472 20.3472 16.25 18 16.25C15.6528 16.25 13.75 14.3472 13.75 12C13.75 9.65279 15.6528 7.75 18 7.75C20.3472 7.75 22.25 9.65279 22.25 12Z" stroke="currentColor" stroke-width="1.5" stroke-linecap="round" stroke-linejoin="round"/></svg>