<svg width="24" height="24" viewBox="0 0 24 24" fill="none" xmlns="http://www.w3.org/2000/svg">
<path d="M12 2.75V4.75M3 8.75H2.25V11.25H3M21 11.25H21.75V8.75H21M9.75 14.5H14.25M9.25 10C9.25 10.4142 8.91421 10.75 8.5 10.75C8.08579 10.75 7.75 10.4142 7.75 10C7.75 9.58579 8.08579 9.25 8.5 9.25C8.91421 9.25 9.25 9.58579 9.25 10ZM16.25 10C16.25 10.4142 15.9142 10.75 15.5 10.75C15.0858 10.75 14.75 10.4142 14.75 10C14.75 9.58579 15.0858 9.25 15.5 9.25C15.9142 9.25 16.25 9.58579 16.25 10ZM3.25 4.75H20.75V16.25C20.75 17.9069 19.4069 19.25 17.75 19.25H6.25C4.59315 19.25 3.25 17.9069 3.25 16.25V4.75Z" stroke="#353531" stroke-width="1.5" stroke-linecap="round" stroke-linejoin="round"/>
</svg>
