<svg xmlns="http://www.w3.org/2000/svg" fill="none" width="24" height="24" viewBox="0 0 24 24"><path d="M1.75 16C1.33579 16 1 16.3358 1 16.75C1 17.1642 1.33579 17.5 1.75 17.5V16.75V16ZM22.25 17.5C22.6642 17.5 23 17.1642 23 16.75C23 16.3358 22.6642 16 22.25 16V16.75V17.5ZM16.9439 13.9919L16.249 14.2743V14.2743L16.9439 13.9919ZM19.8388 11.418L19.4856 12.0796V12.0796L19.8388 11.418ZM22.25 15C22.6642 15 23 14.6642 23 14.25C23 13.8358 22.6642 13.5 22.25 13.5V14.25V15ZM13.5664 7.81456L14.2973 7.64631V7.64631L13.5664 7.81456ZM10.189 20.1692L10.0412 19.4339V19.4339L10.189 20.1692ZM10.7396 14.6179C11.0853 14.846 11.5506 14.7507 11.7787 14.405C12.0069 14.0593 11.9116 13.5941 11.5659 13.3659L11.1528 13.9919L10.7396 14.6179ZM8.25902 4.21112L7.83776 3.59061V3.59061L8.25902 4.21112ZM9.224 13.9919L8.63988 13.5215V13.5215L9.224 13.9919ZM2.28033 10.2197C1.98744 9.92678 1.51256 9.92678 1.21967 10.2197C0.926777 10.5126 0.926777 10.9874 1.21967 11.2803L1.75 10.75L2.28033 10.2197ZM4.71967 14.7803C5.01256 15.0732 5.48744 15.0732 5.78033 14.7803C6.07322 14.4874 6.07322 14.0126 5.78033 13.7197L5.25 14.25L4.71967 14.7803ZM5.78033 11.2803C6.07322 10.9874 6.07322 10.5126 5.78033 10.2197C5.48744 9.92678 5.01256 9.92678 4.71967 10.2197L5.25 10.75L5.78033 11.2803ZM1.21967 13.7197C0.926777 14.0126 0.926777 14.4874 1.21967 14.7803C1.51256 15.0732 1.98744 15.0732 2.28033 14.7803L1.75 14.25L1.21967 13.7197ZM1.75 16.75V17.5H22.25V16.75V16H1.75V16.75ZM16.9439 13.9919L16.249 14.2743C16.3661 14.5622 16.5605 14.9313 16.9266 15.1194C17.4036 15.3643 17.8384 15.1648 18.0774 14.9771C18.2993 14.8028 18.4749 14.5582 18.6071 14.3498C18.7478 14.1282 18.884 13.8742 19.0105 13.6292C19.2798 13.1075 19.5014 12.6407 19.7224 12.3078C19.7735 12.2308 19.8172 12.1728 19.8531 12.1312C19.8904 12.0879 19.9083 12.0754 19.905 12.0777C19.8816 12.0943 19.6952 12.1915 19.4856 12.0796L19.8388 11.418L20.192 10.7564C19.7413 10.5158 19.3099 10.6614 19.0389 10.853C18.7986 11.023 18.6114 11.2692 18.4727 11.4782C18.1914 11.9019 17.9067 12.4973 17.6776 12.9412C17.5548 13.179 17.4437 13.3836 17.3406 13.5461C17.2897 13.6264 17.2458 13.6882 17.209 13.7337C17.1707 13.7811 17.1509 13.7975 17.1509 13.7975C17.1545 13.7946 17.359 13.6552 17.612 13.7851C17.7542 13.8581 17.7312 13.9371 17.6387 13.7095L16.9439 13.9919ZM19.8388 11.418L19.4856 12.0796C19.3984 12.0331 19.4396 11.9727 19.4711 12.1785C19.5028 12.385 19.4933 12.6406 19.4853 12.9991C19.4788 13.294 19.4684 13.735 19.5866 14.1043C19.6516 14.3075 19.7721 14.5471 20.0033 14.7329C20.243 14.9254 20.5266 15 20.8038 15V14.25V13.5C20.7967 13.5 20.8652 13.5012 20.9428 13.5635C21.0118 13.619 21.023 13.6714 21.0152 13.647C20.9876 13.5609 20.9772 13.3848 20.985 13.0322C20.9914 12.7433 21.0105 12.3211 20.9538 11.9513C20.897 11.5806 20.7329 11.0451 20.192 10.7564L19.8388 11.418ZM20.8038 14.25V15H22.25V14.25V13.5H20.8038V14.25ZM13.5664 7.81456L12.8355 7.98282C13.0105 8.74297 13.1363 9.76649 13.1725 10.9046L13.9221 10.8807L14.6718 10.8569C14.6333 9.64773 14.4993 8.52381 14.2973 7.64631L13.5664 7.81456ZM13.9221 10.8807L13.1725 10.9046C13.2316 12.7605 13.05 14.8384 12.512 16.4984C11.9621 18.1949 11.1274 19.2156 10.0412 19.4339L10.189 20.1692L10.3368 20.9045C12.2489 20.5202 13.3414 18.8042 13.9389 16.9609C14.5482 15.081 14.7341 12.8161 14.6718 10.8569L13.9221 10.8807ZM11.1528 13.9919L11.5659 13.3659C11.2607 13.1645 10.9069 12.8799 10.5342 12.5261L10.0179 13.0701L9.50154 13.614C9.92202 14.0132 10.3445 14.3571 10.7396 14.6179L11.1528 13.9919ZM10.0179 13.0701L10.5342 12.5261C9.41477 11.4635 8.25132 9.89978 7.751 8.3926C7.50273 7.64472 7.43398 6.96017 7.56575 6.3753C7.69282 5.8113 8.0185 5.28092 8.68029 4.83163L8.25902 4.21112L7.83776 3.59061C6.87726 4.24269 6.31748 5.09111 6.10243 6.04561C5.89208 6.97925 6.02455 7.9529 6.32739 8.86518C6.92927 10.6783 8.26753 12.4427 9.50154 13.614L10.0179 13.0701ZM8.25902 4.21112L8.68029 4.83163C9.10456 4.54359 9.50336 4.46673 9.87534 4.51213C10.2619 4.55931 10.6724 4.74616 11.0784 5.07197C11.9017 5.7327 12.5782 6.86509 12.8355 7.98282L13.5664 7.81456L14.2973 7.64631C13.9734 6.23948 13.1336 4.79801 12.0172 3.90209C11.4533 3.44957 10.7881 3.11241 10.0571 3.02318C9.31147 2.93217 8.55082 3.10651 7.83776 3.59061L8.25902 4.21112ZM10.189 20.1692L10.0412 19.4339C9.19924 19.6032 8.86575 19.4143 8.72501 19.2684C8.54929 19.0863 8.41625 18.7138 8.44524 18.0866C8.47316 17.4825 8.64781 16.7754 8.91071 16.1017C9.17406 15.4268 9.50522 14.8384 9.80813 14.4623L9.224 13.9919L8.63988 13.5215C8.21596 14.0479 7.81588 14.7811 7.51333 15.5564C7.21032 16.3329 6.98441 17.2046 6.94684 18.0174C6.91034 18.8071 7.04689 19.6895 7.64557 20.31C8.27924 20.9667 9.22496 21.128 10.3368 20.9045L10.189 20.1692ZM9.224 13.9919L9.80813 14.4623C10.068 14.1397 10.3212 13.8459 10.5678 13.5801L10.0179 13.0701L9.46802 12.56C9.19522 12.8541 8.91917 13.1747 8.63988 13.5215L9.224 13.9919ZM10.0179 13.0701L10.5678 13.5801C11.9988 12.0373 13.089 11.5576 13.8537 11.6276L13.9221 10.8807L13.9906 10.1339C12.4934 9.99672 10.9695 10.9413 9.46802 12.56L10.0179 13.0701ZM13.9221 10.8807L13.8537 11.6276C14.6289 11.6986 15.4844 12.393 16.249 14.2743L16.9439 13.9919L17.6387 13.7095C16.826 11.7099 15.6529 10.2862 13.9906 10.1339L13.9221 10.8807ZM1.75 10.75L1.21967 11.2803L2.96967 13.0303L3.5 12.5L4.03033 11.9697L2.28033 10.2197L1.75 10.75ZM3.5 12.5L2.96967 13.0303L4.71967 14.7803L5.25 14.25L5.78033 13.7197L4.03033 11.9697L3.5 12.5ZM5.25 10.75L4.71967 10.2197L2.96967 11.9697L3.5 12.5L4.03033 13.0303L5.78033 11.2803L5.25 10.75ZM3.5 12.5L2.96967 11.9697L1.21967 13.7197L1.75 14.25L2.28033 14.7803L4.03033 13.0303L3.5 12.5Z" fill="currentColor"/></svg>