<svg xmlns="http://www.w3.org/2000/svg" fill="none" width="24" height="24" viewBox="0 0 24 24"><path d="M20.25 12V20.25H3.75002V12M9.50002 3.75H14.5001M9.50002 3.75L8.90899 8.77398C8.69131 10.6243 10.137 12.25 12.0001 12.25C13.8631 12.25 15.3088 10.6243 15.0911 8.77397L14.5001 3.75M9.50002 3.75H4.41668L2.97236 8.35377C2.36638 10.2853 3.8091 12.25 5.83349 12.25C7.35405 12.25 8.63391 11.1119 8.81158 9.60174L9.50002 3.75ZM14.5001 3.75H19.5833L21.0277 8.35377C21.6337 10.2853 20.1909 12.25 18.1665 12.25C16.646 12.25 15.3661 11.1119 15.1885 9.60174L14.5001 3.75Z" stroke="currentColor" stroke-width="1.5" stroke-linecap="round" stroke-linejoin="round"/></svg>