<svg xmlns="http://www.w3.org/2000/svg" fill="none" width="24" height="24" viewBox="0 0 24 24"><path d="M17.75 2L18.4668 1.77944C18.3884 1.52448 18.1804 1.33038 17.9207 1.26968C17.6609 1.20898 17.3885 1.29081 17.2051 1.4846L17.75 2ZM18.75 5.25L18.0332 5.47056C18.1062 5.70796 18.292 5.89379 18.5294 5.96683L18.75 5.25ZM22 6.25L22.5154 6.79485C22.7092 6.61154 22.791 6.33909 22.7303 6.07934C22.6696 5.81958 22.4755 5.61161 22.2206 5.53317L22 6.25ZM18.3 9.75V10.5C18.4917 10.5 18.6761 10.4266 18.8154 10.2949L18.3 9.75ZM14.25 5.7L13.7051 5.1846C13.5734 5.32387 13.5 5.5083 13.5 5.7H14.25ZM11.4697 11.4697C11.1768 11.7626 11.1768 12.2374 11.4697 12.5303C11.7626 12.8232 12.2374 12.8232 12.5303 12.5303L12 12L11.4697 11.4697ZM11.1435 7.55755C11.5501 7.47828 11.8154 7.08444 11.7361 6.67789C11.6569 6.27133 11.263 6.00601 10.8565 6.08528L11 6.82141L11.1435 7.55755ZM17.9147 13.1437C17.994 12.7371 17.7287 12.3433 17.3221 12.264C16.9156 12.1847 16.5217 12.45 16.4425 12.8566L17.1786 13.0001L17.9147 13.1437ZM12.4601 3.51222C12.8737 3.53425 13.2269 3.2168 13.2489 2.80318C13.271 2.38955 12.9535 2.03638 12.5399 2.01435L12.5 2.76328L12.4601 3.51222ZM21.9857 11.4601C21.9636 11.0465 21.6105 10.729 21.1968 10.7511C20.7832 10.7731 20.4657 11.1263 20.4878 11.5399L21.2367 11.5L21.9857 11.4601ZM17.75 2L17.0332 2.22056L18.0332 5.47056L18.75 5.25L19.4668 5.02944L18.4668 1.77944L17.75 2ZM18.75 5.25L18.5294 5.96683L21.7794 6.96683L22 6.25L22.2206 5.53317L18.9706 4.53317L18.75 5.25ZM22 6.25L21.4846 5.70515L17.7846 9.20515L18.3 9.75L18.8154 10.2949L22.5154 6.79485L22 6.25ZM18.3 9.75V9H14.25V9.75V10.5H18.3V9.75ZM14.25 9.75H15V5.7H14.25H13.5V9.75H14.25ZM14.25 5.7L14.7949 6.2154L18.2949 2.5154L17.75 2L17.2051 1.4846L13.7051 5.1846L14.25 5.7ZM14.25 9.75L13.7197 9.21967L11.4697 11.4697L12 12L12.5303 12.5303L14.7803 10.2803L14.25 9.75ZM12.013 17.25V16.5C9.52054 16.5 7.5 14.4795 7.5 11.987H6.75H6C6 15.3079 8.69211 18 12.013 18V17.25ZM6.75 11.987H7.5C7.5 9.79253 9.06706 7.96241 11.1435 7.55755L11 6.82141L10.8565 6.08528C8.08896 6.62487 6 9.06117 6 11.987H6.75ZM17.1786 13.0001L16.4425 12.8566C16.0376 14.933 14.2075 16.5 12.013 16.5V17.25V18C14.9388 18 17.3751 15.9111 17.9147 13.1437L17.1786 13.0001ZM21.25 12H20.5C20.5 16.6944 16.6944 20.5 12 20.5V21.25V22C17.5228 22 22 17.5228 22 12H21.25ZM12 21.25V20.5C7.30558 20.5 3.5 16.6944 3.5 12H2.75H2C2 17.5228 6.47715 22 12 22V21.25ZM2.75 12H3.5C3.5 7.30558 7.30558 3.5 12 3.5V2.75V2C6.47715 2 2 6.47715 2 12H2.75ZM12 2.75V3.5C12.1544 3.5 12.3078 3.50411 12.4601 3.51222L12.5 2.76328L12.5399 2.01435C12.3611 2.00482 12.1811 2 12 2V2.75ZM21.2367 11.5L20.4878 11.5399C20.4959 11.6922 20.5 11.8456 20.5 12H21.25H22C22 11.8189 21.9952 11.6389 21.9857 11.4601L21.2367 11.5Z" fill="currentColor"/></svg>