<svg xmlns="http://www.w3.org/2000/svg" fill="none" width="24" height="24" viewBox="0 0 24 24"><path d="M6 4.9597C7.98887 6.65632 9.25 9.18088 9.25 12C9.25 14.8191 7.98887 17.3437 6 19.0403M6 4.9597C4.01113 6.65632 2.75 9.18088 2.75 12C2.75 14.8191 4.01113 17.3437 6 19.0403M6 4.9597C7.61524 3.58181 9.71048 2.75 12 2.75C14.2895 2.75 16.3848 3.58181 18 4.9597M6 19.0403C7.61524 20.4182 9.71048 21.25 12 21.25C14.2895 21.25 16.3848 20.4182 18 19.0403M18 4.9597C16.0111 6.65632 14.75 9.18088 14.75 12C14.75 14.8191 16.0111 17.3437 18 19.0403M18 4.9597C19.9889 6.65632 21.25 9.18088 21.25 12C21.25 14.8191 19.9889 17.3437 18 19.0403" stroke="currentColor" stroke-width="1.5"/></svg>