<svg xmlns="http://www.w3.org/2000/svg" fill="none" width="24" height="24" viewBox="0 0 24 24"><path d="M1.75 7.75V7C1.33579 7 1 7.33579 1 7.75H1.75ZM6 7.75V8.5C6.1433 8.5 6.2836 8.45895 6.40429 8.3817L6 7.75ZM12.25 3.75H13C13 3.47592 12.8505 3.22366 12.6101 3.09208C12.3696 2.9605 12.0766 2.97055 11.8457 3.1183L12.25 3.75ZM12.25 20.25L11.8457 20.8817C12.0766 21.0294 12.3696 21.0395 12.6101 20.9079C12.8505 20.7763 13 20.5241 13 20.25H12.25ZM6 16.25L6.40429 15.6183C6.2836 15.5411 6.1433 15.5 6 15.5V16.25ZM1.75 16.25H1C1 16.6642 1.33579 17 1.75 17L1.75 16.25ZM22.0303 10.5303C22.3232 10.2374 22.3232 9.76256 22.0303 9.46967C21.7374 9.17678 21.2626 9.17678 20.9697 9.46967L22.0303 10.5303ZM16.727 13.7123C16.4341 14.0052 16.4341 14.4801 16.727 14.773C17.0199 15.0659 17.4948 15.0659 17.7877 14.773L16.727 13.7123ZM17.7877 9.46967C17.4948 9.17678 17.0199 9.17678 16.727 9.46967C16.4341 9.76256 16.4341 10.2374 16.727 10.5303L17.7877 9.46967ZM20.9697 14.773C21.2626 15.0659 21.7374 15.0659 22.0303 14.773C22.3232 14.4801 22.3232 14.0052 22.0303 13.7123L20.9697 14.773ZM1.75 8.5H6V7H1.75V8.5ZM6.40429 8.3817L12.6543 4.3817L11.8457 3.1183L5.59571 7.1183L6.40429 8.3817ZM11.5 3.75V20.25H13V3.75H11.5ZM12.6543 19.6183L6.40429 15.6183L5.59571 16.8817L11.8457 20.8817L12.6543 19.6183ZM6 15.5H1.75V17H6V15.5ZM2.5 16.25V7.75H1V16.25H2.5ZM20.9697 9.46967L18.8483 11.591L19.909 12.6517L22.0303 10.5303L20.9697 9.46967ZM18.8483 11.591L16.727 13.7123L17.7877 14.773L19.909 12.6517L18.8483 11.591ZM16.727 10.5303L18.8483 12.6517L19.909 11.591L17.7877 9.46967L16.727 10.5303ZM18.8483 12.6517L20.9697 14.773L22.0303 13.7123L19.909 11.591L18.8483 12.6517Z" fill="currentColor"/></svg>