<svg xmlns="http://www.w3.org/2000/svg" viewBox="0 0 557.25 546.76"><path d="M771.9 390.76c-105.46 0-197.42 58.9-244.72 145.53a354.65 354.65 0 0 0-61.42-152.19 356.74 356.74 0 0 0-167.53-129l-14.55-5.41-8.19 13.18a278.48 278.48 0 0 0 207.88 423.88c-8.3 40.84-20.32 96.37-20.32 96.37a10.67 10.67 0 0 0 10.33 13.36h33.85a10.67 10.67 0 0 0 10.52-8.88s4.74-64.41 7.54-99.53c147.61-6.83 265.6-129.07 265.6-278.32v-19Zm-500.28 19a240.15 240.15 0 0 1 28.21-113.07c116.35 50.07 193.44 166.14 193.44 293.74a322.16 322.16 0 0 1-5.39 58.69 240.62 240.62 0 0 1-216.26-239.37Zm260.44 239.83c9.57-116.93 103.1-210.47 220-220-9.52 116.9-103.06 210.41-220 220Z" transform="translate(-233.64 -249.73)" style="fill:#379d00"/><path d="M752.1 429.55c-116.93 9.57-210.47 103.11-220 220 116.9-9.55 210.44-103.06 220-220ZM299.83 296.68a240.62 240.62 0 0 0 188.05 352.43 322.16 322.16 0 0 0 5.39-58.69c0-127.6-77.09-243.67-193.44-293.74Z" transform="translate(-233.64 -249.73)" style="fill:#60cd18"/></svg>
