<svg width="24" height="24" viewBox="0 0 24 24" fill="none" xmlns="http://www.w3.org/2000/svg">
<path d="M20.25 7.75H21C21 7.33579 20.6642 7 20.25 7V7.75ZM3.75 7.75V7C3.33579 7 3 7.33579 3 7.75H3.75ZM4.29601 20.141L4.6365 19.4728L4.6365 19.4728L4.29601 20.141ZM3.85899 19.704L3.19074 20.0445L3.19074 20.0445L3.85899 19.704ZM20.141 19.704L19.4728 19.3635L20.141 19.704ZM19.704 20.141L19.3635 19.4728V19.4728L19.704 20.141ZM2.75 3.75V3C2.33579 3 2 3.33579 2 3.75H2.75ZM21.25 3.75H22C22 3.33579 21.6642 3 21.25 3V3.75ZM21.25 7.75V8.5C21.6642 8.5 22 8.16421 22 7.75H21.25ZM2.75 7.75H2C2 8.16421 2.33579 8.5 2.75 8.5V7.75ZM10 11C9.58579 11 9.25 11.3358 9.25 11.75C9.25 12.1642 9.58579 12.5 10 12.5V11ZM14 12.5C14.4142 12.5 14.75 12.1642 14.75 11.75C14.75 11.3358 14.4142 11 14 11V12.5ZM19.5 7.75V18.65H21V7.75H19.5ZM18.65 19.5H5.35V21H18.65V19.5ZM4.5 18.65V7.75H3V18.65H4.5ZM3.75 8.5H20.25V7H3.75V8.5ZM5.35 19.5C5.0576 19.5 4.8834 19.4994 4.75428 19.4889C4.6339 19.479 4.62011 19.4644 4.6365 19.4728L3.95552 20.8093C4.18582 20.9266 4.419 20.9665 4.63213 20.9839C4.83651 21.0006 5.08235 21 5.35 21V19.5ZM3 18.65C3 18.9177 2.99942 19.1635 3.01612 19.3679C3.03353 19.581 3.07339 19.8142 3.19074 20.0445L4.52725 19.3635C4.5356 19.3799 4.52097 19.3661 4.51113 19.2457C4.50058 19.1166 4.5 18.9424 4.5 18.65H3ZM4.6365 19.4728C4.58946 19.4488 4.55122 19.4105 4.52725 19.3635L3.19074 20.0445C3.35852 20.3738 3.62623 20.6415 3.95552 20.8093L4.6365 19.4728ZM19.5 18.65C19.5 18.9424 19.4994 19.1166 19.4889 19.2457C19.479 19.3661 19.4644 19.3799 19.4728 19.3635L20.8093 20.0445C20.9266 19.8142 20.9665 19.581 20.9839 19.3679C21.0006 19.1635 21 18.9177 21 18.65H19.5ZM18.65 21C18.9177 21 19.1635 21.0006 19.3679 20.9839C19.581 20.9665 19.8142 20.9266 20.0445 20.8093L19.3635 19.4728C19.3799 19.4644 19.3661 19.479 19.2457 19.4889C19.1166 19.4994 18.9424 19.5 18.65 19.5V21ZM19.4728 19.3635C19.4488 19.4105 19.4105 19.4488 19.3635 19.4728L20.0445 20.8093C20.3738 20.6415 20.6415 20.3738 20.8093 20.0445L19.4728 19.3635ZM2.75 4.5H21.25V3H2.75V4.5ZM20.5 3.75V7.75H22V3.75H20.5ZM21.25 7H2.75V8.5H21.25V7ZM3.5 7.75V3.75H2V7.75H3.5ZM10 12.5H14V11H10V12.5Z" fill="#353531"/>
</svg>
