<svg width="24" height="24" viewBox="0 0 24 24" fill="none" xmlns="http://www.w3.org/2000/svg">
<path d="M8.14236 3.89973C9.25672 3.16986 10.5856 2.75 12 2.75C15.458 2.75 18.4048 5.2596 18.9554 8.67345L20.1168 15.8742M18.25 18.25H4.67421C4.05839 18.25 3.58891 17.6987 3.68697 17.0908L5.04461 8.67345C5.19977 7.71144 5.54521 6.82123 6.03875 6.03875M18.25 18.25L6.03875 6.03875M18.25 18.25L21 21M3 3L6.03875 6.03875M16 18.25C15.3267 20.0159 13.7891 21.25 12 21.25C10.2109 21.25 8.67327 20.0159 8 18.25" stroke="currentColor" stroke-width="1.5" stroke-linecap="round" stroke-linejoin="round"/>
</svg>
