<svg width="24" height="24" viewBox="0 0 24 24" fill="none" xmlns="http://www.w3.org/2000/svg">
<path d="M17.25 14.25H20.2522C20.8045 14.25 21.2522 13.8023 21.2522 13.25V4.75C21.2522 4.19772 20.8045 3.75 20.2522 3.75H8.0022C7.44991 3.75 7.0022 4.19772 7.0022 4.75V7.75M16.2522 7.75H3.7522C3.19991 7.75 2.7522 8.19772 2.7522 8.75V17.25C2.7522 17.8023 3.19991 18.25 3.7522 18.25H6.0022V20.75L10.5022 18.25H16.2522C16.8045 18.25 17.2522 17.8023 17.2522 17.25V8.75C17.2522 8.19772 16.8045 7.75 16.2522 7.75Z" stroke="#353531" stroke-width="1.5" stroke-linecap="round" stroke-linejoin="round"/>
</svg>
