<svg width="24" height="24" viewBox="0 0 24 24" fill="none" xmlns="http://www.w3.org/2000/svg">
<path d="M2.75 4.75C2.75 4.19771 3.19772 3.75 3.75 3.75H20.25C20.8023 3.75 21.25 4.19772 21.25 4.75V17.25C21.25 17.8023 20.8023 18.25 20.25 18.25H15.3759C15.143 18.25 14.9173 18.3313 14.738 18.4799L12.6397 20.2183C12.2679 20.5263 11.7292 20.5248 11.3593 20.2147L9.29422 18.4836C9.11418 18.3327 8.88675 18.25 8.65182 18.25H3.75C3.19772 18.25 2.75 17.8023 2.75 17.25V4.75Z" stroke="#353531" stroke-width="1.5" stroke-linejoin="round"/>
<path d="M6.625 11C6.625 11.4832 7.01675 11.875 7.5 11.875C7.98325 11.875 8.375 11.4832 8.375 11C8.375 10.5168 7.98325 10.125 7.5 10.125C7.01675 10.125 6.625 10.5168 6.625 11ZM11.125 11C11.125 11.4832 11.5168 11.875 12 11.875C12.4832 11.875 12.875 11.4832 12.875 11C12.875 10.5168 12.4832 10.125 12 10.125C11.5168 10.125 11.125 10.5168 11.125 11ZM15.625 11C15.625 11.4832 16.0168 11.875 16.5 11.875C16.9832 11.875 17.375 11.4832 17.375 11C17.375 10.5168 16.9832 10.125 16.5 10.125C16.0168 10.125 15.625 10.5168 15.625 11Z" fill="#353531" stroke="#353531" stroke-width="0.75" stroke-linecap="square"/>
</svg>
