<svg width="24" height="24" viewBox="0 0 24 24" fill="none" xmlns="http://www.w3.org/2000/svg">
<path d="M9.75 9.25V8.75C9.75 8.19772 10.1977 7.75 10.75 7.75H13.25C13.8023 7.75 14.25 8.19772 14.25 8.75V9.96482C14.25 10.2992 14.0829 10.6114 13.8047 10.7969L12.4453 11.7031C12.1671 11.8886 12 12.2008 12 12.5352V13.25M12 16V15.99M21.25 12C21.25 17.1086 17.1086 21.25 12 21.25C6.89137 21.25 2.75 17.1086 2.75 12C2.75 6.89137 6.89137 2.75 12 2.75C17.1086 2.75 21.25 6.89137 21.25 12ZM12.25 16C12.25 16.1381 12.1381 16.25 12 16.25C11.8619 16.25 11.75 16.1381 11.75 16C11.75 15.8619 11.8619 15.75 12 15.75C12.1381 15.75 12.25 15.8619 12.25 16Z" stroke="#353531" stroke-width="1.5" stroke-linecap="round" stroke-linejoin="round"/>
</svg>
