<svg width="24" height="24" viewBox="0 0 24 24" fill="none" xmlns="http://www.w3.org/2000/svg">
<path d="M8.75 4V7.25C8.75 7.80228 9.19772 8.25 9.75 8.25H14.25C14.8023 8.25 15.25 7.80228 15.25 7.25V4M20.25 7.16421V19.25C20.25 19.8023 19.8023 20.25 19.25 20.25H4.75C4.19772 20.25 3.75 19.8023 3.75 19.25V4.75C3.75 4.19772 4.19772 3.75 4.75 3.75H16.8358C17.101 3.75 17.3554 3.85536 17.5429 4.04289L19.9571 6.45711C20.1446 6.64464 20.25 6.899 20.25 7.16421ZM15.25 14.25C15.25 16.0449 13.7949 17.5 12 17.5C10.2051 17.5 8.75 16.0449 8.75 14.25C8.75 12.4551 10.2051 11 12 11C13.7949 11 15.25 12.4551 15.25 14.25Z" stroke="currentColor" stroke-width="1.5" stroke-linecap="round" stroke-linejoin="round"/>
</svg>
