<svg width="24" height="24" viewBox="0 0 24 24" fill="none" xmlns="http://www.w3.org/2000/svg">
<path d="M14.425 13.1804C17.7869 11.7841 22.023 13.7851 22.8791 19.1833C22.97 19.7561 22.507 20.25 21.9271 20.25H16.75M10.75 7C10.75 8.79493 9.29488 10.25 7.49995 10.25C5.70502 10.25 4.24995 8.79493 4.24995 7C4.24995 5.20507 5.70502 3.75 7.49995 3.75C9.29488 3.75 10.75 5.20507 10.75 7ZM19.75 7C19.75 8.79493 18.2949 10.25 16.5 10.25C14.705 10.25 13.25 8.79493 13.25 7C13.25 5.20507 14.705 3.75 16.5 3.75C18.2949 3.75 19.75 5.20507 19.75 7ZM12.7841 20.25H2.07292C1.49295 20.25 1.03034 19.7532 1.12133 19.1804C2.48334 10.6065 12.3737 10.6065 13.7357 19.1804C13.8267 19.7532 13.3641 20.25 12.7841 20.25Z" stroke="#353531" stroke-width="1.5" stroke-linecap="round" stroke-linejoin="round"/>
</svg>
