<svg width="24" height="24" viewBox="0 0 24 24" fill="none" xmlns="http://www.w3.org/2000/svg">
<path d="M19.25 7.44039L12.9314 2.9168C12.5963 2.67692 12.4288 2.55697 12.246 2.51058C12.0845 2.46962 11.9154 2.46962 11.754 2.51058C11.5712 2.55697 11.4037 2.67692 11.0686 2.9168L4.74997 7.44041M19.25 7.44039L21.5 9.0512M19.25 7.44039V18.65C19.25 19.2101 19.25 19.4901 19.141 19.704C19.0451 19.8922 18.8921 20.0451 18.704 20.141C18.4901 20.25 18.21 20.25 17.65 20.25H6.34997C5.78992 20.25 5.50989 20.25 5.29598 20.141C5.10782 20.0451 4.95484 19.8922 4.85897 19.704C4.74997 19.4901 4.74997 19.2101 4.74997 18.65V7.44041M4.74997 7.44041L2.5 9.0512" stroke="currentColor" stroke-width="1.5" stroke-linecap="round" stroke-linejoin="round"/>
</svg>
