<svg width="24" height="24" viewBox="0 0 24 24" fill="none" xmlns="http://www.w3.org/2000/svg">
<path d="M12.647 2.54895L13.1322 1.97707L12.647 2.54895ZM19.897 8.70047L19.4117 9.27235L19.897 8.70047ZM4.10302 8.70047L4.58826 9.27235L4.10302 8.70047ZM19.5 9.46298V19.25H21V9.46298H19.5ZM4.5 19.25V9.46297H3V19.25H4.5ZM4.58826 9.27235L11.8383 3.12083L10.8678 1.97707L3.61779 8.12858L4.58826 9.27235ZM12.1617 3.12083L19.4117 9.27235L20.3822 8.12858L13.1322 1.97707L12.1617 3.12083ZM10.75 15.5H13.25V14H10.75V15.5ZM13.5 15.75V19.25H15V15.75H13.5ZM10.5 19.25V15.75H9V19.25H10.5ZM8.75 19.5H4.75V21H8.75V19.5ZM15.25 21H19.25V19.5H15.25V21ZM9 19.25C9 19.3881 8.88807 19.5 8.75 19.5V21C9.7165 21 10.5 20.2165 10.5 19.25H9ZM13.5 19.25C13.5 20.2165 14.2835 21 15.25 21V19.5C15.1119 19.5 15 19.3881 15 19.25H13.5ZM13.25 15.5C13.3881 15.5 13.5 15.6119 13.5 15.75H15C15 14.7835 14.2165 14 13.25 14V15.5ZM10.75 14C9.7835 14 9 14.7835 9 15.75H10.5C10.5 15.6119 10.6119 15.5 10.75 15.5V14ZM11.8383 3.12083C11.9316 3.04167 12.0684 3.04167 12.1617 3.12083L13.1322 1.97707C12.4791 1.42292 11.5209 1.42292 10.8678 1.97707L11.8383 3.12083ZM3 19.25C3 20.2165 3.7835 21 4.75 21V19.5C4.61193 19.5 4.5 19.3881 4.5 19.25H3ZM19.5 19.25C19.5 19.3881 19.3881 19.5 19.25 19.5V21C20.2165 21 21 20.2165 21 19.25H19.5ZM21 9.46298C21 8.94904 20.7741 8.46109 20.3822 8.12858L19.4117 9.27235C19.4677 9.31985 19.5 9.38955 19.5 9.46298H21ZM4.5 9.46297C4.5 9.38956 4.53227 9.31985 4.58826 9.27235L3.61779 8.12858C3.22591 8.46109 3 8.94904 3 9.46297H4.5Z" fill="currentColor"/>
</svg>
