<svg width="24" height="24" viewBox="0 0 24 24" fill="none" xmlns="http://www.w3.org/2000/svg">
<path d="M12.0001 2.75V20.25M12.0001 20.25H6.75011M12.0001 20.25H17.2501M2.75011 5.75H7.76404C7.91928 5.75 8.0724 5.71386 8.21125 5.64443L9.78896 4.85557C9.92782 4.78614 10.0809 4.75 10.2362 4.75H13.764C13.9193 4.75 14.0724 4.78614 14.2113 4.85557L15.789 5.64443C15.9278 5.71386 16.0809 5.75 16.2362 5.75H21.2501M5.50011 5.75L2.74392 14.4779C2.60176 14.9281 2.79103 15.4242 3.22255 15.6157C4.7754 16.3048 6.22481 16.3048 7.77766 15.6157C8.20918 15.4242 8.39846 14.9281 8.25629 14.4779L5.50011 5.75ZM18.5001 5.75L15.7439 14.4779C15.6018 14.9281 15.791 15.4242 16.2225 15.6157C17.7754 16.3048 19.2248 16.3048 20.7777 15.6157C21.2092 15.4242 21.3985 14.9281 21.2563 14.4779L18.5001 5.75Z" stroke="currentColor" stroke-width="1.5" stroke-linecap="round" stroke-linejoin="round"/>
</svg>
