<svg width="24" height="24" viewBox="0 0 24 24" fill="none" xmlns="http://www.w3.org/2000/svg">
<path d="M19.9999 16L17.9999 18M17.9999 18L15.9999 20M17.9999 18L15.9999 16M17.9999 18L19.9999 20M11.8523 13.2513C8.13256 13.3158 5.42393 15.8176 4.6715 19.1657C4.54229 19.7406 5.00728 20.25 5.59653 20.25H12.2499M11.8523 13.2513C11.9013 13.2504 11.9505 13.25 11.9999 13.25C12.52 13.25 13.0209 13.2974 13.4999 13.3879M11.8523 13.2513C11.2022 13.2626 10.5834 13.3483 10 13.5M15.7499 6.5C15.7499 8.57107 14.071 10.25 11.9999 10.25C9.92888 10.25 8.24995 8.57107 8.24995 6.5C8.24995 4.42893 9.92888 2.75 11.9999 2.75C14.071 2.75 15.7499 4.42893 15.7499 6.5Z" stroke="#353531" stroke-width="1.5" stroke-linecap="round" stroke-linejoin="round"/>
</svg>
