<svg width="24" height="24" viewBox="0 0 24 24" fill="none" xmlns="http://www.w3.org/2000/svg">
<path d="M4.29601 20.141L4.6365 19.4728L4.6365 19.4728L4.29601 20.141ZM3.85899 19.704L3.19074 20.0445L3.19074 20.0445L3.85899 19.704ZM20.141 19.704L19.4728 19.3635H19.4728L20.141 19.704ZM19.704 20.141L19.3635 19.4728V19.4728L19.704 20.141ZM20.141 4.29601L19.4728 4.6365L19.4728 4.6365L20.141 4.29601ZM19.704 3.85899L20.0445 3.19074L20.0445 3.19074L19.704 3.85899ZM3.85899 4.29601L3.19074 3.95552L3.19074 3.95552L3.85899 4.29601ZM4.29601 3.85899L3.95552 3.19074L3.95552 3.19074L4.29601 3.85899ZM15.5303 9.53033C15.8232 9.23744 15.8232 8.76256 15.5303 8.46967C15.2374 8.17678 14.7626 8.17678 14.4697 8.46967L15.5303 9.53033ZM8.46967 14.4697C8.17678 14.7626 8.17678 15.2374 8.46967 15.5303C8.76256 15.8232 9.23744 15.8232 9.53033 15.5303L8.46967 14.4697ZM14.4697 15.5303C14.7626 15.8232 15.2374 15.8232 15.5303 15.5303C15.8232 15.2374 15.8232 14.7626 15.5303 14.4697L14.4697 15.5303ZM9.53033 8.46967C9.23744 8.17678 8.76256 8.17678 8.46967 8.46967C8.17678 8.76256 8.17678 9.23744 8.46967 9.53033L9.53033 8.46967ZM19.5 5.35V18.65H21V5.35H19.5ZM18.65 19.5H5.35V21H18.65V19.5ZM4.5 18.65V5.35H3V18.65H4.5ZM5.35 4.5H18.65V3H5.35V4.5ZM5.35 19.5C5.0576 19.5 4.8834 19.4994 4.75428 19.4889C4.6339 19.479 4.62011 19.4644 4.6365 19.4728L3.95552 20.8093C4.18582 20.9266 4.419 20.9665 4.63213 20.9839C4.83651 21.0006 5.08235 21 5.35 21V19.5ZM3 18.65C3 18.9177 2.99942 19.1635 3.01612 19.3679C3.03353 19.581 3.07339 19.8142 3.19074 20.0445L4.52725 19.3635C4.5356 19.3799 4.52097 19.3661 4.51113 19.2457C4.50058 19.1166 4.5 18.9424 4.5 18.65H3ZM4.6365 19.4728C4.58946 19.4488 4.55122 19.4105 4.52725 19.3635L3.19074 20.0445C3.35852 20.3738 3.62623 20.6415 3.95552 20.8093L4.6365 19.4728ZM19.5 18.65C19.5 18.9424 19.4994 19.1166 19.4889 19.2457C19.479 19.3661 19.4644 19.3799 19.4728 19.3635L20.8093 20.0445C20.9266 19.8142 20.9665 19.581 20.9839 19.3679C21.0006 19.1635 21 18.9177 21 18.65H19.5ZM18.65 21C18.9177 21 19.1635 21.0006 19.3679 20.9839C19.581 20.9665 19.8142 20.9266 20.0445 20.8093L19.3635 19.4728C19.3799 19.4644 19.3661 19.479 19.2457 19.4889C19.1166 19.4994 18.9424 19.5 18.65 19.5V21ZM19.4728 19.3635C19.4488 19.4105 19.4105 19.4488 19.3635 19.4728L20.0445 20.8093C20.3738 20.6415 20.6415 20.3738 20.8093 20.0445L19.4728 19.3635ZM21 5.35C21 5.08235 21.0006 4.83651 20.9839 4.63213C20.9665 4.419 20.9266 4.18582 20.8093 3.95552L19.4728 4.6365C19.4644 4.62011 19.479 4.6339 19.4889 4.75428C19.4994 4.8834 19.5 5.0576 19.5 5.35H21ZM18.65 4.5C18.9424 4.5 19.1166 4.50058 19.2457 4.51113C19.3661 4.52097 19.3799 4.5356 19.3635 4.52725L20.0445 3.19074C19.8142 3.07339 19.581 3.03353 19.3679 3.01612C19.1635 2.99942 18.9177 3 18.65 3V4.5ZM20.8093 3.95552C20.6415 3.62623 20.3738 3.35852 20.0445 3.19074L19.3635 4.52725C19.4105 4.55122 19.4488 4.58946 19.4728 4.6365L20.8093 3.95552ZM4.5 5.35C4.5 5.0576 4.50058 4.8834 4.51113 4.75428C4.52097 4.6339 4.5356 4.62011 4.52725 4.6365L3.19074 3.95552C3.07339 4.18582 3.03353 4.419 3.01612 4.63213C2.99942 4.83651 3 5.08235 3 5.35H4.5ZM5.35 3C5.08235 3 4.83651 2.99942 4.63213 3.01612C4.419 3.03353 4.18582 3.07339 3.95552 3.19074L4.6365 4.52725C4.62011 4.5356 4.6339 4.52097 4.75428 4.51113C4.8834 4.50058 5.0576 4.5 5.35 4.5V3ZM4.52725 4.6365C4.55122 4.58946 4.58946 4.55122 4.6365 4.52725L3.95552 3.19074C3.62623 3.35852 3.35852 3.62623 3.19074 3.95552L4.52725 4.6365ZM14.4697 8.46967L8.46967 14.4697L9.53033 15.5303L15.5303 9.53033L14.4697 8.46967ZM15.5303 14.4697L9.53033 8.46967L8.46967 9.53033L14.4697 15.5303L15.5303 14.4697Z" fill="currentColor"/>
</svg>
